<?xml version="1.0" encoding="UTF-8"?>
<svg width="83px" height="103px" viewBox="0 0 83 103" version="1.1" xmlns="http://www.w3.org/2000/svg" xmlns:xlink="http://www.w3.org/1999/xlink">
    <!-- Generator: Sketch 52.5 (67469) - http://www.bohemiancoding.com/sketch -->
    <title>Client-PO</title>
    <desc>Created with Sketch.</desc>
    <g id="Page-1" stroke="none" stroke-width="1" fill="none" fill-rule="evenodd">
        <g id="Client-PO" transform="translate(0.896484, 1.107422)" stroke="#666666" stroke-width="2.54957507">
            <g id="Icon-client-pO" transform="translate(0.313211, 0.169668)">
                <path d="M51.3404619,74.7967187 L68.1089885,74.7967187 C74.8494243,74.7967187 80.3101351,79.7109513 80.3101351,85.773824 L80.3101351,100.850926" id="Stroke-20"></path>
                <path d="M30.1210496,74.7967187 L12.352523,74.7967187 C5.61208718,74.7967187 0.151376446,79.7109513 0.151376446,85.773824 L0.151376446,100.850926" id="Stroke-22"></path>
                <path d="M30.8360463,76.9594174 L30.8368719,67.0160041" id="Stroke-24"></path>
                <path d="M51.3429388,67.0163398 L51.3404619,76.959753" id="Stroke-26"></path>
                <polygon id="Stroke-28" points="29.0775389 91.3307581 41.0475093 83.2911171 30.0220586 76.8221511"></polygon>
                <polygon id="Stroke-30" points="53.0812183 91.3328557 41.1112479 83.2915366 52.135873 76.8217316"></polygon>
                <path d="M65.7293604,30.8800749 L66.1256624,30.8800749 C68.7387784,30.8800749 70.8581682,33.0338798 70.8581682,35.6902671 L70.8581682,44.5085333 C70.8581682,47.1674377 68.7387784,49.3212426 66.1256624,49.3212426 L65.7293604,49.3212426" id="Stroke-32"></path>
                <path d="M65.303666,25.8286599 L65.303666,45.3194614 C65.303666,58.7767565 54.5696624,69.6833828 41.3298745,69.6833828 C28.0876097,69.6833828 17.353606,58.7767565 17.353606,45.3194614 L17.353606,25.8286599" id="Stroke-34"></path>
                <path d="M34.5466554,52.1911474 C34.5209639,52.4150541 34.5053656,52.643549 34.5053656,52.8729616 C34.5053656,56.2627617 37.2506803,59.0074537 40.6391988,59.0074537 L41.4567374,59.0074537 C44.8434208,59.0074537 47.5896531,56.2627617 47.5896531,52.8729616 C47.5896531,52.643549 47.5758898,52.4150541 47.552951,52.1911474 L34.5466554,52.1911474 Z" id="Stroke-185"></path>
                <path d="M32.7678532,0.143844378 C28.8873966,0.143844378 25.4775485,2.1717939 23.4943874,5.24098684 L19.6865861,5.24098684 C14.9408701,5.24098684 11.092613,9.15089365 11.092613,13.9753495 L11.092613,55.9808376 L17.140346,55.9808376 L17.140346,26.7823919 C17.140346,23.385975 19.8508863,20.6330985 23.1897303,20.6330985 L26.7192946,20.6330985 L56.458454,20.6330985 L62.0042046,20.6330985 C68.1287211,20.6330985 73.09488,15.5879763 73.09488,9.36484777 L73.09488,0.143844378 L32.7678532,0.143844378 Z" id="Stroke-36"></path>
                <path d="M17.3534409,30.9299136 C14.9731522,31.1807853 11.0926956,33.2028616 11.0926956,35.6897637 L11.0926956,44.5088689 C11.0926956,46.9966101 14.9731522,49.0186863 17.3534409,49.269558 L17.3534409,30.9299136 Z" id="Stroke-38"></path>
                <path d="M17.9009155,30.9967009 L17.9009155,34.9049296 C17.9009155,40.4752882 22.3452769,44.9893008 27.8249771,44.9893008 C33.3038516,44.9893008 37.7465617,40.4752882 37.7465617,34.9049296 L37.7465617,30.9967009 L17.9009155,30.9967009 Z" id="Stroke-42"></path>
                <path d="M45.4409293,30.9967009 L45.4409293,34.9049296 C45.4409293,40.4752882 49.884465,44.9893008 55.3633396,44.9893008 C60.8430398,44.9893008 65.2849243,40.4752882 65.2849243,34.9049296 L65.2849243,30.9967009 L45.4409293,30.9967009 Z" id="Stroke-44"></path>
                <path d="M32.0156226,36.4532862 L27.6472191,36.4532862" id="Stroke-46"></path>
                <path d="M56.2112607,36.4532862 L51.841206,36.4532862" id="Stroke-48"></path>
                <path d="M37.7280676,30.9967009 L46.8017312,30.9967009" id="Stroke-50"></path>
            </g>
        </g>
    </g>
</svg>