<?xml version="1.0" encoding="UTF-8"?>
<svg width="68px" height="86px" viewBox="0 0 68 86" version="1.1" xmlns="http://www.w3.org/2000/svg" xmlns:xlink="http://www.w3.org/1999/xlink">
    <!-- Generator: Sketch 52.5 (67469) - http://www.bohemiancoding.com/sketch -->
    <title>EM</title>
    <desc>Created with Sketch.</desc>
    <g id="Page-1" stroke="none" stroke-width="1" fill="none" fill-rule="evenodd">
        <g id="EM" transform="translate(1.550781, 2.107422)" stroke="#666666" stroke-width="2.54957507">
            <g id="Icon-EM">
                <path d="M52.0294618,28.1131335 L52.0294618,56.5286502 C52.0294618,60.7237891 50.3805241,64.5332634 47.6926346,67.343197" id="Stroke-52"></path>
                <path d="M17.8286969,66.6135577 C15.5308924,63.890319 14.1458357,60.3715275 14.1458357,56.5282677 L14.1458357,28.1133885" id="Stroke-54"></path>
                <path d="M24.4105524,65.4086266 C13.6507082,67.6327323 4.79348442,74.1361221 0.32407932,82.7405873" id="Stroke-56"></path>
                <path d="M64.9018201,82.7406511 C60.4394263,74.1495725 51.6019618,67.6525574 40.8644263,65.4182523" id="Stroke-58"></path>
                <path d="M51.0254391,34.5891124 C54.7255099,34.5891124 57.7257224,37.5902846 57.7257224,41.2913903 C57.7257224,44.9931335 54.7255099,47.9923934 51.0254391,47.9923934" id="Stroke-60"></path>
                <path d="M15.1515156,47.9926483 C11.45017,47.9926483 8.44932011,44.9933885 8.44932011,41.2910079 C8.44932011,37.5899021 11.45017,34.5893674 15.1515156,34.5893674" id="Stroke-62"></path>
                <path d="M39.6133499,59.0414625 L39.6133499,65.7947375 C39.6133499,69.6609459 36.4786473,72.7953477 32.6128541,72.7953477 C28.7464235,72.7953477 25.6123584,69.6609459 25.6123584,65.7947375 L25.6123584,59.0414625" id="Stroke-64"></path>
                <path d="M52.0294618,44.1745045 C52.0294618,52.8172175 45.0245042,59.823565 36.3814448,59.823565 L29.7933428,59.823565 C21.1515581,59.823565 14.1459632,52.8172175 14.1459632,44.1745045 L14.1459632,15.7596254 C14.1459632,7.11627492 21.1515581,0.109927492 29.7933428,0.109927492 L36.3814448,0.109927492 C45.0245042,0.109927492 52.0294618,7.11627492 52.0294618,15.7596254 L52.0294618,44.1745045 Z" id="Stroke-66"></path>
                <path d="M36.3815722,0.109608761 L29.7934703,0.109608761 C21.1510482,0.109608761 14.1454533,7.11659366 14.1454533,15.7593066 L14.1454533,34.4975091 C21.9605382,33.7886511 29.3957365,26.4967205 33.0875212,16.0595514 C36.7786686,26.4967205 44.2151416,33.7886511 52.0295892,34.498784 L52.0295892,15.7593066 C52.0295892,7.11659366 45.0246317,0.109608761 36.3815722,0.109608761 Z" id="Stroke-68"></path>
                <path d="M19.5603683,37.5934082 C19.5603683,35.9984776 21.712847,34.7037918 24.3701416,34.7037918 C27.028711,34.7037918 29.1818272,35.9984776 29.1818272,37.5934082" id="Stroke-70"></path>
                <path d="M35.206983,37.5934082 C35.206983,35.9984776 37.3607365,34.7037918 40.0180312,34.7037918 C42.6753258,34.7037918 44.8290793,35.9984776 44.8290793,37.5934082" id="Stroke-72"></path>
                <path d="M26.3725142,44.5863051 L26.3725142,47.4689094 C26.3725142,49.7440121 28.2164943,51.5869154 30.4907153,51.5869154 L33.3730099,51.5869154 C35.6478683,51.5869154 37.4905737,49.7440121 37.4905737,47.4689094 L37.4905737,44.5863051 L26.3725142,44.5863051 Z" id="Stroke-74"></path>
            </g>
        </g>
    </g>
</svg>