<?xml version="1.0" encoding="UTF-8"?>
<svg width="59px" height="84px" viewBox="0 0 59 84" version="1.1" xmlns="http://www.w3.org/2000/svg" xmlns:xlink="http://www.w3.org/1999/xlink">
    <!-- Generator: Sketch 52.5 (67469) - http://www.bohemiancoding.com/sketch -->
    <title>Sr-Dev</title>
    <desc>Created with Sketch.</desc>
    <g id="Page-1" stroke="none" stroke-width="1" fill="none" fill-rule="evenodd">
        <g id="Sr-Dev" transform="translate(1.316406, 1.123047)" stroke="#666666" stroke-width="2.54957507">
            <g id="Icon-sr-dev">
                <path d="M21.0545042,68.1670906 L9.35577904,68.1670906 C4.52815864,68.1670906 0.6151983,71.5507402 0.6151983,75.723568 L0.6151983,79.706432" id="Stroke-133"></path>
                <path d="M55.6262323,77.9776982 L55.6262323,75.7236317 C55.6262323,71.5508039 51.8056941,68.1671544 47.0921671,68.1671544 L34.9479037,68.1671544" id="Stroke-134"></path>
                <path d="M34.3576133,42.9107731 C32.5888456,42.9107731 31.1496105,41.4720208 31.1496105,39.7024257 L31.1496105,34.5765918 C31.1496105,32.8076341 32.5888456,31.3682444 34.3576133,31.3682444 L44.5151204,31.3682444 C46.2832507,31.3682444 47.724398,32.8076341 47.724398,34.5765918 L47.724398,39.7024257 C47.724398,41.4720208 46.2832507,42.9107731 44.5151204,42.9107731 L34.3576133,42.9107731 Z" id="Stroke-135"></path>
                <path d="M11.3684773,42.9107731 C9.60098442,42.9107731 8.1611119,41.4720208 8.1611119,39.7024257 L8.1611119,34.5765918 C8.1611119,32.8076341 9.60098442,31.3682444 11.3684773,31.3682444 L21.5259844,31.3682444 C23.2947521,31.3682444 24.735262,32.8076341 24.735262,34.5765918 L24.735262,39.7024257 C24.735262,41.4720208 23.2947521,42.9107731 21.5259844,42.9107731 L11.3684773,42.9107731 Z" id="Stroke-136"></path>
                <path d="M24.7350708,34.5767831 L31.1491643,34.5767831" id="Stroke-137"></path>
                <path d="M45.5580241,42.9247973 L45.5580241,51.9130148 C45.5580241,61.6426009 37.6702762,69.5305586 27.9430099,69.5305586 C18.2144688,69.5305586 10.3273584,61.6426009 10.3273584,51.9130148 L10.3273584,42.9247973" id="Stroke-138"></path>
                <path d="M16.4527125,13.4427426 L16.4527125,17.124087 C16.4527125,20.7499722 19.3917351,23.6893106 23.0165935,23.6893106 L47.8150354,23.6893106 C51.4405312,23.6893106 54.3789164,20.7499722 54.3789164,17.124087 L54.3789164,6.97122598 L34.7867068,6.97122598" id="Stroke-139"></path>
                <path d="M22.3840439,13.0804728 C22.3840439,15.6194849 22.563789,17.6784879 26.9815652,17.6784879 L45.9300071,17.6784879" id="Stroke-140"></path>
                <path d="M47.3911686,0.402432628 L24.9823159,0.402432628 C20.2840864,0.402432628 16.4743839,4.21126949 16.4743839,8.91000363" id="z"></path>
                <path d="M17.5308003,7.33056344 L16.4529674,7.33056344 C12.8778258,7.33056344 9.9808711,10.2278293 9.9808711,13.8027175 L9.9808711,27.8243369" id="Stroke-142"></path>
                <polyline id="Stroke-143" points="24.2401983 56.8272112 27.9552479 58.8007812 31.6702975 56.8272112"></polyline>
                <path d="M30.6521246,81.3950695 L27.955949,81.3950695 C24.3820822,81.3950695 21.4851275,78.4978036 21.4851275,74.9229154 L21.4851275,67.3728127" id="Stroke-144"></path>
            </g>
        </g>
    </g>
</svg>