<?xml version="1.0" encoding="UTF-8"?>
<svg width="65px" height="86px" viewBox="0 0 65 86" version="1.1" xmlns="http://www.w3.org/2000/svg" xmlns:xlink="http://www.w3.org/1999/xlink">
    <!-- Generator: Sketch 52.5 (67469) - http://www.bohemiancoding.com/sketch -->
    <title>Designers-Copy</title>
    <desc>Created with Sketch.</desc>
    <g id="Page-1" stroke="none" stroke-width="1" fill="none" fill-rule="evenodd">
        <g id="Designers-Copy" transform="translate(0.058594, 0.683594)" stroke="#666666" stroke-width="2.54957507">
            <g id="Icon-designers" transform="translate(0.846271, 0.000000)">
                <path d="M20.8126983,75.3495196 L11.6514377,75.3495196 C7.10873229,75.3495196 3.42714589,79.0327764 3.42714589,83.5740574" id="Stroke-125"></path>
                <path d="M62.5355382,83.5740574 C62.5355382,79.0327764 58.8533144,75.3495196 54.3112465,75.3495196 L44.9982861,75.3495196" id="Stroke-126"></path>
                <g id="Group">
                    <path d="M3.66470255,45.4186915 C3.66470255,55.1858879 11.5798584,63.1038063 21.3466431,63.1038063 C22.052238,63.1038063 22.7469972,63.0623713 23.4315581,62.9814136" id="Stroke-118"></path>
                    <path d="M7.98629603,33.5175266 C3.86745751,33.5175266 0.526876771,36.3618831 0.526876771,39.8704752 C0.526876771,43.3790674 3.86745751,46.2234239 7.98629603,46.2234239 C9.01504958,46.2234239 9.99599858,46.0455719 10.8889873,45.7242909" id="Stroke-119"></path>
                    <path d="M22.9658144,60.5084426 L22.9658144,69.692361" id="Stroke-120"></path>
                    <path d="M42.0377195,69.6924248 L42.0377195,60.5085063" id="Stroke-121"></path>
                    <path d="M8.92728045,31.77139 L8.92728045,36.9992178 C8.92728045,50.6613085 20.000085,61.7384897 33.6613456,61.7384897 C38.3328045,61.7384897 53.8558924,60.5081876 53.8558924,45.2779399" id="Stroke-122"></path>
                    <path d="M53.8557649,45.2776849 L53.8557649,40.0498571 C53.8557649,38.0992227 53.6301275,33.1831139 53.203711,31.3631592" id="Stroke-123"></path>
                    <path d="M33.83,53.3934079 C31.6265297,53.3934079 29.6850283,52.0464502 28.4982011,49.9855347" id="Stroke-124"></path>
                    <path d="M16.5021317,34.3816066 C19.0230241,36.9040447 23.1087181,36.9040447 25.6302479,34.3816066" id="Stroke-127"></path>
                    <path d="M37.3705949,34.3816066 C39.8914873,36.9040447 43.9771813,36.9040447 46.498711,34.3816066" id="Stroke-128"></path>
                    <path d="M32.4409915,0.738134743 L32.4409915,3.04256073 C30.4746317,18.6935335 18.4068555,31.1916181 2.97045326,33.8084006 L2.97045326,31.9393613 C2.97045326,15.2748236 16.0089802,1.6605426 32.4409915,0.738134743 Z" id="Stroke-129"></path>
                    <path d="M32.1957861,8.15621903 L34.1149788,8.15621903 C47.1464943,9.79449698 57.5532224,19.8440891 59.7324717,32.7004275 L58.1753187,32.7004275 C44.2998938,32.7004275 32.9638456,21.8412583 32.1957861,8.15621903 Z" id="Stroke-130"></path>
                    <path d="M20.7847167,81.1348719 C20.7847167,82.2829414 21.7165864,83.2155486 22.8658074,83.2155486 L42.2827337,83.2155486 C43.4313173,83.2155486 44.3625496,82.2829414 44.3625496,81.1348719 L44.3625496,71.773739 C44.3625496,70.6231196 43.4313173,69.6924248 42.2827337,69.6924248 L22.8658074,69.6924248 C21.7165864,69.6924248 20.7847167,70.6231196 20.7847167,71.773739 L20.7847167,81.1348719 Z" id="Stroke-131"></path>
                </g>
                <path d="M36.9497875,82.5213523 L36.9497875,74.5466997" id="Stroke-132"></path>
            </g>
        </g>
    </g>
</svg>