<?xml version="1.0" encoding="UTF-8"?>
<svg width="29px" height="30px" viewBox="0 0 29 30" version="1.1" xmlns="http://www.w3.org/2000/svg" xmlns:xlink="http://www.w3.org/1999/xlink">
    <!-- Generator: Sketch 52.5 (67469) - http://www.bohemiancoding.com/sketch -->
    <title>icon-rocket</title>
    <desc>Created with Sketch.</desc>
    <g id="Page-1" stroke="none" stroke-width="1" fill="none" fill-rule="evenodd">
        <g id="icon-rocket" transform="translate(-0.683594, -0.376953)">
            <path d="M11.7751981,9.335464 L13.2797026,9.49817197 L3.96365358,20.6039946 L3.34076405,20.0133313 C2.51760268,19.2327575 1.78120316,18.5448134 1.08151587,17.9046052 L0.735141635,17.5876756 L0.839113731,17.1298445 C1.25759293,15.2871118 2.18122919,13.5949355 3.54332258,12.2326959 C5.73380082,10.0429506 8.75445991,9.0087796 11.7751981,9.335464 Z M4.68550709,13.3750102 C3.65196817,14.4086601 2.91992335,15.6663392 2.52871663,17.0404136 C2.9440299,17.4231472 3.37403066,17.8240073 3.82840928,18.2516793 L9.97812973,10.9204916 C8.00824278,11.0829298 6.13227115,11.9287302 4.68550709,13.3750102 Z" id="Stroke-367" fill="#666666" fill-rule="nonzero"></path>
            <path d="M20.712954,16.6678306 L20.9341975,18.0812921 C21.430087,21.249389 20.4104194,24.4815937 18.1007958,26.7914653 C16.7380571,28.1543505 15.0462471,29.0779852 13.2035199,29.495926 L12.745869,29.5997239 L12.4290426,29.2535455 C11.676223,28.4309816 10.8883959,27.5878716 10.0653057,26.7232781 L9.47236556,26.1004398 L20.712954,16.6678306 Z M19.4394206,19.8453175 L11.8267915,26.2335022 C12.3290004,26.7657108 12.8178284,27.2899132 13.2933475,27.8063484 C14.6670786,27.4155381 15.9243347,26.6835388 16.9584851,25.6492773 C18.531374,24.0762194 19.39178,21.9956168 19.4394206,19.8453175 Z" id="Stroke-369" fill="#666666" fill-rule="nonzero"></path>
            <path d="M5.35360044,16.724508 L5.82916318,16.1575918 L14.3631561,5.98425772 C17.8560022,1.81900904 23.2648507,-0.07133639 28.5184382,0.888571055 L29.0674966,0.988892075 L29.1678059,1.53795261 C30.1274642,6.79080822 28.2370977,12.1999824 24.0728049,15.6945128 L13.3334708,24.7052355 L5.35360044,16.724508 Z M7.54232896,16.62885 L13.4291398,22.5162933 L23.0344537,14.457058 C26.6016128,11.4636215 28.297911,6.89639851 27.6687954,2.38755944 C23.1594393,1.75822068 18.5927633,3.45444176 15.6008477,7.02232661 L7.54232896,16.62885 Z" id="Stroke-371" fill="#666666" fill-rule="nonzero"></path>
            <path d="M1.64994726,27.2670322 L1.75144692,27.1655216 C1.71866069,27.1903281 1.68938567,27.2230075 1.64994726,27.2670322 Z M4.6858026,26.2004137 C5.25579111,25.9951261 5.75196644,25.7972206 6.15035554,25.6129326 C6.5779878,25.4151172 6.87225074,25.2400438 6.97568271,25.1366007 C7.54304148,24.569181 7.54304148,23.6494171 6.97568271,23.0819974 C6.40880868,22.5150625 5.48940736,22.5151534 4.92246068,23.0824551 C4.65818636,23.3467578 4.18114962,24.4056143 3.69546123,25.794553 C3.59839356,26.0721405 3.50326535,26.3556544 3.41394623,26.6317382 C3.84952009,26.4919493 4.27842265,26.3471361 4.6858026,26.2004137 Z M1.99095052,28.6132357 C1.46506255,28.2339783 1.46506255,28.2339783 1.42920934,28.0052656 C1.40793071,27.7962381 1.40793071,27.7962381 1.41672301,27.7413906 C1.42756561,27.6661688 1.42756561,27.6661688 1.43635749,27.625829 C1.44610003,27.5811215 1.4602547,27.5245038 1.47894228,27.4544195 C1.51489455,27.319587 1.56785562,27.1344019 1.63099596,26.923427 C1.78363808,26.413394 1.97300141,25.8264663 2.17061635,25.2613405 C2.74973602,23.6052134 3.26994722,22.4505245 3.78000187,21.9404151 C4.97762919,20.7420379 6.92015853,20.7418457 8.11799347,21.9398093 C9.31611738,23.1380619 9.31611738,25.0805362 8.11799347,26.2787888 C7.84383297,26.5529787 7.41757206,26.8065851 6.82855791,27.079053 C6.38159191,27.2858119 5.84397616,27.5002463 5.23318143,27.7202307 C4.62077897,27.9407942 3.9672815,28.1554525 3.31414075,28.3561972 C3.08580196,28.4263777 2.87366309,28.4898557 2.68301411,28.5455757 C2.56790161,28.579219 2.48498023,28.6029536 2.43956465,28.615713 L2.43134244,28.5864471 C2.33115299,28.5963747 2.19242231,28.6032504 1.99095052,28.6132357 Z" id="Stroke-373" fill="#74BE44" fill-rule="nonzero"></path>
            <path d="M24.5741312,5.4825281 C23.5426372,4.4509233 22.4316221,3.52984402 21.2620779,2.73072706 L19.8681558,1.77829886 L21.4844092,1.29058675 C23.7681481,0.601457793 26.1833555,0.46163319 28.5185596,0.888539123 L29.0676022,0.988911312 L29.167864,1.53797409 C29.5942811,3.87315975 29.4543376,6.28855652 28.7653705,8.57176377 L28.2777085,10.1878547 L27.3252661,8.79414829 C26.5258618,7.62438217 25.6052509,6.51375861 24.5741312,5.4825281 Z M25.7164419,4.34034004 C26.3910278,5.01499839 27.0216308,5.72177938 27.6056233,6.45579715 C27.8332301,5.11029151 27.8555324,3.73720165 27.6685545,2.38768574 C26.3190576,2.20046716 24.946029,2.2226729 23.6003801,2.45031422 C24.3345488,3.03447083 25.0415875,3.66541315 25.7164419,4.34034004 Z" id="Stroke-375" fill="#666666" fill-rule="nonzero"></path>
            <polygon id="Stroke-377" fill="#666666" points="7.60733013 14.7165184 8.74964089 13.5743303 16.4828943 21.3084144 15.3405836 22.4506025"></polygon>
        </g>
    </g>
</svg>