<?xml version="1.0" encoding="UTF-8"?>
<svg width="24px" height="21px" viewBox="0 0 24 21" version="1.1" xmlns="http://www.w3.org/2000/svg" xmlns:xlink="http://www.w3.org/1999/xlink">
    <!-- Generator: Sketch 52.5 (67469) - http://www.bohemiancoding.com/sketch -->
    <title>icon-aa-heart</title>
    <desc>Created with Sketch.</desc>
    <g id="Page-1" stroke="none" stroke-width="1" fill="none" fill-rule="evenodd">
        <g id="icon-aa-heart" transform="translate(-0.949219, -0.876953)" fill="#74BE44">
            <g id="heart" transform="translate(0.500000, 0.557036)">
                <polygon id="Fill-77" points="4.04199717 3.6853142 6.77896601 3.6853142 6.77896601 0.920003021 4.04199717 0.920003021"></polygon>
                <polygon id="Fill-79" points="4.0184136 14.1428822 6.77896601 14.1428822 6.77896601 11.3731088 4.0184136 11.3731088"></polygon>
                <polygon id="Fill-80" points="0.558002833 10.6591511 3.29497167 10.6591511 3.29497167 7.88746526 0.558002833 7.88746526"></polygon>
                <polygon id="Fill-81" points="4.02415014 10.6457644 6.76303116 10.6457644 6.76303116 7.88045317 4.02415014 7.88045317"></polygon>
                <polygon id="Fill-82" points="0.538243626 7.15310876 3.27839943 7.15310876 3.27839943 4.38970997 0.538243626 4.38970997"></polygon>
                <polygon id="Fill-83" points="4.02415014 7.16075831 6.78916431 7.16075831 6.78916431 4.40755891 4.02415014 4.40755891"></polygon>
                <polygon id="Fill-84" points="11.0291076 17.6253384 13.7342068 17.6253384 13.7342068 14.85429 11.0291076 14.85429"></polygon>
                <polygon id="Fill-85" points="7.5055949 3.67256495 10.2584986 3.67256495 10.2584986 0.934664653 7.5055949 0.934664653"></polygon>
                <polygon id="Fill-86" points="14.5124646 3.68467674 17.2328612 3.68467674 17.2328612 0.931477341 14.5124646 0.931477341"></polygon>
                <polygon id="Fill-87" points="17.983711 3.66937764 20.7015581 3.66937764 20.7015581 0.924465257 17.983711 0.924465257"></polygon>
                <polygon id="Fill-88" points="7.51643059 7.16777039 10.2483003 7.16777039 10.2483003 4.3992719 7.51643059 4.3992719"></polygon>
                <polygon id="Fill-89" points="11.0176346 10.6636133 13.7278329 10.6636133 13.7278329 7.89192749 11.0176346 7.89192749"></polygon>
                <polygon id="Fill-90" points="14.4965297 10.660426 17.2373229 10.660426 17.2373229 7.89256495 14.4965297 7.89256495"></polygon>
                <polygon id="Fill-91" points="17.9754249 10.660426 20.6977337 10.660426 20.6977337 7.8951148 17.9754249 7.8951148"></polygon>
                <polygon id="Fill-92" points="21.4938385 10.6597885 24.2002125 10.6597885 24.2002125 7.88874018 21.4938385 7.88874018"></polygon>
                <polygon id="Fill-93" points="21.4900142 7.1709577 24.2040368 7.1709577 24.2040368 4.39225982 21.4900142 4.39225982"></polygon>
                <polygon id="Fill-94" points="18.0015581 7.16840785 20.7213173 7.16840785 20.7213173 4.39735952 18.0015581 4.39735952"></polygon>
                <polygon id="Fill-95" points="7.5368272 10.6623384 10.2514873 10.6623384 10.2514873 7.88810272 7.5368272 7.88810272"></polygon>
                <polygon id="Fill-96" points="7.51706799 14.1447946 10.2463881 14.1447946 10.2463881 11.3756586 7.51706799 11.3756586"></polygon>
                <polygon id="Fill-97" points="11.0335694 14.1569063 13.7342068 14.1569063 13.7342068 11.3711964 11.0335694 11.3711964"></polygon>
                <polygon id="Fill-98" points="14.4939802 14.1441571 17.2156516 14.1441571 17.2156516 11.3699215 14.4939802 11.3699215"></polygon>
                <polygon id="Fill-99" points="17.9779745 14.1467069 20.6996459 14.1467069 20.6996459 11.3807583 17.9779745 11.3807583"></polygon>
                <polygon id="Fill-100" points="14.5169263 7.16904532 17.2373229 7.16904532 17.2373229 4.39735952 14.5169263 4.39735952"></polygon>
                <polygon id="Fill-101" points="11.0176346 7.15438369 13.7271955 7.15438369 13.7271955 4.40245921 11.0176346 4.40245921"></polygon>
                <polygon id="Fill-102" points="7.53491501 17.6157764 10.2795326 17.6157764 10.2795326 14.8606647 7.53491501 14.8606647"></polygon>
                <polygon id="Fill-103" points="14.5029037 17.6380876 17.2175637 17.6380876 17.2175637 14.8670393 14.5029037 14.8670393"></polygon>
                <polygon id="Fill-104" points="11.0169972 21.1046073 13.7291076 21.1046073 13.7291076 18.3501329 11.0169972 18.3501329"></polygon>
            </g>
        </g>
    </g>
</svg>