<?xml version="1.0" encoding="UTF-8"?>
<svg width="64px" height="76px" viewBox="0 0 64 76" version="1.1" xmlns="http://www.w3.org/2000/svg" xmlns:xlink="http://www.w3.org/1999/xlink">
    <!-- Generator: Sketch 52.5 (67469) - http://www.bohemiancoding.com/sketch -->
    <title>DevOps</title>
    <desc>Created with Sketch.</desc>
    <g id="Page-1" stroke="none" stroke-width="1" fill="none" fill-rule="evenodd">
        <g id="DevOps" transform="translate(1.316406, 0.989072)" stroke="#666666" stroke-width="2.54957507">
            <g id="Icon-DevOps" transform="translate(0.176927, 0.000000)">
                <path d="M6.57004249,23.1901924 L6.57004249,32.0215943 C6.57004249,33.4565218 7.73264873,34.6192529 9.1674221,34.6192529 C10.6021955,34.6192529 11.7635269,33.4565218 11.7635269,32.0215943 L11.7635269,23.1901924 L6.57004249,23.1901924 Z" id="Stroke-177"></path>
                <path d="M49.8761048,23.1901924 L49.8761048,32.0215943 C49.8761048,33.4565218 51.0380737,34.6192529 52.4734844,34.6192529 C53.9076204,34.6192529 55.0695892,33.4565218 55.0695892,32.0215943 L55.0695892,23.1901924 L49.8761048,23.1901924 Z" id="Stroke-178"></path>
                <path d="M38.7303824,57.6775369 L51.4368272,57.6775369 C56.6456091,57.6775369 60.8657932,61.4149779 60.8657932,66.0257423 L60.8657932,75.0075852" id="Stroke-179"></path>
                <path d="M0.615637394,74.2123511 L0.615637394,66.026061 C0.615637394,61.4146592 4.83773371,57.6772181 10.047153,57.6772181 L22.5636544,57.6772181" id="Stroke-180"></path>
                <polyline id="Stroke-181" points="17.3639873 57.6775369 17.3639873 64.2912076 30.7409703 72.0147 44.1179533 64.2912076 44.1179533 57.6775369"></polyline>
                <polyline id="Stroke-182" points="38.6637748 54.2405955 38.6637748 61.1417616 30.7409703 65.7174656 22.8168909 61.1417616 22.8168909 54.2405955"></polyline>
                <path d="M49.5498867,11.4721066 C49.5498867,5.39199184 44.6215581,0.463771299 38.5433711,0.463771299 L22.7659632,0.463771299 C16.685864,0.463771299 11.7575354,5.39199184 11.7575354,11.4721066 L11.7243909,42.4145236 L22.1547025,54.4096505 L39.1508074,54.4096505 L49.5823938,42.4145236 L49.5498867,11.4721066 Z" id="Stroke-183"></path>
                <polyline id="Stroke-184" points="13.978534 44.9317344 22.2200354 54.409523 39.217415 54.409523 47.3295255 45.0789882"></polyline>
                <path d="M26.1368839,42.225006 C26.1190368,42.3805468 26.1082011,42.5392749 26.1082011,42.6986405 C26.1082011,45.053426 28.0152833,46.9600755 30.3691785,46.9600755 L30.9370963,46.9600755 C33.2897167,46.9600755 35.1974363,45.053426 35.1974363,42.6986405 C35.1974363,42.5392749 35.1878754,42.3805468 35.1719405,42.225006 L26.1368839,42.225006 Z" id="Stroke-185"></path>
                <polyline id="Stroke-186" points="34.2904249 18.5147257 34.2904249 29.683064 27.017762 29.683064 27.017762 18.5147257 18.4511898 18.5147257"></polyline>
                <path d="M14.8165793,23.3604586 C17.3374717,25.8828967 21.4231657,25.8828967 23.9446955,23.3604586" id="Stroke-187"></path>
                <path d="M36.4879674,23.3604586 C39.0088598,25.8828967 43.0945538,25.8828967 45.6160836,23.3604586" id="Stroke-188"></path>
            </g>
        </g>
    </g>
</svg>