<?xml version="1.0" encoding="UTF-8"?>
<svg width="67px" height="91px" viewBox="0 0 67 91" version="1.1" xmlns="http://www.w3.org/2000/svg" xmlns:xlink="http://www.w3.org/1999/xlink">
    <!-- Generator: Sketch 52.5 (67469) - http://www.bohemiancoding.com/sketch -->
    <title>PO</title>
    <desc>Created with Sketch.</desc>
    <g id="Page-1" stroke="none" stroke-width="1" fill="none" fill-rule="evenodd">
        <g id="PO" transform="translate(0.550781, 2.074009)" stroke="#666666" stroke-width="2.54957507">
            <g id="Icon-PO">
                <polyline id="Stroke-105" points="22.8783144 31.3306864 29.7698159 31.3306864 29.7698159 44.2533208"></polyline>
                <path d="M36.4447309,31.3306864 L43.3362323,31.3306864" id="Stroke-106"></path>
                <path d="M26.7543697,53.513926 C26.7543697,55.2981828 28.2006161,56.7439471 29.9840439,56.7439471 L35.5835482,56.7439471 C37.3669759,56.7439471 38.8132224,55.2981828 38.8132224,53.513926 C38.8132224,52.9663459 38.6647096,52.4582885 38.4250496,52.0069653" id="Stroke-107"></path>
                <path d="M21.5854887,9.79370604 L16.8477408,9.79370604 C14.7073725,9.79370604 12.9717493,11.5288782 12.9717493,13.6707514 L12.9717493,28.3158088 C12.9717493,30.4564069 14.7073725,32.1915792 16.8477408,32.1915792 L25.462755,13.5311471" id="Stroke-108"></path>
                <path d="M52.8103258,40.8136384 L52.8103258,16.9005175 C52.8103258,7.62352961 45.2903541,0.101475227 36.0130878,0.101475227 L34.2914873,0.101475227 C28.2719405,0.101475227 22.9962323,3.26966254 20.0298017,8.02895559 L52.8103258,40.8136384 Z" id="Stroke-109"></path>
                <path d="M34.1391501,12.6637523 L58.4735694,37.0007855" id="Stroke-110"></path>
                <path d="M16.3954462,59.9688686 L12.0114518,59.9688686 C5.8280949,59.9688686 0.818179887,64.9812341 0.818179887,71.1646178 L0.818179887,82.0212372" id="Stroke-111"></path>
                <path d="M48.7456657,59.9698885 L53.1302975,59.9698885 C59.3123796,59.9698885 64.3235694,64.9809792 64.3235694,71.1650003 L64.3235694,82.7400396" id="Stroke-112"></path>
                <path d="M49.2840722,36.4988477 L49.2840722,53.5139897 C49.2840722,57.0812284 46.3909419,69.0202586 42.8228116,69.0202586 L23.0113385,69.0202586 C19.4438456,69.0202586 16.5513527,57.0812284 16.5513527,53.5139897 L16.5513527,31.9760532" id="Stroke-113"></path>
                <polyline id="Stroke-114" points="16.3898371 60.2220048 16.3898371 78.8276151 32.869653 68.9412133"></polyline>
                <polyline id="Stroke-115" points="48.4132649 61.6344937 48.4132649 78.8274876 31.933449 68.9410858"></polyline>
                <path d="M31.6418414,76.5075076 L31.6418414,80.1027946" id="Stroke-116"></path>
                <path d="M31.6418414,84.4172665 L31.6418414,88.0125535" id="Stroke-117"></path>
            </g>
        </g>
    </g>
</svg>