<?xml version="1.0" encoding="UTF-8"?>
<svg width="66px" height="87px" viewBox="0 0 66 87" version="1.1" xmlns="http://www.w3.org/2000/svg" xmlns:xlink="http://www.w3.org/1999/xlink">
    <!-- Generator: Sketch 52.5 (67469) - http://www.bohemiancoding.com/sketch -->
    <title>qa</title>
    <desc>Created with Sketch.</desc>
    <g id="Page-1" stroke="none" stroke-width="1" fill="none" fill-rule="evenodd">
        <g id="qa" transform="translate(2.000000, 1.000000)" stroke="#666666" stroke-width="2.54957507">
            <path d="M39,65 L51.6786739,68.8775507 C58.1609685,70.9257169 62.708773,75.7226202 62.708773,81.3125265 L62.708773,85.9736504" id="Stroke-189"></path>
            <path d="M0.143794263,85.9736504 L0.143794263,81.3125265 C0.143794263,76.0356141 4.19634384,71.4662848 10.1043467,69.2466413 L23,65" id="Stroke-190"></path>
            <path d="M47.270618,33.0885721 C47.9211491,34.8844684 47.921096,37.0524774 47.2704586,39.5925993 C47.3042404,47.3843002 41.9673424,63.71927 31.4273991,64.0807111 C20.8804444,63.7199075 15.5518325,47.3830253 15.5811526,39.5925993 L15.5810323,33.0885721 C19.1936774,31.6961907 23,29.3333333 27,26 C34.7124946,19.5729211 38,14 38,14 C38,14 43.6111854,22.9861168 47.270618,33.0885721 Z" id="Stroke-191"></path>
            <path d="M54.8003098,22.3487996 L54.8003098,35.9439852 C54.8003098,41.6792489 51.2224851,46.5794211 46.1767541,48.5331943" id="Stroke-194"></path>
            <path d="M16.6280542,47.9337417 C11.6077414,45.9675863 8.05289483,41.0802835 8.05289483,35.3631649 L8.05289483,22.3490546" id="Stroke-195"></path>
            <path d="M39.1909826,61.16617 L39.1909826,75.6913845 C39.1909826,79.9808679 35.7159118,83.4569495 31.4268892,83.4569495 C27.1385039,83.4569495 23.6608835,79.9808679 23.6608835,75.6913845 L23.6608835,61.16617" id="Stroke-196"></path>
            <path d="M27.0593396,50.1244954 C27.04213,50.2800362 27.0306569,50.4381268 27.0306569,50.5974924 C27.0306569,52.9522779 28.9383764,54.8589274 31.2922716,54.8589274 L31.8589147,54.8589274 C34.2134472,54.8589274 36.1224416,52.9522779 36.1224416,50.5974924 C36.1224416,50.4381268 36.1103311,50.2800362 36.0943962,50.1244954 L27.0593396,50.1244954 Z" id="Stroke-197"></path>
            <polyline id="Stroke-198" points="33.4114784 30.9044353 38.6674274 42.4992359 31.9728807 42.4992359"></polyline>
            <path d="M8.06640758,23.5944008 C8.06640758,11.0351199 18.5292263,0.853573051 31.4339005,0.853573051 C44.3392121,0.853573051 54.8013934,11.0351199 54.8013934,23.5944008" id="Stroke-199"></path>
            <path d="M38.3678523,38.4925308 C36.5990846,38.4925308 35.1598495,37.0537785 35.1598495,35.2841833 L35.1598495,30.1583495 C35.1598495,28.3893918 36.5990846,26.9500021 38.3678523,26.9500021 L48.5259968,26.9500021 C50.2934897,26.9500021 51.734637,28.3893918 51.734637,30.1583495 L51.734637,35.2841833 C51.734637,37.0537785 50.2934897,38.4925308 48.5259968,38.4925308 L38.3678523,38.4925308 Z" id="Stroke-200"></path>
            <path d="M15.3787801,38.4925308 C13.6112872,38.4925308 12.1714147,37.0537785 12.1714147,35.2841833 L12.1714147,30.1583495 C12.1714147,28.3893918 13.6112872,26.9500021 15.3787801,26.9500021 L25.5369246,26.9500021 C27.3050549,26.9500021 28.7455648,28.3893918 28.7455648,30.1583495 L28.7455648,35.2841833 C28.7455648,37.0537785 27.3050549,38.4925308 25.5369246,38.4925308 L15.3787801,38.4925308 Z" id="Stroke-201"></path>
            <path d="M28.7453736,30.1585407 L35.1594671,30.1585407" id="Stroke-202"></path>
        </g>
    </g>
</svg>