<?xml version="1.0" encoding="UTF-8"?>
<svg width="58px" height="96px" viewBox="0 0 58 96" version="1.1" xmlns="http://www.w3.org/2000/svg" xmlns:xlink="http://www.w3.org/1999/xlink">
    <!-- Generator: Sketch 52.5 (67469) - http://www.bohemiancoding.com/sketch -->
    <title>SM</title>
    <desc>Created with Sketch.</desc>
    <g id="Page-1" stroke="none" stroke-width="1" fill="none" fill-rule="evenodd">
        <g id="SM" transform="translate(2.050781, 0.980469)" stroke="#666666" stroke-width="2.54957507">
            <g id="Icon-SM">
                <path d="M13.4964899,67.7387047 C3.13164091,69.8811633 0.0859375,69.9628105 0.0859375,86.3300781 L0.0859375,94.3300781" id="Stroke-56"></path>
                <path d="M54.0859375,94.3300781 C54.0859375,81.5392043 49.0859375,67.7483304 30.9503638,67.7483304" id="Stroke-58"></path>
                <path d="M30.6992874,58.3715407 L30.6992874,72.1248156 C30.6992874,75.991024 29.0859375,81.1254259 22.6987916,81.1254259 C16.3116457,81.1254259 13.6982959,75.991024 13.6982959,72.1248156 L13.6982959,58.3715407 L30.6992874,58.3715407 Z" id="Stroke-64"></path>
                <path d="M7.15271246,45.4706804 L6.82827904,45.4706804 C4.67707507,45.4706804 2.9350779,43.7265837 2.9350779,41.5751486 L2.9350779,38.3300781" id="Stroke-168"></path>
                <path d="M46.640085,33.8575208 L46.9664306,33.8575208 C49.1163598,33.8575208 50.8602691,35.6016175 50.8602691,37.7517776 L50.8602691,41.5752761 C50.8602691,43.7267112 49.1163598,45.4708079 46.9664306,45.4708079 L46.640085,45.4708079" id="Stroke-169"></path>
                <path d="M46.0654745,20.5349426 L46.0654745,48.3231964 C46.0654745,53.8200332 41.6094547,58.2771692 36.1119334,58.2771692 L17.0353754,58.2771692 C11.5391289,58.2771692 7.08183428,53.8200332 7.08183428,48.3231964 L7.08183428,35.0996798" id="Stroke-170"></path>
                <path d="M14.2704887,40.6523583 L14.2704887,47.8091468 C14.2704887,49.6163523 15.7415935,51.0882526 17.550517,51.0882526 L24.705262,51.0882526 L14.2704887,40.6523583 Z" id="Stroke-171"></path>
                <path d="M24.8820751,30.0862943 C22.6371742,32.3320737 18.9989306,32.3320737 16.7508428,30.0862943" id="Stroke-172"></path>
                <path d="M42.5766997,30.0850831 C40.3305241,32.3302251 36.6910057,32.3302251 34.4454674,30.0850831" id="Stroke-173"></path>
                <path d="M20.4234419,0.419439275 C14.0953966,0.419439275 8.7973796,4.76629426 7.31033994,10.6322218 C4.67025496,12.4215782 2.93526912,15.4456991 2.93526912,18.8752459 L2.93526912,35.4218532 L3.80913598,35.4218532 C9.30538244,35.4218532 13.7614023,30.9653547 13.7614023,25.4678804 L13.7614023,20.6646024 C14.7276912,20.9782338 15.7558074,21.1560858 16.8279037,21.1560858 L42.9553116,21.1560858 C48.4509207,21.1560858 52.9075779,16.7008622 52.9075779,11.202113 L52.9075779,0.419439275 L20.4234419,0.419439275 Z" id="Stroke-174"></path>
                <path d="M31.5989943,40.4425695 C31.5989943,38.6098656 33.0853966,37.1245785 34.9179037,37.1245785 C36.749136,37.1245785 38.2355382,38.6098656 38.2355382,40.4425695 C38.2355382,42.274636 36.749136,43.759923 34.9179037,43.759923" id="Stroke-175"></path>
                <path d="M31.1850708,40.4425695 L31.1850708,21.3633248" id="Stroke-176"></path>
            </g>
        </g>
    </g>
</svg>