<?xml version="1.0" encoding="UTF-8"?>
<svg width="60px" height="100px" viewBox="0 0 60 100" version="1.1" xmlns="http://www.w3.org/2000/svg" xmlns:xlink="http://www.w3.org/1999/xlink">
    <!-- Generator: Sketch 52.5 (67469) - http://www.bohemiancoding.com/sketch -->
    <title>architect</title>
    <desc>Created with Sketch.</desc>
    <g id="Page-1" stroke="none" stroke-width="1" fill="none" fill-rule="evenodd">
        <g id="architect" transform="translate(1.058594, 0.480469)" stroke="#666666" stroke-width="2.54957507">
            <g id="icon-architect">
                <path d="M46.168279,40.735742 L46.168279,58.8326574" id="Stroke-158"></path>
                <path d="M13.0948088,58.8324024 L13.0948088,32.8258556" id="Stroke-159"></path>
                <path d="M46.168279,47.7614683 L46.168279,59.9663202 C42.736551,53.9901118 36.2975992,49.9639003 28.9133924,49.9639003 C21.5279108,49.9639003 15.0889589,53.9901118 11.6565935,59.9663202 L11.6565935,47.7614683 C5.09462465,52.8943142 0.871890935,60.8804411 0.871890935,69.8584592 C0.871890935,85.3462417 13.426636,97.9016979 28.9133924,97.9016979 C44.3995113,97.9016979 56.9529816,85.3462417 56.9529816,69.8584592 C56.9529816,60.8810785 52.7315227,52.8943142 46.168279,47.7614683 Z" id="Stroke-160"></path>
                <polyline id="Stroke-161" points="18.2468626 35.582816 25.9172592 35.582816 25.9172592 49.963964"></polyline>
                <path d="M33.3462748,35.582816 L41.016034,35.582816" id="Stroke-162"></path>
                <path d="M22.9948725,58.5930353 C22.7278045,59.0959931 22.5608074,59.6614221 22.5608074,60.2701985 C22.5608074,62.2565308 24.170864,63.866123 26.1557082,63.866123 L32.3881445,63.866123 C34.3729887,63.866123 35.9824079,62.2565308 35.9824079,60.2701985 C35.9824079,59.6614221 35.8179603,59.0959931 35.5489802,58.5930353 L22.9948725,58.5930353 Z" id="Stroke-163"></path>
                <path d="M16.8089023,11.6131523 L11.5370184,11.6131523 C9.1550779,11.6131523 7.22313739,13.5453003 7.22313739,15.9274967 L7.22313739,32.2267686 C7.22313739,34.608965 9.1550779,36.541113 11.5370184,36.541113 L21.1227833,15.7725934" id="Stroke-164"></path>
                <path d="M51.5605666,46.1367045 L51.5605666,19.5226562 C51.5605666,9.19768036 43.190949,0.827163746 32.8670822,0.827163746 L30.9504391,0.827163746 C24.2514306,0.827163746 18.3784844,4.35360483 15.0774221,9.64900363 L51.5605666,46.1367045 Z" id="Stroke-165"></path>
            </g>
        </g>
    </g>
</svg>