<svg width="252" height="47" viewBox="0 0 252 47" fill="none" xmlns="http://www.w3.org/2000/svg">
<path d="M7.91497 15.1011C9.91712 15.1011 11.717 14.4337 12.9507 13.1192L12.3035 12.4518C11.0901 13.645 9.61376 14.1506 7.95541 14.1506C4.33536 14.1506 1.60515 11.4811 1.60515 7.92168C1.60515 4.36229 4.33536 1.69275 7.95541 1.69275C9.61376 1.69275 11.0901 2.17812 12.3035 3.37133L12.9507 2.70394C11.717 1.3894 9.91712 0.742234 7.91497 0.742234C3.70842 0.742234 0.573734 3.79603 0.573734 7.92168C0.573734 12.0473 3.70842 15.1011 7.91497 15.1011ZM27.7782 15.1011C31.9847 15.1011 35.1397 12.0473 35.1397 7.92168C35.1397 3.79603 31.9847 0.742234 27.7782 0.742234C23.5514 0.742234 20.4167 3.81625 20.4167 7.92168C20.4167 12.0271 23.5514 15.1011 27.7782 15.1011ZM27.7782 14.1506C24.1581 14.1506 21.4482 11.5013 21.4482 7.92168C21.4482 4.34207 24.1581 1.69275 27.7782 1.69275C31.378 1.69275 34.088 4.34207 34.088 7.92168C34.088 11.5013 31.378 14.1506 27.7782 14.1506ZM58.779 15L58.7588 0.843353H57.9094L51.5794 11.7844L45.2493 0.843353H44.3797V15H45.3909V2.9264L51.3165 13.1192H51.8221L57.7476 2.88596L57.7678 15H58.779ZM74.4536 0.843353H69.3774V15H70.4088V10.3688H74.4536C78.013 10.3688 80.1567 8.58906 80.1567 5.61617C80.1567 2.62305 78.013 0.843353 74.4536 0.843353ZM74.4536 9.43846H70.4088V1.77365H74.4536C77.4871 1.77365 79.105 3.16909 79.105 5.61617C79.105 8.04302 77.4871 9.43846 74.4536 9.43846ZM100.301 15L96.762 10.0452C98.8653 9.41824 100.079 7.86101 100.079 5.61617C100.079 2.62305 97.935 0.843353 94.3756 0.843353H89.2994V15H90.3308V10.3688H94.3756C94.8609 10.3688 95.3059 10.3283 95.7508 10.2676L99.1282 15H100.301ZM90.3308 9.45868V1.77365H94.3756C97.4091 1.77365 99.027 3.16909 99.027 5.61617C99.027 8.04302 97.4091 9.45868 94.3756 9.45868H90.3308ZM110.549 14.0697V8.26548H118.093V7.35541H110.549V1.77365H118.982V0.843353H109.518V15H119.286V14.0697H110.549ZM139.205 0.843353V7.35541H129.74V0.843353H128.709V15H129.74V8.26548H139.205V15H140.236V0.843353H139.205ZM151.874 14.0697V8.26548H159.418V7.35541H151.874V1.77365H160.308V0.843353H150.843V15H160.611V14.0697H151.874ZM180.53 0.843353V13.1394L170.904 0.843353H170.034V15H171.066V2.70394L180.712 15H181.562V0.843353H180.53ZM195.889 15.1011C199.388 15.1011 200.986 13.3619 200.986 11.3597C200.986 6.22288 192.148 8.73063 192.148 4.48363C192.148 2.9264 193.382 1.6523 196.132 1.6523C197.406 1.6523 198.842 2.03656 200.015 2.84551L200.399 2.01633C199.307 1.2276 197.689 0.742234 196.132 0.742234C192.654 0.742234 191.117 2.5017 191.117 4.50386C191.117 9.72159 199.954 7.1734 199.954 11.4204C199.954 12.9574 198.7 14.191 195.869 14.191C193.968 14.191 192.168 13.4225 191.197 12.4114L190.732 13.1799C191.764 14.3124 193.786 15.1011 195.889 15.1011ZM210.155 15H211.186V0.843353H210.155V15ZM231.837 0.843353L226.114 13.6652L220.391 0.843353H219.258L225.568 15H226.599L232.909 0.843353H231.837ZM241.886 14.0697V8.26548H249.429V7.35541H241.886V1.77365H250.319V0.843353H240.855V15H250.623V14.0697H241.886Z" fill="#4F4959"/>
<path d="M10.0284 46.2528C12.9355 46.2528 15.4129 45.2163 17.0561 43.2951L14.9326 41.2727C13.6434 42.6884 12.0507 43.3709 10.2053 43.3709C6.53975 43.3709 3.88538 40.7924 3.88538 37.1521C3.88538 33.5118 6.53975 30.9333 10.2053 30.9333C12.0507 30.9333 13.6434 31.6158 14.9326 33.0062L17.0561 31.0091C15.4129 29.0879 12.9355 28.0514 10.0536 28.0514C4.61849 28.0514 0.573734 31.8686 0.573734 37.1521C0.573734 42.4356 4.61849 46.2528 10.0284 46.2528ZM33.3341 46H36.7721L28.7837 28.3042H25.5479L17.5848 46H20.9723L22.7166 41.9047H31.5645L33.3341 46ZM23.8289 39.3262L27.1406 31.5906L30.4775 39.3262H23.8289ZM54.3927 46L50.3227 40.1857C52.7242 39.2503 54.0893 37.2785 54.0893 34.5988C54.0893 30.6805 51.2075 28.3042 46.556 28.3042H39.2754V46H42.5618V40.8429H46.556C46.7835 40.8429 47.011 40.8429 47.2385 40.8177L50.8535 46H54.3927ZM50.7777 34.5988C50.7777 36.8235 49.2862 38.138 46.4043 38.138H42.5618V31.085H46.4043C49.2862 31.085 50.7777 32.3742 50.7777 34.5988ZM61.3053 43.2445V38.3655H69.8499V35.6606H61.3053V31.0597H70.9369V28.3042H58.019V46H71.2908V43.2445H61.3053ZM78.4936 43.2445V38.3655H87.0381V35.6606H78.4936V31.0597H88.1251V28.3042H75.2072V46H88.4791V43.2445H78.4936ZM107.513 46L103.443 40.1857C105.844 39.2503 107.209 37.2785 107.209 34.5988C107.209 30.6805 104.327 28.3042 99.676 28.3042H92.3954V46H95.6818V40.8429H99.676C99.9035 40.8429 100.131 40.8429 100.359 40.8177L103.974 46H107.513ZM103.898 34.5988C103.898 36.8235 102.406 38.138 99.5243 38.138H95.6818V31.085H99.5243C102.406 31.085 103.898 32.3742 103.898 34.5988ZM125.659 28.3042H118.378V46H121.665V40.8935H125.659C130.31 40.8935 133.192 38.4919 133.192 34.5988C133.192 30.6805 130.31 28.3042 125.659 28.3042ZM125.507 38.1127H121.665V31.085H125.507C128.389 31.085 129.881 32.3742 129.881 34.5988C129.881 36.8235 128.389 38.1127 125.507 38.1127ZM149.085 46H152.523L144.534 28.3042H141.298L133.335 46H136.723L138.467 41.9047H147.315L149.085 46ZM139.579 39.3262L142.891 31.5906L146.228 39.3262H139.579ZM157.727 46H161.013V31.085H166.878V28.3042H151.862V31.085H157.727V46ZM182.035 28.3042V35.61H172.884V28.3042H169.597V46H172.884V38.4161H182.035V46H185.321V28.3042H182.035ZM212.919 28.3042L208.394 41.8288L203.919 28.3042H200.886L196.31 41.753L191.911 28.3042H188.499L194.364 46H197.877L202.327 32.9051L206.7 46H210.189L216.054 28.3042H212.919ZM231.662 46H235.1L227.112 28.3042H223.876L215.913 46H219.301L221.045 41.9047H229.893L231.662 46ZM222.157 39.3262L225.469 31.5906L228.806 39.3262H222.157ZM251.103 28.3042H247.868L242.635 36.9246L237.452 28.3042H233.938L240.89 39.8065V46H244.177V39.7559L251.103 28.3042Z" fill="#72C02C"/>
</svg>
