<svg width="112" height="112" viewBox="0 0 112 112" fill="none" xmlns="http://www.w3.org/2000/svg">
<path d="M87.219 7.72273H24.7808L0 41.3004L55.9999 104.277L112 41.3004L87.219 7.72273ZM87.0383 18.5447L101.265 37.8218H82.147L87.0383 18.5447ZM81.3366 14.2946L76.4595 33.5168L62.4587 14.2946H81.3366ZM71.4648 37.822H40.5352L55.9999 16.5902L71.4648 37.822ZM49.5413 14.2946L35.5402 33.5168L30.663 14.2946H49.5413ZM24.9617 18.5447L29.853 37.8218H10.7347L24.9617 18.5447ZM11.5449 44.3937H31.8027L46.6807 83.9071L11.5449 44.3937ZM55.9997 90.0076L38.8246 44.3939H73.1748L55.9997 90.0076ZM65.3193 83.9071L80.1973 44.3937H100.455L65.3193 83.9071Z" fill="white"/>
</svg>
