<svg width="110" height="110" viewBox="0 0 110 110" fill="none" xmlns="http://www.w3.org/2000/svg">
<path d="M72.1875 27.5L75.625 11C75.7234 10.5007 75.7097 9.98568 75.5848 9.49228C75.46 8.99887 75.2271 8.53935 74.9031 8.14688C74.5759 7.7435 74.1616 7.41949 73.6913 7.19921C73.2209 6.97892 72.7068 6.86808 72.1875 6.875H37.8125C37.3047 6.87836 36.804 6.99415 36.3464 7.21407C35.8887 7.43398 35.4855 7.75255 35.1656 8.14688C34.8296 8.53349 34.5842 8.99032 34.4474 9.48396C34.3106 9.9776 34.2859 10.4956 34.375 11L37.8125 27.5L35.475 46.2687H51.5625C53.8417 46.2687 56.0275 47.1742 57.6392 48.7858C59.2508 50.3974 60.1562 52.5833 60.1562 54.8625C60.1562 57.1417 59.2508 59.3276 57.6392 60.9392C56.0275 62.5508 53.8417 63.4562 51.5625 63.4562H34.375H33.275L30.9375 82.0875C30.8665 82.6574 30.9394 83.2359 31.1496 83.7703C31.3598 84.3048 31.7005 84.778 32.1406 85.1469L52.7656 102.334C53.3833 102.849 54.1617 103.131 54.9656 103.131C55.7695 103.131 56.5479 102.849 57.1656 102.334L77.7906 85.1469C78.2307 84.778 78.5714 84.3048 78.7816 83.7703C78.9918 83.2359 79.0647 82.6574 78.9937 82.0875L72.1875 27.5ZM65.9312 24.0625H44.0687L42.0062 13.75H67.9937L65.9312 24.0625Z" fill="white"/>
<path d="M34.375 58.4375H51.5625C52.4742 58.4375 53.3485 58.0753 53.9932 57.4307C54.6378 56.786 55 55.9117 55 55C55 54.0883 54.6378 53.214 53.9932 52.5693C53.3485 51.9247 52.4742 51.5625 51.5625 51.5625H34.375C33.4633 51.5625 32.589 51.9247 31.9443 52.5693C31.2997 53.214 30.9375 54.0883 30.9375 55C30.9375 55.9117 31.2997 56.786 31.9443 57.4307C32.589 58.0753 33.4633 58.4375 34.375 58.4375Z" fill="white"/>
</svg>
