<svg width="54" height="54" viewBox="0 0 54 54" fill="none" xmlns="http://www.w3.org/2000/svg">
<path d="M27 54C41.9117 54 54 41.9117 54 27C54 12.0883 41.9117 0 27 0C12.0883 0 0 12.0883 0 27C0 41.9117 12.0883 54 27 54Z" fill="#BFE1FF"/>
<path d="M53.8549 29.8153L41.642 17.6025L13.1074 45.3161L21.1574 53.3661C23.0388 53.7811 24.9938 53.9999 26.9999 53.9999C40.9608 53.9999 52.447 43.4039 53.8549 29.8153Z" fill="#87C7FF"/>
<path d="M31.7962 7.75745H15.2134C13.6363 7.75745 12.3579 9.03594 12.3579 10.6129V43.3888C12.3579 44.9659 13.6363 46.2443 15.2134 46.2443H38.7867C40.3638 46.2443 41.6422 44.9658 41.6422 43.3888V17.6035L31.7962 7.75745Z" fill="#7584F2"/>
<path d="M31.7964 7.75659H27.0129V46.2435H38.7869C40.364 46.2435 41.6424 44.9651 41.6424 43.388V17.6026L31.7964 7.75659Z" fill="#606AEA"/>
<path d="M31.7964 14.747C31.7964 16.3241 33.0748 17.6025 34.6518 17.6025H41.6424L31.7964 7.75647V14.747Z" fill="#7584F2"/>
<path d="M18.7534 23.0984H35.2466V26.2625H18.7534V23.0984Z" fill="white"/>
<path d="M18.7534 33.5439H35.2466V36.708H18.7534V33.5439Z" fill="white"/>
<path d="M18.7534 38.7668H26.0904V41.9309H18.7534V38.7668Z" fill="white"/>
<path d="M18.7534 28.3212H35.2466V31.4852H18.7534V28.3212Z" fill="white"/>
<path d="M27.0127 23.0984H35.2465V26.2625H27.0127V23.0984Z" fill="#E9EDF5"/>
<path d="M27.0127 33.5439H35.2465V36.708H27.0127V33.5439Z" fill="#E9EDF5"/>
<path d="M27.0127 28.3212H35.2465V31.4852H27.0127V28.3212Z" fill="#E9EDF5"/>
</svg>
