<svg width="113" height="95" viewBox="0 0 113 95" fill="none" xmlns="http://www.w3.org/2000/svg">
<path d="M109.689 42.4309H100.824C100.556 42.4309 100.291 42.4421 100.027 42.4593C98.0353 40.6875 95.8326 39.2243 93.4764 38.0973C98.85 34.2915 102.362 28.0374 102.362 20.9803C102.362 9.41171 92.9238 0 81.3222 0C69.7198 0 60.2813 9.41171 60.2813 20.9803C60.2813 26.5399 62.4624 31.6008 66.0144 35.3584H50.5324C54.0843 31.6008 56.2646 26.5399 56.2646 20.9803C56.2646 9.41171 46.8261 0 35.2246 0C23.623 0 14.1836 9.41171 14.1836 20.9803C14.1836 27.4683 17.1528 33.2771 21.8065 37.1293C18.5839 38.3303 15.5941 40.1261 12.9723 42.4593C12.7085 42.4421 12.4439 42.4309 12.1757 42.4309H3.31055C1.48199 42.4309 0 43.9087 0 45.7321V63.4113C0 65.2346 1.48199 66.7124 3.31055 66.7124H3.54591V91.6989C3.54591 93.5214 5.02789 95 6.85645 95H106.144C107.972 95 109.454 93.5214 109.454 91.6989V66.7124H109.689C111.518 66.7124 113 65.2346 113 63.4113V45.7321C113 43.9087 111.518 42.4309 109.689 42.4309ZM106.379 60.1101H100.824C97.762 60.1101 95.2696 57.6257 95.2696 54.5713C95.2696 51.5177 97.762 49.0332 100.824 49.0332H106.379V60.1101ZM66.9024 20.9803C66.9024 13.0524 73.3709 6.6023 81.3213 6.6023C89.2718 6.6023 95.7412 13.0524 95.7412 20.9803C95.7412 28.9091 89.2727 35.3584 81.3222 35.3584C73.3709 35.3584 66.9024 28.9091 66.9024 20.9803ZM35.2246 6.6023C43.175 6.6023 49.6435 13.0524 49.6435 20.9803C49.6435 28.9083 43.175 35.3584 35.2246 35.3584C27.2732 35.3584 20.8047 28.9091 20.8047 20.9803C20.8047 13.0524 27.2732 6.6023 35.2246 6.6023ZM6.62109 49.0332H12.1757C15.238 49.0332 17.7304 51.5177 17.7304 54.5721C17.7304 57.6257 15.238 60.1101 12.1757 60.1101H6.62109V49.0332ZM10.167 66.7124H12.1757C18.8891 66.7124 24.3515 61.2664 24.3515 54.5713C24.3515 50.8643 22.6738 47.5417 20.0392 45.3134H20.1176C23.5394 43.1307 27.5189 41.9616 31.6787 41.9616H63.2142C57.088 47.111 53.1895 54.8154 53.1895 63.4113V88.3977H24.3506V74.0188C24.3506 72.1963 22.8686 70.7177 21.0401 70.7177C19.2124 70.7177 17.7295 72.1963 17.7295 74.0188V88.3968H10.167V66.7124ZM102.833 88.3968H95.2696V74.0188C95.2696 72.1963 93.7876 70.7177 91.9591 70.7177C90.1314 70.7177 88.6485 72.1963 88.6485 74.0188V88.3968H59.8105V63.4113C59.8105 51.5839 69.4603 41.9616 81.3222 41.9616C85.5009 41.9616 89.4968 43.141 92.9272 45.3418C90.3115 47.5709 88.6494 50.8798 88.6494 54.5721C88.6494 61.2664 94.1109 66.7124 100.825 66.7124H102.833V88.3968Z" fill="white"/>
</svg>
