<svg width="237" height="48" viewBox="0 0 237 48" fill="none" xmlns="http://www.w3.org/2000/svg">
<path d="M145.044 11.36H143.148V7.36001H139.356V11.36H137.46V1.76001H139.356V5.60001H143.148V1.76001H145.044V11.36Z" fill="#0A4F9E"/>
<path d="M154.366 3.19998C154.998 3.99998 155.314 5.27998 155.314 6.71997C155.314 8.47997 154.84 9.75997 153.892 10.56C153.102 11.2 152.154 11.52 150.732 11.52C148.836 11.52 147.414 10.88 146.782 9.75997C146.15 8.95997 145.992 7.83997 145.992 6.55998C145.992 4.63998 146.466 3.35998 147.414 2.55998C148.204 1.91998 149.31 1.59998 150.732 1.59998C152.312 1.59998 153.734 2.23998 154.366 3.19998ZM148.678 4.31998C148.362 4.79998 148.204 5.59998 148.204 6.55998C148.204 8.79997 148.994 9.91997 150.732 9.91997C152.47 9.91997 153.26 8.95997 153.26 6.71997C153.26 4.47998 152.47 3.51998 150.732 3.51998C149.784 3.19998 148.994 3.67998 148.678 4.31998Z" fill="#0A4F9E"/>
<path d="M158.158 11.36H156.262V1.76001H158.79L162.582 8.96001V1.76001H164.478V11.36H162.108L158.158 4.32001V11.36Z" fill="#0A4F9E"/>
<path d="M170.008 1.76001C171.904 1.76001 173.168 2.08001 173.8 3.04001C174.432 3.68001 174.748 5.12001 174.748 6.56001C174.748 7.36001 174.59 8.48001 174.274 9.12001C173.958 10.24 173.326 10.88 172.22 11.2C171.746 11.36 171.114 11.36 169.85 11.36H165.9V1.76001H170.008ZM167.954 9.60001H170.008C170.956 9.60001 171.588 9.44001 171.904 8.96001C172.378 8.48001 172.536 7.52001 172.536 6.56001C172.536 5.44001 172.22 4.32001 171.588 3.84001C171.272 3.52001 170.798 3.36001 169.85 3.36001H167.796V9.60001H167.954Z" fill="#0A4F9E"/>
<path d="M177.434 7.52001C177.434 8.48001 177.592 8.96001 177.908 9.28001C178.224 9.60001 178.856 9.76001 179.488 9.76001C180.436 9.76001 181.068 9.44001 181.384 8.80001C181.542 8.48001 181.542 8.16001 181.542 7.36001V1.76001H183.596V7.36001C183.596 8.96001 183.28 9.92001 182.648 10.4C181.858 11.04 180.91 11.36 179.488 11.36C177.908 11.36 176.96 11.04 176.17 10.24C175.538 9.60001 175.222 8.80001 175.222 7.36001V1.76001H177.276V7.52001H177.434Z" fill="#0A4F9E"/>
<path d="M187.071 11.36H185.017V1.76001H189.599C191.021 1.76001 191.811 1.92001 192.443 2.40001C193.075 2.88001 193.549 3.68001 193.549 4.48001C193.549 5.92001 192.917 6.88001 191.811 7.36001C192.917 7.68001 193.391 8.48001 193.549 10.08C193.549 11.04 193.707 11.2 193.707 11.52H191.495C191.495 11.36 191.337 11.2 191.337 11.04C191.337 10.72 191.337 10.4 191.179 10.24C191.021 8.48001 190.389 8.00001 188.651 8.00001H187.071V11.36ZM189.915 5.92001C190.389 5.92001 190.705 5.92001 191.021 5.60001C191.337 5.44001 191.495 4.96001 191.495 4.48001C191.495 3.84001 191.179 3.52001 190.863 3.36001C190.705 3.36001 190.389 3.36001 190.073 3.36001H187.229V5.92001H189.915Z" fill="#0A4F9E"/>
<path d="M197.658 1.76001H200.028L203.978 11.36H201.608L200.66 9.12001H197.026L196.078 11.36H193.708L197.658 1.76001ZM197.5 7.36001H200.186L198.764 4.00001L197.5 7.36001Z" fill="#0A4F9E"/>
<path d="M204.294 9.60001H208.56C209.35 9.60001 209.666 9.60001 209.982 9.44001C210.298 9.28001 210.456 8.96001 210.456 8.48001C210.456 8.00001 210.298 7.68001 209.824 7.52001C209.666 7.36001 209.192 7.36001 208.876 7.36001H207.138C206.032 7.36001 205.242 7.20001 204.768 6.72001C204.136 6.24001 203.82 5.44001 203.82 4.64001C203.82 3.36001 204.452 2.40001 205.4 1.92001C205.874 1.76001 206.348 1.76001 207.454 1.76001H212.194V3.52001H207.928C206.98 3.52001 206.664 3.52001 206.506 3.68001C206.19 3.84001 206.032 4.16001 206.032 4.64001C206.032 4.96001 206.19 5.28001 206.506 5.44001C206.822 5.60001 207.138 5.60001 207.77 5.60001H209.35C210.772 5.60001 211.562 5.76001 212.036 6.40001C212.51 6.88001 212.826 7.68001 212.826 8.48001C212.826 9.44001 212.352 10.4 211.562 10.88C211.088 11.2 210.456 11.2 209.034 11.2H204.294V9.60001Z" fill="#0A4F9E"/>
<path d="M146.624 28.6401L150.89 15.6801H155.946V32.3201H152.628V19.8401L148.362 32.3201H144.728L140.778 19.8401V32.3201H137.46V15.6801H142.516L146.624 28.6401Z" fill="#0A4F9E"/>
<path d="M170.64 18.56H166.058C163.688 18.56 162.74 18.88 162.108 19.84C161.634 20.48 161.476 20.96 161.318 22.56H170.482V25.6H161.318C161.634 28.48 162.74 29.44 166.216 29.44H170.64V32.48H166.058C162.582 32.48 160.844 32 159.58 30.56C158.158 29.12 157.368 26.72 157.368 24C157.368 20.96 158.316 18.72 160.212 17.12C161.318 16.16 162.424 15.84 164.636 15.84H170.482V18.56H170.64Z" fill="#0A4F9E"/>
<path d="M179.329 15.6801C182.647 15.6801 184.701 16.3201 185.965 17.9201C186.913 19.0401 187.545 21.6001 187.545 24.0001C187.545 25.4401 187.229 27.2001 186.913 28.4801C186.281 30.2401 185.175 31.3601 183.437 32.0001C182.489 32.3201 181.541 32.3201 179.329 32.3201H172.377V15.6801H179.329ZM175.853 29.2801H179.329C180.909 29.2801 182.015 28.9601 182.647 28.1601C183.279 27.3601 183.753 25.6001 183.753 24.0001C183.753 21.9201 183.121 20.1601 182.173 19.3601C181.541 18.8801 180.751 18.5601 179.329 18.5601H175.853V29.2801Z" fill="#0A4F9E"/>
<path d="M192.602 15.6801H189.126V32.3201H192.602V15.6801Z" fill="#0A4F9E"/>
<path d="M207.296 32.32H201.608C198.764 32.32 197.5 32 196.078 30.72C194.656 29.28 193.866 27.04 193.866 24.16C193.866 20.48 195.13 17.6 197.5 16.64C198.448 16.16 200.028 15.84 201.608 15.84H207.138V18.88H202.24C200.66 18.88 199.396 19.36 198.764 20.16C198.29 20.8 197.974 22.08 197.974 23.84C197.974 26.24 198.448 28 199.396 28.64C200.028 29.12 200.976 29.44 202.398 29.44H207.454V32.32H207.296Z" fill="#0A4F9E"/>
<path d="M214.406 15.6801H218.356L225.15 32.3201H221.042L219.462 28.4801H213.142L211.562 32.3201H207.454L214.406 15.6801ZM214.09 25.4401H218.83L216.46 19.6801L214.09 25.4401Z" fill="#0A4F9E"/>
<path d="M229.258 15.6801V24.9601C229.416 27.8401 229.416 28.0001 230.048 28.6401C230.68 29.2801 231.47 29.4401 233.682 29.4401H237V32.4801H233.366C230.996 32.4801 230.522 32.4801 229.732 32.1601C227.994 31.6801 226.73 30.5601 226.256 28.9601C225.94 28.1601 225.94 26.8801 225.94 25.1201V15.6801H229.258Z" fill="#0A4F9E"/>
<path d="M145.044 46.24H141.726C140.146 46.24 139.356 46.08 138.566 45.28C137.776 44.48 137.46 43.2 137.46 41.44C137.46 39.2 138.25 37.6 139.514 36.96C139.988 36.64 140.936 36.48 141.884 36.48H145.044V38.24H142.2C141.252 38.24 140.62 38.56 140.146 39.04C139.83 39.36 139.672 40.16 139.672 41.12C139.672 42.56 139.988 43.52 140.62 44C140.936 44.32 141.568 44.48 142.358 44.48H145.202V46.24H145.044Z" fill="#0A4F9E"/>
<path d="M153.103 38.24H150.417C148.995 38.24 148.521 38.4 148.047 38.88C147.731 39.2 147.731 39.52 147.573 40.48H152.945V42.24H147.573C147.731 43.84 148.363 44.48 150.417 44.48H152.945V46.24H150.259C148.205 46.24 147.257 45.92 146.467 45.12C145.677 44.32 145.203 42.88 145.203 41.28C145.203 39.52 145.677 38.24 146.783 37.28C147.415 36.64 148.047 36.48 149.469 36.48H152.945V38.24H153.103Z" fill="#0A4F9E"/>
<path d="M156.104 46.2399H154.208V36.6399H156.736L160.527 43.6799V36.6399H162.423V46.2399H159.895L156.104 39.1999V46.2399Z" fill="#0A4F9E"/>
<path d="M162.897 38.2399V36.6399H171.113V38.2399H167.953V46.2399H165.899V38.2399H162.897Z" fill="#0A4F9E"/>
<path d="M178.697 38.24H176.011C174.589 38.24 174.115 38.4 173.641 38.88C173.325 39.2 173.325 39.52 173.167 40.48H178.539V42.24H173.167C173.325 43.84 173.957 44.48 176.011 44.48H178.539V46.24H175.853C173.799 46.24 172.851 45.92 172.061 45.12C171.271 44.32 170.797 42.88 170.797 41.28C170.797 39.52 171.271 38.24 172.377 37.28C173.009 36.64 173.641 36.48 175.063 36.48H178.539V38.24H178.697Z" fill="#0A4F9E"/>
<path d="M181.858 46.2399H179.804V36.6399H184.386C185.808 36.6399 186.598 36.7999 187.23 37.2799C187.862 37.7599 188.336 38.5599 188.336 39.3599C188.336 40.7999 187.704 41.7599 186.598 42.2399C187.704 42.5599 188.178 43.3599 188.336 44.9599C188.336 45.9199 188.494 46.0799 188.494 46.3999H186.282C186.282 46.2399 186.124 46.0799 186.124 45.9199C186.124 45.5999 186.124 45.2799 185.966 45.1199C185.808 43.3599 185.176 42.8799 183.438 42.8799H181.858V46.2399ZM184.702 40.7999C185.176 40.7999 185.492 40.7999 185.808 40.4799C186.124 40.3199 186.282 39.8399 186.282 39.3599C186.282 38.7199 185.966 38.3999 185.65 38.2399C185.492 38.2399 185.176 38.2399 184.86 38.2399H182.016V40.7999H184.702Z" fill="#0A4F9E"/>
<path d="M50.8765 30.72V46.4H40.1324V30.72H50.8765Z" fill="#0D4F9E"/>
<path d="M24.964 46.4V28.96H11.218V46.4H0V1.76001H11.218V19.04H24.964V1.76001H36.182V19.04H50.876V28.96H36.182V46.4H24.964Z" fill="#E52429"/>
<path d="M79.7904 46.4V17.28H78.8424L69.9944 46.4H59.8824L51.8244 17.28H40.1324V1.76001H55.4584L65.0964 33.12L75.2084 1.76001H90.5344V46.4H79.7904Z" fill="#0A4F9E"/>
<path d="M128.928 46.24H113.602C106.018 46.24 102.226 45.28 98.7502 41.92C94.9582 38.24 92.7462 32 92.7462 24C92.7462 13.44 96.6962 6.23998 102.858 3.51998C105.386 2.55998 109.81 1.59998 114.076 1.59998H128.928V11.52H115.182C109.178 11.52 107.44 13.76 106.492 14.88C105.544 16 104.912 19.68 104.912 23.2C104.912 28.8 106.018 33.12 108.23 34.72C109.968 36 111.548 36.16 115.498 36.32H128.928V46.24Z" fill="#0A4F9E"/>
</svg>
