<svg width="249" height="56" viewBox="0 0 249 56" fill="none" xmlns="http://www.w3.org/2000/svg">
<path d="M41.2533 0.319022C39.4568 5.19396 37.6923 9.94061 35.8637 14.8155C43.2745 13.7251 50.3003 12.6667 57.6469 11.5763C57.6469 13.4685 57.7111 14.8476 57.5827 16.1946C57.5507 16.4512 56.8449 16.8681 56.4278 16.9002C49.6907 17.253 43.082 18.3114 36.5053 19.7546C34.8692 20.1074 34.1313 20.8771 33.7142 22.4487C31.1798 32.1023 29.1908 41.8522 28.1321 51.7945C28.0679 52.2756 27.9396 52.7246 27.9075 53.2057C27.6509 55.3224 27.298 55.7393 25.726 55.6752C23.4482 55.5469 22.197 54.6168 22.2612 52.7567C22.3895 49.6777 22.5179 46.5668 23.0632 43.5199C24.2182 37.0735 25.6618 30.6912 27.0092 24.2768C27.1055 23.8278 27.1055 23.3467 27.2017 22.4807C23.5445 23.9881 20.1438 25.3351 16.8074 26.7784C16.4545 26.9387 16.1337 27.484 16.0695 27.933C15.0429 34.0908 14.0805 40.2486 13.0859 46.3743C12.9255 47.3365 13.4068 48.6514 11.8669 48.9401C10.2307 49.2608 8.59456 48.5232 8.24167 47.0478C7.88877 45.5725 7.85669 43.9689 8.0171 42.4616C8.43416 38.4526 9.0437 34.4756 9.65325 30.0818C6.4772 31.7816 3.46155 33.4173 0.445908 35.0209C-0.2278 32.9683 0.125095 31.6533 2.08205 30.2742C4.26358 28.7348 6.57344 27.2915 8.94746 25.9766C10.327 25.2069 10.9365 24.2447 11.4177 22.7373C12.9897 17.5417 14.6579 12.346 16.5828 7.27863C17.834 4.03937 20.5288 3.01307 23.6086 4.03937C21.5875 9.7161 19.5985 15.3608 17.5773 21.0375C17.7377 21.1337 17.8981 21.2299 18.0586 21.3582C18.5719 21.1337 19.0852 20.9413 19.5985 20.7168C22.0366 19.7546 24.4427 18.6962 26.913 17.9265C28.4208 17.4454 29.0945 16.5795 29.5437 15.1363C30.7628 11.3838 32.0139 7.63143 33.4897 3.97522C35.0296 0.351093 37.0828 -0.578993 41.2533 0.319022Z" fill="#4E9C32"/>
<path d="M98.6787 2.01857C97.6842 6.82937 96.7539 11.3515 95.7914 15.8737C94.829 20.3958 93.8986 24.95 92.872 29.4722C92.7116 30.1457 92.2625 31.1078 91.7492 31.2041C90.5943 31.4927 89.4072 30.9795 89.0223 29.7929C88.7015 28.8307 88.6694 27.6761 88.8298 26.6819C89.4072 23.4747 90.113 20.3317 90.8509 16.8037C89.8885 16.932 89.1506 16.9962 88.4127 17.1565C86.3916 17.5735 84.3705 18.0546 82.3173 18.5036C81.3869 18.696 80.9057 19.145 80.7132 20.1713C80.1357 23.3144 79.462 26.4253 78.7242 29.5363C78.5638 30.1777 78.8204 31.3323 77.5372 31.2682C76.2539 31.204 75.1311 30.723 74.9065 29.3759C74.714 28.2534 74.8423 27.0347 75.0348 25.8801C75.2915 24.1161 75.7406 22.3522 76.1577 20.2996C74.8423 20.7165 73.8157 21.0693 72.6929 21.4221C72.4041 19.7544 73.2703 18.696 74.5536 18.2791C76.5426 17.6376 77.1201 16.2585 77.473 14.3983C78.1146 10.7421 79.0129 7.11801 79.7187 3.42974C79.9433 2.24308 80.4886 1.82614 81.6756 1.95443C82.5739 2.05065 83.4722 1.9865 84.6913 1.9865C83.7609 6.34829 82.8947 10.5176 81.9644 15.0077C84.563 14.4304 86.9049 13.7569 89.311 13.4362C91.3642 13.1796 92.0379 12.1533 92.2625 10.2611C92.5191 7.98396 93.1287 5.77099 93.5137 3.52596C93.7061 2.33929 94.2515 1.79407 95.5348 1.95443C96.4651 2.11479 97.4597 2.01857 98.6787 2.01857Z" fill="#4E9C32"/>
<path d="M195.468 13.2438C194.955 15.7133 194.506 17.8942 194.025 20.0751C193.19 23.8596 192.517 27.7082 191.458 31.4606C189.726 37.7147 183.919 40.8256 177.727 38.9013C176.733 38.6127 175.738 38.0354 175 37.3298C172.915 35.4055 173.3 32.4228 175.738 30.9475C176.38 30.5626 177.054 30.306 177.888 29.8891C175.931 27.1951 177.086 24.4369 177.599 21.7108C178.048 19.3695 178.658 17.0282 179.139 14.687C179.395 13.4362 179.813 12.6344 181.288 12.891C182.122 13.0193 182.989 12.923 183.983 12.923C183.951 13.4683 183.983 13.8531 183.887 14.238C183.181 17.6697 182.443 21.1014 181.705 24.5331C181.417 25.816 181.449 27.0988 182.764 27.7403C184.047 28.3817 185.587 28.2534 186.453 27.1309C187.448 25.816 188.218 24.2444 188.699 22.6408C189.501 19.9789 190.014 17.2528 190.528 14.5587C190.72 13.4683 191.201 13.1475 192.228 13.2117C193.19 13.3079 194.153 13.2438 195.468 13.2438ZM186.678 30.274C184.913 30.6588 183.117 31.0116 181.32 31.3965C180.647 31.5248 179.973 31.6851 179.299 31.8776C178.144 32.2304 177.278 32.8076 177.31 34.1867C177.342 35.63 178.337 36.2393 179.524 36.528C183.181 37.4901 187.127 33.8981 186.678 30.274Z" fill="#4E9C32"/>
<path d="M146.993 29.3439C144.716 31.172 142.342 31.7813 139.679 31.0437C137.209 30.3702 135.701 28.4779 135.54 25.9763C134.995 18.5035 140.481 12.6023 147.988 12.6023C148.565 12.6023 149.143 12.6023 149.913 12.6023C150.458 10.1007 151.132 7.66321 151.549 5.1616C151.838 3.558 152.351 2.62792 154.18 2.91657C154.949 3.04485 155.752 2.94864 156.81 2.94864C156.265 5.51439 155.784 7.91979 155.27 10.3252C153.955 16.6113 152.64 22.9295 151.292 29.2156C151.164 29.857 150.619 30.9795 150.362 30.9475C149.432 30.8833 148.533 30.4022 147.635 30.0494C147.346 29.9532 147.25 29.6646 146.993 29.3439ZM149.464 15.7774C148.277 15.7774 147.314 15.6171 146.48 15.8095C141.828 16.8679 139.807 22.7691 140.32 25.7197C140.802 28.4458 143.529 29.408 145.614 27.5799C146.223 27.0347 146.801 26.2649 146.993 25.4952C147.86 22.3842 148.597 19.2733 149.464 15.7774Z" fill="#4E9C32"/>
<path d="M166.531 29.7608C165.023 31.0757 163.002 31.6209 160.788 31.4285C158.029 31.1719 156.072 29.408 155.784 26.6819C155.27 21.9031 156.81 17.8941 160.724 15.0397C164.574 12.2174 168.744 11.8646 173.14 13.7889C174.102 14.2059 174.391 14.719 174.166 15.7453C173.075 20.5882 171.985 25.399 170.99 30.2418C170.766 31.2681 170.188 31.5247 169.418 31.2681C168.456 30.9474 167.654 30.3701 166.531 29.7608ZM167.622 15.3925C166.82 15.6491 165.953 15.8095 165.216 16.1943C162.039 17.8621 159.794 22.8653 160.628 26.3611C161.013 27.9327 161.943 28.6062 163.515 28.4137C165.536 28.1892 166.659 26.9064 167.172 25.0783C167.91 22.4163 168.488 19.6902 169.162 16.9961C169.514 15.6812 168.712 15.4887 167.622 15.3925Z" fill="#4E9C32"/>
<path d="M115.458 19.8185C115.361 25.3028 112.249 29.857 107.437 31.0436C105.737 31.4606 103.812 31.4926 102.08 31.204C99.2245 30.755 97.3958 28.3496 97.3317 25.399C97.1071 18.0545 101.823 12.6023 108.4 12.6023C112.923 12.6023 115.554 15.2963 115.458 19.8185ZM110.485 19.8185C110.485 19.4977 110.485 19.177 110.485 18.8563C110.357 16.066 108.015 14.7511 105.673 16.2264C104.742 16.8358 103.78 17.7658 103.363 18.7601C102.625 20.492 102.144 22.3842 101.823 24.2444C101.566 25.7518 101.855 27.2591 103.363 28.1251C104.646 28.8627 106.411 28.4458 107.694 27.0667C109.619 25.0462 110.421 22.5766 110.485 19.8185Z" fill="#4E9C32"/>
<path d="M209.552 30.755C210.514 26.2329 211.412 22.0956 212.279 17.9262C212.503 16.7717 212.632 15.6171 212.792 14.4625C212.888 13.789 212.567 12.7627 213.786 12.891C214.845 13.0192 216.385 12.1212 216.802 14.0455C216.834 14.238 216.963 14.4304 217.123 14.8153C217.636 14.4625 218.053 14.2059 218.438 13.9173C220.427 12.474 222.705 12.2495 225.015 12.6985C227.549 13.1796 228.801 15.4246 228.191 18.0866C227.389 21.7749 226.619 25.4952 225.753 29.1514C225.592 29.8249 224.919 30.9795 224.726 30.9154C223.732 30.6267 222.577 30.2739 221.935 29.5042C221.454 28.959 221.518 27.7723 221.646 26.9385C222.096 24.4369 222.737 21.9352 223.25 19.4336C223.539 18.0866 223.603 16.7396 222.128 15.9378C220.941 15.2963 219.112 15.585 218.278 16.9641C217.251 18.6639 216.513 20.5882 215.936 22.4805C215.294 24.6293 214.941 26.8422 214.524 29.0552C214.3 30.2739 213.883 31.0116 212.471 30.8192C211.637 30.6588 210.707 30.755 209.552 30.755Z" fill="#4E9C32"/>
<path d="M237.912 14.7832C239.805 13.0513 241.986 12.2816 244.521 12.5382C247.568 12.8268 249.333 14.687 248.948 17.798C248.563 20.9731 247.793 24.0841 247.183 27.195C247.055 27.8686 246.895 28.5421 246.734 29.2156C246.542 29.9853 246.766 31.0758 245.419 30.9795C244.2 30.8833 242.949 30.5305 242.756 29.1514C242.564 28.0289 242.692 26.8102 242.884 25.6877C243.237 23.6992 243.751 21.7428 244.2 19.7544C244.649 17.6376 244.264 16.3868 242.981 15.8416C241.569 15.2322 239.58 15.7774 238.778 17.5093C237.783 19.7223 237.174 22.0956 236.5 24.4369C236.051 26.0084 235.73 27.6441 235.474 29.2797C235.313 30.4343 234.768 30.8192 233.645 30.755C232.65 30.6909 231.656 30.755 230.501 30.755C231.431 26.1046 232.298 21.7107 233.164 17.349C233.324 16.4509 233.388 15.5529 233.581 14.6549C233.741 13.9173 233.324 12.7947 234.768 12.8268C235.955 12.8589 237.334 12.474 237.527 14.3342C237.495 14.4304 237.623 14.5266 237.912 14.7832Z" fill="#4E9C32"/>
<path d="M210.996 2.40342C209.103 11.3194 207.242 20.0109 205.413 28.7024C205.349 28.959 205.349 29.2476 205.253 29.4721C204.9 30.0815 204.387 31.2682 204.162 31.204C203.2 30.9795 202.077 30.5947 201.467 29.8891C200.986 29.3118 200.89 28.1251 201.05 27.3233C202.687 19.2733 204.419 11.2553 206.087 3.23729C206.28 2.37135 206.633 1.92234 207.595 2.05063C208.686 2.21099 209.744 2.27513 210.996 2.40342Z" fill="#4E9C32"/>
<path d="M123.478 6.41241C125.852 6.41241 125.884 6.41241 125.37 8.78574C123.927 15.7133 122.451 22.6408 120.975 29.5684C120.815 30.3381 121.136 31.5568 119.66 31.5248C118.088 31.4606 116.997 30.6267 116.901 29.1835C116.837 28.1893 116.901 27.163 117.094 26.1687C118.281 20.3316 119.532 14.4945 120.751 8.65745C121.232 6.41241 121.2 6.41241 123.478 6.41241Z" fill="#4E9C32"/>
<path d="M134.289 12.923C133.391 17.3489 132.525 21.5183 131.658 25.6556C131.37 27.0026 131.145 28.3817 130.792 29.6966C130.632 30.3381 130.022 31.4285 129.862 31.3965C128.899 31.1719 127.68 30.8833 127.135 30.1456C126.622 29.4721 126.525 28.2213 126.718 27.2912C127.52 22.8974 128.514 18.5356 129.381 14.1738C129.573 13.1796 130.022 12.8268 130.985 12.8909C131.979 12.9872 132.974 12.923 134.289 12.923Z" fill="#4E9C32"/>
<path d="M133.615 5.19366C134.995 5.19366 136.021 6.18789 135.957 7.47077C135.893 8.97815 134.129 10.5176 132.525 10.4535C131.273 10.4214 130.439 9.55545 130.407 8.30464C130.375 6.66897 131.915 5.19366 133.615 5.19366Z" fill="#4E9C32"/>
</svg>
