<svg width="127" height="85" viewBox="0 0 127 85" fill="none" xmlns="http://www.w3.org/2000/svg">
<path d="M124.353 68.7912H116.415V10.5833C116.415 4.74658 111.669 0 105.832 0H21.1664C15.3296 0 10.5831 4.74633 10.5831 10.5833V68.7912H2.64564C1.18342 68.7912 0 69.9743 0 71.4368V74.0827C0 79.9194 4.74633 84.666 10.5833 84.666H116.416C122.252 84.666 126.999 79.9194 126.999 74.0827V71.4368C126.999 69.9743 125.815 68.7912 124.353 68.7912ZM15.8748 10.5833C15.8748 7.66631 18.2494 5.29178 21.1664 5.29178H105.832C108.749 5.29178 111.124 7.66631 111.124 10.5833V68.7912H76.7284H50.2704H15.8748V10.5833ZM116.415 79.3742H10.5833C7.66631 79.3742 5.29178 76.9997 5.29178 74.0827H13.2292H49.1748L51.0456 75.9535C51.5417 76.4495 52.2134 76.7286 52.9163 76.7286H74.0827C74.7854 76.7286 75.4574 76.4495 75.9535 75.9535L77.824 74.0827H113.77H121.707C121.707 76.9997 119.333 79.3742 116.415 79.3742Z" fill="white"/>
</svg>
