<svg width="95" height="95" viewBox="0 0 95 95" fill="none" xmlns="http://www.w3.org/2000/svg">
<g clip-path="url(#clip0)">
<path d="M93.5867 18.8868C93.1089 17.7335 91.9936 16.9881 90.7452 16.9881H88.2776C84.4628 16.9881 80.6129 16.7174 76.835 16.1838C76.0753 16.0762 75.3699 16.6061 75.2625 17.3672C75.1549 18.1281 75.6846 18.8323 76.4457 18.9397C80.3522 19.4915 84.3329 19.7713 88.2775 19.7713H90.7451C90.7935 19.7713 90.9406 19.7713 91.0152 19.9519C91.09 20.1324 90.9861 20.2363 90.9518 20.2704L89.0002 22.222C87.8485 23.3737 86.317 24.0083 84.6881 24.0083H82.8979C80.5255 24.0083 78.2951 24.9321 76.6175 26.6096C75.4658 27.7615 73.9343 28.3957 72.3054 28.3957H68.6628C67.4693 28.3957 66.2737 28.6418 65.1748 29.1099C65.0001 29.0147 64.8212 28.9201 64.6303 28.8301C63.2568 28.1822 61.6717 27.9463 60.1699 28.1656C58.8579 28.3573 57.6006 28.9546 56.6298 29.8474C55.5336 30.8555 54.9148 32.153 54.887 33.501C54.885 33.6033 54.8887 33.7051 54.8933 33.807H51.5481V19.9738C51.5587 19.9652 51.5696 19.9578 51.58 19.9489C55.5271 16.5729 60.8744 15.3781 65.8849 16.7536C67.5213 17.2028 69.1929 17.6078 70.8535 17.9574C71.6035 18.1151 72.3436 17.6346 72.5019 16.8824C72.6604 16.1303 72.1791 15.3922 71.4268 15.234C69.8209 14.8959 68.2041 14.5042 66.6217 14.0698C61.442 12.648 55.9565 13.5585 51.5483 16.4912V13.7433C53.6763 12.3771 54.9655 10.045 54.9655 7.46715C54.9655 3.34986 51.6164 0 47.5 0C43.3837 0 40.0345 3.34986 40.0345 7.46733C40.0345 10.0344 41.3163 12.3617 43.4323 13.7301V16.4801C39.0276 13.564 33.522 12.658 28.3783 14.0698C21.324 16.0064 14.0378 16.9883 6.72238 16.9883H4.25498C3.00643 16.9883 1.8913 17.7336 1.41351 18.887C0.935729 20.0404 1.19754 21.3561 2.08018 22.2387L4.03176 24.1901C5.70929 25.8676 7.93975 26.7915 10.3122 26.7915H12.1023C13.7312 26.7915 15.2627 27.4259 16.4144 28.5776C18.0919 30.2551 20.3224 31.1789 22.6948 31.1789H24.0983C23.2733 31.6914 22.5711 32.2772 21.9684 32.9552C20.2224 34.9199 19.3082 37.2161 19.3249 39.5957C19.3442 42.2626 20.5521 44.9051 22.5562 46.6647C24.2792 48.1774 26.4033 48.9528 28.4316 49.6173C28.5753 49.6644 28.7216 49.6869 28.865 49.6869C29.4504 49.6869 29.9952 49.3146 30.1872 48.7281C30.4265 47.9978 30.0286 47.2118 29.2981 46.9725C27.5441 46.3979 25.7203 45.7393 24.3926 44.5734C22.9757 43.3293 22.1218 41.4612 22.1081 39.5758C22.0964 37.8961 22.7674 36.246 24.0487 34.8041C24.6141 34.1681 25.3216 33.6365 26.2117 33.1786C26.8451 32.8527 27.5114 32.6093 28.2169 32.3516C28.6013 32.2111 28.9991 32.0658 29.4044 31.9022C30.9552 31.276 32.7657 30.6763 34.432 30.9732C35.7152 31.2019 37.1109 32.2521 37.1285 33.5495C37.1391 34.3341 36.6197 35.1721 35.8364 35.6346C35.0545 36.0961 33.9892 36.2379 32.9123 36.0236C32.5173 35.9449 32.1015 35.8211 31.6612 35.6901C30.4317 35.3242 29.0381 34.9093 27.5526 35.3504C26.1985 35.7525 25.147 36.8845 24.7397 38.3783C24.3326 39.8722 24.6642 41.3812 25.627 42.4149C26.5137 43.3669 27.7257 43.7935 28.6108 44.105C33.3916 45.7881 38.2624 47.4119 43.105 48.9391C41.9729 49.3339 40.8086 49.7858 39.697 50.3765C38.0831 49.842 36.4689 49.3098 34.853 48.7808C34.1223 48.5417 33.3367 48.94 33.0973 49.6702C32.8581 50.4005 33.2563 51.1866 33.9868 51.4258C34.95 51.7412 35.9121 52.0598 36.8747 52.3771C34.3412 54.7913 33.1018 58.2378 33.371 62.1938C33.6228 65.8925 35.7803 69.2036 39.6102 71.771C38.7901 72.4145 38.0095 73.1225 37.2987 73.9191C35.0604 76.4273 33.9223 79.4953 34.1763 82.3364C34.4882 85.823 36.9999 88.7771 40.1487 89.3609C40.2333 89.3764 40.3181 89.3841 40.4023 89.3841C40.7867 89.3841 41.1588 89.2245 41.4247 88.9365C41.749 88.5853 41.8703 88.0925 41.746 87.6308C41.0743 85.1337 40.5394 82.7287 41.3597 80.7487C41.7796 79.7352 42.5342 78.8975 43.4325 78.1835V90.9417C43.4325 93.1794 45.2529 94.9998 47.4906 94.9998C49.7283 94.9998 51.5487 93.1794 51.5487 90.9417V78.4051C52.4422 79.1818 53.062 79.9924 53.4227 80.8571C54.3332 83.04 53.6381 85.7432 53.0362 87.5867C52.8866 88.0446 52.9848 88.5474 53.2952 88.9157C53.5618 89.2319 53.9522 89.4102 54.3588 89.4102C54.4259 89.4102 54.4938 89.4054 54.5614 89.3954C57.8626 88.9102 60.4963 85.7835 60.6878 82.1223C60.8394 79.2148 59.5229 76.1035 57.0753 73.5866C56.4493 72.9427 55.7546 72.3304 54.9547 71.7178C56.8603 70.4002 58.5488 68.8229 59.7734 66.7477C60.2417 65.9536 60.6197 65.0952 60.8971 64.1966C61.8959 60.9568 61.4975 57.4212 59.8316 54.7391C59.3114 53.9012 58.6835 53.1404 57.9383 52.4396L66.3727 49.6601C68.0738 49.0994 70.0022 48.4641 71.628 47.2443C74.5207 45.0742 75.9952 41.232 75.297 37.6836C74.9353 35.8458 73.9712 34.0777 72.5821 32.705C71.9761 32.1063 71.3042 31.594 70.5865 31.1786H72.3056C74.678 31.1786 76.9085 30.2547 78.586 28.5772C79.7377 27.4255 81.2692 26.7911 82.8981 26.7911H84.6882C87.0607 26.7911 89.2911 25.8673 90.9686 24.1897L92.9202 22.2383C93.8027 21.3559 94.0645 20.0402 93.5867 18.8868ZM55.9123 36.5904C56.4688 37.3469 57.2247 37.9826 58.1228 38.4006C59.7192 39.1435 61.6721 39.2174 63.6224 38.6086C63.8901 38.5249 64.1477 38.4327 64.3967 38.3434C65.029 38.1169 65.6291 37.9035 66.1178 37.9408C66.7028 37.9861 67.2845 38.4852 67.442 39.0775C67.6051 39.6901 67.3524 40.4414 66.8412 40.8635C66.411 41.2191 65.7504 41.4376 65.1119 41.6488L51.5485 46.1362V36.5902H55.9123V36.5904ZM42.8177 7.46733C42.8177 4.88452 44.9181 2.7832 47.5 2.7832C50.0819 2.7832 52.1823 4.88452 52.1823 7.46733C52.1823 9.27419 51.1725 10.8886 49.5472 11.6807C49.0686 11.914 48.7651 12.3995 48.7651 12.9317V47.0571L46.1496 47.9225C46.1921 47.7891 46.2153 47.6473 46.2153 47.5V12.9217C46.2153 12.3914 45.9138 11.9071 45.438 11.6729C43.8217 10.8779 42.8177 9.2664 42.8177 7.46733ZM34.9201 28.2332C32.9624 27.8844 31.0626 28.3299 29.3775 28.9334C28.4017 28.5772 27.381 28.3957 26.3371 28.3957H22.6944C21.0655 28.3957 19.534 27.7613 18.3823 26.6096C16.7048 24.9321 14.4745 24.0083 12.1019 24.0083H10.3118C8.68287 24.0083 7.15136 23.3739 5.99967 22.222L4.04809 20.2704C4.01377 20.2363 3.90986 20.1322 3.98464 19.9519C4.05923 19.7713 4.20636 19.7713 4.25479 19.7713H6.72238C14.2868 19.7713 21.8205 18.756 29.1149 16.7536C33.9597 15.424 39.184 16.5152 43.0894 19.6741C43.1959 19.7602 43.3115 19.8274 43.4321 19.8773V33.807H39.9041C39.9093 33.7087 39.9124 33.6103 39.9112 33.512C39.8726 30.6544 37.3109 28.6594 34.9201 28.2332ZM27.6632 40.5179C27.3082 40.1368 27.3073 39.541 27.4246 39.1105C27.542 38.6798 27.8454 38.167 28.3445 38.0187C29.0366 37.8132 29.8849 38.0655 30.8674 38.3579C31.3491 38.5013 31.8469 38.6494 32.3687 38.7533C34.1332 39.1049 35.8672 38.8485 37.251 38.0315C37.8859 37.6567 38.4301 37.1602 38.8591 36.5904H43.4323V46.1242C38.7871 44.6532 34.1191 43.0938 29.5348 41.4801C28.8544 41.2404 28.0835 40.9689 27.6632 40.5179ZM47.4902 92.2168C46.7871 92.2168 46.2153 91.6449 46.2153 90.9419V76.4429C46.234 76.4331 46.2531 76.4229 46.2719 76.413C47.0536 76.0054 47.8776 75.5987 48.6743 75.2053C48.7046 75.1903 48.7348 75.1754 48.7651 75.1604V90.9419C48.7651 91.6449 48.1932 92.2168 47.4902 92.2168ZM55.08 75.5272C56.9889 77.4903 58.0198 79.8414 57.9081 81.9774C57.8415 83.2562 57.285 84.4747 56.4664 85.3501C56.754 83.5872 56.7588 81.6269 55.9908 79.7859C55.2299 77.9614 53.7743 76.3789 51.5483 74.9515V73.7519C51.8312 73.602 52.1125 73.4495 52.392 73.2944C53.472 74.0458 54.3396 74.7661 55.08 75.5272ZM57.4672 56.2079C58.7145 58.2159 59.0021 60.8959 58.2372 63.3771C58.0241 64.0684 57.7342 64.7267 57.3761 65.334C55.3177 68.8223 51.3141 70.7986 47.4425 72.7097C46.632 73.1097 45.7941 73.5233 44.9849 73.9453C42.576 75.2016 39.9557 76.8658 38.7882 79.6839C38.0399 81.4902 38.0522 83.3978 38.3631 85.2953C37.5888 84.457 37.0576 83.3154 36.948 82.0889C36.7622 80.0111 37.6467 77.7089 39.3747 75.7723C41.0617 73.882 43.3172 72.5026 45.5035 71.2936C45.9739 71.0335 46.4476 70.7774 46.9213 70.5214C48.8369 69.4858 50.8178 68.4154 52.6219 67.0477C53.6526 66.2664 54.9301 65.1668 55.6667 63.5886C56.8649 61.0208 56.1803 57.7834 54.0385 55.8914C53.3396 55.2739 52.5363 54.8308 51.7388 54.4831L54.8017 53.4737C55.9502 54.2777 56.8241 55.1726 57.4672 56.2079ZM51.5483 57.506C51.7795 57.6479 51.998 57.8023 52.1955 57.9769C53.3939 59.0358 53.8107 60.9837 53.1442 62.4117C52.8423 63.0587 52.3393 63.6706 51.5481 64.343V57.506H51.5483ZM47.4909 55.8828C47.5781 55.9361 47.6718 55.9815 47.773 56.0155C48.1038 56.1268 48.4346 56.2383 48.7653 56.3502V66.2914C47.9435 66.7902 47.0922 67.2628 46.2155 67.7385V56.3033C46.2587 56.289 46.3021 56.2747 46.345 56.2606L47.4909 55.8828ZM43.4321 64.7028C42.9304 64.3655 42.4693 63.9981 42.1134 63.5684C40.922 62.1304 41.0035 59.6797 42.2874 58.3237C42.6122 57.9808 43.0035 57.6936 43.4323 57.4448V64.7028H43.4321ZM72.5661 38.2214C73.0548 40.7045 71.9822 43.4996 69.9575 45.0183C68.6969 45.964 67.0724 46.4993 65.5012 47.017L45.4735 53.6169C43.8139 54.1639 41.7484 54.8445 40.2663 56.4096C38.0021 58.8004 37.8692 62.8082 39.9698 65.3435C40.9437 66.5195 42.227 67.2624 43.3592 67.9179C43.3829 67.9317 43.4076 67.943 43.4319 67.9552V69.2641C42.9868 69.5174 42.5411 69.7795 42.0978 70.0528C41.7774 69.8612 41.4761 69.671 41.1846 69.4762C38.0362 67.3734 36.3414 64.8596 36.147 62.0044C35.9167 58.618 37.0545 55.7413 39.3506 53.904C41.0573 52.5383 43.2751 51.8045 45.42 51.095L65.9859 44.2908C66.7854 44.0262 67.7805 43.6968 68.6134 43.009C69.964 41.8935 70.5741 40.0258 70.1315 38.3616C69.6677 36.6167 68.1052 35.3025 66.3319 35.1654C65.2474 35.0815 64.2963 35.4224 63.4574 35.7228C63.2249 35.8061 63.0054 35.8848 62.7926 35.9512C61.5053 36.3529 60.264 36.3266 59.2971 35.8768C58.3356 35.4292 57.6513 34.454 57.6697 33.558C57.6917 32.4898 58.8076 31.1771 60.5722 30.9193C61.5387 30.7781 62.5588 30.9299 63.4431 31.347C63.6658 31.4521 63.8951 31.5801 64.138 31.7157C64.5308 31.935 64.9763 32.1837 65.4723 32.3722C65.982 32.5657 66.4945 32.6763 66.9464 32.7737C67.1684 32.8216 67.378 32.8668 67.5769 32.9186C68.698 33.211 69.7523 33.8217 70.6257 34.6847C71.622 35.6697 72.3112 36.9255 72.5661 38.2214Z" fill="white"/>
</g>
<defs>
<clipPath id="clip0">
<rect width="95" height="95" fill="white"/>
</clipPath>
</defs>
</svg>
