<svg width="96" height="96" viewBox="0 0 96 96" fill="none" xmlns="http://www.w3.org/2000/svg">
<path d="M93.0256 41.2328C90.0152 40.8654 87.0261 40.3401 84.0708 39.659C85.7853 36.988 86.6521 33.861 86.5574 30.6885C86.5574 24.6925 81.4898 10.0092 78.1849 3.39935C77.3831 1.80551 75.7514 0.799773 73.9672 0.799773C72.1831 0.799773 70.5513 1.80551 69.7495 3.39935C66.4446 10.0092 61.3771 24.6925 61.3771 30.6885C61.3777 32.0799 61.5254 33.4672 61.8177 34.8275C60.543 34.6544 59.2839 34.4971 58.0249 34.3712C58.1639 33.6769 58.2324 32.9703 58.2295 32.2623C58.2295 26.1781 53.2973 21.2459 47.2131 21.2459C41.1289 21.2459 36.1967 26.1781 36.1967 32.2623C36.1923 32.9704 36.2609 33.6771 36.4013 34.3712C35.1108 34.4971 33.8518 34.6544 32.6243 34.8275C32.9146 33.4672 33.057 32.0795 33.0492 30.6885C33.0492 24.7082 27.9816 10.0249 24.6767 3.39935C23.878 1.79687 22.2416 0.784058 20.4511 0.784058C18.6607 0.784058 17.0243 1.79687 16.2256 3.39935C14.327 7.42995 12.6869 11.5774 11.3154 15.8164C10.55 16.3199 9.93542 17.0215 9.53705 17.8466C5.77574 25.4793 0 42.5548 0 49.2118C0 58.1036 4.5482 63.061 9.99344 64.6977C9.90708 66.8338 9.26716 68.9109 8.13639 70.7252C7.90213 71.0715 7.81528 71.4968 7.895 71.9072C7.97472 72.3176 8.21445 72.6794 8.56131 72.9128C8.82183 73.0879 9.12875 73.181 9.44262 73.1803C9.9661 73.1811 10.4557 72.9216 10.7489 72.4879C12.1203 70.3293 12.9317 67.8627 13.1095 65.3115H14.1639H15.2184C15.3884 67.8789 16.2001 70.3627 17.579 72.5351C17.8827 72.9509 18.3705 73.1919 18.8852 73.1803C19.1991 73.181 19.506 73.0879 19.7666 72.9128C20.1134 72.6794 20.3532 72.3176 20.4329 71.9072C20.5126 71.4968 20.4257 71.0715 20.1915 70.7252C19.0607 68.9109 18.4208 66.8338 18.3344 64.6977C23.7797 63.1239 28.3279 58.1036 28.3279 49.2118C28.2401 47.0514 27.9343 44.9055 27.4151 42.8066C29.159 41.6564 30.5615 40.0582 31.4754 38.1797C34.9926 37.6166 38.5396 37.2592 42.0984 37.1095C35.0479 41.2013 31.4754 45.3875 31.4754 49.5738C31.4754 55.3338 38.6675 59.0164 45.0256 62.337C47.6223 63.6905 51.541 65.7049 51.8243 66.539C51.6435 66.7819 51.4057 66.9765 51.1318 67.1056C48.0513 68.6053 44.8235 69.7814 41.5003 70.6151C31.0662 73.7626 16.7449 78.1062 8.18361 90.2557C7.5149 91.212 7.4301 92.4597 7.96328 93.4977C8.50098 94.55 9.58283 95.2125 10.7646 95.2131H47.5908C48.7513 95.2148 49.8718 94.789 50.7384 94.017C55.6263 90.0066 61.0176 86.6523 66.7751 84.0393C78.4525 78.4525 83.9921 73.1803 83.6931 67.7508C83.2682 59.4728 69.3876 54.5626 59.2682 50.9744C57.9305 50.5023 56.703 50.0774 55.6328 49.6682C53.398 48.8341 52.1233 47.7167 51.84 46.3475C51.3993 44.1915 53.162 40.9495 56.6872 37.3928C58.7646 37.5816 60.842 37.8334 62.9823 38.1797C64.3291 40.9601 66.7228 43.0936 69.6394 44.1128C69.6681 46.2837 69.0786 48.4179 67.9397 50.2662C67.7054 50.6125 67.6186 51.0378 67.6983 51.4482C67.778 51.8586 68.0177 52.2204 68.3646 52.4538C68.6251 52.6288 68.932 52.722 69.2459 52.7213C69.7694 52.7221 70.259 52.4626 70.5521 52.0289C71.9242 49.88 72.6908 47.4007 72.7712 44.8525C73.5663 44.9364 74.3681 44.9364 75.1633 44.8525C75.2323 47.4222 75.9994 49.9248 77.3823 52.0918C77.6893 52.5017 78.1766 52.7365 78.6885 52.7213C79.0024 52.722 79.3093 52.6288 79.5698 52.4538C79.9167 52.2204 80.1564 51.8586 80.2362 51.4482C80.3159 51.0378 80.229 50.6125 79.9948 50.2662C78.8559 48.4179 78.2663 46.2837 78.2951 44.1128C79.4726 43.7021 80.5775 43.1072 81.5685 42.3502C85.2269 43.2471 88.9377 43.9146 92.6794 44.3489H92.8525C93.7216 44.3967 94.465 43.7308 94.5128 42.8616C94.5606 41.9925 93.8948 41.2491 93.0256 41.2013V41.2328ZM14.1639 62.1639C7.47541 62.1639 3.14754 57.0807 3.14754 49.2118C3.14754 43.0741 8.79738 26.4394 12.3541 19.3102C12.692 18.6188 13.3944 18.1803 14.1639 18.1803C14.9335 18.1803 15.6358 18.6188 15.9738 19.3102C19.5305 26.4394 25.1803 43.0741 25.1803 49.2118C25.1803 57.0807 20.8525 62.1639 14.1639 62.1639ZM18.7908 17.8466C18.069 16.292 16.6145 15.2041 14.9193 14.9508C16.1004 11.497 17.477 8.11313 19.0426 4.81574C19.3088 4.28158 19.8543 3.94398 20.4511 3.94398C21.048 3.94398 21.5935 4.28158 21.8597 4.81574C24.96 11.0321 29.9016 25.4164 29.9016 30.6885C30.1103 33.9542 28.9067 37.1523 26.5967 39.4702C24.6162 32.0529 22.0047 24.8186 18.7908 17.8466ZM39.3443 32.2623C39.3443 27.9165 42.8673 24.3934 47.2131 24.3934C51.559 24.3934 55.082 27.9165 55.082 32.2623C55.0777 32.8844 54.993 33.5032 54.8302 34.1036C52.8944 33.9777 50.8957 33.8833 48.8498 33.8518H47.2131C44.6007 33.8518 42.0669 33.9462 39.5961 34.1194C39.4308 33.5141 39.3461 32.8897 39.3443 32.2623ZM48.7869 46.9928C49.3062 49.4793 51.2577 51.3836 54.5626 52.6269L58.2453 53.9488C66.4761 56.8603 80.278 61.739 80.5928 67.9239C80.7344 70.6151 78.2164 75.1003 65.4531 81.2066C59.4104 83.9355 53.7538 87.449 48.6295 91.6564C48.3449 91.9151 47.9754 92.0607 47.5908 92.0656H10.7489C18.6964 80.7974 32.4039 76.6584 42.4918 73.6367C46.0613 72.7391 49.5229 71.4569 52.8157 69.8125C54.1132 69.2267 54.9711 67.9611 55.0348 66.539C54.9561 63.8951 51.4308 62.0695 46.5521 59.5515C41.1856 56.8131 34.623 53.4138 34.623 49.5738C34.623 45.7338 39.9108 41.2957 49.1331 36.9836C50.3292 36.9836 51.4938 36.9836 52.6584 37.078C50.1403 40.1311 48.063 43.6564 48.7869 46.9928ZM64.5246 30.6885C64.5246 25.7626 69.12 11.7089 72.5666 4.81574C72.8358 4.29016 73.3767 3.95955 73.9672 3.95955C74.5578 3.95955 75.0986 4.29016 75.3679 4.81574C78.8144 11.7089 83.4098 25.7626 83.4098 30.6885C83.6009 33.8893 82.462 37.027 80.2623 39.36L80.1207 39.5016C79.0054 40.4926 77.6481 41.1712 76.1862 41.4689C75.4577 41.6301 74.7134 41.7093 73.9672 41.7049C68.1443 41.7049 64.5246 37.4872 64.5246 30.6885Z" fill="white"/>
<path d="M73.967 35.4097C73.1014 35.4097 70.8194 35.4097 70.8194 30.6884C70.8194 29.8192 70.1148 29.1146 69.2456 29.1146C68.3765 29.1146 67.6719 29.8192 67.6719 30.6884C67.6719 35.693 69.9696 38.5573 73.967 38.5573C74.8361 38.5573 75.5407 37.8526 75.5407 36.9835C75.5407 36.1143 74.8361 35.4097 73.967 35.4097Z" fill="white"/>
<path d="M14.1638 55.8688C11.0162 55.8688 9.44246 53.634 9.44246 49.2117C9.44246 48.3425 8.73786 47.6379 7.86869 47.6379C6.99952 47.6379 6.29492 48.3425 6.29492 49.2117C6.29492 55.3494 9.23787 59.0163 14.1638 59.0163C15.0329 59.0163 15.7375 58.3117 15.7375 57.4425C15.7375 56.5734 15.0329 55.8688 14.1638 55.8688Z" fill="white"/>
<path d="M44.0655 88.9182C44.9346 88.9182 45.6392 88.2136 45.6392 87.3444C45.6392 86.4752 44.9346 85.7706 44.0655 85.7706C43.1963 85.7706 42.4917 86.4752 42.4917 87.3444C42.4917 88.2136 43.1963 88.9182 44.0655 88.9182Z" fill="white"/>
<path d="M44.0655 79.4755C44.9346 79.4755 45.6392 78.7709 45.6392 77.9018C45.6392 77.0326 44.9346 76.328 44.0655 76.328C43.1963 76.328 42.4917 77.0326 42.4917 77.9018C42.4917 78.7709 43.1963 79.4755 44.0655 79.4755Z" fill="white"/>
<path d="M73.9669 66.8851C74.8361 66.8851 75.5407 66.1805 75.5407 65.3113C75.5407 64.4422 74.8361 63.7375 73.9669 63.7375C73.0978 63.7375 72.3932 64.4422 72.3932 65.3113C72.3932 66.1805 73.0978 66.8851 73.9669 66.8851Z" fill="white"/>
<path d="M66.0983 63.7376C66.9675 63.7376 67.6721 63.033 67.6721 62.1639C67.6721 61.2947 66.9675 60.5901 66.0983 60.5901C65.2291 60.5901 64.5245 61.2947 64.5245 62.1639C64.5245 63.033 65.2291 63.7376 66.0983 63.7376Z" fill="white"/>
<path d="M39.344 51.1475C40.2132 51.1475 40.9178 50.4429 40.9178 49.5738C40.9178 48.7046 40.2132 48 39.344 48C38.4749 48 37.7703 48.7046 37.7703 49.5738C37.7703 50.4429 38.4749 51.1475 39.344 51.1475Z" fill="white"/>
<path d="M67.672 68.4591C68.5412 68.4591 69.2458 67.7545 69.2458 66.8853C69.2458 66.0161 68.5412 65.3115 67.672 65.3115C66.8029 65.3115 66.0983 66.0161 66.0983 66.8853C66.0983 67.7545 66.8029 68.4591 67.672 68.4591Z" fill="white"/>
<path d="M48.7867 16.5248V13.3772C48.7867 12.5081 48.0821 11.8035 47.2129 11.8035C46.3438 11.8035 45.6392 12.5081 45.6392 13.3772V16.5248C45.6392 17.3939 46.3438 18.0985 47.2129 18.0985C48.0821 18.0985 48.7867 17.3939 48.7867 16.5248Z" fill="white"/>
<path d="M39.3442 20.2073C39.9075 20.2095 40.4291 19.9104 40.7118 19.4231C40.9944 18.9358 40.995 18.3345 40.7133 17.8466L39.1396 15.124C38.705 14.3678 37.7397 14.1071 36.9835 14.5417C36.2273 14.9763 35.9666 15.9416 36.4012 16.6978L37.975 19.4204C38.2572 19.9093 38.7797 20.2095 39.3442 20.2073Z" fill="white"/>
<path d="M55.0823 20.2071C55.6468 20.2094 56.1693 19.9091 56.4515 19.4202L58.0253 16.6976C58.3064 16.2085 58.3052 15.6065 58.0221 15.1184C57.7391 14.6304 57.2172 14.3304 56.653 14.3315C56.0888 14.3327 55.5681 14.6347 55.2869 15.1238L53.7132 17.8465C53.4315 18.3344 53.4321 18.9356 53.7147 19.423C53.9974 19.9103 54.519 20.2094 55.0823 20.2071Z" fill="white"/>
</svg>
