<svg width="130" height="96" viewBox="0 0 130 96" fill="none" xmlns="http://www.w3.org/2000/svg">
<path d="M127.833 21.6667H121.333V18.4167C121.333 14.2285 117.938 10.8333 113.75 10.8333C112.623 10.8396 111.513 11.0996 110.5 11.5938V8.66667C110.5 3.88023 106.62 0 101.833 0C97.0469 0 93.1667 3.88023 93.1667 8.66667V21.6667H84.5V19.5C84.5157 15.9258 81.6311 13.0154 78.0569 12.9995C76.4332 12.9921 74.8662 13.5956 73.6667 14.69C71.2173 12.4367 67.4494 12.4367 65 14.69C62.5506 12.4367 58.7828 12.4367 56.3333 14.69C53.6927 12.2812 49.5993 12.4692 47.1905 15.1098C46.0964 16.3093 45.493 17.8764 45.5 19.5V21.6667H36.8333V8.66667C36.8333 3.88023 32.9531 0 28.1667 0C23.3802 0 19.5 3.88023 19.5 8.66667V11.5938C18.4874 11.0996 17.3767 10.8396 16.25 10.8333C12.0618 10.8333 8.66667 14.2285 8.66667 18.4167V21.6667H2.16667C0.970125 21.6667 0 22.6368 0 23.8333V36.8333C0 38.0299 0.970125 39 2.16667 39H8.66667V42.25C8.66667 46.4382 12.0618 49.8333 16.25 49.8333C17.3767 49.8271 18.4874 49.5671 19.5 49.0728V52C19.5 56.7864 23.3802 60.6667 28.1667 60.6667C32.9531 60.6667 36.8333 56.7864 36.8333 52V39H41.1667V46.2432C41.1596 49.1175 42.3025 51.8754 44.3408 53.9023L49.8333 59.397V95.3333H54.1667V58.5C54.1667 57.9253 53.9381 57.3744 53.5318 56.9682L47.4045 50.8387C46.1887 49.6178 45.5043 47.9662 45.5 46.2432V32.5H58.1902C59.0105 32.4889 59.7878 32.8656 60.2875 33.5162C60.3027 33.5378 60.32 33.5595 60.3352 33.5833C60.4281 33.7312 60.5009 33.8907 60.5518 34.0578C60.5927 34.1914 60.6204 34.3284 60.6342 34.4673C60.6493 34.6033 60.6493 34.7409 60.6342 34.8768C60.6293 34.9497 60.6198 35.022 60.606 35.0935C60.557 35.3218 60.4728 35.5409 60.3568 35.7435C59.979 36.4144 59.27 36.8304 58.5 36.8333H52C50.8035 36.8333 49.8333 37.8035 49.8333 39V43.3333C49.8331 44.2664 50.4303 45.0946 51.3153 45.3895L56.082 46.982C59.9517 48.2668 62.8333 54.1233 62.8333 58.5H67.1667C67.1667 52.5395 63.4573 44.8673 57.4622 42.8697L54.1667 41.7712V41.1667H58.5C60.3235 41.1491 62.0547 40.3623 63.2667 39H82.3333V46.9452C82.3306 48.3511 81.8748 49.7188 81.0333 50.8452L76.2667 57.2C75.9853 57.5751 75.8333 58.0312 75.8333 58.5V95.3333H80.1667V59.2215L84.5 53.4452C85.9024 51.568 86.6623 49.2884 86.6667 46.9452V39H93.1667V52C93.1667 56.7864 97.0469 60.6667 101.833 60.6667C106.62 60.6667 110.5 56.7864 110.5 52V49.0728C111.513 49.5671 112.623 49.8271 113.75 49.8333C117.938 49.8333 121.333 46.4382 121.333 42.25V39H127.833C129.03 39 130 38.0299 130 36.8333V23.8333C130 22.6368 129.03 21.6667 127.833 21.6667ZM8.66667 34.6667H4.33333V26H8.66667V34.6667ZM19.5 42.25C19.5 44.0448 18.0448 45.5 16.25 45.5C14.4552 45.5 13 44.0448 13 42.25V18.4167C13 16.6219 14.4552 15.1667 16.25 15.1667C18.0448 15.1667 19.5 16.6219 19.5 18.4167V42.25ZM32.5 52C32.5 54.3934 30.56 56.3333 28.1667 56.3333C25.7733 56.3333 23.8333 54.3934 23.8333 52V8.66667C23.8333 6.27331 25.7733 4.33333 28.1667 4.33333C30.56 4.33333 32.5 6.27331 32.5 8.66667V52ZM43.3333 28.1667C42.1368 28.1667 41.1667 29.1368 41.1667 30.3333V34.6667H36.8333V26H45.5C45.5024 26.4095 45.5436 26.8182 45.6235 27.2198C45.6473 27.3477 45.6885 27.4647 45.7188 27.5882C45.7687 27.781 45.8055 27.9803 45.8705 28.1667H43.3333ZM54.1667 26C54.1667 27.1965 53.1965 28.1667 52 28.1667C50.8035 28.1667 49.8333 27.1965 49.8333 26V19.5C49.8333 18.3035 50.8035 17.3333 52 17.3333C53.1965 17.3333 54.1667 18.3035 54.1667 19.5V26ZM62.8333 26C62.8333 27.1965 61.8632 28.1667 60.6667 28.1667C59.4701 28.1667 58.5 27.1965 58.5 26V19.5C58.5 18.3035 59.4701 17.3333 60.6667 17.3333C61.8632 17.3333 62.8333 18.3035 62.8333 19.5V26ZM75.8333 19.5C75.8333 18.3035 76.8035 17.3333 78 17.3333C79.1965 17.3333 80.1667 18.3035 80.1667 19.5V26C80.1667 27.1965 79.1965 28.1667 78 28.1667C76.8035 28.1667 75.8333 27.1965 75.8333 26V19.5ZM67.1667 19.5C67.1667 18.3035 68.1368 17.3333 69.3333 17.3333C70.5299 17.3333 71.5 18.3035 71.5 19.5V26C71.5 27.1965 70.5299 28.1667 69.3333 28.1667C68.1368 28.1667 67.1667 27.1965 67.1667 26V19.5ZM93.1667 34.6667H65C65 34.645 65 34.6277 65 34.606C64.9981 34.1751 64.9531 33.7453 64.8657 33.3233C64.8527 33.2648 64.8245 33.2107 64.8115 33.15C64.7725 32.9918 64.7162 32.8445 64.6663 32.6907C64.5748 32.4131 64.464 32.1425 64.3348 31.8803C64.272 31.7503 64.2417 31.603 64.1702 31.4773C64.1948 31.4605 64.2187 31.4424 64.2417 31.4232C64.3413 31.3582 64.428 31.2802 64.5233 31.2065C64.6858 31.0852 64.857 30.9725 65.0087 30.836C65.1343 30.9487 65.2795 31.0375 65.4138 31.1393C65.5482 31.2412 65.6803 31.356 65.8255 31.447C66.03 31.5732 66.2412 31.6883 66.4582 31.7915C66.6055 31.863 66.7442 31.9475 66.8915 32.0082C67.1445 32.1051 67.4036 32.1856 67.6672 32.2487C67.8037 32.2855 67.9315 32.3375 68.0723 32.3657C68.9057 32.536 69.765 32.536 70.5987 32.3657C70.7395 32.3375 70.8673 32.2855 71.0038 32.2487C71.2674 32.1856 71.5266 32.1051 71.7795 32.0082C71.9333 31.9453 72.072 31.8608 72.2128 31.7915C72.4306 31.6883 72.6424 31.5732 72.8477 31.447C72.9907 31.3517 73.1207 31.2433 73.2572 31.1393C73.3937 31.0353 73.5367 30.9487 73.6623 30.836C73.788 30.9487 73.9332 31.0375 74.0675 31.1393C74.2018 31.2412 74.334 31.356 74.4792 31.447C74.6836 31.5732 74.8949 31.6883 75.1118 31.7915C75.2592 31.863 75.3978 31.9475 75.5452 32.0082C75.7981 32.1051 76.0573 32.1856 76.3208 32.2487C76.4573 32.2855 76.5852 32.3375 76.726 32.3657C80.2346 33.0788 83.6569 30.8127 84.37 27.3043C84.4572 26.8751 84.5008 26.4382 84.5 26H93.1667V34.6667ZM106.167 52C106.167 54.3934 104.227 56.3333 101.833 56.3333C99.44 56.3333 97.5 54.3934 97.5 52V8.66667C97.5 6.27331 99.44 4.33333 101.833 4.33333C104.227 4.33333 106.167 6.27331 106.167 8.66667V52ZM117 42.25C117 44.0448 115.545 45.5 113.75 45.5C111.955 45.5 110.5 44.0448 110.5 42.25V18.4167C110.5 16.6219 111.955 15.1667 113.75 15.1667C115.545 15.1667 117 16.6219 117 18.4167V42.25ZM125.667 34.6667H121.333V26H125.667V34.6667Z" fill="white"/>
</svg>
