<svg width="200" height="18" viewBox="0 0 200 18" xmlns="http://www.w3.org/2000/svg">
	<title>AA-Logo</title>
	<g fill="#4f4959" fill-rule="evenodd">
			<path d="M109.055405.61434l-7.638738 16.8294h1.108408l2.169069-4.7916h9.857658l2.192192 4.7916h1.108408L110.140691.61434h-1.085286zm.530931 1.1562l4.506907 9.8712h-8.966066l4.459159-9.8712zM131.155946.61434l-6.411111 15.6255L118.35955.61434h-1.133033l6.988588 16.8294h1.060661l6.988588-16.8294zM135.349459.61434v16.8294h11.181982v-.9873h-10.17027v-7.1259h8.773574v-1.0116h-8.773574v-6.7173h9.857358v-.9873zM163.377027.61434v15.3363L152.122673.61434h-1.180781v16.8294h1.011712V2.13204l11.23063 15.3117h1.180781V.61434zM188.73009.61437h10.869069v.9873h-9.857657v6.717h8.773873v1.0116h-8.773873v7.1262h10.17057v.9873H188.73009zM172.282012 15.00045c1.01982 1.035 2.446547 1.5525 4.277177 1.5525 1.816517 0 3.233033-.5175 4.253754-1.5525 1.01982-1.035 1.530931-2.4918 1.530931-4.3707V.61395h1.012612v10.0158c0 2.1831-.594894 3.8811-1.783783 5.0934-1.19009 1.2111-2.85976 1.8171-5.013514 1.8171-2.152552 0-3.826727-.606-5.024925-1.8171-1.196096-1.2123-1.794594-2.9103-1.794594-5.0934V.61395h1.012913v10.0158c0 1.8789.508408 3.3357 1.529429 4.3707M7.23015.4686h3.421922l7.231532 16.9752h-3.880781l-1.542343-3.78H5.327147l-1.543543 3.78H.00012L7.23015.4686zm3.905105 9.9213L8.892613 4.9233 6.65147 10.3899h4.483784zM18.653513 9.06492v-.0477c0-4.7916 3.614415-8.7171 8.796997-8.7171 3.181682 0 5.085886 1.0593 6.651652 2.6004l-2.361561 2.7213c-1.302103-1.1793-2.626427-1.9032-4.314415-1.9032-2.843543 0-4.892192 2.3601-4.892192 5.2497v.0489c0 2.8881 2.0009 5.2962 4.892192 5.2962 1.928529 0 3.10931-.7704 4.434535-1.9743l2.362762 2.3847c-1.736036 1.8531-3.663663 3.0093-6.917717 3.0093-4.965466 0-8.652252-3.8289-8.652252-8.6682M37.186517.5889h3.71141v7.3674L47.742974.5889h4.482583l-6.868469 7.152 7.182282 9.7032H48.08021l-5.23033-7.1751-1.951952 2.022v5.1531h-3.711411zM54.779009.5889h3.711411v13.4844h8.410811v3.3708H54.77901zM69.696336.5889h12.725526v3.2997h-9.038739v3.4185h7.954655v3.2985h-7.954655v3.54h9.16006v3.2985H69.696336zM85.843393.5889h3.421922l7.905706 10.377V.5889h3.663664v7.7988l-3.752253 8.2767-7.576576-9.9354v10.7151h-3.662463z"/>
	</g>
</svg>