<?xml version="1.0" encoding="UTF-8"?>
<svg width="471px" height="400px" viewBox="0 0 471 400" version="1.1" xmlns="http://www.w3.org/2000/svg" xmlns:xlink="http://www.w3.org/1999/xlink">
    <!-- Generator: Sketch 49.3 (51167) - http://www.bohemiancoding.com/sketch -->
    <title>america</title>
    <desc>Created with Sketch.</desc>
    <defs>
        <path d="M10,0 C15.5,0 20,4.5 20,10 C20,17.4 10.9,23.6 10.6,23.8 C10.4,23.9 10.2,24 10,24 C9.8,24 9.6,23.9 9.4,23.8 C9.1,23.6 0,17.4 0,10 C0,4.5 4.5,0 10,0 Z M10,6 C7.8,6 6,7.8 6,10 C6,12.2 7.8,14 10,14 C12.2,14 14,12.2 14,10 C14,7.8 12.2,6 10,6 Z" id="path-1"></path>
        <path d="M10,0 C15.5,0 20,4.5 20,10 C20,17.4 10.9,23.6 10.6,23.8 C10.4,23.9 10.2,24 10,24 C9.8,24 9.6,23.9 9.4,23.8 C9.1,23.6 0,17.4 0,10 C0,4.5 4.5,0 10,0 Z M10,6 C7.8,6 6,7.8 6,10 C6,12.2 7.8,14 10,14 C12.2,14 14,12.2 14,10 C14,7.8 12.2,6 10,6 Z" id="path-3"></path>
        <path d="M10,0 C15.5,0 20,4.5 20,10 C20,17.4 10.9,23.6 10.6,23.8 C10.4,23.9 10.2,24 10,24 C9.8,24 9.6,23.9 9.4,23.8 C9.1,23.6 0,17.4 0,10 C0,4.5 4.5,0 10,0 Z M10,6 C7.8,6 6,7.8 6,10 C6,12.2 7.8,14 10,14 C12.2,14 14,12.2 14,10 C14,7.8 12.2,6 10,6 Z" id="path-5"></path>
    </defs>
    <g id="america" stroke="none" stroke-width="1" fill="none" fill-rule="evenodd">
        <g id="map" transform="translate(40.000000, -107.000000)" fill="#72C02C" opacity=".75   " fill-rule="nonzero" stroke="#FFFFFF" stroke-width="0.5">
            <polygon id="BO" points="299.04 526.35 295.84 526.22 294.75 528.65 293.1 526.47 289.43 525.74 287.1 528.46 285.07 528.87 283.97 524.72 282.47 521.38 283.35 518.51 281.88 517.26 281.51 515.14 280.13 513.14 281.9 510 280.69 507.56 281.34 506.59 280.83 505.52 281.93 504.08 281.99 501.64 282.12 499.62 282.73 498.66 280.3 494.08 282.39 494.32 283.83 494.25 284.46 493.4 286.91 492.25 288.38 491.19 292.05 490.71 291.76 492.83 292.1 493.92 291.87 495.82 294.92 498.37 298.06 498.84 299.16 499.91 301.06 500.48 302.22 501.31 303.98 501.28 305.61 502.13 305.73 503.79 306.28 504.63 306.32 505.88 305.5 505.92 306.58 509.29 311.95 509.41 311.54 511.09 311.84 512.24 313.37 513.06 314.04 514.88 313.54 517.2 312.77 518.49 313.04 520.18 312.16 520.79 312.12 519.88 309.5 518.37 306.9 518.32 302.01 519.18 300.67 521.8 300.6 523.4 299.49 526.99"></polygon>
            <polygon id="BR" points="313.68 551.79 317.42 547.42 320.59 544.34 322.47 543.06 324.83 541.33 324.89 538.84 323.48 537.05 322.09 537.64 322.64 535.86 323.02 534.04 323.02 532.36 322.01 531.81 320.96 532.3 319.92 532.17 319.59 530.99 319.33 528.22 318.8 527.32 316.91 526.5 315.77 527.09 312.81 526.51 312.99 522.45 312.16 520.79 313.04 520.18 312.77 518.49 313.54 517.2 314.04 514.88 313.37 513.06 311.84 512.24 311.54 511.09 311.95 509.41 306.58 509.29 305.5 505.92 306.32 505.88 306.28 504.63 305.73 503.79 305.61 502.13 303.98 501.28 302.22 501.31 301.06 500.48 299.16 499.91 298.06 498.84 294.92 498.37 291.87 495.82 292.1 493.92 291.76 492.83 292.05 490.71 288.38 491.19 286.91 492.25 284.46 493.4 283.83 494.25 282.39 494.32 280.3 494.08 278.72 494.57 277.44 494.24 277.63 489.94 275.33 491.6 272.86 491.53 271.8 490.02 269.94 489.86 270.53 488.65 268.97 486.93 267.8 484.4 268.54 483.89 268.54 482.7 270.24 481.89 269.96 480.38 270.67 479.4 270.88 478.1 274.08 476.19 276.38 475.66 276.75 475.24 279.28 475.37 280.54 467.72 280.61 466.51 280.17 464.92 278.93 463.9 278.94 461.88 280.52 461.42 281.08 461.71 281.17 460.64 279.53 460.35 279.5 458.61 284.96 458.67 285.89 457.71 286.67 458.59 287.21 460.24 287.74 459.89 289.29 461.37 291.47 461.19 292.01 460.33 294.09 459.68 295.25 459.23 295.57 458.05 297.58 457.25 297.42 456.67 295.05 456.43 294.66 454.67 294.77 452.8 293.52 452.08 294.04 451.82 296.12 452.18 298.35 452.88 299.16 452.22 301.17 451.78 304.31 450.74 305.34 449.67 304.96 448.88 306.42 448.76 307.08 449.4 306.71 450.63 307.67 451.05 308.32 452.35 307.54 453.33 307.09 455.71 307.81 457.12 308.01 458.41 309.74 459.71 311.12 459.85 311.43 459.31 312.31 459.19 313.58 458.7 314.49 457.96 316.04 458.19 316.72 458.09 318.25 458.32 318.5 457.75 318.03 457.2 318.31 456.39 319.44 456.64 320.77 456.35 322.37 456.94 323.6 457.52 324.47 456.76 325.09 456.88 325.48 457.67 326.82 457.47 327.89 456.41 328.75 454.35 330.41 451.8 331.37 451.67 332.06 453.21 333.63 458.09 335.13 458.55 335.21 460.47 333.1 462.76 333.97 463.6 338.93 464.04 339.03 466.83 341.16 465 344.69 466.01 349.34 467.71 350.71 469.34 350.25 470.88 353.51 470.02 358.97 471.5 363.16 471.39 367.3 473.7 370.88 476.83 373.04 477.63 375.44 477.75 376.46 478.63 377.41 482.2 377.88 483.89 376.76 488.55 375.33 490.39 371.38 494.33 369.59 497.54 367.52 500.02 366.82 500.08 366.03 502.18 366.23 507.58 365.45 512.06 365.15 513.99 364.27 515.14 363.77 519.08 360.93 522.96 360.45 526.05 358.18 527.36 357.52 529.17 354.48 529.16 350.07 530.33 348.09 531.68 344.95 532.57 341.65 535.01 339.28 538.07 338.87 540.39 339.34 542.12 338.81 545.3 338.18 546.85 336.22 548.6 333.11 554.28 330.64 556.87 328.73 558.41 327.46 561.57 325.6 563.48 324.82 561.58 326.06 560.01 324.44 557.76 322.24 555.94 319.35 553.86 318.31 553.95 315.5 551.45"></polygon>
            <path d="M257.86,395.2 L257.17,395.35 L256.46,393.59 L255.41,392.7 L256.02,390.75 L256.86,390.87 L257.84,393.42 L257.86,395.2 Z M257.06,386.51 L254,387.01 L253.8,385.86 L255.12,385.61 L256.97,385.7 L257.06,386.51 Z M259.36,386.48 L258.88,388.69 L258.36,388.29 L258.41,386.66 L257.15,385.43 L257.14,385.07 L259.36,386.48 Z" id="BS"></path>
            <polygon id="BZ" points="225.31 412.96 225.29 412.53 225.63 412.39 226.14 412.74 227.14 410.97 227.67 410.93 227.68 411.36 228.21 411.37 228.17 412.17 227.71 413.44 227.96 413.89 227.67 414.94 227.84 415.21 227.52 416.68 226.97 417.46 226.46 417.55 225.9 418.55 225.07 418.55 225.29 415.27"></polygon>
            <path d="M198.93,96.23 L198.71,90.33 L202.34,90.91 L203.97,91.87 L207.32,96.79 L206.56,101.76 L202.41,104.53 L200.13,101.41 L198.93,96.23 Z M212.14,108.88 L212.47,107.39 L210.5,104.94 L204.85,104.75 L205.6,108.43 L210.85,109.26 L212.14,108.88 Z M248.49,155.83 L251.57,160.93 L252.38,161.5 L255.45,160.23 L258.47,160.43 L261.45,160.71 L261.2,158.07 L256.36,152.69 L249.94,151.61 L248.59,152.28 L248.49,155.83 Z M183.06,93.13 L180.35,97.32 L186.59,97.84 L191.2,102.28 L195.78,103.78 L194.69,98.1 L192.55,91.37 L184.97,86.02 L179.47,83.98 L179.67,89.67 L183.06,93.13 Z M208.96,82.89 L214.09,82.77 L211.87,86.77 L211.83,92.07 L214.84,97.83 L220.65,99.6 L225.61,98.61 L230.79,87.88 L234.64,83.43 L231.26,78.46 L229.05,67.81 L224.45,64.62 L219.73,60.94 L216.15,51.38 L209.63,52.32 L210.86,56.47 L207.99,57.72 L206.05,63.04 L204.11,70.5 L205.89,77.76 L208.96,82.89 Z M145.21,136.27 L149.13,138.22 L161.8,136.92 L155.98,141.69 L156.34,145.12 L160.6,144.88 L167.67,140.3 L177.17,138.63 L178.88,133.41 L178.39,127.84 L175.45,127.34 L172.95,129.27 L171.85,125.14 L170.9,119.44 L168,118.02 L165.43,122.43 L169.44,133.48 L164.54,132.63 L159.56,125.84 L151.67,121.84 L149.03,125.16 L145.21,136.27 Z M167.77,94.21 L164.12,91.31 L162.62,90.65 L159.74,94.93 L159.69,96.93 L164.35,96.94 L167.77,94.21 Z M166.31,106.56 L167.24,102.57 L163.29,100.45 L159.2,101.84 L156.93,106.1 L161.09,110.31 L166.31,106.56 Z M195.4,139.8 L200.02,138.69 L201.3,130.44 L201.21,124.49 L199.07,118.93 L198.85,120.53 L194.91,119.83 L190.69,123.92 L187.67,123.55 L187.85,132.47 L192.45,131.6 L192.39,138.07 L195.4,139.8 Z M192.12,185.41 L187.06,181.48 L182.35,177.27 L181.48,171.09 L179.72,162.17 L176.58,158.33 L173.79,156.78 L171.32,158.2 L173.31,167.79 L171.9,171.52 L169.61,162.54 L167.05,159.43 L163.88,164.24 L159.98,159.48 L153.74,162.35 L155.14,157.89 L152.27,156.02 L144.76,161.86 L142.81,165.57 L140.46,172.34 L145.36,174.66 L149.69,174.54 L143.19,178 L144.67,181.13 L148.65,181.3 L154.64,180.63 L160.06,182.59 L156.4,184.03 L152.45,183.66 L148.12,185.07 L146.25,185.94 L149.7,192.29 L152.19,191.41 L156.02,193.56 L157.54,197.21 L162.53,196.48 L169.63,195.32 L174.89,192.67 L178.15,192.19 L182.97,194.31 L188.04,195.53 L188.98,192.67 L187.19,189.62 L191.79,188.98 L192.12,185.41 Z M199.86,184.43 L197.9,187.97 L195.43,190.46 L199.26,194 L201.54,193.15 L205.32,195.51 L207.06,192.78 L205.35,189.75 L204.51,188.22 L202.83,186.76 L199.86,184.43 Z M182.25,154.98 L180.12,152.81 L176.36,153.21 L175.41,154.59 L179.78,161.34 L182.25,154.98 Z M210.94,168.15 L213.95,161.22 L217.29,159.37 L221.48,150.63 L216.12,148.16 L210.28,147.8 L207.5,150.57 L206.03,154.8 L205.99,159.62 L207.74,167.81 L210.94,168.15 Z M228.09,145.15 L233.85,144.97 L241.89,143.36 L245.48,144.64 L249.66,142.38 L251.41,139.54 L250.78,135.02 L247.78,130.79 L243.22,129.99 L237.51,130.96 L233.05,133.4 L228.96,132.46 L225.18,131.96 L223.4,129.26 L220.18,126.65 L220.82,122.22 L218.4,118.24 L212.88,118.27 L209.77,114.28 L203.99,113.48 L202.93,118.58 L206.18,122.32 L211.98,123.77 L214.79,128.86 L215.13,134.46 L216.1,140.45 L223.55,143.87 L228.09,145.15 Z M139.07,126.88 L144.28,121.83 L146.9,121.24 L149.06,117.01 L149.44,107.24 L145.59,109.15 L141.29,108.97 L135.53,117.16 L130.77,126.14 L134.57,128.65 L139.07,126.88 Z M211.25,143.05 L212.78,138.91 L211.76,135.45 L209.31,131.53 L205.28,134.55 L203.79,139.47 L207.19,142.26 L211.25,143.05 Z M202.94,154.49 L202.21,151.61 L197.21,152.87 L193.87,150.76 L190.55,155.56 L193.64,161.84 L187.92,160.67 L187.86,163.68 L194.83,170.73 L196.77,174.11 L199.47,174.84 L204.07,171.43 L204.57,163.22 L200.33,159.15 L202.94,154.49 Z M128.95,308.23 L127.79,305.89 L124.99,304.12 L123.6,302.07 L122.65,300.57 L120.01,300.11 L118.29,299.44 L115.35,298.48 L115.11,299.5 L116.19,301.88 L119.08,302.66 L119.58,303.89 L122.09,305.39 L122.93,306.9 L127.53,308.82 L128.95,308.23 Z M250.65,230.6 L248.65,228.49 L246.59,228.99 L246.34,225.93 L243.13,223.89 L240.06,221.62 L238.43,219.87 L237,220.9 L236.48,217.94 L234.45,217.39 L233.49,223.52 L233.13,228.63 L230.69,231.77 L234.49,231.17 L235.45,234.82 L239.44,231.59 L242.22,228.21 L243.79,231.07 L248.15,232.58 L250.65,230.6 Z M130.12,178.05 L137.5,173.87 L137.5,170 L140.98,163.59 L147.86,156.9 L151.38,154.43 L148.37,150.23 L145.65,147.28 L138.49,146.71 L134.49,144.55 L125.01,146.18 L127.75,152.41 L125.32,158.84 L123.38,165.71 L122.18,169.57 L128.65,174.26 L130.12,178.05 Z M264.36,205.36 L264.68,204.35 L264.65,201.18 L262.46,199.1 L259.89,200.15 L258.7,204.32 L259.4,207.88 L262.54,207.52 L264.36,205.36 Z M288.18,212.9 L292.59,219.5 L296.04,222.35 L300.96,214.48 L301.83,209.55 L297.42,209.08 L293.39,202.38 L288.94,200.74 L282.34,195.77 L287.49,192.14 L284.84,184.6 L282.4,181.25 L275.63,177.9 L272.71,172.35 L267.5,174.34 L267.14,170.48 L263.28,166.16 L257.06,161.45 L254.41,165.16 L248.86,167.82 L249.28,161.76 L244.47,151.71 L237.36,155.77 L234.77,163.47 L232.56,157.55 L234.62,151.18 L227.38,153.83 L224.5,157.82 L222.35,166.24 L223.24,175.29 L227.22,175.33 L224.29,179.25 L226.62,182.21 L231.17,183.46 L237.1,185.88 L247.3,187.7 L252.38,186.66 L253.88,184.24 L256.09,187.03 L258.56,187.49 L261.53,192.45 L259.73,194.43 L265.41,197.06 L269.7,200.74 L270.78,203.29 L271.55,206.53 L267.92,213.46 L266.94,216.9 L267.88,219.32 L262.11,220.18 L256.84,220.3 L254.99,225.17 L257.36,227.4 L265.47,226.37 L265.43,224.48 L269.51,227.63 L273.69,230.91 L272.71,232.68 L276.11,235.7 L282.13,239.23 L289.73,241.62 L289.27,239.53 L286.35,235.86 L282.39,230.49 L289.42,235.49 L292.96,237.15 L293.93,232.71 L292.11,226.41 L290.95,224.68 L287.14,221.65 L284.19,217.74 L284.54,213.8 L288.18,212.9 Z M222.35,51.34 L224.69,58.63 L229.65,64.51 L239.46,63.42 L245.77,65.39 L241.39,71.44 L239.18,69.66 L231.52,68.95 L232.71,77.26 L236.67,83.3 L235.87,88.5 L230.9,91.96 L228.63,97.43 L233.18,100.08 L237,108.63 L229.5,102.93 L227.79,103.87 L229.17,113.25 L223.99,116.08 L224.34,121.93 L229.64,122.56 L233.81,124 L242.05,122.16 L249.38,125.43 L256.87,118.24 L256.81,115.22 L252.02,115.7 L251.63,112.86 L255.55,109.03 L256.88,103.88 L261.21,100.05 L263.87,95.29 L261.55,88.19 L263.49,85.54 L259.63,83.65 L268.12,82.02 L269.91,78.87 L275.69,76.27 L280.49,62.8 L285.06,57.86 L291.68,46.74 L285.58,46.84 L288.12,42.54 L294.9,38.55 L301.74,29.65 L301.86,23.92 L296.73,17.88 L290.71,14.95 L283.22,13.13 L277.15,11.64 L271.08,10.14 L262.98,14.12 L261.49,11.59 L252.92,12.57 L247.89,15.14 L244.19,18.79 L242.06,30.53 L239,24.52 L235.52,23.38 L231.4,31.35 L225.9,34.7 L222.63,35.36 L218.46,39.2 L219.07,45.85 L222.35,51.34 Z M296.75,316.34 L295.77,314.36 L294.71,315.62 L295.41,316.98 L298.97,318.69 L300.01,318.43 L301.39,316.77 L298.79,316.88 L296.75,316.34 Z M239.75,238.48 L240.36,240.11 L242.34,240.25 L245.62,236.91 L245.68,235.72 L241.83,235.66 L239.75,238.48 Z M301.88,304.92 L299.01,303.12 L295.32,302.03 L294.35,302.4 L296.96,304.44 L300.59,305.78 L301.95,305.7 L301.88,304.92 Z M326.76,309.71 L326.4,307.47 L324.44,308.19 L325.31,305.08 L322.51,303.76 L321.22,304.81 L318.73,303.63 L319.71,302.12 L317.83,301.19 L316,302.66 L317.86,298.84 L319.36,296.04 L319.9,294.82 L318.6,294.62 L316.17,296.17 L314.43,298.7 L311.53,305.62 L309.18,308.18 L310.4,309.32 L308.65,310.79 L309.08,312.02 L314.52,312.15 L317.53,311.9 L320.22,312.91 L318.24,314.84 L319.91,314.98 L323.16,311.4 L323.94,311.93 L323.33,315.3 L325.17,316.07 L326.44,315.92 L327.62,312.31 L326.76,309.71 Z M305.57,314.47 L302.76,319.03 L298.13,319.61 L294.49,317.6 L293.57,314.53 L292.68,310.07 L295.33,307.24 L292.85,305.15 L288.66,305.58 L282.78,309.11 L278.28,314.56 L275.9,315.23 L279.13,311.43 L283.17,305.86 L286.74,303.96 L289.09,300.85 L291.99,300.55 L296.2,300.58 L302.2,301.5 L306.94,300.79 L310.47,297.17 L315.09,295.58 L317.1,294 L319.14,292.29 L318.94,287.1 L317.81,285.33 L315.63,284.7 L314.52,280.65 L312.72,279.1 L308.25,277.84 L305.73,275.02 L302,272.19 L303.13,268.99 L300.03,262.73 L296.38,255.84 L294.2,250.86 L292.34,253.47 L289.66,259.52 L285.6,262.49 L283.57,259.33 L281.01,258.48 L280.08,251.49 L280.16,246.69 L275.16,246.25 L274.31,243.98 L270.86,240.54 L268.25,238.5 L265.93,240.08 L263.05,239.5 L258.24,237.85 L256.29,239.25 L257.23,248.43 L258.45,253.55 L255.14,259.3 L258.55,263.32 L260.45,267.76 L260.68,271.18 L259.13,274.68 L255.95,278.14 L251.46,280.42 L253.44,282.95 L254.9,290.35 L253.38,295.03 L251.22,296.49 L247.05,292.21 L245.02,287.04 L244.15,282.28 L244.61,278.09 L241.56,277.62 L236.93,277.34 L233.96,275.26 L230.45,273.89 L228.44,271.51 L225.64,269.57 L220.43,267.34 L216.51,268.36 L215.2,264.41 L213.94,259.42 L209.82,258.52 L209.97,252.11 L211.06,247.63 L214.1,241.03 L217.53,236.13 L220.79,235.36 L220.98,231.31 L223.19,228.63 L227.2,228.21 L230.45,223.82 L231.27,220.92 L233.97,215.19 L234.81,211.69 L237.71,213.8 L241.61,212.72 L247.1,207.76 L247.46,204.22 L245.48,200.24 L247.57,196.18 L247.4,192.31 L243.64,188.36 L239.5,187.17 L235.52,186.55 L235.37,195.26 L233.33,201.82 L230.4,207.12 L227.69,202.17 L228.53,196.56 L225.18,191.54 L221.43,197.63 L221.44,189.64 L216.23,188.01 L218.72,184 L214.91,174.41 L212.07,170.5 L208.37,169.06 L205.05,175.49 L204.83,184.83 L208.1,188.12 L211.1,193.03 L209.83,200.74 L207.57,200.54 L205.79,206.42 L205.81,199.42 L201.47,196.84 L198.98,198.17 L199.3,202.84 L195.21,202.66 L190.86,203.83 L185.91,200.48 L182.78,201.08 L179.96,196.97 L177.7,195.13 L175.46,195.9 L172.05,196.25 L170.24,198.86 L173.1,202.05 L170.05,205.77 L167.06,201.35 L164.67,202.65 L157.1,203.52 L152.03,201.93 L155.97,198.19 L152.19,194.29 L149.44,194.79 L145.58,193.47 L139.02,190.58 L134.73,187.21 L131.33,186.74 L130.27,189.1 L126.83,190.41 L126.45,184.26 L122.72,189.76 L117.98,182.44 L116.04,181.55 L115.41,185.46 L113.32,187.36 L111.39,183.97 L106.8,186.02 L102.6,189.57 L98.43,188.59 L95.03,191.09 L92.57,194.37 L89.65,193.65 L85.24,189.85 L80.01,187.91 L79.99,215.56 L79.98,250.99 L82.74,251.16 L85.47,252.72 L87.43,255.16 L89.92,258.76 L92.65,255.71 L95.46,253.92 L96.95,256.77 L98.84,259 L101.41,261.42 L103.16,265.21 L106.03,271.09 L110.8,274.29 L110.88,277.41 L109.32,279.76 L109.38,282.24 L112.77,285.69 L113.26,289.45 L116.85,291.41 L116.45,294.2 L118.01,298.16 L123.09,299.98 L125.09,301.87 L130.52,306.1 L130.9,306.11 L138.86,306.11 L147.18,306.11 L149.94,306.11 L158.49,306.11 L166.76,306.11 L175.17,306.11 L183.59,306.11 L193.12,306.11 L202.71,306.11 L208.51,306.11 L208.52,304.47 L209.47,304.45 L209.97,306.8 L210.84,307.52 L212.8,307.78 L215.66,308.45 L218.38,309.75 L220.65,309.2 L224.1,310.29 L225.24,308.63 L226.83,307.97 L227.45,306.94 L228.08,306.39 L230.69,307.25 L232.62,307.35 L233.29,307.92 L234.23,310.3 L237.38,310.93 L236.89,312.11 L238,313.32 L237.52,314.88 L238.7,315.39 L238.11,316.76 L238.86,316.89 L239.39,316.29 L239.94,317.19 L242.04,317.69 L244.17,317.73 L246.44,318.14 L248.95,318.92 L249.86,320.18 L251.68,323.22 L250.78,324.52 L248.5,323.98 L247.08,321.54 L247.44,324.03 L246.1,326.2 L246.25,328.04 L246.02,329.11 L244.21,330.38 L242.89,332.47 L242.27,333.79 L243.81,334.03 L245.89,332.83 L247.12,331.77 L247.95,331.6 L249.49,331.98 L250.24,331.39 L251.61,330.91 L254.05,330.44 L253.8,329.29 L253.67,329.33 L252.81,329.53 L251.69,329.17 L252.53,327.85 L253.38,327.39 L255.36,326.83 L257.73,326.3 L258.97,327.03 L259.75,326.18 L260.64,325.64 L261.24,325.93 L261.27,325.99 L264.14,323.26 L265.41,322.53 L269.67,322.5 L274.84,322.5 L275.12,321.52 L276.02,321.32 L277.21,320.7 L278.21,318.88 L279.07,315.73 L281.21,312.63 L282.14,313.71 L284.02,313.01 L285.27,314.2 L285.27,319.72 L287.1,321.97 L290.22,321.49 L294.71,321.36 L289.84,324.62 L289.95,327.91 L292.08,328.19 L295.21,325.4 L297.99,323.82 L304.2,321.47 L307.67,318.85 L305.86,317.39 L305.57,314.47 Z M251.91,243.37 L253.01,240.25 L252.3,239.02 L251.15,238.89 L250.07,240.69 L249.94,241.1 L250.68,242.87 L251.91,243.37 Z M109.25,279.8 L110.81,277.45 L109.25,279.8 Z M105.85,283.09 L103.16,283.47 L101.84,282.85 L101.67,284.37 L102.19,286.44 L103.61,287.9 L104.65,290.03 L106.34,292.13 L107.46,292.14 L105.02,288.44 L105.85,283.09 Z" id="CA"></path>
            <polygon id="CO" points="263.92 463.81 262.72 463.15 261.34 462.23 260.54 462.67 258.16 462.28 257.48 461.08 256.96 461.13 254.15 459.54 253.77 458.67 254.82 458.46 254.7 457.07 255.35 456.06 256.74 455.87 257.93 454.12 259 452.66 257.96 451.99 258.49 450.37 257.86 447.81 258.46 447.08 258.02 444.71 256.88 443.21 257.24 441.85 258.15 442.05 258.68 441.21 258.03 439.56 258.37 439.14 259.81 439.23 261.92 437.26 263.07 436.96 263.1 436.03 263.62 433.64 265.23 432.32 266.99 432.27 267.21 431.68 269.41 431.91 271.62 430.48 272.71 429.84 274.06 428.47 275.06 428.64 275.79 429.39 275.25 430.35 273.45 430.83 272.74 432.25 271.65 433.06 270.84 434.12 270.49 436.13 269.72 437.79 271.16 437.97 271.52 439.27 272.14 439.89 272.36 441.02 272.03 442.06 272.13 442.65 272.82 442.88 273.49 443.86 277.09 443.59 278.72 443.95 280.7 446.36 281.83 446.06 283.85 446.21 285.45 445.89 286.44 446.38 285.93 447.88 285.31 448.82 285.09 450.83 285.65 452.68 286.45 453.51 286.54 454.14 285.12 455.53 286.14 456.14 286.89 457.12 287.74 459.89 287.21 460.24 286.67 458.59 285.89 457.71 284.96 458.67 279.5 458.61 279.53 460.35 281.17 460.64 281.08 461.71 280.52 461.42 278.94 461.88 278.93 463.9 280.17 464.92 280.61 466.51 280.54 467.72 279.28 475.37 277.88 473.88 277.04 473.82 278.85 470.98 276.7 469.67 275.02 469.91 274.01 469.43 272.46 470.17 270.37 469.82 268.72 466.9 267.42 466.18 266.53 464.86 264.67 463.54"></polygon>
            <polygon id="CR" points="242.63 440.4 241.11 439.77 240.54 439.18 240.86 438.69 240.76 438.07 239.98 437.39 238.88 436.84 237.91 436.48 237.73 435.65 236.99 435.14 237.17 435.97 236.61 436.64 235.97 435.86 235.07 435.58 234.69 435.01 234.71 434.15 235.08 433.25 234.29 432.85 234.93 432.31 235.35 431.94 237.2 432.69 237.84 432.32 238.73 432.56 239.2 433.14 240.02 433.33 240.69 432.73 241.41 434.27 242.49 435.41 243.81 436.62 242.72 436.87 242.74 438 243.32 438.42 242.9 438.76 243.01 439.27 242.78 439.84"></polygon>
            <polygon id="CU" points="244.58 396.94 247.01 397.16 249.21 397.19 251.84 398.22 252.96 399.33 255.58 398.99 256.57 399.69 258.95 401.56 260.69 402.91 261.61 402.87 263.29 403.48 263.08 404.32 265.15 404.44 267.27 405.66 266.94 406.35 265.07 406.73 263.18 406.88 261.25 406.64 257.24 406.93 259.12 405.27 257.98 404.5 256.17 404.3 255.2 403.44 254.53 401.74 252.95 401.85 250.33 401.05 249.49 400.42 245.84 399.95 244.86 399.36 245.91 398.61 243.16 398.46 241.15 400.02 239.98 400.06 239.58 400.8 238.2 401.13 237 400.84 238.48 399.91 239.08 398.82 240.35 398.15 241.78 397.56 243.91 397.27"></polygon>
            <polygon id="DO" points="274.18 407.35 274.53 406.84 276.72 406.86 278.38 407.62 279.12 407.54 279.63 408.59 281.16 408.53 281.07 409.41 282.32 409.52 283.7 410.6 282.66 411.8 281.32 411.16 280.04 411.28 279.12 411.14 278.61 411.68 277.53 411.86 277.11 411.14 276.18 411.57 275.06 413.57 274.34 413.11 274.19 412.27 274.25 411.47 273.53 410.59 274.21 410.09 274.43 408.96"></polygon>
            <polygon id="EC" points="250.1 472.87 251.59 470.79 250.98 469.57 249.91 470.87 248.23 469.64 248.8 468.86 248.33 466.33 249.31 465.91 249.83 464.18 250.89 462.38 250.69 461.25 252.23 460.65 254.15 459.54 256.96 461.13 257.48 461.08 258.16 462.28 260.54 462.67 261.34 462.23 262.72 463.15 263.92 463.81 264.31 465.92 263.44 467.73 260.38 470.65 257.01 471.75 255.29 474.18 254.76 476.06 253.17 477.21 252 475.8 250.86 475.5 249.7 475.72 249.63 474.7 250.43 474.04"></polygon>
            <polygon id="GF" points="327.89 456.41 326.82 457.47 325.48 457.67 325.1 456.89 324.47 456.77 323.6 457.53 322.38 456.96 323.09 455.77 323.33 454.5 323.81 453.3 322.72 451.65 322.5 449.74 323.96 447.33 324.91 447.64 326.97 448.3 329.94 450.66 330.4 451.8 328.74 454.35"></polygon>
            <polygon id="GL" points="344.13 23.91 353.55 10.3 363.39 11.37 366.96 2.42 376.87 0 399.27 3.15 416.81 21.74 411.63 30.04 400.9 30.97 385.81 33 387.22 36.64 397.15 34.4 405.59 41.31 411.04 35.19 413.37 42.34 410.29 53.31 417.43 46.38 431.04 38.83 439.45 42.64 441.02 50.76 429.59 63.42 428.01 67.32 419.05 70.18 425.54 70.97 422.26 82.48 420 92.07 420.09 107.33 423.46 115.67 419.08 116.18 414.47 120.06 419.64 126.36 420.3 135.98 417.3 137 420.93 146.15 414.71 146.9 417.96 151.04 417.04 154.55 413.09 156.06 409.18 156.09 412.69 162.57 412.73 166.7 407.18 162.87 405.74 165.36 409.52 167.65 413.2 173.13 414.26 180.08 409.26 181.7 407.1 178.44 403.63 173.46 404.59 179.33 401.34 183.74 408.72 184.09 412.59 184.54 405.07 191.57 397.45 197.7 389.25 200.31 386.16 200.35 383.26 203.22 379.36 210.85 373.33 215.74 371.39 216.03 367.65 217.7 363.63 219.29 361.22 223.41 361.18 227.97 359.77 232.13 355.19 237.08 356.32 241.79 355.06 246.64 353.63 252.2 349.68 252.54 345.54 247.91 339.93 247.88 337.21 244.7 335.34 238.9 330.48 231.22 329.06 227.07 328.68 221.18 324.79 214.91 325.8 209.74 323.93 207.21 326.7 198.56 330.92 195.71 332.03 192.45 332.62 186.19 329.41 189.05 327.89 190.24 325.37 191.38 321.93 188.77 321.74 183.22 322.84 178.74 325.44 178.62 331.16 180.87 326.34 175.44 323.83 172.43 321.04 173.67 318.7 171.48 321.83 162.98 320.13 159.45 317.9 152.71 314.53 141.8 310.96 137.63 310.99 133 303.46 126.31 297.51 125.46 290.02 125.93 283.18 126.79 279.92 123.04 275.05 115.38 282.41 111.41 288.06 110.73 276.06 107.37 269.74 101.93 270.13 96.59 280.74 89.72 291.01 82.56 292.09 76.92 284.53 71.16 286.97 64.52 296.68 52.19 300.76 50.21 299.59 41.64 306.23 36.4 314.85 33.19 323.47 33.01 326.53 39.31 333.97 27.99 340.66 35.77 344.59 37.36 350.42 43.77 343.75 33"></polygon>
            <polygon id="GT" points="222.64 424.75 221.2 424.25 219.45 424.2 218.17 423.63 216.66 422.45 216.73 421.61 217.05 420.93 216.66 420.39 218.01 418.03 221.6 418.02 221.68 417.04 221.22 416.86 220.91 416.23 219.87 415.56 218.83 414.58 220.1 414.58 220.1 412.93 222.72 412.93 225.31 412.96 225.29 415.27 225.07 418.55 225.9 418.55 226.82 419.08 227.06 418.64 227.88 419.01 226.61 420.12 225.28 420.93 225.08 421.48 225.3 422.04 224.72 422.78 224.06 422.95 224.21 423.29 223.69 423.61 222.73 424.33"></polygon>
            <polygon id="GY" points="307.7 440 309.54 441.03 311.28 442.86 311.35 444.31 312.41 444.38 313.91 445.74 315.02 446.72 314.57 449.24 312.87 449.97 313.02 450.62 312.5 452.07 313.75 454.09 314.64 454.1 315.01 455.67 316.72 458.09 316.04 458.19 314.49 457.96 313.58 458.7 312.31 459.19 311.43 459.31 311.12 459.85 309.74 459.71 308.01 458.41 307.81 457.12 307.09 455.71 307.54 453.33 308.32 452.35 307.67 451.05 306.71 450.63 307.08 449.4 306.42 448.76 304.96 448.88 303.07 446.76 303.83 445.99 303.77 444.69 305.5 444.24 306.19 443.72 305.23 442.68 305.48 441.65"></polygon>
            <polygon id="HN" fill="#72C02C" points="230.43 426.9 229.95 426.01 229.09 425.76 229.29 424.61 228.91 424.3 228.33 424.1 227.1 424.44 227 424.05 226.15 423.59 225.55 423.02 224.72 422.78 225.3 422.04 225.08 421.48 225.28 420.93 226.61 420.12 227.88 419.01 228.17 419.13 228.79 418.62 229.59 418.58 229.85 418.81 230.29 418.67 231.59 418.93 232.89 418.85 233.79 418.53 234.12 418.21 235.01 418.36 235.68 418.56 236.41 418.49 236.97 418.24 238.25 418.64 238.7 418.7 239.55 419.24 240.36 419.89 241.38 420.33 242.12 421.13 241.16 421.07 240.77 421.46 239.8 421.84 239.09 421.84 238.47 422.21 237.91 422.08 237.43 421.64 237.14 421.72 236.78 422.41 236.51 422.38 236.46 422.98 235.48 423.77 234.97 424.11 234.68 424.47 233.85 423.89 233.25 424.65 232.66 424.63 232 424.7 232.06 426.11 231.65 426.13 231.3 426.79"></polygon>
            <polygon id="HT" points="270.04 406.75 271.75 406.88 274.18 407.35 274.43 408.96 274.21 410.09 273.53 410.59 274.25 411.47 274.19 412.27 272.33 411.77 271.01 411.97 269.3 411.76 267.99 412.31 266.48 411.39 266.73 410.44 269.31 410.85 271.43 411.09 272.44 410.43 271.16 409.16 271.18 408.03 269.41 407.57"></polygon>
            <polygon id="JM" points="257.76 410.96 259.65 411.22 261.14 411.93 261.6 412.73 259.63 412.78 258.78 413.27 257.21 412.8 255.61 411.73 255.94 411.06 257.12 410.86"></polygon>
            <polygon id="MX" points="202.89 388.72 201.8 391.43 201.31 393.64 201.1 397.72 200.83 399.19 201.32 400.83 202.19 402.3 202.75 404.61 204.61 406.82 205.26 408.51 206.36 409.96 209.34 410.75 210.5 411.97 212.96 411.15 215.09 410.86 217.19 410.33 218.96 409.82 220.74 408.62 221.41 406.89 221.64 404.4 222.13 403.53 224.02 402.74 226.99 402.05 229.47 402.15 231.17 401.9 231.84 402.53 231.75 403.97 230.24 405.74 229.58 407.55 230.09 408.06 229.67 409.34 228.97 411.63 228.26 410.88 227.67 410.93 227.14 410.97 226.14 412.74 225.63 412.39 225.29 412.53 225.31 412.96 222.72 412.93 220.1 412.93 220.1 414.58 218.83 414.58 219.87 415.56 220.91 416.23 221.22 416.86 221.68 417.04 221.6 418.02 218.01 418.03 216.66 420.39 217.05 420.93 216.73 421.61 216.66 422.45 213.49 419.34 212.04 418.4 209.75 417.64 208.19 417.85 205.93 418.94 204.52 419.23 202.54 418.47 200.44 417.91 197.82 416.58 195.72 416.17 192.54 414.82 190.2 413.42 189.49 412.64 187.92 412.47 185.05 411.54 183.88 410.2 180.87 408.53 179.47 406.66 178.8 405.21 179.73 404.92 179.44 404.07 180.09 403.3 180.1 402.26 179.16 400.92 178.9 399.72 177.96 398.2 175.49 395.18 172.67 392.79 171.31 390.88 168.9 389.62 168.39 388.86 168.82 386.94 167.39 386.21 165.73 384.69 165.03 382.5 163.52 382.24 161.9 380.58 160.58 379.03 160.46 378.03 158.95 375.61 157.96 373.13 158 371.88 155.97 370.59 155.04 370.73 153.44 369.83 152.99 371.16 153.45 372.72 153.72 375.15 154.69 376.48 156.77 378.69 157.23 379.44 157.66 379.66 158.02 380.76 158.52 380.71 159.09 382.75 159.94 383.55 160.53 384.66 162.3 386.26 163.23 389.15 164.06 390.5 164.84 391.94 164.99 393.56 166.34 393.66 167.47 395.05 168.49 396.41 168.42 396.95 167.24 398.06 166.74 398.05 166 396.2 164.17 394.47 162.15 392.99 160.71 392.21 160.8 389.96 160.38 388.28 159.04 387.32 157.11 385.93 156.74 386.33 156.04 385.51 154.31 384.76 152.66 382.93 152.86 382.69 154.01 382.87 155.05 381.69 155.16 380.26 153 377.99 151.36 377.1 150.32 375.09 149.28 372.97 147.98 370.36 146.84 367.4 150.03 367.15 153.59 366.79 153.33 367.43 157.56 369.04 163.96 371.35 169.54 371.32 171.76 371.32 171.76 369.97 176.62 369.97 177.64 371.14 179.08 372.17 180.74 373.6 181.67 375.29 182.37 377.05 183.82 378.02 186.15 378.98 187.91 376.45 190.21 376.39 192.18 377.67 193.59 379.85 194.56 381.71 196.21 383.51 196.83 385.7 197.62 387.17 199.8 388.13 201.79 388.81"></polygon>
            <polygon id="NI" points="234.93 432.31 233.96 431.41 232.65 430.26 232.03 429.3 230.85 428.41 229.44 427.12 229.75 426.68 230.22 427.11 230.43 426.9 231.3 426.79 231.65 426.13 232.06 426.11 232 424.7 232.66 424.63 233.25 424.65 233.85 423.89 234.68 424.47 234.97 424.11 235.48 423.77 236.46 422.98 236.51 422.38 236.78 422.41 237.14 421.72 237.43 421.64 237.91 422.08 238.47 422.21 239.09 421.84 239.8 421.84 240.77 421.46 241.16 421.07 242.12 421.13 241.88 421.41 241.74 422.05 242.02 423.1 241.38 424.08 241.08 425.23 240.98 426.5 241.14 427.23 241.21 428.52 240.78 428.8 240.52 430.02 240.71 430.77 240.13 431.5 240.27 432.26 240.69 432.73 240.02 433.33 239.2 433.14 238.73 432.56 237.84 432.32 237.2 432.69 235.35 431.94"></polygon>
            <polygon id="PA" points="256.88 443.21 255.95 442.4 255.35 440.88 256.04 440.13 255.33 439.94 254.81 439.01 253.41 438.23 252.18 438.41 251.62 439.39 250.48 440.09 249.87 440.19 249.6 440.78 250.93 442.3 250.17 442.66 249.76 443.08 248.46 443.22 247.97 441.54 247.61 442.02 246.68 441.86 246.12 440.72 244.97 440.54 244.24 440.21 243.04 440.21 242.95 440.82 242.63 440.4 242.78 439.84 243.01 439.27 242.9 438.76 243.32 438.42 242.74 438 242.72 436.87 243.81 436.62 244.81 437.63 244.75 438.23 245.87 438.35 246.14 438.12 246.91 438.82 248.29 438.61 249.48 437.9 251.18 437.33 252.14 436.49 253.69 436.65 253.58 436.93 255.15 437.03 256.4 437.52 257.31 438.36 258.37 439.14 258.03 439.56 258.68 441.21 258.15 442.05 257.24 441.85"></polygon>
            <polygon id="PE" points="280.13 513.14 279.38 514.65 277.94 515.39 275.13 513.71 274.88 512.51 269.33 509.59 264.3 506.42 262.13 504.64 260.97 502.27 261.43 501.44 259.06 497.69 256.29 492.45 253.65 486.83 252.5 485.54 251.62 483.48 249.44 481.64 247.44 480.51 248.35 479.26 246.99 476.59 247.86 474.64 250.1 472.87 250.43 474.04 249.63 474.7 249.7 475.72 250.86 475.5 252 475.8 253.17 477.21 254.76 476.06 255.29 474.18 257.01 471.75 260.38 470.65 263.44 467.73 264.31 465.92 263.92 463.81 264.67 463.54 266.53 464.86 267.42 466.18 268.72 466.9 270.37 469.82 272.46 470.17 274.01 469.43 275.02 469.91 276.7 469.67 278.85 470.98 277.04 473.82 277.88 473.88 279.28 475.37 276.75 475.24 276.38 475.66 274.08 476.19 270.88 478.1 270.67 479.4 269.96 480.38 270.24 481.89 268.54 482.7 268.54 483.89 267.8 484.4 268.97 486.93 270.53 488.65 269.94 489.86 271.8 490.02 272.86 491.53 275.33 491.6 277.63 489.94 277.44 494.24 278.72 494.57 280.3 494.08 282.73 498.66 282.12 499.62 281.99 501.64 281.93 504.08 280.83 505.52 281.34 506.59 280.69 507.56 281.9 510"></polygon>
            <polygon id="PR" points="289.41 410.89 290.84 411.15 291.35 411.73 290.63 412.47 288.52 412.45 286.88 412.55 286.72 411.3 287.11 410.87"></polygon>
            <polygon id="SR" points="315.02 446.72 318.38 447.28 318.68 446.77 320.95 446.57 323.96 447.33 322.5 449.73 322.72 451.64 323.83 453.3 323.34 454.5 323.09 455.77 322.37 456.94 320.77 456.35 319.44 456.64 318.31 456.39 318.03 457.2 318.5 457.75 318.25 458.32 316.72 458.09 315.01 455.67 314.64 454.1 313.75 454.09 312.5 452.07 313.02 450.62 312.87 449.97 314.57 449.24"></polygon>
            <polygon id="SV" points="229.09 425.76 228.78 426.43 227.16 426.39 226.15 426.12 224.99 425.55 223.43 425.37 222.64 424.75 222.73 424.33 223.69 423.61 224.21 423.29 224.06 422.95 224.72 422.78 225.55 423.02 226.15 423.59 227 424.05 227.1 424.44 228.33 424.1 228.91 424.3 229.29 424.61"></polygon>
            <polygon id="TT" points="302.31 433.24 303.92 432.87 304.51 432.97 304.4 435.08 302.06 435.39 301.55 435.14 302.37 434.36"></polygon>
            <path fill="#72C02C" d="M109.25,279.8 L107.71,277.97 L105.24,276.4 L104.45,272.04 L100.84,267.91 L99.33,262.97 L96.64,262.63 L92.18,262.5 L88.89,260.96 L83.09,255.32 L80.41,254.27 L75.51,252.28 L71.63,252.76 L66.12,250.17 L62.79,247.74 L59.68,248.95 L60.26,252.88 L58.71,253.24 L55.47,254.4 L53,256.26 L49.89,257.42 L49.49,254.18 L50.75,248.65 L53.73,246.88 L52.96,245.42 L49.39,248.64 L47.48,252.41 L43.44,256.36 L45.49,259.01 L42.84,262.86 L39.83,265.07 L37.02,266.66 L36.33,268.95 L31.95,271.58 L31.06,273.94 L27.78,276.07 L25.86,275.69 L23.24,277.07 L20.39,278.74 L18.06,280.37 L13.25,281.75 L12.81,280.94 L15.88,278.67 L18.62,277.16 L21.61,274.45 L25.09,273.89 L26.47,271.83 L30.36,268.78 L30.99,267.75 L33.06,265.92 L33.54,261.92 L34.97,258.75 L31.74,260.39 L30.84,259.46 L29.32,261.41 L27.49,258.68 L26.73,260.62 L25.68,257.92 L22.88,260.09 L21.16,260.09 L20.92,256.86 L21.43,254.84 L19.62,252.86 L15.97,253.93 L13.6,251.3 L11.68,249.94 L11.67,246.69 L9.51,244.21 L10.59,240.8 L12.88,237.43 L13.88,234.28 L16.15,233.83 L18.07,234.82 L20.33,231.81 L22.37,232.35 L24.51,230.39 L23.99,227.47 L22.42,226.31 L24.5,223.79 L22.78,223.86 L19.8,225.29 L18.95,226.72 L16.74,225.29 L12.77,226.02 L8.66,224.46 L7.48,221.81 L3.93,217.9 L7.87,215.03 L14.12,211.62 L16.43,211.62 L16.05,215.1 L21.97,214.83 L19.69,210.49 L16.24,207.77 L14.25,204.13 L11.56,200.96 L7.71,198.58 L9.28,194.55 L14.25,194.3 L17.79,190.72 L18.46,186.8 L21.32,182.89 L24.05,181.94 L29.36,178.18 L31.94,178.75 L36.25,174.14 L40.49,175.97 L42.52,179.84 L43.77,178.19 L48.51,178.7 L48.34,180.65 L52.63,182.08 L55.49,181.24 L61.4,183.88 L66.79,184.66 L68.95,185.73 L72.68,184.39 L76.93,186.85 L79.98,187.98 L79.96,215.63 L79.95,251.06 L82.71,251.23 L85.44,252.79 L87.4,255.23 L89.89,258.83 L92.62,255.78 L95.43,253.99 L96.92,256.84 L98.81,259.07 L101.38,261.49 L103.13,265.28 L106,271.16 L110.77,274.36 L110.85,277.48 L109.25,279.8 Z M285.18,314.23 L283.93,313.04 L282.05,313.74 L281.12,312.66 L278.98,315.76 L278.12,318.91 L277.12,320.73 L275.93,321.35 L275.03,321.55 L274.75,322.53 L269.58,322.53 L265.32,322.56 L264.05,323.29 L261.18,326.02 L261.47,326.56 L261.64,328.07 L259.54,329.34 L257.24,329.02 L255.04,328.88 L253.71,329.32 L253.96,330.47 L254.01,330.84 L251.59,333.11 L249.48,334.2 L248.04,334.71 L246.38,335.74 L244.35,336.24 L242.95,336.05 L241.22,335.28 L242.18,333.83 L242.8,332.51 L244.12,330.42 L243.98,328.85 L243.48,326.61 L242.44,326.22 L240.7,327.92 L240.14,327.89 L240,326.92 L241.54,325.36 L241.8,323.57 L241.57,321.78 L239.49,320.23 L237.11,319.43 L236.72,320.95 L236.1,321.35 L235.6,323.3 L235.34,321.97 L234.22,322.92 L233.52,324.24 L232.79,326.16 L232.65,327.8 L233.58,330.18 L233.5,332.69 L232.36,334.53 L231.79,335.05 L231.03,335.46 L230.08,335.48 L229.82,335.23 L229.06,333.25 L229.04,332.27 L229.12,331.33 L228.77,329.46 L229.3,327.28 L229.93,324.57 L231.39,321.54 L230.97,321.55 L228.91,324.09 L228.53,323.63 L229.63,322.21 L231.3,319.64 L233.21,319.28 L235.4,318.48 L237.61,318.9 L237.7,318.92 L240.17,318.56 L238.77,316.95 L238.02,316.82 L237.16,316.66 L236.57,315.52 L233.82,315.88 L231.33,316.78 L229.36,315.23 L227.77,314.71 L228.67,312.54 L226.19,313.91 L223.94,315.24 L221.78,316.28 L220.06,314.88 L217.25,315.73 L217.26,315.13 L219.16,313.4 L221.15,311.75 L224.01,310.38 L220.56,309.29 L218.29,309.84 L215.57,308.54 L212.71,307.87 L210.75,307.61 L209.88,306.89 L209.38,304.54 L208.43,304.56 L208.42,306.2 L202.62,306.2 L193.03,306.2 L183.5,306.2 L175.08,306.2 L166.67,306.2 L158.4,306.2 L149.85,306.2 L147.09,306.2 L138.77,306.2 L130.81,306.2 L131.76,309.67 L132.21,313.08 L131.52,314.17 L130.03,310.26 L125.98,308.84 L125.64,309.66 L126.46,311.6 L127.35,315.13 L127.86,320.55 L127.52,324.14 L127.18,327.68 L126.08,331.29 L126.98,334.19 L127.08,337.39 L126.47,340.44 L127.96,342.43 L128.35,345.38 L130.52,348.37 L131.76,349.54 L131.66,350.36 L134,355.21 L136.72,358.66 L137.06,360.53 L137.77,361.08 L140.37,361.41 L141.37,362.32 L142.94,362.49 L143.25,363.45 L144.56,363.85 L146.38,365.77 L146.85,367.47 L150.04,367.22 L153.6,366.86 L153.34,367.51 L157.57,369.11 L163.97,371.42 L169.55,371.4 L171.77,371.4 L171.78,370.05 L176.64,370.05 L177.66,371.21 L179.09,372.24 L180.76,373.67 L181.69,375.36 L182.39,377.13 L183.84,378.1 L186.17,379.06 L187.94,376.53 L190.23,376.47 L192.21,377.75 L193.62,379.93 L194.59,381.79 L196.24,383.59 L196.86,385.78 L197.65,387.25 L199.84,388.21 L201.83,388.89 L202.92,388.8 L202.39,387.74 L202.25,386.24 L202.28,384.08 L202.93,382.66 L204.46,381.15 L207.25,379.78 L209.8,377.41 L212.16,376.66 L213.9,376.43 L215.94,377.17 L218.39,376.77 L220.48,378.46 L222.51,378.56 L223.56,377.95 L224.6,378.42 L225.13,378 L224.53,377.37 L224.58,376.07 L224.08,375.21 L225.24,374.71 L227.38,374.49 L229.87,374.85 L233.04,374.44 L234.8,375.24 L236.16,376.74 L236.66,376.9 L239.49,375.44 L240.58,375.93 L242.77,378.61 L243.56,380.36 L242.98,382.46 L243.4,383.69 L244.7,386.09 L246.19,388.77 L247.26,389.48 L247.7,390.83 L249.08,391.2 L249.92,390.81 L250.62,388.92 L250.74,387.71 L250.83,385.61 L249.5,381.96 L249.48,380.59 L248.23,378.34 L247.29,375.59 L246.79,373.34 L247.22,371.03 L248.54,369.09 L250.12,367.52 L253.2,365.36 L253.6,364.24 L255.02,363.01 L256.42,362.79 L258.26,360.81 L261.16,359.8 L262.94,357.27 L262.55,353.81 L262.26,352.6 L261.46,352.36 L261.34,349.01 L259.41,347.87 L261.26,348.43 L260.66,346.17 L261.2,344.62 L261.53,347.59 L262.96,348.95 L262.09,351.35 L262.35,351.49 L263.93,348.68 L264.83,347.3 L264.79,345.95 L264.09,345.31 L263.51,343.37 L264.43,344.27 L265.05,344.46 L265.26,345.38 L267.3,342.6 L267.91,339.98 L267.08,339.81 L267.93,338.79 L267.85,339.24 L269.64,339.23 L273.57,338.12 L272.74,337.42 L268.62,338.12 L270.96,337.05 L272.59,336.87 L273.81,336.68 L275.88,336.03 L277.23,336.1 L279.12,335.49 L279.34,334.42 L278.5,333.58 L278.79,334.95 L277.63,334.86 L276.7,332.87 L276.73,330.86 L277.21,330 L278.69,327.72 L281.65,326.57 L284.53,325.23 L287.52,323.33 L287.04,322.04 L285.21,319.79 L285.18,314.23 Z M45.62,263.79 L44.12,264.59 L41.57,266.45 L42,268.87 L43.43,270.19 L46.23,268.24 L48.66,265.77 L47.47,264.14 L45.62,263.79 Z M0,235.22 L2.04,233.96 L2.27,233.28 L0,232.61 L0,235.22 Z M8.5,250.59 L5.73,251.56 L7.43,253.08 L9.27,254.12 L10.99,253.25 L10.72,251.1 L8.5,250.59 Z M105.85,283.09 L103.16,283.47 L101.84,282.85 L101.67,284.37 L102.19,286.44 L103.61,287.9 L104.65,290.03 L106.34,292.13 L107.46,292.14 L105.02,288.44 L105.85,283.09 Z M37.13,403.77 L36.13,403.49 L35.86,403.75 L35.88,403.94 L36.2,404.18 L36.68,404.81 L37.62,404.6 L37.85,404.24 L37.13,403.77 Z M34.14,403.23 L35.64,403.32 L35.73,403 L34.35,402.87 L34.14,403.23 Z M40.03,406.52 L39.53,406.26 L38.46,405.76 L38.25,405.7 L38.09,405.98 L38.28,406.56 L37.79,407.04 L37.65,407.37 L38.11,408.45 L38.03,409.28 L38.73,409.7 L39.14,409.21 L40.04,408.75 L41.14,408.12 L41.21,407.96 L40.5,406.92 L40.03,406.52 Z M32.17,401.38 L31.42,401.79 L31.53,401.91 L31.89,402.59 L32.87,402.7 L33.07,402.74 L33.22,402.57 L32.41,401.58 L32.17,401.38 Z M27.77,399.82 L27.34,400.12 L27.19,400.34 L28.13,400.89 L28.46,400.59 L28.4,399.89 L27.77,399.82 Z" id="US"></path>
            <polygon id="VE" points="275.25 430.35 275.17 431.02 273.52 431.35 274.44 432.64 274.4 434.13 273.17 435.77 274.23 438.01 275.44 437.83 276.07 435.79 275.2 434.79 275.06 432.65 278.55 431.49 278.16 430.15 279.14 429.25 280.15 431.25 282.12 431.3 283.94 432.88 284.05 433.82 286.56 433.84 289.56 433.55 291.17 434.82 293.31 435.17 294.88 434.29 294.91 433.57 298.39 433.4 301.75 433.36 299.37 434.2 300.32 435.54 302.57 435.75 304.69 437.14 305.14 439.4 306.6 439.33 307.7 440 305.48 441.65 305.23 442.68 306.19 443.72 305.5 444.24 303.77 444.69 303.83 445.99 303.07 446.76 304.96 448.88 305.34 449.67 304.31 450.74 301.17 451.78 299.16 452.22 298.35 452.88 296.12 452.18 294.04 451.82 293.52 452.08 294.77 452.8 294.66 454.67 295.05 456.43 297.42 456.67 297.58 457.25 295.57 458.05 295.25 459.23 294.09 459.68 292.01 460.33 291.47 461.19 289.29 461.37 287.74 459.89 286.89 457.12 286.14 456.14 285.12 455.53 286.54 454.14 286.45 453.51 285.65 452.68 285.09 450.83 285.31 448.82 285.93 447.88 286.44 446.38 285.45 445.89 283.85 446.21 281.83 446.06 280.7 446.36 278.72 443.95 277.09 443.59 273.49 443.86 272.82 442.88 272.13 442.65 272.03 442.06 272.36 441.02 272.14 439.89 271.52 439.27 271.16 437.97 269.72 437.79 270.49 436.13 270.84 434.12 271.65 433.06 272.74 432.25 273.45 430.83"></polygon>
        </g>
        <g id="icon-/-map-pin" transform="translate(251.000000, 230.841797)">
            <mask id="mask-2" fill="white">
                <use xlink:href="#path-1"></use>
            </mask>
            <use id="Mask" fill="#4F4959" fill-rule="nonzero" xlink:href="#path-1"></use>
        </g>
        <g id="icon-/-map-pin-copy-2" transform="translate(232.000000, 249.841797)">
            <mask id="mask-4" fill="white">
                <use xlink:href="#path-3"></use>
            </mask>
            <use id="Mask" fill="#4F4959" fill-rule="nonzero" xlink:href="#path-3"></use>
        </g>
        <g id="icon-/-map-pin-copy" transform="translate(261.000000, 291.031250)">
            <mask id="mask-6" fill="white">
                <use xlink:href="#path-5"></use>
            </mask>
            <use id="Mask" fill="#4F4959" fill-rule="nonzero" xlink:href="#path-5"></use>
        </g>
    </g>
</svg>