<?xml version="1.0" encoding="UTF-8"?>
<svg width="586px" height="497px" viewBox="0 0 586 497" version="1.1" xmlns="http://www.w3.org/2000/svg" xmlns:xlink="http://www.w3.org/1999/xlink">
    <!-- Generator: Sketch 51.3 (57544) - http://www.bohemiancoding.com/sketch -->
    <title>complete-team</title>
    <desc>Created with Sketch.</desc>
    <defs></defs>
    <g id="Page-1" stroke="none" stroke-width="1" fill="none" fill-rule="evenodd">
        <g id="complete-team" transform="translate(-1.000000, 0.000000)">
            <g id="Client-PO" transform="translate(262.896484, 185.107422)">
                <g id="Icon-client-pO" transform="translate(9.313211, 0.169668)" stroke="#666666" stroke-width="2.54957507">
                    <path d="M51.3404619,74.7967187 L68.1089885,74.7967187 C74.8494243,74.7967187 80.3101351,79.7109513 80.3101351,85.773824 L80.3101351,100.850926" id="Stroke-20"></path>
                    <path d="M30.1210496,74.7967187 L12.352523,74.7967187 C5.61208718,74.7967187 0.151376446,79.7109513 0.151376446,85.773824 L0.151376446,100.850926" id="Stroke-22"></path>
                    <path d="M30.8360463,76.9594174 L30.8368719,67.0160041" id="Stroke-24"></path>
                    <path d="M51.3429388,67.0163398 L51.3404619,76.959753" id="Stroke-26"></path>
                    <polygon id="Stroke-28" points="29.0775389 91.3307581 41.0475093 83.2911171 30.0220586 76.8221511"></polygon>
                    <polygon id="Stroke-30" points="53.0812183 91.3328557 41.1112479 83.2915366 52.135873 76.8217316"></polygon>
                    <path d="M65.7293604,30.8800749 L66.1256624,30.8800749 C68.7387784,30.8800749 70.8581682,33.0338798 70.8581682,35.6902671 L70.8581682,44.5085333 C70.8581682,47.1674377 68.7387784,49.3212426 66.1256624,49.3212426 L65.7293604,49.3212426" id="Stroke-32"></path>
                    <path d="M65.303666,25.8286599 L65.303666,45.3194614 C65.303666,58.7767565 54.5696624,69.6833828 41.3298745,69.6833828 C28.0876097,69.6833828 17.353606,58.7767565 17.353606,45.3194614 L17.353606,25.8286599" id="Stroke-34"></path>
                    <path d="M34.5466554,52.1911474 C34.5209639,52.4150541 34.5053656,52.643549 34.5053656,52.8729616 C34.5053656,56.2627617 37.2506803,59.0074537 40.6391988,59.0074537 L41.4567374,59.0074537 C44.8434208,59.0074537 47.5896531,56.2627617 47.5896531,52.8729616 C47.5896531,52.643549 47.5758898,52.4150541 47.552951,52.1911474 L34.5466554,52.1911474 Z" id="Stroke-185"></path>
                    <path d="M32.7678532,0.143844378 C28.8873966,0.143844378 25.4775485,2.1717939 23.4943874,5.24098684 L19.6865861,5.24098684 C14.9408701,5.24098684 11.092613,9.15089365 11.092613,13.9753495 L11.092613,55.9808376 L17.140346,55.9808376 L17.140346,26.7823919 C17.140346,23.385975 19.8508863,20.6330985 23.1897303,20.6330985 L26.7192946,20.6330985 L56.458454,20.6330985 L62.0042046,20.6330985 C68.1287211,20.6330985 73.09488,15.5879763 73.09488,9.36484777 L73.09488,0.143844378 L32.7678532,0.143844378 Z" id="Stroke-36"></path>
                    <path d="M17.3534409,30.9299136 C14.9731522,31.1807853 11.0926956,33.2028616 11.0926956,35.6897637 L11.0926956,44.5088689 C11.0926956,46.9966101 14.9731522,49.0186863 17.3534409,49.269558 L17.3534409,30.9299136 Z" id="Stroke-38"></path>
                    <path d="M17.9009155,30.9967009 L17.9009155,34.9049296 C17.9009155,40.4752882 22.3452769,44.9893008 27.8249771,44.9893008 C33.3038516,44.9893008 37.7465617,40.4752882 37.7465617,34.9049296 L37.7465617,30.9967009 L17.9009155,30.9967009 Z" id="Stroke-42"></path>
                    <path d="M45.4409293,30.9967009 L45.4409293,34.9049296 C45.4409293,40.4752882 49.884465,44.9893008 55.3633396,44.9893008 C60.8430398,44.9893008 65.2849243,40.4752882 65.2849243,34.9049296 L65.2849243,30.9967009 L45.4409293,30.9967009 Z" id="Stroke-44"></path>
                    <path d="M32.0156226,36.4532862 L27.6472191,36.4532862" id="Stroke-46"></path>
                    <path d="M56.2112607,36.4532862 L51.841206,36.4532862" id="Stroke-48"></path>
                    <path d="M37.7280676,30.9967009 L46.8017312,30.9967009" id="Stroke-50"></path>
                </g>
                <g id="CLIENT-PO" transform="translate(0.000000, 110.000000)" fill="#E96D00" font-family="Montserrat-Bold, Montserrat" font-size="18.2566147" font-weight="bold">
                    <text>
                        <tspan x="0.9311254" y="18.50983">CLIENT PO</tspan>
                    </text>
                </g>
            </g>
            <g id="EM" transform="translate(0.550781, 177.107422)">
                <g id="Icon-EM" transform="translate(36.000000, 0.000000)" stroke="#666666" stroke-width="2.54957507">
                    <path d="M52.0294618,28.1131335 L52.0294618,56.5286502 C52.0294618,60.7237891 50.3805241,64.5332634 47.6926346,67.343197" id="Stroke-52"></path>
                    <path d="M17.8286969,66.6135577 C15.5308924,63.890319 14.1458357,60.3715275 14.1458357,56.5282677 L14.1458357,28.1133885" id="Stroke-54"></path>
                    <path d="M24.4105524,65.4086266 C13.6507082,67.6327323 4.79348442,74.1361221 0.32407932,82.7405873" id="Stroke-56"></path>
                    <path d="M64.9018201,82.7406511 C60.4394263,74.1495725 51.6019618,67.6525574 40.8644263,65.4182523" id="Stroke-58"></path>
                    <path d="M51.0254391,34.5891124 C54.7255099,34.5891124 57.7257224,37.5902846 57.7257224,41.2913903 C57.7257224,44.9931335 54.7255099,47.9923934 51.0254391,47.9923934" id="Stroke-60"></path>
                    <path d="M15.1515156,47.9926483 C11.45017,47.9926483 8.44932011,44.9933885 8.44932011,41.2910079 C8.44932011,37.5899021 11.45017,34.5893674 15.1515156,34.5893674" id="Stroke-62"></path>
                    <path d="M39.6133499,59.0414625 L39.6133499,65.7947375 C39.6133499,69.6609459 36.4786473,72.7953477 32.6128541,72.7953477 C28.7464235,72.7953477 25.6123584,69.6609459 25.6123584,65.7947375 L25.6123584,59.0414625" id="Stroke-64"></path>
                    <path d="M52.0294618,44.1745045 C52.0294618,52.8172175 45.0245042,59.823565 36.3814448,59.823565 L29.7933428,59.823565 C21.1515581,59.823565 14.1459632,52.8172175 14.1459632,44.1745045 L14.1459632,15.7596254 C14.1459632,7.11627492 21.1515581,0.109927492 29.7933428,0.109927492 L36.3814448,0.109927492 C45.0245042,0.109927492 52.0294618,7.11627492 52.0294618,15.7596254 L52.0294618,44.1745045 Z" id="Stroke-66"></path>
                    <path d="M36.3815722,0.109608761 L29.7934703,0.109608761 C21.1510482,0.109608761 14.1454533,7.11659366 14.1454533,15.7593066 L14.1454533,34.4975091 C21.9605382,33.7886511 29.3957365,26.4967205 33.0875212,16.0595514 C36.7786686,26.4967205 44.2151416,33.7886511 52.0295892,34.498784 L52.0295892,15.7593066 C52.0295892,7.11659366 45.0246317,0.109608761 36.3815722,0.109608761 Z" id="Stroke-68"></path>
                    <path d="M19.5603683,37.5934082 C19.5603683,35.9984776 21.712847,34.7037918 24.3701416,34.7037918 C27.028711,34.7037918 29.1818272,35.9984776 29.1818272,37.5934082" id="Stroke-70"></path>
                    <path d="M35.206983,37.5934082 C35.206983,35.9984776 37.3607365,34.7037918 40.0180312,34.7037918 C42.6753258,34.7037918 44.8290793,35.9984776 44.8290793,37.5934082" id="Stroke-72"></path>
                    <path d="M26.3725142,44.5863051 L26.3725142,47.4689094 C26.3725142,49.7440121 28.2164943,51.5869154 30.4907153,51.5869154 L33.3730099,51.5869154 C35.6478683,51.5869154 37.4905737,49.7440121 37.4905737,47.4689094 L37.4905737,44.5863051 L26.3725142,44.5863051 Z" id="Stroke-74"></path>
                </g>
                <g id="ENGAGEMENT" transform="translate(0.000000, 94.000000)" fill="#74BE44" font-family="Montserrat-Bold, Montserrat" font-size="18.2566147" font-weight="bold">
                    <text id="EN">
                        <tspan x="0.405064023" y="18.691128">EN</tspan>
                    </text>
                    <text id="G">
                        <tspan x="27.0779781" y="18.691128">G</tspan>
                    </text>
                    <text id="AGEMENT">
                        <tspan x="40.5331032" y="18.691128">AGEMENT</tspan>
                    </text>
                </g>
                <g id="MANAGER" transform="translate(18.000000, 116.000000)" fill="#74BE44" font-family="Montserrat-Bold, Montserrat" font-size="18.2566147" font-weight="bold">
                    <text>
                        <tspan x="0.698192" y="18.601419">MANAGER</tspan>
                    </text>
                </g>
            </g>
            <g id="PO" transform="translate(137.550781, 32.074009)">
                <g id="PRODUCT" transform="translate(0.000000, 98.000000)" fill="#74BE44" font-family="Montserrat-Bold, Montserrat" font-size="18.2566147" font-weight="bold">
                    <text id="P">
                        <tspan x="0.16238207" y="18.691128">P</tspan>
                    </text>
                    <text id="R">
                        <tspan x="12.5768801" y="18.691128">R</tspan>
                    </text>
                    <text id="ODUCT">
                        <tspan x="25.6668728" y="18.691128">ODUCT</tspan>
                    </text>
                </g>
                <g id="OWNER" transform="translate(7.000000, 120.000000)" fill="#74BE44" font-family="Montserrat-Bold, Montserrat" font-size="18.2566147" font-weight="bold">
                    <text id="O">
                        <tspan x="0.34503389" y="18.601419">O</tspan>
                    </text>
                    <text id="WNER">
                        <tspan x="14.6399632" y="18.601419">WNER</tspan>
                    </text>
                </g>
                <g id="Icon-PO" transform="translate(13.000000, 0.000000)" stroke="#666666" stroke-width="2.54957507">
                    <polyline id="Stroke-105" points="22.8783144 31.3306864 29.7698159 31.3306864 29.7698159 44.2533208"></polyline>
                    <path d="M36.4447309,31.3306864 L43.3362323,31.3306864" id="Stroke-106"></path>
                    <path d="M26.7543697,53.513926 C26.7543697,55.2981828 28.2006161,56.7439471 29.9840439,56.7439471 L35.5835482,56.7439471 C37.3669759,56.7439471 38.8132224,55.2981828 38.8132224,53.513926 C38.8132224,52.9663459 38.6647096,52.4582885 38.4250496,52.0069653" id="Stroke-107"></path>
                    <path d="M21.5854887,9.79370604 L16.8477408,9.79370604 C14.7073725,9.79370604 12.9717493,11.5288782 12.9717493,13.6707514 L12.9717493,28.3158088 C12.9717493,30.4564069 14.7073725,32.1915792 16.8477408,32.1915792 L25.462755,13.5311471" id="Stroke-108"></path>
                    <path d="M52.8103258,40.8136384 L52.8103258,16.9005175 C52.8103258,7.62352961 45.2903541,0.101475227 36.0130878,0.101475227 L34.2914873,0.101475227 C28.2719405,0.101475227 22.9962323,3.26966254 20.0298017,8.02895559 L52.8103258,40.8136384 Z" id="Stroke-109"></path>
                    <path d="M34.1391501,12.6637523 L58.4735694,37.0007855" id="Stroke-110"></path>
                    <path d="M16.3954462,59.9688686 L12.0114518,59.9688686 C5.8280949,59.9688686 0.818179887,64.9812341 0.818179887,71.1646178 L0.818179887,82.0212372" id="Stroke-111"></path>
                    <path d="M48.7456657,59.9698885 L53.1302975,59.9698885 C59.3123796,59.9698885 64.3235694,64.9809792 64.3235694,71.1650003 L64.3235694,82.7400396" id="Stroke-112"></path>
                    <path d="M49.2840722,36.4988477 L49.2840722,53.5139897 C49.2840722,57.0812284 46.3909419,69.0202586 42.8228116,69.0202586 L23.0113385,69.0202586 C19.4438456,69.0202586 16.5513527,57.0812284 16.5513527,53.5139897 L16.5513527,31.9760532" id="Stroke-113"></path>
                    <polyline id="Stroke-114" points="16.3898371 60.2220048 16.3898371 78.8276151 32.869653 68.9412133"></polyline>
                    <polyline id="Stroke-115" points="48.4132649 61.6344937 48.4132649 78.8274876 31.933449 68.9410858"></polyline>
                    <path d="M31.6418414,76.5075076 L31.6418414,80.1027946" id="Stroke-116"></path>
                    <path d="M31.6418414,84.4172665 L31.6418414,88.0125535" id="Stroke-117"></path>
                </g>
            </g>
            <g id="Designers-Copy" transform="translate(281.058594, 0.683594)">
                <g id="DESIGN" transform="translate(0.000000, 100.000000)" fill="#74BE44" font-family="Montserrat-Bold, Montserrat" font-size="18.2566147" font-weight="bold">
                    <text>
                        <tspan x="0.426381891" y="18.691128">DESIGN</tspan>
                    </text>
                </g>
                <g id="Icon-designers" transform="translate(4.846271, 0.000000)" stroke="#666666" stroke-width="2.54957507">
                    <path d="M20.8126983,75.3495196 L11.6514377,75.3495196 C7.10873229,75.3495196 3.42714589,79.0327764 3.42714589,83.5740574" id="Stroke-125"></path>
                    <path d="M62.5355382,83.5740574 C62.5355382,79.0327764 58.8533144,75.3495196 54.3112465,75.3495196 L44.9982861,75.3495196" id="Stroke-126"></path>
                    <g id="Group">
                        <path d="M3.66470255,45.4186915 C3.66470255,55.1858879 11.5798584,63.1038063 21.3466431,63.1038063 C22.052238,63.1038063 22.7469972,63.0623713 23.4315581,62.9814136" id="Stroke-118"></path>
                        <path d="M7.98629603,33.5175266 C3.86745751,33.5175266 0.526876771,36.3618831 0.526876771,39.8704752 C0.526876771,43.3790674 3.86745751,46.2234239 7.98629603,46.2234239 C9.01504958,46.2234239 9.99599858,46.0455719 10.8889873,45.7242909" id="Stroke-119"></path>
                        <path d="M22.9658144,60.5084426 L22.9658144,69.692361" id="Stroke-120"></path>
                        <path d="M42.0377195,69.6924248 L42.0377195,60.5085063" id="Stroke-121"></path>
                        <path d="M8.92728045,31.77139 L8.92728045,36.9992178 C8.92728045,50.6613085 20.000085,61.7384897 33.6613456,61.7384897 C38.3328045,61.7384897 53.8558924,60.5081876 53.8558924,45.2779399" id="Stroke-122"></path>
                        <path d="M53.8557649,45.2776849 L53.8557649,40.0498571 C53.8557649,38.0992227 53.6301275,33.1831139 53.203711,31.3631592" id="Stroke-123"></path>
                        <path d="M33.83,53.3934079 C31.6265297,53.3934079 29.6850283,52.0464502 28.4982011,49.9855347" id="Stroke-124"></path>
                        <path d="M16.5021317,34.3816066 C19.0230241,36.9040447 23.1087181,36.9040447 25.6302479,34.3816066" id="Stroke-127"></path>
                        <path d="M37.3705949,34.3816066 C39.8914873,36.9040447 43.9771813,36.9040447 46.498711,34.3816066" id="Stroke-128"></path>
                        <path d="M32.4409915,0.738134743 L32.4409915,3.04256073 C30.4746317,18.6935335 18.4068555,31.1916181 2.97045326,33.8084006 L2.97045326,31.9393613 C2.97045326,15.2748236 16.0089802,1.6605426 32.4409915,0.738134743 Z" id="Stroke-129"></path>
                        <path d="M32.1957861,8.15621903 L34.1149788,8.15621903 C47.1464943,9.79449698 57.5532224,19.8440891 59.7324717,32.7004275 L58.1753187,32.7004275 C44.2998938,32.7004275 32.9638456,21.8412583 32.1957861,8.15621903 Z" id="Stroke-130"></path>
                        <path d="M20.7847167,81.1348719 C20.7847167,82.2829414 21.7165864,83.2155486 22.8658074,83.2155486 L42.2827337,83.2155486 C43.4313173,83.2155486 44.3625496,82.2829414 44.3625496,81.1348719 L44.3625496,71.773739 C44.3625496,70.6231196 43.4313173,69.6924248 42.2827337,69.6924248 L22.8658074,69.6924248 C21.7165864,69.6924248 20.7847167,70.6231196 20.7847167,71.773739 L20.7847167,81.1348719 Z" id="Stroke-131"></path>
                    </g>
                    <path d="M36.9497875,82.5213523 L36.9497875,74.5466997" id="Stroke-132"></path>
                </g>
            </g>
            <g id="QA" transform="translate(516.234375, 108.956380)">
                <g id="Group" transform="translate(17.000000, 93.000000)" fill="#74BE44" font-family="Montserrat-Bold, Montserrat" font-size="18.2566147" font-weight="bold">
                    <text id="QA">
                        <tspan x="0.7415839" y="18.044383">QA</tspan>
                    </text>
                </g>
                <g id="Icon-QA" stroke="#666666" stroke-width="2.54957507">
                    <path d="M52.4442989,68.9211707 C58.9265935,70.9693369 63.474398,75.7662402 63.474398,81.3561465 L63.474398,86.0172704" id="Stroke-189"></path>
                    <path d="M0.909419263,86.0172704 L0.909419263,81.3561465 C0.909419263,76.0792341 4.96196884,71.5099048 10.8699717,69.2902613" id="Stroke-190"></path>
                    <path d="M48.036243,33.1321921 L48.0360836,39.6362193 C48.0698654,47.4279202 42.7329674,63.76289 32.1930241,64.1243311 C21.6460694,63.7635275 16.3174575,47.4266453 16.3467776,39.6362193 L16.3466573,33.1321921" id="Stroke-191"></path>
                    <path d="M32.1822521,20.0909897 C32.0197167,18.6643492 30.4632011,16.1476483 27.3444334,15.8697148 C23.8712748,15.5484338 20.695779,17.5264792 18.8084561,22.91431 L8.86447592,63.8024127" id="Stroke-192"></path>
                    <path d="M32.2002266,20.0922009 C32.3640368,18.664923 33.9218272,16.1482221 37.0393201,15.8702885 C40.511204,15.5483701 43.6879745,17.5264154 45.5759348,22.9148837 L55.5192776,63.8023489" id="Stroke-193"></path>
                    <path d="M55.5659348,22.3924196 L55.5659348,61.9157157 C55.5659348,69.3682867 49.5247167,75.4107912 42.0716714,75.4107912 L39.9567989,75.4107912" id="Stroke-194"></path>
                    <path d="M24.426381,75.4110462 L22.3121459,75.4110462 C14.8591006,75.4110462 8.81851983,69.3685417 8.81851983,61.9159707 L8.81851983,22.3926746" id="Stroke-195"></path>
                    <path d="M39.9566076,61.20979 L39.9566076,75.7350045 C39.9566076,80.0244879 36.4815368,83.5005695 32.1925142,83.5005695 C27.9041289,83.5005695 24.4265085,80.0244879 24.4265085,75.7350045 L24.4265085,61.20979" id="Stroke-196"></path>
                    <path d="M27.8249646,50.1681154 C27.807755,50.3236562 27.7962819,50.4817468 27.7962819,50.6411124 C27.7962819,52.9958979 29.7040014,54.9025474 32.0578966,54.9025474 L32.6245397,54.9025474 C34.9790722,54.9025474 36.8880666,52.9958979 36.8880666,50.6411124 C36.8880666,50.4817468 36.8759561,50.3236562 36.8600212,50.1681154 L27.8249646,50.1681154 Z" id="Stroke-197"></path>
                    <polyline id="Stroke-198" points="34.1771034 30.9480553 39.4330524 42.5428559 32.7385057 42.5428559"></polyline>
                    <path d="M8.83203258,23.6380208 C8.83203258,11.0787399 19.2948513,0.897193051 32.1995255,0.897193051 C45.1048371,0.897193051 55.5670184,11.0787399 55.5670184,23.6380208" id="Stroke-199"></path>
                    <path d="M39.1334773,38.5361508 C37.3647096,38.5361508 35.9254745,37.0973985 35.9254745,35.3278033 L35.9254745,30.2019695 C35.9254745,28.4330118 37.3647096,26.9936221 39.1334773,26.9936221 L49.2916218,26.9936221 C51.0591147,26.9936221 52.500262,28.4330118 52.500262,30.2019695 L52.500262,35.3278033 C52.500262,37.0973985 51.0591147,38.5361508 49.2916218,38.5361508 L39.1334773,38.5361508 Z" id="Stroke-200"></path>
                    <path d="M16.1444051,38.5361508 C14.3769122,38.5361508 12.9370397,37.0973985 12.9370397,35.3278033 L12.9370397,30.2019695 C12.9370397,28.4330118 14.3769122,26.9936221 16.1444051,26.9936221 L26.3025496,26.9936221 C28.0706799,26.9936221 29.5111898,28.4330118 29.5111898,30.2019695 L29.5111898,35.3278033 C29.5111898,37.0973985 28.0706799,38.5361508 26.3025496,38.5361508 L16.1444051,38.5361508 Z" id="Stroke-201"></path>
                    <path d="M29.5109986,30.2021607 L35.9250921,30.2021607" id="Stroke-202"></path>
                </g>
            </g>
            <g id="DevOps" transform="translate(400.316406, 57.989072)">
                <g id="DEVOPS" transform="translate(0.000000, 87.000000)" fill="#74BE44" font-family="Montserrat-Bold, Montserrat" font-size="18.2566147" font-weight="bold">
                    <text>
                        <tspan x="0.49823194" y="18.122705">DEVOPS</tspan>
                    </text>
                </g>
                <g id="Icon-DevOps" transform="translate(9.176927, 0.000000)" stroke="#666666" stroke-width="2.54957507">
                    <path d="M6.57004249,23.1901924 L6.57004249,32.0215943 C6.57004249,33.4565218 7.73264873,34.6192529 9.1674221,34.6192529 C10.6021955,34.6192529 11.7635269,33.4565218 11.7635269,32.0215943 L11.7635269,23.1901924 L6.57004249,23.1901924 Z" id="Stroke-177"></path>
                    <path d="M49.8761048,23.1901924 L49.8761048,32.0215943 C49.8761048,33.4565218 51.0380737,34.6192529 52.4734844,34.6192529 C53.9076204,34.6192529 55.0695892,33.4565218 55.0695892,32.0215943 L55.0695892,23.1901924 L49.8761048,23.1901924 Z" id="Stroke-178"></path>
                    <path d="M38.7303824,57.6775369 L51.4368272,57.6775369 C56.6456091,57.6775369 60.8657932,61.4149779 60.8657932,66.0257423 L60.8657932,75.0075852" id="Stroke-179"></path>
                    <path d="M0.615637394,74.2123511 L0.615637394,66.026061 C0.615637394,61.4146592 4.83773371,57.6772181 10.047153,57.6772181 L22.5636544,57.6772181" id="Stroke-180"></path>
                    <polyline id="Stroke-181" points="17.3639873 57.6775369 17.3639873 64.2912076 30.7409703 72.0147 44.1179533 64.2912076 44.1179533 57.6775369"></polyline>
                    <polyline id="Stroke-182" points="38.6637748 54.2405955 38.6637748 61.1417616 30.7409703 65.7174656 22.8168909 61.1417616 22.8168909 54.2405955"></polyline>
                    <path d="M49.5498867,11.4721066 C49.5498867,5.39199184 44.6215581,0.463771299 38.5433711,0.463771299 L22.7659632,0.463771299 C16.685864,0.463771299 11.7575354,5.39199184 11.7575354,11.4721066 L11.7243909,42.4145236 L22.1547025,54.4096505 L39.1508074,54.4096505 L49.5823938,42.4145236 L49.5498867,11.4721066 Z" id="Stroke-183"></path>
                    <polyline id="Stroke-184" points="13.978534 44.9317344 22.2200354 54.409523 39.217415 54.409523 47.3295255 45.0789882"></polyline>
                    <path d="M26.1368839,42.225006 C26.1190368,42.3805468 26.1082011,42.5392749 26.1082011,42.6986405 C26.1082011,45.053426 28.0152833,46.9600755 30.3691785,46.9600755 L30.9370963,46.9600755 C33.2897167,46.9600755 35.1974363,45.053426 35.1974363,42.6986405 C35.1974363,42.5392749 35.1878754,42.3805468 35.1719405,42.225006 L26.1368839,42.225006 Z" id="Stroke-185"></path>
                    <polyline id="Stroke-186" points="34.2904249 18.5147257 34.2904249 29.683064 27.017762 29.683064 27.017762 18.5147257 18.4511898 18.5147257"></polyline>
                    <path d="M14.8165793,23.3604586 C17.3374717,25.8828967 21.4231657,25.8828967 23.9446955,23.3604586" id="Stroke-187"></path>
                    <path d="M36.4879674,23.3604586 C39.0088598,25.8828967 43.0945538,25.8828967 45.6160836,23.3604586" id="Stroke-188"></path>
                </g>
            </g>
            <g id="Developers-Copy" transform="translate(523.234375, 252.000000)">
                <g id="DEV" transform="translate(11.000000, 86.000000)" fill="#74BE44" font-family="Montserrat-Bold, Montserrat" font-size="18.2566147" font-weight="bold">
                    <text>
                        <tspan x="0.6641881" y="18.67214">DEV</tspan>
                    </text>
                </g>
                <g id="Icon-dev" stroke="#666666" stroke-width="2.54957507">
                    <path d="M51.4729603,15.5740598 L51.4729603,39.0639057 C51.4729603,47.4031867 44.7140368,54.1641112 36.3737394,54.1641112 C28.0340793,54.1641112 21.2745184,47.4031867 21.2745184,39.0639057 L21.2745184,35.9467154" id="Stroke-145"></path>
                    <path d="M11.3464093,69.7409471 L11.3464093,25.4016239 C11.3464093,11.5017598 22.6129816,0.233977341 36.5113527,0.233977341 C50.4097238,0.233977341 61.676296,11.5017598 61.676296,25.4016239 L61.676296,84.3656057" id="Stroke-146"></path>
                    <path d="M36.5103966,11.4611535 L61.6759773,36.6288 L61.6759773,25.4018151 C61.6759773,11.5013136 50.4100425,0.23416858 36.5116714,0.23416858 C22.6126629,0.23416858 11.346728,11.5013136 11.346728,25.4018151 L11.346728,36.6288 L36.5103966,11.4611535 Z" id="Stroke-147"></path>
                    <path d="M46.3395184,10.7582876 L62.1583569,26.5788254" id="Stroke-148"></path>
                    <path d="M36.6348796,19.7465689 L14.3433074,42.0392607" id="Stroke-149"></path>
                    <path d="M30.593279,42.8987511 C30.593279,44.8844459 32.1733782,46.4940381 34.1212535,46.4940381 L36.7084348,46.4940381" id="Stroke-150" stroke-linejoin="round"></path>
                    <path d="M24.8411827,48.6187634 L24.8411827,48.8584492 C24.8411827,53.8886637 20.7637748,57.9671471 15.7328258,57.9671471" id="Stroke-151"></path>
                    <path d="M35.8642705,55.0914275 L35.8642705,55.3298384 C35.8642705,60.3606903 39.9423159,64.4391737 44.9726275,64.4391737" id="Stroke-152"></path>
                    <path d="M51.5625779,30.0094559 C51.5625779,33.4109544 48.8058499,36.1673411 45.4053541,36.1673411 C42.0048584,36.1673411 39.2494051,33.4109544 39.2494051,30.0094559 C39.2494051,26.6079574 42.0048584,23.8515707 45.4053541,23.8515707 C48.8058499,23.8515707 51.5625779,26.6079574 51.5625779,30.0094559 Z" id="Stroke-153"></path>
                    <path d="M31.5164164,25.6548876 C33.9206657,28.0600326 33.9213031,31.9581142 31.5164164,34.3632592 C29.1108924,36.7690417 25.2132295,36.7684042 22.8096176,34.3632592" id="Stroke-154"></path>
                    <path d="M36.478017,64.5880211 L47.622847,64.5880211 C51.5931728,64.5880211 54.8132861,67.806568 54.8132861,71.7792326 L54.8132861,86.8794381" id="Stroke-155"></path>
                    <path d="M7.4797238,58.9548311 C3.50748584,58.9548311 0.289284703,62.1740154 0.289284703,66.1454051 L0.289284703,73.3359792" id="Stroke-156"></path>
                    <path d="M9.12298867,79.8852662 C10.2148442,77.3041816 12.7695184,74.055674 15.7474221,74.055674 L38.7547875,74.055674 C42.7263881,74.055674 45.945864,77.2742208 45.945864,81.246248" id="Stroke-157"></path>
                </g>
            </g>
            <g id="architect" transform="translate(262.058594, 380.480469)">
                <g id="ARCHITECT" transform="translate(0.000000, 97.000000)" fill="#74BE44" font-family="Montserrat-Bold, Montserrat" font-size="18.2566147" font-weight="bold">
                    <text>
                        <tspan x="0.0284605524" y="18.133998">ARCHITECT</tspan>
                    </text>
                </g>
                <g id="icon-architect" transform="translate(23.000000, 0.000000)" stroke="#666666" stroke-width="2.54957507">
                    <path d="M46.168279,40.735742 L46.168279,58.8326574" id="Stroke-158"></path>
                    <path d="M13.0948088,58.8324024 L13.0948088,32.8258556" id="Stroke-159"></path>
                    <path d="M46.168279,47.7614683 L46.168279,59.9663202 C42.736551,53.9901118 36.2975992,49.9639003 28.9133924,49.9639003 C21.5279108,49.9639003 15.0889589,53.9901118 11.6565935,59.9663202 L11.6565935,47.7614683 C5.09462465,52.8943142 0.871890935,60.8804411 0.871890935,69.8584592 C0.871890935,85.3462417 13.426636,97.9016979 28.9133924,97.9016979 C44.3995113,97.9016979 56.9529816,85.3462417 56.9529816,69.8584592 C56.9529816,60.8810785 52.7315227,52.8943142 46.168279,47.7614683 Z" id="Stroke-160"></path>
                    <polyline id="Stroke-161" points="18.2468626 35.582816 25.9172592 35.582816 25.9172592 49.963964"></polyline>
                    <path d="M33.3462748,35.582816 L41.016034,35.582816" id="Stroke-162"></path>
                    <path d="M22.9948725,58.5930353 C22.7278045,59.0959931 22.5608074,59.6614221 22.5608074,60.2701985 C22.5608074,62.2565308 24.170864,63.866123 26.1557082,63.866123 L32.3881445,63.866123 C34.3729887,63.866123 35.9824079,62.2565308 35.9824079,60.2701985 C35.9824079,59.6614221 35.8179603,59.0959931 35.5489802,58.5930353 L22.9948725,58.5930353 Z" id="Stroke-163"></path>
                    <path d="M16.8089023,11.6131523 L11.5370184,11.6131523 C9.1550779,11.6131523 7.22313739,13.5453003 7.22313739,15.9274967 L7.22313739,32.2267686 C7.22313739,34.608965 9.1550779,36.541113 11.5370184,36.541113 L21.1227833,15.7725934" id="Stroke-164"></path>
                    <path d="M51.5605666,46.1367045 L51.5605666,19.5226562 C51.5605666,9.19768036 43.190949,0.827163746 32.8670822,0.827163746 L30.9504391,0.827163746 C24.2514306,0.827163746 18.3784844,4.35360483 15.0774221,9.64900363 L51.5605666,46.1367045 Z" id="Stroke-165"></path>
                </g>
            </g>
            <g id="SM" transform="translate(143.050781, 307.980469)">
                <g id="SCRUM" transform="translate(5.000000, 99.000000)" fill="#74BE44" font-family="Montserrat-Bold, Montserrat" font-size="18.2566147" font-weight="bold">
                    <text>
                        <tspan x="0.99869238" y="18.133998">SCRUM</tspan>
                    </text>
                </g>
                <g id="MASTER" transform="translate(0.000000, 121.000000)" fill="#74BE44" font-family="Montserrat-Bold, Montserrat" font-size="18.2566147" font-weight="bold">
                    <text id="M">
                        <tspan x="0.45780981" y="18.044289">M</tspan>
                    </text>
                    <text id="A">
                        <tspan x="17.600771" y="18.044289">A</tspan>
                    </text>
                    <text id="S">
                        <tspan x="31.5670813" y="18.044289">S</tspan>
                    </text>
                    <text id="TER">
                        <tspan x="43.2513147" y="18.044289">TER</tspan>
                    </text>
                </g>
                <g id="Icon-SM" transform="translate(12.000000, 0.000000)" stroke="#666666" stroke-width="2.54957507">
                    <path d="M13.4964899,67.7387047 C3.13164091,69.8811633 0.0859375,69.9628105 0.0859375,86.3300781 L0.0859375,94.3300781" id="Stroke-56"></path>
                    <path d="M54.0859375,94.3300781 C54.0859375,81.5392043 49.0859375,67.7483304 30.9503638,67.7483304" id="Stroke-58"></path>
                    <path d="M30.6992874,58.3715407 L30.6992874,72.1248156 C30.6992874,75.991024 29.0859375,81.1254259 22.6987916,81.1254259 C16.3116457,81.1254259 13.6982959,75.991024 13.6982959,72.1248156 L13.6982959,58.3715407 L30.6992874,58.3715407 Z" id="Stroke-64"></path>
                    <path d="M7.15271246,45.4706804 L6.82827904,45.4706804 C4.67707507,45.4706804 2.9350779,43.7265837 2.9350779,41.5751486 L2.9350779,38.3300781" id="Stroke-168"></path>
                    <path d="M46.640085,33.8575208 L46.9664306,33.8575208 C49.1163598,33.8575208 50.8602691,35.6016175 50.8602691,37.7517776 L50.8602691,41.5752761 C50.8602691,43.7267112 49.1163598,45.4708079 46.9664306,45.4708079 L46.640085,45.4708079" id="Stroke-169"></path>
                    <path d="M46.0654745,20.5349426 L46.0654745,48.3231964 C46.0654745,53.8200332 41.6094547,58.2771692 36.1119334,58.2771692 L17.0353754,58.2771692 C11.5391289,58.2771692 7.08183428,53.8200332 7.08183428,48.3231964 L7.08183428,35.0996798" id="Stroke-170"></path>
                    <path d="M14.2704887,40.6523583 L14.2704887,47.8091468 C14.2704887,49.6163523 15.7415935,51.0882526 17.550517,51.0882526 L24.705262,51.0882526 L14.2704887,40.6523583 Z" id="Stroke-171"></path>
                    <path d="M24.8820751,30.0862943 C22.6371742,32.3320737 18.9989306,32.3320737 16.7508428,30.0862943" id="Stroke-172"></path>
                    <path d="M42.5766997,30.0850831 C40.3305241,32.3302251 36.6910057,32.3302251 34.4454674,30.0850831" id="Stroke-173"></path>
                    <path d="M20.4234419,0.419439275 C14.0953966,0.419439275 8.7973796,4.76629426 7.31033994,10.6322218 C4.67025496,12.4215782 2.93526912,15.4456991 2.93526912,18.8752459 L2.93526912,35.4218532 L3.80913598,35.4218532 C9.30538244,35.4218532 13.7614023,30.9653547 13.7614023,25.4678804 L13.7614023,20.6646024 C14.7276912,20.9782338 15.7558074,21.1560858 16.8279037,21.1560858 L42.9553116,21.1560858 C48.4509207,21.1560858 52.9075779,16.7008622 52.9075779,11.202113 L52.9075779,0.419439275 L20.4234419,0.419439275 Z" id="Stroke-174"></path>
                    <path d="M31.5989943,40.4425695 C31.5989943,38.6098656 33.0853966,37.1245785 34.9179037,37.1245785 C36.749136,37.1245785 38.2355382,38.6098656 38.2355382,40.4425695 C38.2355382,42.274636 36.749136,43.759923 34.9179037,43.759923" id="Stroke-175"></path>
                    <path d="M31.1850708,40.4425695 L31.1850708,21.3633248" id="Stroke-176"></path>
                </g>
            </g>
            <g id="Group-3" transform="translate(171.050781, 230.123047)" fill="#74BE44" fill-rule="nonzero">
                <g id="heart" transform="translate(0.500000, 0.557036)">
                    <polygon id="Fill-77" points="4.04199717 3.6853142 6.77896601 3.6853142 6.77896601 0.920003021 4.04199717 0.920003021"></polygon>
                    <polygon id="Fill-79" points="4.0184136 14.1428822 6.77896601 14.1428822 6.77896601 11.3731088 4.0184136 11.3731088"></polygon>
                    <polygon id="Fill-80" points="0.558002833 10.6591511 3.29497167 10.6591511 3.29497167 7.88746526 0.558002833 7.88746526"></polygon>
                    <polygon id="Fill-81" points="4.02415014 10.6457644 6.76303116 10.6457644 6.76303116 7.88045317 4.02415014 7.88045317"></polygon>
                    <polygon id="Fill-82" points="0.538243626 7.15310876 3.27839943 7.15310876 3.27839943 4.38970997 0.538243626 4.38970997"></polygon>
                    <polygon id="Fill-83" points="4.02415014 7.16075831 6.78916431 7.16075831 6.78916431 4.40755891 4.02415014 4.40755891"></polygon>
                    <polygon id="Fill-84" points="11.0291076 17.6253384 13.7342068 17.6253384 13.7342068 14.85429 11.0291076 14.85429"></polygon>
                    <polygon id="Fill-85" points="7.5055949 3.67256495 10.2584986 3.67256495 10.2584986 0.934664653 7.5055949 0.934664653"></polygon>
                    <polygon id="Fill-86" points="14.5124646 3.68467674 17.2328612 3.68467674 17.2328612 0.931477341 14.5124646 0.931477341"></polygon>
                    <polygon id="Fill-87" points="17.983711 3.66937764 20.7015581 3.66937764 20.7015581 0.924465257 17.983711 0.924465257"></polygon>
                    <polygon id="Fill-88" points="7.51643059 7.16777039 10.2483003 7.16777039 10.2483003 4.3992719 7.51643059 4.3992719"></polygon>
                    <polygon id="Fill-89" points="11.0176346 10.6636133 13.7278329 10.6636133 13.7278329 7.89192749 11.0176346 7.89192749"></polygon>
                    <polygon id="Fill-90" points="14.4965297 10.660426 17.2373229 10.660426 17.2373229 7.89256495 14.4965297 7.89256495"></polygon>
                    <polygon id="Fill-91" points="17.9754249 10.660426 20.6977337 10.660426 20.6977337 7.8951148 17.9754249 7.8951148"></polygon>
                    <polygon id="Fill-92" points="21.4938385 10.6597885 24.2002125 10.6597885 24.2002125 7.88874018 21.4938385 7.88874018"></polygon>
                    <polygon id="Fill-93" points="21.4900142 7.1709577 24.2040368 7.1709577 24.2040368 4.39225982 21.4900142 4.39225982"></polygon>
                    <polygon id="Fill-94" points="18.0015581 7.16840785 20.7213173 7.16840785 20.7213173 4.39735952 18.0015581 4.39735952"></polygon>
                    <polygon id="Fill-95" points="7.5368272 10.6623384 10.2514873 10.6623384 10.2514873 7.88810272 7.5368272 7.88810272"></polygon>
                    <polygon id="Fill-96" points="7.51706799 14.1447946 10.2463881 14.1447946 10.2463881 11.3756586 7.51706799 11.3756586"></polygon>
                    <polygon id="Fill-97" points="11.0335694 14.1569063 13.7342068 14.1569063 13.7342068 11.3711964 11.0335694 11.3711964"></polygon>
                    <polygon id="Fill-98" points="14.4939802 14.1441571 17.2156516 14.1441571 17.2156516 11.3699215 14.4939802 11.3699215"></polygon>
                    <polygon id="Fill-99" points="17.9779745 14.1467069 20.6996459 14.1467069 20.6996459 11.3807583 17.9779745 11.3807583"></polygon>
                    <polygon id="Fill-100" points="14.5169263 7.16904532 17.2373229 7.16904532 17.2373229 4.39735952 14.5169263 4.39735952"></polygon>
                    <polygon id="Fill-101" points="11.0176346 7.15438369 13.7271955 7.15438369 13.7271955 4.40245921 11.0176346 4.40245921"></polygon>
                    <polygon id="Fill-102" points="7.53491501 17.6157764 10.2795326 17.6157764 10.2795326 14.8606647 7.53491501 14.8606647"></polygon>
                    <polygon id="Fill-103" points="14.5029037 17.6380876 17.2175637 17.6380876 17.2175637 14.8670393 14.5029037 14.8670393"></polygon>
                    <polygon id="Fill-104" points="11.0169972 21.1046073 13.7291076 21.1046073 13.7291076 18.3501329 11.0169972 18.3501329"></polygon>
                </g>
            </g>
            <path d="M139,226.123047 L139,256.123047" id="Stroke-205" stroke="#666666" stroke-width="2.54957507" stroke-dasharray="2.575708144784987,2.575708144784987" transform="translate(140.274788, 241.123047) rotate(-90.000000) translate(-140.274788, -241.123047) "></path>
            <path d="M398,221.123047 L398,261.123047" id="Stroke-205-Copy-2" stroke="#666666" stroke-width="2.54957507" stroke-dasharray="2.575708144784987,2.575708144784987" transform="translate(399.274788, 241.123047) rotate(-90.000000) translate(-399.274788, -241.123047) "></path>
            <path d="M236,211.95638 L236,271.95638" id="Stroke-205-Copy" stroke="#666666" stroke-width="2.54957507" stroke-dasharray="2.575708144784987,2.575708144784987" transform="translate(237.274788, 241.956380) rotate(-90.000000) translate(-237.274788, -241.956380) "></path>
            <path d="M486,226.95638 L486,256.95638" id="Stroke-205-Copy-3" stroke="#666666" stroke-width="2.54957507" stroke-dasharray="2.575708144784987,2.575708144784987" transform="translate(487.274788, 241.956380) rotate(-90.000000) translate(-487.274788, -241.956380) "></path>
            <path d="M433.816406,194 L457.816406,194" id="Stroke-205-Copy-4" stroke="#666666" stroke-width="2.54957507" stroke-dasharray="2.575708144784987,2.575708144784987" transform="translate(445.816406, 195.274788) rotate(-90.000000) translate(-445.816406, -195.274788) "></path>
            <path d="M171.550781,194 L195.550781,194" id="Stroke-205-Copy-7" stroke="#666666" stroke-width="2.54957507" stroke-dasharray="2.575708144784987,2.575708144784987" transform="translate(183.550781, 195.274788) rotate(-90.000000) translate(-183.550781, -195.274788) "></path>
            <path d="M306.058594,149 L330.058594,149" id="Stroke-205-Copy-5" stroke="#666666" stroke-width="2.54957507" stroke-dasharray="2.575708144784987,2.575708144784987" transform="translate(318.058594, 150.274788) rotate(-90.000000) translate(-318.058594, -150.274788) "></path>
            <path d="M433.816406,285 L457.816406,285" id="Stroke-205-Copy-4" stroke="#666666" stroke-width="2.54957507" stroke-dasharray="2.575708144784987,2.575708144784987" transform="translate(445.816406, 286.274788) rotate(-90.000000) translate(-445.816406, -286.274788) "></path>
            <path d="M171.550781,285 L195.550781,285" id="Stroke-205-Copy-8" stroke="#666666" stroke-width="2.54957507" stroke-dasharray="2.575708144784987,2.575708144784987" transform="translate(183.550781, 286.274788) rotate(-90.000000) translate(-183.550781, -286.274788) "></path>
            <path d="M306.058594,344 L330.058594,344" id="Stroke-205-Copy-6" stroke="#666666" stroke-width="2.54957507" stroke-dasharray="2.575708144784987,2.575708144784987" transform="translate(318.058594, 345.274788) rotate(-90.000000) translate(-318.058594, -345.274788) "></path>
            <g id="icon-rocket" transform="translate(430.316406, 226.623047)" fill-rule="nonzero">
                <path d="M11.7751981,9.335464 L13.2797026,9.49817197 L3.96365358,20.6039946 L3.34076405,20.0133313 C2.51760268,19.2327575 1.78120316,18.5448134 1.08151587,17.9046052 L0.735141635,17.5876756 L0.839113731,17.1298445 C1.25759293,15.2871118 2.18122919,13.5949355 3.54332258,12.2326959 C5.73380082,10.0429506 8.75445991,9.0087796 11.7751981,9.335464 Z M4.68550709,13.3750102 C3.65196817,14.4086601 2.91992335,15.6663392 2.52871663,17.0404136 C2.9440299,17.4231472 3.37403066,17.8240073 3.82840928,18.2516793 L9.97812973,10.9204916 C8.00824278,11.0829298 6.13227115,11.9287302 4.68550709,13.3750102 Z" id="Stroke-367" fill="#666666"></path>
                <path d="M20.712954,16.6678306 L20.9341975,18.0812921 C21.430087,21.249389 20.4104194,24.4815937 18.1007958,26.7914653 C16.7380571,28.1543505 15.0462471,29.0779852 13.2035199,29.495926 L12.745869,29.5997239 L12.4290426,29.2535455 C11.676223,28.4309816 10.8883959,27.5878716 10.0653057,26.7232781 L9.47236556,26.1004398 L20.712954,16.6678306 Z M19.4394206,19.8453175 L11.8267915,26.2335022 C12.3290004,26.7657108 12.8178284,27.2899132 13.2933475,27.8063484 C14.6670786,27.4155381 15.9243347,26.6835388 16.9584851,25.6492773 C18.531374,24.0762194 19.39178,21.9956168 19.4394206,19.8453175 Z" id="Stroke-369" fill="#666666"></path>
                <path d="M5.35360044,16.724508 L5.82916318,16.1575918 L14.3631561,5.98425772 C17.8560022,1.81900904 23.2648507,-0.07133639 28.5184382,0.888571055 L29.0674966,0.988892075 L29.1678059,1.53795261 C30.1274642,6.79080822 28.2370977,12.1999824 24.0728049,15.6945128 L13.3334708,24.7052355 L5.35360044,16.724508 Z M7.54232896,16.62885 L13.4291398,22.5162933 L23.0344537,14.457058 C26.6016128,11.4636215 28.297911,6.89639851 27.6687954,2.38755944 C23.1594393,1.75822068 18.5927633,3.45444176 15.6008477,7.02232661 L7.54232896,16.62885 Z" id="Stroke-371" fill="#666666"></path>
                <path d="M1.64994726,27.2670322 L1.75144692,27.1655216 C1.71866069,27.1903281 1.68938567,27.2230075 1.64994726,27.2670322 Z M4.6858026,26.2004137 C5.25579111,25.9951261 5.75196644,25.7972206 6.15035554,25.6129326 C6.5779878,25.4151172 6.87225074,25.2400438 6.97568271,25.1366007 C7.54304148,24.569181 7.54304148,23.6494171 6.97568271,23.0819974 C6.40880868,22.5150625 5.48940736,22.5151534 4.92246068,23.0824551 C4.65818636,23.3467578 4.18114962,24.4056143 3.69546123,25.794553 C3.59839356,26.0721405 3.50326535,26.3556544 3.41394623,26.6317382 C3.84952009,26.4919493 4.27842265,26.3471361 4.6858026,26.2004137 Z M1.99095052,28.6132357 C1.46506255,28.2339783 1.46506255,28.2339783 1.42920934,28.0052656 C1.40793071,27.7962381 1.40793071,27.7962381 1.41672301,27.7413906 C1.42756561,27.6661688 1.42756561,27.6661688 1.43635749,27.625829 C1.44610003,27.5811215 1.4602547,27.5245038 1.47894228,27.4544195 C1.51489455,27.319587 1.56785562,27.1344019 1.63099596,26.923427 C1.78363808,26.413394 1.97300141,25.8264663 2.17061635,25.2613405 C2.74973602,23.6052134 3.26994722,22.4505245 3.78000187,21.9404151 C4.97762919,20.7420379 6.92015853,20.7418457 8.11799347,21.9398093 C9.31611738,23.1380619 9.31611738,25.0805362 8.11799347,26.2787888 C7.84383297,26.5529787 7.41757206,26.8065851 6.82855791,27.079053 C6.38159191,27.2858119 5.84397616,27.5002463 5.23318143,27.7202307 C4.62077897,27.9407942 3.9672815,28.1554525 3.31414075,28.3561972 C3.08580196,28.4263777 2.87366309,28.4898557 2.68301411,28.5455757 C2.56790161,28.579219 2.48498023,28.6029536 2.43956465,28.615713 L2.43134244,28.5864471 C2.33115299,28.5963747 2.19242231,28.6032504 1.99095052,28.6132357 Z" id="Stroke-373" fill="#74BE44"></path>
                <path d="M24.5741312,5.4825281 C23.5426372,4.4509233 22.4316221,3.52984402 21.2620779,2.73072706 L19.8681558,1.77829886 L21.4844092,1.29058675 C23.7681481,0.601457793 26.1833555,0.46163319 28.5185596,0.888539123 L29.0676022,0.988911312 L29.167864,1.53797409 C29.5942811,3.87315975 29.4543376,6.28855652 28.7653705,8.57176377 L28.2777085,10.1878547 L27.3252661,8.79414829 C26.5258618,7.62438217 25.6052509,6.51375861 24.5741312,5.4825281 Z M25.7164419,4.34034004 C26.3910278,5.01499839 27.0216308,5.72177938 27.6056233,6.45579715 C27.8332301,5.11029151 27.8555324,3.73720165 27.6685545,2.38768574 C26.3190576,2.20046716 24.946029,2.2226729 23.6003801,2.45031422 C24.3345488,3.03447083 25.0415875,3.66541315 25.7164419,4.34034004 Z" id="Stroke-375" fill="#666666"></path>
                <polygon id="Stroke-377" fill="#666666" points="7.60733013 14.7165184 8.74964089 13.5743303 16.4828943 21.3084144 15.3405836 22.4506025"></polygon>
            </g>
            <g id="Sr-Dev" transform="translate(409.316406, 317.123047)">
                <g id="SR-DEV" transform="translate(0.000000, 84.000000)" fill="#74BE44" font-family="Montserrat-Bold, Montserrat" font-size="18.2566147" font-weight="bold">
                    <text>
                        <tspan x="0.963251898" y="18.67214">SR DEV</tspan>
                    </text>
                </g>
                <g id="Icon-sr-dev" transform="translate(7.000000, 0.000000)" stroke="#666666" stroke-width="2.54957507">
                    <path d="M21.0545042,68.1670906 L9.35577904,68.1670906 C4.52815864,68.1670906 0.6151983,71.5507402 0.6151983,75.723568 L0.6151983,79.706432" id="Stroke-133"></path>
                    <path d="M55.6262323,77.9776982 L55.6262323,75.7236317 C55.6262323,71.5508039 51.8056941,68.1671544 47.0921671,68.1671544 L34.9479037,68.1671544" id="Stroke-134"></path>
                    <path d="M34.3576133,42.9107731 C32.5888456,42.9107731 31.1496105,41.4720208 31.1496105,39.7024257 L31.1496105,34.5765918 C31.1496105,32.8076341 32.5888456,31.3682444 34.3576133,31.3682444 L44.5151204,31.3682444 C46.2832507,31.3682444 47.724398,32.8076341 47.724398,34.5765918 L47.724398,39.7024257 C47.724398,41.4720208 46.2832507,42.9107731 44.5151204,42.9107731 L34.3576133,42.9107731 Z" id="Stroke-135"></path>
                    <path d="M11.3684773,42.9107731 C9.60098442,42.9107731 8.1611119,41.4720208 8.1611119,39.7024257 L8.1611119,34.5765918 C8.1611119,32.8076341 9.60098442,31.3682444 11.3684773,31.3682444 L21.5259844,31.3682444 C23.2947521,31.3682444 24.735262,32.8076341 24.735262,34.5765918 L24.735262,39.7024257 C24.735262,41.4720208 23.2947521,42.9107731 21.5259844,42.9107731 L11.3684773,42.9107731 Z" id="Stroke-136"></path>
                    <path d="M24.7350708,34.5767831 L31.1491643,34.5767831" id="Stroke-137"></path>
                    <path d="M45.5580241,42.9247973 L45.5580241,51.9130148 C45.5580241,61.6426009 37.6702762,69.5305586 27.9430099,69.5305586 C18.2144688,69.5305586 10.3273584,61.6426009 10.3273584,51.9130148 L10.3273584,42.9247973" id="Stroke-138"></path>
                    <path d="M16.4527125,13.4427426 L16.4527125,17.124087 C16.4527125,20.7499722 19.3917351,23.6893106 23.0165935,23.6893106 L47.8150354,23.6893106 C51.4405312,23.6893106 54.3789164,20.7499722 54.3789164,17.124087 L54.3789164,6.97122598 L34.7867068,6.97122598" id="Stroke-139"></path>
                    <path d="M22.3840439,13.0804728 C22.3840439,15.6194849 22.563789,17.6784879 26.9815652,17.6784879 L45.9300071,17.6784879" id="Stroke-140"></path>
                    <path d="M47.3911686,0.402432628 L24.9823159,0.402432628 C20.2840864,0.402432628 16.4743839,4.21126949 16.4743839,8.91000363" id="z"></path>
                    <path d="M17.5308003,7.33056344 L16.4529674,7.33056344 C12.8778258,7.33056344 9.9808711,10.2278293 9.9808711,13.8027175 L9.9808711,27.8243369" id="Stroke-142"></path>
                    <polyline id="Stroke-143" points="24.2401983 56.8272112 27.9552479 58.8007812 31.6702975 56.8272112"></polyline>
                    <path d="M30.6521246,81.3950695 L27.955949,81.3950695 C24.3820822,81.3950695 21.4851275,78.4978036 21.4851275,74.9229154 L21.4851275,67.3728127" id="Stroke-144"></path>
                </g>
            </g>
        </g>
    </g>
</svg>