<svg width="575" height="509" xmlns="http://www.w3.org/2000/svg">
  <g fill="none" fill-rule="evenodd">
    <text transform="translate(267.566149 289.73811)" fill="#E96D00" font-family="Montserrat-Bold, Montserrat" font-size="24" font-weight="bold">
      <tspan x="11.3546652" y="23.8819019">CLIENT</tspan>
    </text>
    <g stroke="#666" stroke-width="2.54957507">
      <path d="M347.3758682 195.4311035v29.1521781c0 10.3495019-8.3881922 18.7401775-18.7389555 18.7401775-10.3499724 0-18.7389556-8.3906756-18.7389556-18.7401775v-3.8686029"/>
      <path d="M297.5766329 262.6551608v-55.027515c0-17.2504884 13.9824299-31.23442018 31.2310654-31.23442018s31.2310652 13.98393178 31.2310652 31.23442018v73.1775132"/>
      <path d="M328.8065117 190.3267627l31.2318563 31.2344201v-13.9332997c0-17.2512795-13.9816387-31.23442014-31.2302742-31.23442014-17.2494265 0-31.2310654 13.98314064-31.2310654 31.23442014v13.9332997l31.2294833-31.2344201zM341.0049872 189.4544679l19.6320402 19.634149M328.9610019 200.6094145l-27.6650552 27.6664447"/>
      <path d="M321.4630465 229.3425336c0 2.4643554 1.9609892 4.461947 4.3784085 4.461947h3.2108329" stroke-linejoin="round"/>
      <path d="M314.3243817 236.4413804v.2974631c0 6.2427702-5.0602853 11.3043902-11.303967 11.3043902M328.004634 244.4743091v.2958809c0 6.2435612 5.0610765 11.3051812 11.3039672 11.3051812M347.4870885 213.3462162c0 4.2214449-3.4212496 7.642271-7.6414501 7.642271-4.2202003 0-7.6398679-3.4208261-7.6398679-7.642271s3.4196676-7.6422709 7.6398679-7.6422709c4.2202005 0 7.6414501 3.420826 7.6414501 7.6422709zM322.6087103 207.9419598c2.9838043 2.9849159 2.9845954 7.8226475 0 10.8075635-2.9853863 2.9857071-7.8225982 2.9849159-10.8056115 0M328.7663269 256.260099h13.831341c4.9273906 0 8.9237266 3.994392 8.9237266 8.9246851v18.7401779M292.77786562 249.2690034c-4.92976366 0-8.92372655 3.995183-8.92372655 8.9238939v8.9238941M294.8172468 275.2448133c1.3550522-3.2032666 4.525542-7.2348414 8.2212827-7.2348414h28.5533936c4.9289726 0 8.9245176 3.9943919 8.9245176 8.9238941"/>
    </g>
    <g stroke="#666" stroke-width="2.54957507">
      <path d="M87.5802428 205.2205555v28.4155167c0 4.1951389-1.6489377 8.0046132-4.3368272 10.8145468M53.3794779 243.7209797c-2.2978045-2.7232387-3.6828612-6.2420302-3.6828612-10.08529v-28.4148792M59.9613334 242.5160486c-10.7598442 2.2241057-19.61706798 8.7274955-24.08647308 17.3319607M100.4526011 259.8480731c-4.4623938-8.5910786-13.2998583-15.0880937-24.0373938-17.3223988"/>
      <path d="M86.5762201 211.6965344c3.7000708 0 6.7002833 3.0011722 6.7002833 6.7022779 0 3.7017432-3.0002125 6.7010031-6.7002833 6.7010031M50.7022966 225.1000703c-3.7013456 0-6.70219549-2.9992598-6.70219549-6.7016404 0-3.7011058 3.00084989-6.7016405 6.70219549-6.7016405M75.1641309 236.1488845v6.753275c0 3.8662084-3.1347026 7.0006102-7.0004958 7.0006102-3.8664306 0-7.0004957-3.1344018-7.0004957-7.0006102v-6.753275"/>
      <path d="M87.5802428 221.2819265c0 8.642713-7.0049576 15.6490605-15.648017 15.6490605h-6.588102c-8.6417847 0-15.6473796-7.0063475-15.6473796-15.6490605v-28.4148791c0-8.64335048 7.0055949-15.6496979 15.6473796-15.6496979h6.588102c8.6430594 0 15.648017 7.00634742 15.648017 15.6496979v28.4148791z"/>
      <path d="M71.9323532 177.21703076h-6.5881019c-8.6424221 0-15.648017 7.0069849-15.648017 15.64969784v18.7382025c7.8150849-.708858 15.2502832-8.0007886 18.9420679-18.4379577 3.6911474 10.4371691 11.1276204 17.7290997 18.942068 18.4392326v-18.7394774c0-8.64271294-7.0049575-15.64969784-15.648017-15.64969784zM55.1111493 214.7008302c0-1.5949306 2.1524787-2.8896164 4.8097733-2.8896164 2.6585694 0 4.8116856 1.2946858 4.8116856 2.8896164M70.757764 214.7008302c0-1.5949306 2.1537535-2.8896164 4.8110482-2.8896164 2.6572946 0 4.8110481 1.2946858 4.8110481 2.8896164M61.9232952 221.6937271v2.8826043c0 2.2751027 1.8439801 4.118006 4.1182011 4.118006h2.8822946c2.2748584 0 4.1175638-1.8429033 4.1175638-4.118006v-2.8826043H61.9232952z"/>
    </g>
    <g fill="#74BE44" font-family="Montserrat-Bold, Montserrat" font-size="18.2566147" font-weight="bold">
      <text transform="translate(-.449219 271.107422)">
        <tspan x=".40506402" y="18.691128">EN</tspan>
      </text>
      <text transform="translate(26.550781 271.107422)">
        <tspan x=".0779781" y="18.691128">G</tspan>
      </text>
      <text transform="translate(39.550781 271.107422)">
        <tspan x=".5331032" y="18.691128">AGEMENT</tspan>
      </text>
    </g>
    <text transform="translate(17.550781 293.107422)" fill="#74BE44" font-family="Montserrat-Bold, Montserrat" font-size="18.2566147" font-weight="bold">
      <tspan x=".698192" y="18.601419">MANAGER</tspan>
    </text>
    <g fill="#74BE44" font-family="Montserrat-Bold, Montserrat" font-size="18.2566147" font-weight="bold">
      <text transform="translate(143.550781 152.074009)">
        <tspan x=".34503389" y="18.601419">O</tspan>
      </text>
      <text transform="translate(157.550781 152.074009)">
        <tspan x=".6399632" y="18.601419">WNER</tspan>
      </text>
      <text transform="translate(136.550781 128.074009)">
        <tspan x=".14770854" y="18.601419">PRODUCT</tspan>
      </text>
    </g>
    <g stroke="#666" stroke-width="2.54957507">
      <path d="M172.4290954 63.4046954h6.8915015v12.9226344M185.9955119 63.4046954h6.8915014M176.3051507 85.587935c0 1.7842568 1.4462464 3.2300211 3.2296742 3.2300211h5.5995043c1.7834277 0 3.2296742-1.4457643 3.2296742-3.2300211 0-.5475801-.1485128-1.0556375-.3881728-1.5069607M171.1362697 41.86771504h-4.7377479c-2.1403683 0-3.8759915 1.73517216-3.8759915 3.87704536v14.6450574c0 2.1405981 1.7356232 3.8757704 3.8759915 3.8757704l8.6150142-18.6604321M202.3611068 72.8876474V48.9745265c0-9.27698789-7.5199717-16.79904227-16.797238-16.79904227h-1.7216005c-6.0195468 0-11.295255 3.16818731-14.2616856 7.92748036l32.7805241 32.78468281zM183.6899311 44.7377613l24.3344193 24.3370332M165.9462272 92.0428776h-4.3839944c-6.1833569 0-11.19327191 5.0123655-11.19327191 11.1957492v10.8566194M198.2964467 92.0438975h4.3846318c6.1820821 0 11.1932719 5.0110907 11.1932719 11.1951118v11.5750393"/>
      <path d="M198.8348532 68.5728567v17.015142c0 3.5672387-2.8931303 15.5062689-6.4612606 15.5062689h-19.8114731c-3.5674929 0-6.4599858-11.9390302-6.4599858-15.5062689V64.0500622"/>
      <path d="M165.9406181 92.2960138v18.6056103l16.4798159-9.8864018"/>
      <path d="M197.9640459 93.7085027v17.1929939l-16.4798159-9.8864018M181.1926224 108.5815166v3.595287M181.1926224 116.4912755v3.595287"/>
    </g>
    <text transform="translate(286.029297 100.683594)" fill="#74BE44" font-family="Montserrat-Bold, Montserrat" font-size="18.2566147" font-weight="bold">
      <tspan x=".42638189" y="18.691128">DESIGN</tspan>
    </text>
    <g stroke="#666" stroke-width="2.54957507">
      <path d="M311.6882663 76.0331136h-9.1612606c-4.54270541 0-8.22429181 3.6832568-8.22429181 8.2245378M353.4111062 84.2576514c0-4.541281-3.6822238-8.2245378-8.2242917-8.2245378h-9.3129604M294.54027055 46.1022855c0 9.7671964 7.91515585 17.6851148 17.68194055 17.6851148.7055949 0 1.4003541-.041435 2.084915-.1223927M298.86186403 34.2011206c-4.11883852 0-7.45941926 2.8443565-7.45941926 6.3529486 0 3.5085922 3.34058074 6.3529487 7.45941926 6.3529487 1.02875355 0 2.00970255-.177852 2.90269127-.499133M313.8413824 61.1920366v9.1839184M332.9132875 70.3760188v-9.1839185"/>
      <path d="M299.80284845 32.454984v5.2278278c0 13.6620907 11.07280455 24.7392719 24.73406515 24.7392719 4.6714589 0 20.1945468-1.2303021 20.1945468-16.4605498M344.7313329 45.9612789v-5.2278278c0-1.9506344-.2256374-6.8667432-.6520539-8.6866979M324.705568 54.0770019c-2.2034703 0-4.1449717-1.3469577-5.3317989-3.4078732M307.3776997 35.0652006c2.5208924 2.5224381 6.6065864 2.5224381 9.1281162 0M328.2461629 35.0652006c2.5208924 2.5224381 6.6065864 2.5224381 9.1281161 0"/>
      <path d="M323.3165595 1.42172874v2.30442599c-1.9663598 15.65097277-14.034136 28.14905737-29.47053824 30.76583987v-1.8690393c0-16.6645377 13.03852694-30.2788187 29.47053824-31.20122656zM323.0713541 8.83981303h1.9191927c13.0315155 1.63827795 23.4382436 11.68787007 25.6174929 24.54420847h-1.557153c-13.8754249 0-25.2114731-10.8591692-25.9795326-24.54420847zM311.6602847 81.8184659c0 1.1480695.9318697 2.0806767 2.0810907 2.0806767h19.4169263c1.1485836 0 2.0798159-.9326072 2.0798159-2.0806767V72.457333c0-1.1506194-.9312323-2.0813142-2.0798159-2.0813142h-19.4169263c-1.149221 0-2.0810907.9306948-2.0810907 2.0813142v9.3611329zM327.8253555 83.2049463v-7.9746526"/>
    </g>
    <text transform="translate(530.47354 264.057353)" fill="#74BE44" font-family="Montserrat-Bold, Montserrat" font-size="18.2566147" font-weight="bold">
      <tspan x=".7415839" y="18.044383">QA</tspan>
    </text>
    <g stroke="#666" stroke-width="2.54957507">
      <path d="M538.4159052 242.3558316h-11.69872516c-4.8276204 0-8.74058074 3.3836496-8.74058074 7.5564774v3.982864M572.9876333 252.1664392v-2.2540665c0-4.1728278-3.8205382-7.5564773-8.5340652-7.5564773h-12.1442634M551.7190143 217.0995141c-1.7687677 0-3.2080028-1.4387523-3.2080028-3.2083474v-5.1258339c0-1.7689577 1.4392351-3.2083474 3.2080028-3.2083474h10.1575071c1.7681303 0 3.2092776 1.4393897 3.2092776 3.2083474v5.1258339c0 1.7695951-1.4411473 3.2083474-3.2092776 3.2083474h-10.1575071zM528.7298783 217.0995141c-1.76749288 0-3.2073654-1.4387523-3.2073654-3.2083474v-5.1258339c0-1.7689577 1.43987252-3.2083474 3.2073654-3.2083474h10.1575071c1.7687677 0 3.2092776 1.4393897 3.2092776 3.2083474v5.1258339c0 1.7695951-1.4405099 3.2083474-3.2092776 3.2083474h-10.1575071zM542.0964718 208.7655241h6.4140935"/>
      <path d="M562.9194251 217.1135383v8.9882175c0 9.7295861-7.8877479 17.6175438-17.6150142 17.6175438-9.7285411 0-17.6156515-7.8879577-17.6156515-17.6175438v-8.9882175M533.8141135 187.6314836v3.6813444c0 3.6258852 2.9390226 6.5652236 6.563881 6.5652236h24.7984419c3.6254958 0 6.563881-2.9393384 6.563881-6.5652236v-10.15286102h-19.5922096"/>
      <path d="M539.7454449 187.2692138c0 2.5390121.1797451 4.5980151 4.5975213 4.5980151h18.9484419M564.7525696 174.59117363h-22.4088527c-4.6982295 0-8.507932 3.80883686-8.507932 8.507571"/>
      <path d="M534.8922013 181.51930444h-1.0778329c-3.5751416 0-6.4720963 2.89726586-6.4720963 6.47215406v14.0216194M541.6015993 231.0159522l3.7150496 1.97357 3.7150496-1.97357M548.0135256 255.5838105H545.31735c-3.5738668 0-6.4708215-2.8972659-6.4708215-6.4721541v-7.5501027"/>
    </g>
    <text transform="translate(399.316406 144.989072)" fill="#74BE44" font-family="Montserrat-Bold, Montserrat" font-size="18.2566147" font-weight="bold">
      <tspan x=".49823194" y="18.122705">DEVOPS</tspan>
    </text>
    <g stroke="#666" stroke-width="2.54957507">
      <path d="M415.06337549 81.1792644v8.8314019c0 1.4349275 1.16260624 2.5976586 2.59737961 2.5976586 1.4347734 0 2.5961048-1.1627311 2.5961048-2.5976586v-8.8314019h-5.19348441zM458.3694378 81.1792644v8.8314019c0 1.4349275 1.1619689 2.5976586 2.5973796 2.5976586 1.434136 0 2.5961048-1.1627311 2.5961048-2.5976586v-8.8314019h-5.1934844zM447.2237154 115.6666089h12.7064448c5.2087819 0 9.428966 3.737441 9.428966 8.3482054v8.9818429M409.1089704 132.2014231v-8.1862901c0-4.6114018 4.22209631-8.3488429 9.4315156-8.3488429h12.5165014"/>
      <path d="M425.8573203 115.6666089v6.6136707l13.376983 7.7234924 13.376983-7.7234924v-6.6136707"/>
      <path d="M447.1571078 112.2296675v6.9011661l-7.9228045 4.575704-7.9240794-4.575704v-6.9011661"/>
      <path d="M458.0432197 69.4611786c0-6.08011476-4.9283286-11.0083353-11.0065156-11.0083353h-15.7774079c-6.0800992 0-11.0084278 4.92822054-11.0084278 11.0083353l-.0331445 30.942417 10.4303116 11.9951269h16.9961049l10.4315864-11.9951269-.0325071-30.942417z"/>
      <path d="M422.471867 102.9208064l8.2415014 9.4777886h16.9973796l8.1121105-9.3305348"/>
      <path d="M434.6302169 100.214078c-.0178471.1555408-.0286828.3142689-.0286828.4736345 0 2.3547855 1.9070822 4.261435 4.2609774 4.261435h.5679178c2.3526204 0 4.26034-1.9066495 4.26034-4.261435 0-.1593656-.0095609-.3180937-.0254958-.4736345h-9.0350566zM442.7837579 76.5037977V87.672136h-7.2726629V76.5037977h-8.5665722M423.3099123 81.3495306c2.5208924 2.5224381 6.6065864 2.5224381 9.1281162 0M444.9813004 81.3495306c2.5208924 2.5224381 6.6065864 2.5224381 9.1281162 0"/>
    </g>
    <text transform="translate(423.766073 414.18853)" fill="#74BE44" font-family="Montserrat-Bold, Montserrat" font-size="18.2566147" font-weight="bold">
      <tspan x=".6641881" y="18.67214">DEV</tspan>
    </text>
    <g stroke="#666" stroke-width="2.54957507">
      <path d="M453.2212636 387.25943h14.3396501c5.7641016 0 10.433843 4.2024191 10.433843 9.3871008v12.8932239M435.0754267 387.25943h-15.1948028c-5.76410162 0-10.43384293 4.2024191-10.43384293 9.3871008v12.8932239M435.686858 389.1088675l.000706-8.5031363M453.2233817 380.6060183l-.0021181 8.5031362M434.1830657 401.3985578l10.2361521-6.8751204-9.4284435-5.5319535zM454.709876 401.4003515l-10.236152-6.8765554 9.4277375-5.5326709zM465.5259684 349.7039952h.3388987c2.2346131 0 4.0470149 1.841832 4.0470149 4.1134487v7.5409638c0 2.2737691-1.8124018 4.1156011-4.0470149 4.1156011h-.3388987M465.1619347 345.3842642v16.6676108c0 11.5080417-9.1792117 20.8348722-20.5012516 20.8348722-11.3241579 0-20.5033698-9.3268305-20.5033698-20.8348722v-16.6676108"/>
      <path d="M438.8599953 367.9282155c-.0219702.1914745-.0353091.3868725-.0353091.5830553 0 2.8987965 2.3476632 5.2459272 5.2453638 5.2459272h.6991203c2.8961313 0 5.2445792-2.3471307 5.2445792-5.2459272 0-.1961828-.0117698-.3915808-.0313859-.5830553h-11.1223683zM437.3388478 323.4198259c-3.3183827 0-6.2343234 1.73420643-7.9302289 4.35883494h-3.2562514c-4.0583117 0-7.34915898 3.34356721-7.34915898 7.46921346v35.9211049h5.17173498v-24.9691285c0-2.904455 2.3179257-5.2585846 5.1731471-5.2585846h33.1923009c5.2373966 0 9.4842206-4.3143497 9.4842206-9.63607462v-7.88536558h-34.4857643z"/>
      <path d="M424.1571722 349.7466149c-2.0355103.2145336-5.35389305 1.9437175-5.35389305 4.0703985v7.5416812c0 2.1273986 3.31838275 3.8565824 5.35389305 4.071116v-15.6831957zM424.6253465 349.8037282v3.3421322c0 4.763507 3.8006075 8.6236769 8.4865877 8.6236769 4.6852741 0 8.4844695-3.8601699 8.4844695-8.6236769v-3.3421322h-16.9710572zM448.1762626 349.8037282v3.3421322c0 4.763507 3.7999014 8.6236769 8.4851755 8.6236769 4.6859803 0 8.4844696-3.8601699 8.4844696-8.6236769v-3.3421322h-16.9696451zM436.6955758 354.4699417h-3.7356518M457.3865401 354.4699417h-3.7370639M441.5805884 349.8037282h7.7593675"/>
    </g>
    <text transform="translate(268.029297 489.480469)" fill="#74BE44" font-family="Montserrat-Bold, Montserrat" font-size="18.2566147" font-weight="bold">
      <tspan x=".02846055" y="18.133998">ARCHITECT</tspan>
    </text>
    <g stroke="#666" stroke-width="2.54957507">
      <path d="M337.197576 421.216211v18.0969154M304.1241058 439.3128714v-26.0065468M337.197576 428.2419373v12.2048519c-3.431728-5.9762084-9.8706798-10.0024199-17.2548866-10.0024199-7.3854816 0-13.8244335 4.0262115-17.2567989 10.0024199v-12.2048519c-6.56196885 5.1328459-10.78470257 13.1189728-10.78470257 22.0969909 0 15.4877825 12.55474507 28.0432387 28.04150147 28.0432387 15.4861189 0 28.0395892-12.5554562 28.0395892-28.0432387 0-8.9773807-4.2214589-16.964145-10.7847026-22.0969909z"/>
      <path d="M309.2761596 416.063285h7.6703966v14.381148M324.3755718 416.063285h7.6697592M314.0241695 439.0735043c-.267068.5029578-.4340651 1.0683868-.4340651 1.6771632 0 1.9863323 1.6100566 3.5959245 3.5949008 3.5959245h6.2324363c1.9848442 0 3.5942634-1.6095922 3.5942634-3.5959245 0-.6087764-.1644476-1.1742054-.4334277-1.6771632h-12.5541077zM307.8381993 392.0936213h-5.2718839c-2.3819405 0-4.31388101 1.932148-4.31388101 4.3143444v16.2992719c0 2.3821964 1.93194051 4.3143444 4.31388101 4.3143444l9.5857649-20.7685196M342.5898636 426.6171735v-26.6140483c0-10.32497584-8.3696176-18.69549245-18.6934844-18.69549245h-1.9166431c-6.6990085 0-12.5719547 3.52644108-15.873017 8.82183988l36.4831445 36.48770087z"/>
    </g>
    <text transform="translate(147.050781 411.980469)" fill="#74BE44" font-family="Montserrat-Bold, Montserrat" font-size="18.2566147" font-weight="bold">
      <tspan x=".99869238" y="18.133998">SCRUM</tspan>
    </text>
    <g fill="#74BE44" font-family="Montserrat-Bold, Montserrat" font-size="18.2566147" font-weight="bold">
      <text transform="translate(142.050781 433.980469)">
        <tspan x=".45780981" y="18.044289">M</tspan>
      </text>
      <text transform="translate(159.050781 433.980469)">
        <tspan x=".600771" y="18.044289">A</tspan>
      </text>
      <text transform="translate(173.050781 433.980469)">
        <tspan x=".5670813" y="18.044289">S</tspan>
      </text>
      <text transform="translate(185.050781 433.980469)">
        <tspan x=".2513147" y="18.044289">TER</tspan>
      </text>
    </g>
    <g stroke="#666" stroke-width="2.54957507">
      <path d="M167.5472709 375.7191737c-10.36484899 2.1424586-13.4105524 2.2241058-13.4105524 18.5913734v8M208.1367185 402.3105471c0-12.7908738-5-26.5817477-23.1355737-26.5817477M184.7500684 366.3520097v13.7532749c0 3.8662084-1.6133499 9.0006103-8.0004958 9.0006103-6.3871459 0-9.0004957-5.1344019-9.0004957-9.0006103v-13.7532749h17.0009915zM161.20349346 353.4511494h-.32443342c-2.15120397 0-3.89320114-1.7440967-3.89320114-3.8955318v-3.2450705M200.690866 341.8379898h.3263456c2.1499292 0 3.8938385 1.7440967 3.8938385 3.8942568v3.8234985c0 2.1514351-1.7439093 3.8955318-3.8938385 3.8955318h-.3263456"/>
      <path d="M200.1162555 328.5154116v27.7882538c0 5.4968368-4.4560198 9.9539728-9.9535411 9.9539728h-19.076558c-5.4962465 0-9.95354112-4.457136-9.95354112-9.9539728v-13.2235166"/>
      <path d="M168.3212697 348.6328273v7.1567885c0 1.8072055 1.4711048 3.2791058 3.2800283 3.2791058h7.154745l-10.4347733-10.4358943zM178.9328561 338.0667633c-2.2449009 2.2457794-5.8831445 2.2457794-8.1312323 0M196.6274807 338.0655521c-2.2461756 2.245142-5.885694 2.245142-8.1312323 0"/>
      <path d="M174.4742229 308.39990828c-6.3280453 0-11.6260623 4.34685498-13.11310196 10.21278252-2.64008498 1.7893564-4.37507082 4.8134773-4.37507082 8.2430241v16.5466073h.87386686c5.49624646 0 9.95226632-4.4564985 9.95226632-9.9539728v-4.803278c.9662889.3136314 1.9944051.4914834 3.0665014.4914834h26.1274079c5.4956091 0 9.9522663-4.4552236 9.9522663-9.9539728v-10.78267372h-32.484136zM185.6497753 348.4230385c0-1.8327039 1.4864023-3.317991 3.3189094-3.317991 1.8312323 0 3.3176345 1.4852871 3.3176345 3.317991 0 1.8320665-1.4864022 3.3173535-3.3176345 3.3173535M185.2358518 348.4230385v-19.0792447"/>
    </g>
    <g fill="#74BE44">
      <path d="M172.59277817 235.3653972h2.73696884v-2.76531118h-2.73696884zM172.5691946 245.8229652h2.76055241v-2.7697734h-2.76055241zM169.10878383 242.3392341h2.73696884v-2.77168584h-2.73696884zM172.57493114 242.3258474h2.73888102v-2.76531123h-2.73888102zM169.08902463 238.83319176h2.7401558v-2.76339879h-2.7401558zM172.57493114 238.84084131h2.76501417v-2.7531994h-2.76501417zM179.5798886 249.3054214h2.7050992v-2.7710484h-2.7050992zM176.0563759 235.35264795h2.7529037v-2.7379003h-2.7529037zM183.0632456 235.36475974h2.7203966v-2.7531994h-2.7203966zM186.534492 235.34946064h2.7178471v-2.74491238h-2.7178471zM176.06721159 238.84785339h2.73186971v-2.76849849h-2.73186971zM179.5684156 242.3436963h2.7101983v-2.77168581h-2.7101983zM183.0473107 242.340509h2.7407932v-2.76786105h-2.7407932zM186.5262059 242.340509h2.7223088v-2.7653112h-2.7223088zM190.0446195 242.3398715h2.706374v-2.77104832h-2.706374zM190.0407952 238.8510407h2.7140226v-2.77869788h-2.7140226zM186.5523391 238.84849085h2.7197592v-2.77104833h-2.7197592zM176.0876082 242.3424214h2.7146601v-2.77423568h-2.7146601zM176.06784899 245.8248776h2.72932011v-2.769136h-2.72932011zM179.5843504 245.8369893h2.7006374v-2.7857099h-2.7006374zM183.0447612 245.8242401h2.7216714v-2.7742356h-2.7216714zM186.5287555 245.8267899h2.7216714v-2.7659486h-2.7216714zM183.0677073 238.84912832h2.7203966v-2.7716858h-2.7203966zM179.5684156 238.83446669h2.7095609v-2.75192448h-2.7095609zM176.08569601 249.2958594h2.74461759v-2.7551117h-2.74461759zM183.0536847 249.3181706h2.71466v-2.7710483h-2.71466zM179.5677782 252.7846903h2.7121104v-2.7544744h-2.7121104z"/>
    </g>
    <path d="M124.274788 242.397835h30M378.274788 242.397835h40M206.274788 243.231168h60M471.274788 243.231168h30M443.541618 207.274788v-24M181.050781 208.274788v-24M322.529297 162.274788v-24M443.541618 298.274788v-24M181.050781 299.274788v-24M322.529297 357.274788v-24" stroke="#666" stroke-width="2.54957507" stroke-dasharray="2.575708144784987,2.575708144784987"/>
    <g>
      <path d="M441.0916041 235.958511l1.5045045.16270797-9.31604902 11.10582263-.62288953-.5906633c-.82316137-.7805738-1.55956089-1.4685179-2.25924818-2.1087261l-.34637424-.3169296.1039721-.4578311c.4184792-1.8427327 1.34211546-3.534909 2.70420885-4.8971486 2.19047824-2.1897453 5.21113733-3.2239163 8.23187552-2.8972319zm-7.08969101 4.0395462c-1.03353892 1.0336499-1.76558374 2.291329-2.15679046 3.6654034.41531327.3827336.84531403.7835937 1.29969265 1.2112657l6.14972045-7.3311877c-1.96988695.1624382-3.84585858 1.0082386-5.29262264 2.4545186zM450.02936 243.2908776l.2212435 1.4134615c.4958895 3.1680969-.5237781 6.4003016-2.8334017 8.7101732-1.3627387 1.3628852-3.0545487 2.2865199-4.8972759 2.7044607l-.4576509.1037979-.3168264-.3461784c-.7528196-.8225639-1.5406467-1.6656739-2.3637369-2.5302674l-.59294014-.6228383 11.24058844-9.4326092zm-1.2735334 3.1774869l-7.6126291 6.3881847c.5022089.5322086.9910369 1.056411 1.466556 1.5728462 1.3737311-.3908103 2.6309872-1.1228096 3.6651376-2.1570711 1.5728889-1.5730579 2.4332949-3.6536605 2.4809355-5.8039598z" fill="#666" fill-rule="nonzero"/>
      <path d="M434.67000644 243.347555l.47556274-.5669162 8.53399292-10.17333408c3.4928461-4.16524868 8.9016946-6.05559411 14.1552821-5.09568666l.5490584.10032102.1003093.54906053c.9596583 5.25285561-.9307082 10.66202979-5.095001 14.15656019l-10.7393341 9.0107227-7.97987036-7.9807275zm2.18872852-.095658l5.88681084 5.8874433 9.6053139-8.0592353c3.5671591-2.9934365 5.2634573-7.56065949 4.6343417-12.06949856-4.5093561-.62933876-9.0760321 1.06688232-12.0679477 4.63476717l-8.05851874 9.60652339z" fill="#666" fill-rule="nonzero"/>
      <path d="M430.96635326 253.8900792l.10149966-.1015106c-.03278623.0248065-.06206125.0574859-.10149966.1015106zm3.03585534-1.0666185c.56998851-.2052876 1.06616384-.4031931 1.46455294-.5874811.42763226-.1978154.7218952-.3728888.82532717-.4763319.56735877-.5674197.56735877-1.4871836 0-2.0546033-.56687403-.5669349-1.48627535-.566844-2.05322203.0004577-.26427432.2643027-.74131106 1.3231592-1.22699945 2.7120979-.09706767.2775875-.19219588.5611014-.281515.8371852.43557386-.1397889.86447642-.2846021 1.27185637-.4313245zm-2.69485208 2.412822c-.52588797-.3792574-.52588797-.3792574-.56174118-.6079701-.02127863-.2090275-.02127863-.2090275-.01248633-.263875.0108426-.0752218.0108426-.0752218.01963448-.1155616.00974254-.0447075.02389721-.1013252.04258479-.1714095.03595227-.1348325.08891334-.3200176.15205368-.5309925.15264212-.510033.34200545-1.0969607.53962039-1.6620865.57911967-1.6561271 1.09933087-2.810816 1.60938552-3.3209254 1.19762732-1.1983772 3.14015666-1.1985694 4.3379916-.0006058 1.19812391 1.1982526 1.19812391 3.1407269 0 4.3389795-.2741605.2741899-.70042141.5277963-1.28943556.8002642-.446966.2067589-.98458175.4211933-1.59537648.6411777-.61240246.2205635-1.26589993.4352218-1.91904068.6359665-.22833879.0701805-.44047766.1336585-.63112664.1893785-.1151125.0336433-.19803388.0573779-.24344946.0701373l-.00822221-.0292659c-.10018945.0099276-.23892013.0168033-.44039192.0267886z" fill="#74BE44" fill-rule="nonzero"/>
      <path d="M453.8905372 232.1055751c-1.031494-1.0316048-2.1425091-1.95268408-3.3120533-2.75180104l-1.3939221-.9524282 1.6162534-.48771211c2.2837389-.68912896 4.6989463-.82895356 7.0341504-.40204763l.5490426.1003722.1002618.54906277c.4264171 2.33518566.2864736 4.75058243-.4024935 7.03378968l-.487662 1.61609093-.9524424-1.39370641c-.7994043-1.16976612-1.7200152-2.28038968-2.7511349-3.31162019zm1.1423107-1.14218806c.6745859.67465835 1.3051889 1.38143934 1.8891814 2.11545711.2276068-1.34550564.2499091-2.7185955.0629312-4.06811141-1.3494969-.18721858-2.7225255-.16501284-4.0681744.06262848.7341687.58415661 1.4412074 1.21509893 2.1160618 1.89002582z" fill="#666" fill-rule="nonzero"/>
      <path fill="#666" d="M436.92373613 241.3395654l1.14231076-1.1421881 7.73325341 7.7340841-1.1423107 1.1421881z"/>
    </g>
  </g>
</svg>