<?xml version="1.0" encoding="UTF-8"?>
<svg width="200px" height="200px" viewBox="0 0 200 200" version="1.1" xmlns="http://www.w3.org/2000/svg" xmlns:xlink="http://www.w3.org/1999/xlink">
    <!-- Generator: Sketch 51.1 (57501) - http://www.bohemiancoding.com/sketch -->
    <title>V3</title>
    <desc>Created with Sketch.</desc>
    <defs></defs>
    <g id="V3" stroke="none" stroke-width="1" fill="none" fill-rule="evenodd">
        <polygon id="Path-12" fill="#4F4959" points="140 30 170 99.4964029 140 170 60 170 30 99.4964029 60 30"></polygon>
        <path d="M100,50 C126,50 140,71 140,90 C140,109 130,113 126,120 C123.333333,123.333333 121.333333,127.333333 120,132 C117.333333,144 110.666667,150 100,150 C89.3333333,150 82.6666667,144 80,132 C79.3333333,128 77.3333333,124 74,120 C70,116 60,108 60,90 C60,71 74,50 100,50 Z" id="Path-13" fill="#FFFFFF"></path>
        <path d="M90,121 L110,121" id="Path-17" stroke="#4F4959" stroke-width="6"></path>
        <path d="M100,121 L100,140" id="Path-18" stroke="#4F4959" stroke-width="6"></path>
        <polyline id="Path-21" stroke="#4F4959" stroke-width="6" points="83 146 100 140 116 146"></polyline>
        <polyline id="Path-22" stroke="#4F4959" stroke-width="6" points="123 134 110 90 120 80 130 85"></polyline>
        <polyline id="Path-22-Copy" stroke="#4F4959" stroke-width="6" transform="translate(80.000000, 107.000000) scale(-1, 1) translate(-80.000000, -107.000000) " points="83 134 70 90 80 80 90 85"></polyline>
        <polygon id="Path-23" fill="#4F4959" points="70.5 86 83.5 115 89.5 90 80 79"></polygon>
        <polygon id="Path-23-Copy" fill="#4F4959" transform="translate(120.000000, 97.000000) scale(-1, 1) translate(-120.000000, -97.000000) " points="110.5 86 123.5 115 129.5 90 120 79"></polygon>
        <polygon id="Path-24" fill="#4F4959" points="90 124 95.8823529 138.799805 102.941176 138.799805 110 124"></polygon>
    </g>
</svg>