<?xml version="1.0" encoding="UTF-8"?>
<svg width="96px" height="96px" viewBox="0 0 96 96" version="1.1" xmlns="http://www.w3.org/2000/svg" xmlns:xlink="http://www.w3.org/1999/xlink">
    <!-- Generator: Sketch 61.2 (89653) - https://sketch.com -->
    <title>api</title>
    <desc>Created with Sketch.</desc>
    <g id="Mockups" stroke="none" stroke-width="1" fill="none" fill-rule="evenodd">
        <g id="GoogleAds-|-Landing" transform="translate(-822.000000, -2134.000000)" fill="#4F4959" fill-rule="nonzero">
            <g id="api" transform="translate(822.000000, 2134.000000)">
                <path d="M87.5625,64.125 C83.895996,64.125 80.7700196,66.4760741 79.6083984,69.75 L73.5,69.75 L73.5,26.25 L79.6083984,26.25 C80.7700196,29.5239259 83.895996,31.875 87.5625,31.875 C92.2148438,31.875 96,28.0898438 96,23.4375 C96,18.7851562 92.2148438,15 87.5625,15 C83.895996,15 80.7700196,17.3510741 79.6083984,20.625 L70.6875,20.625 C69.1340332,20.625 67.875,21.8840332 67.875,23.4375 L67.875,45.1875 L62.2902832,45.1875 L50.8125,33.7097167 L50.8125,16.875 L55.5,16.875 C56.5371094,16.875 57.4899902,16.3037109 57.9799804,15.3896484 C58.4692384,14.4748536 58.4157714,13.3652344 57.8400879,12.5024415 L50.3400879,1.2524415 C49.8186036,0.47021475 48.9404297,-1.66533454e-16 48,-1.66533454e-16 C47.0595703,-1.66533454e-16 46.1813964,0.47021475 45.6599121,1.2524415 L38.1599121,12.5024415 C37.5849609,13.3652344 37.5307616,14.4748536 38.0200196,15.3896484 C38.5100098,16.3037109 39.4628906,16.875 40.5,16.875 L45.1875,16.875 L45.1875,33.7097167 L33.7097167,45.1875 L28.125,45.1875 L28.125,23.4375 C28.125,21.8840332 26.8659667,20.625 25.3125,20.625 L16.875,20.625 L16.875,17.8125 C16.875,16.2590333 15.6159668,15 14.0625,15 L2.8125,15 C1.25903325,15 0,16.2590333 0,17.8125 L0,29.0625 C0,30.6159668 1.25903325,31.875 2.8125,31.875 L14.0625,31.875 C15.6159668,31.875 16.875,30.6159668 16.875,29.0625 L16.875,26.25 L22.5,26.25 L22.5,69.75 L16.875,69.75 L16.875,66.9375 C16.875,65.3840333 15.6159668,64.125 14.0625,64.125 L2.8125,64.125 C1.25903325,64.125 0,65.3840333 0,66.9375 L0,78.1875 C0,79.7409667 1.25903325,81 2.8125,81 L14.0625,81 C15.6159668,81 16.875,79.7409667 16.875,78.1875 L16.875,75.375 L25.3125,75.375 C26.8659667,75.375 28.125,74.1159667 28.125,72.5625 L28.125,50.8125 L33.7097167,50.8125 L45.1875,62.2902832 L45.1875,81.0864259 L38.1599121,91.6274415 C37.5849609,92.4902344 37.5307616,93.5998536 38.0200196,94.5146484 C38.5100098,95.4287109 39.4628906,96 40.5,96 L55.5,96 C56.5371094,96 57.4907228,95.4287109 57.9799804,94.5146484 C58.4692384,93.5998536 58.4157714,92.4902344 57.8400879,91.6274415 L50.8125,81.0864259 L50.8125,62.2902832 L62.2902832,50.8125 L67.875,50.8125 L67.875,72.5625 C67.875,74.1159667 69.1340333,75.375 70.6875,75.375 L79.6083984,75.375 C80.7700196,78.6489259 83.895996,81 87.5625,81 C92.2148438,81 96,77.2148438 96,72.5625 C96,67.9101562 92.2148438,64.125 87.5625,64.125 Z M87.5625,20.625 C89.1130371,20.625 90.375,21.8869629 90.375,23.4375 C90.375,24.9880371 89.1130371,26.25 87.5625,26.25 C86.0119629,26.25 84.75,24.9880371 84.75,23.4375 C84.75,21.8869629 86.0119629,20.625 87.5625,20.625 Z M48,7.88305669 L50.244873,11.25 L45.755127,11.25 L48,7.88305669 Z M11.25,26.25 L5.625,26.25 L5.625,20.625 L11.25,20.625 L11.25,26.25 Z M11.25,75.375 L5.625,75.375 L5.625,69.75 L11.25,69.75 L11.25,75.375 Z M45.755127,90.375 L48,87.0080567 L50.244873,90.375 L45.755127,90.375 Z M48,57.1472167 L38.8527833,48 L48,38.8527833 L57.1472167,48 L48,57.1472167 Z M87.5625,75.375 C86.0119629,75.375 84.75,74.1130371 84.75,72.5625 C84.75,71.0119629 86.0119629,69.75 87.5625,69.75 C89.1130371,69.75 90.375,71.0119629 90.375,72.5625 C90.375,74.1130371 89.1130371,75.375 87.5625,75.375 Z" id="Shape"></path>
            </g>
        </g>
    </g>
</svg>