<?xml version="1.0" encoding="UTF-8"?>
<svg width="96px" height="96px" viewBox="0 0 96 96" version="1.1" xmlns="http://www.w3.org/2000/svg" xmlns:xlink="http://www.w3.org/1999/xlink">
    <!-- Generator: Sketch 61.2 (89653) - https://sketch.com -->
    <title>cloud-server</title>
    <desc>Created with Sketch.</desc>
    <g id="Mockups" stroke="none" stroke-width="1" fill="none" fill-rule="evenodd">
        <g id="GoogleAds-|-Landing" transform="translate(-746.000000, -4159.000000)" fill="#72C02C" fill-rule="nonzero">
            <g id="cloud-server" transform="translate(746.000000, 4159.000000)">
                <path d="M65.8823529,61.875 L76.2352941,61.875 C87.1338236,61.875 96,53.0434571 96,42.1875 C96,37.2905272 94.1830882,32.5971679 90.8830882,28.9716797 C88.2110295,26.0354004 84.7470588,23.9912109 80.9382353,23.0639648 C80.7375,10.3117676 70.2610295,0 57.4117647,0 C50.0404412,0 43.2647059,3.35742188 38.8242647,9.09741206 C36.3713235,8.04711919 33.7294118,7.5 31.0588235,7.5 C20.160294,7.5 11.2941176,16.3315429 11.2941176,27.1875 C11.2941176,28.3388672 11.3985295,29.4880371 11.6051471,30.6269531 C4.88455887,32.541504 0,38.7268067 0,45.9375 C0,54.7250978 7.17794108,61.875 16,61.875 L30.1176471,61.875 L30.1176471,79.9101562 L22.6779411,82.3806152 C21.1257353,80.4016114 18.7102942,79.125 16,79.125 C11.3294118,79.125 7.52941176,82.9101562 7.52941176,87.5625 C7.52941176,92.2148438 11.3294118,96 16,96 C20.6191176,96 24.3838234,92.2976074 24.4669118,87.7155761 L33.8338236,84.6057129 C34.9867648,84.2226562 35.7647059,83.1481933 35.7647059,81.9375 L35.7647059,61.875 L45.1764706,61.875 L45.1764706,79.6083984 C41.8897058,80.7700196 39.5294118,83.895996 39.5294118,87.5625 C39.5294118,92.2148438 43.3294118,96 48,96 C52.6705882,96 56.4705882,92.2148438 56.4705882,87.5625 C56.4705882,83.895996 54.1102942,80.7700196 50.8235294,79.6083984 L50.8235294,61.875 L60.2352941,61.875 L60.2352941,81.9375 C60.2352941,83.1481933 61.0132352,84.2226562 62.1661764,84.6057129 L71.5330882,87.7155761 C71.6161766,92.2976074 75.3808824,96 80,96 C84.6705882,96 88.4705882,92.2148438 88.4705882,87.5625 C88.4705882,82.9101562 84.6705882,79.125 80,79.125 C77.2897058,79.125 74.8742647,80.4016114 73.3220589,82.3806152 L65.8823529,79.9101562 L65.8823529,61.875 Z M16,90.375 C14.4433824,90.375 13.1764706,89.1130371 13.1764706,87.5625 C13.1764706,86.0119629 14.4433824,84.75 16,84.75 C17.5566176,84.75 18.8235294,86.0119629 18.8235294,87.5625 C18.8235294,89.1130371 17.5566176,90.375 16,90.375 Z M48,90.375 C46.4433824,90.375 45.1764706,89.1130371 45.1764706,87.5625 C45.1764706,86.0119629 46.4433824,84.75 48,84.75 C49.5566176,84.75 50.8235294,86.0119629 50.8235294,87.5625 C50.8235294,89.1130371 49.5566176,90.375 48,90.375 Z M5.64705882,45.9375 C5.64705882,40.5344239 9.88970579,36.0212402 15.3058824,35.6630859 C16.1889705,35.6044922 16.9933824,35.1372071 17.4794118,34.3996583 C17.9654411,33.6621094 18.0757353,32.7407228 17.7772058,31.9108886 C17.2227942,30.3632812 16.9411765,28.7746582 16.9411765,27.1875 C16.9411765,19.4333496 23.2742647,13.125 31.0588235,13.125 C33.5933824,13.125 36.0955881,13.8186036 38.2941176,15.1318359 L38.3191176,15.1259766 C42.6132352,17.6967773 45.1764706,22.2041016 45.1764706,27.1875 C45.1764706,28.7409667 46.4404412,30 48,30 C49.5595588,30 50.8235294,28.7409667 50.8235294,27.1875 C50.8235294,21.3251953 48.1470588,15.7595214 43.6875,12.0498047 C47.0625,7.9870605 52.0279413,5.625 57.4117647,5.625 C67.2720587,5.625 75.2941176,13.6157227 75.2941176,23.4375 C75.2941176,23.9677734 75.2654411,24.5251464 75.2066176,25.1418458 C75.2058824,25.1513672 75.2066176,25.1601562 75.2058824,25.1696777 C74.8595588,28.6816406 73.4727942,32.0397949 71.2073528,34.7717286 C70.2147059,35.9692384 70.3845589,37.7416991 71.5867648,38.7312011 C72.1132352,39.1640625 72.75,39.375 73.3830882,39.375 C74.1963236,39.375 75.0036764,39.0270996 75.5617647,38.3532714 C77.8889705,35.5466308 79.5139706,32.2382812 80.3316177,28.724121 C86.1948529,30.4753417 90.3529412,35.8681641 90.3529412,42.1875 C90.3529412,49.9416504 84.019853,56.25 76.2352941,56.25 L16,56.25 C10.2911765,56.25 5.64705882,51.6240234 5.64705882,45.9375 Z M80,84.75 C81.5566176,84.75 82.8235294,86.0119629 82.8235294,87.5625 C82.8235294,89.1130371 81.5566176,90.375 80,90.375 C78.4433824,90.375 77.1764706,89.1130371 77.1764706,87.5625 C77.1764706,86.0119629 78.4433824,84.75 80,84.75 Z" id="Shape"></path>
            </g>
        </g>
    </g>
</svg>