<?xml version="1.0" encoding="UTF-8"?>
<svg width="320px" height="256px" viewBox="0 0 320 256" version="1.1" xmlns="http://www.w3.org/2000/svg" xmlns:xlink="http://www.w3.org/1999/xlink">
    <!-- Generator: Sketch 61.2 (89653) - https://sketch.com -->
    <title>continuous</title>
    <desc>Created with Sketch.</desc>
    <g id="Mockups" stroke="none" stroke-width="1" fill="none" fill-rule="evenodd">
        <g id="GoogleAds-|-Landing" transform="translate(-312.000000, -4373.000000)" fill-rule="nonzero">
            <g id="continuous" transform="translate(312.000000, 4373.000000)">
                <path d="M319.687805,116.002439 C319.687805,115.960976 319.687805,115.919512 319.687805,115.878049 C319.651219,112.012195 317.982927,108.32439 315.097561,105.746341 L283.556097,77.5853655 C279.695122,74.1390242 273.778049,74.4756099 270.329268,78.3341462 C266.885366,82.1926831 267.221951,88.1121954 271.078049,91.5585367 L287.968293,106.636585 L127.017073,106.636585 C122.480488,75.7853659 95.8829268,52.0292683 63.8512197,52.0292683 C28.6439024,52.0292683 7.09849523e-14,80.726829 7.09849523e-14,116.002439 C7.09849523e-14,151.278049 28.6439024,179.97561 63.8512197,179.97561 C95.8829268,179.97561 122.480488,156.219512 127.017073,125.368293 L287.968293,125.368293 L271.080488,140.44878 C267.221951,143.892683 266.885366,149.814634 270.331707,153.670732 C272.180487,155.743903 274.743902,156.8 277.319512,156.8 C279.541463,156.8 281.768293,156.014634 283.556097,154.419512 L315.097561,126.258537 C317.982927,123.680488 319.651219,119.995122 319.687805,116.126829 C319.687805,116.087805 319.687805,116.046342 319.687805,116.007317 C319.687805,116.004878 319.687805,116.004878 319.687805,116.002439 Z M63.8512197,161.243903 C38.9707314,161.243903 18.7317073,140.94878 18.7317073,116.002439 C18.7317073,91.0560974 38.9707314,70.7609756 63.8512197,70.7609756 C85.526829,70.7609756 103.682927,86.1707314 107.997561,106.636585 L77.9317073,106.636585 C72.7585367,106.636585 68.5658537,110.829268 68.5658537,116.002439 C68.5658537,121.175609 72.7585367,125.368293 77.9317073,125.368293 L107.997561,125.368293 C103.682927,145.836585 85.526829,161.243903 63.8512197,161.243903 Z" id="Shape" fill="#72C02C"></path>
                <path d="M187.902439,40.5804881 C187.902439,45.7536587 192.095122,49.9463418 197.268293,49.9463418 L299.158537,49.9463418 C304.331707,49.9463418 308.52439,45.7536587 308.52439,40.5804881 C308.52439,35.4073169 304.331707,31.2146345 299.158537,31.2146345 L197.268293,31.2146345 C192.095122,31.2146345 187.902439,35.4073169 187.902439,40.5804881 Z" id="Path" fill="#4F4959"></path>
                <path d="M129.47561,18.7317073 L208.470732,18.7317073 C213.641463,18.7317073 217.836585,14.5390242 217.836585,9.36585366 C217.836585,4.19268308 213.641463,0 208.470732,0 L129.47561,0 C124.304878,0 120.109756,4.19268308 120.109756,9.36585366 C120.109756,14.5390242 124.304878,18.7317073 129.47561,18.7317073 Z" id="Path" fill="#4F4959"></path>
                <path d="M239.517073,18.7317073 L254.126829,18.7317073 C259.3,18.7317073 263.492683,14.5390242 263.492683,9.36585366 C263.492683,4.19268308 259.3,0 254.126829,0 L239.517073,0 C234.343902,0 230.151219,4.19268308 230.151219,9.36585366 C230.151219,14.5390242 234.343902,18.7317073 239.517073,18.7317073 Z" id="Path" fill="#72C02C"></path>
                <path d="M133.817073,49.3170732 C128.643902,49.3170732 124.451219,53.5121951 124.451219,58.6829268 C124.451219,63.8560974 128.643902,68.0487805 133.817073,68.0487805 L148.426829,68.0487805 C153.6,68.0487805 157.792683,63.8560974 157.792683,58.6829268 C157.792683,53.5121951 153.6,49.3170732 148.426829,49.3170732 L133.817073,49.3170732 Z" id="Path" fill="#83C745"></path>
                <path d="M160.936585,161.692683 C166.109756,161.692683 170.302439,157.5 170.302439,152.32683 C170.302439,147.153658 166.109756,142.960976 160.936585,142.960976 L146.326829,142.960976 C141.153658,142.960976 136.960975,147.153658 136.960975,152.32683 C136.960975,157.5 141.153658,161.692683 146.326829,161.692683 L160.936585,161.692683 Z" id="Path" fill="#4F4959"></path>
                <path d="M160.936585,219.163414 L59.2512194,219.163414 C54.0780488,219.163414 49.8853657,223.358536 49.8853657,228.529268 C49.8853657,233.702439 54.0780488,237.895122 59.2512194,237.895122 L160.936585,237.895122 C166.109756,237.895122 170.302439,233.702439 170.302439,228.529268 C170.302439,223.358536 166.109756,219.163414 160.936585,219.163414 Z" id="Path" fill="#4F4959"></path>
                <path d="M228.931708,187.948781 L149.939025,187.948781 C144.765853,187.948781 140.573171,192.143903 140.573171,197.314634 C140.573171,202.487805 144.765853,206.680488 149.939025,206.680488 L228.931708,206.680488 C234.104878,206.680488 238.297561,202.487805 238.297561,197.314634 C238.297561,192.143903 234.104878,187.948781 228.931708,187.948781 Z" id="Path" fill="#4F4959"></path>
                <path d="M118.892683,206.680488 C124.065854,206.680488 128.258536,202.487805 128.258536,197.314634 C128.258536,192.143903 124.065854,187.948781 118.892683,187.948781 L104.282927,187.948781 C99.1097563,187.948781 94.9170732,192.143903 94.9170732,197.314634 C94.9170732,202.487805 99.1097563,206.680488 104.282927,206.680488 L118.892683,206.680488 Z" id="Path" fill="#72C02C"></path>
                <path d="M224.592683,237.268293 L209.982927,237.268293 C204.809756,237.268293 200.617073,241.460976 200.617073,246.634146 C200.617073,251.807317 204.809756,256 209.982927,256 L224.592683,256 C229.763415,256 233.958537,251.807317 233.958537,246.634146 C233.958537,241.460976 229.763415,237.268293 224.592683,237.268293 Z" id="Path" fill="#83C745"></path>
            </g>
        </g>
    </g>
</svg>