<?xml version="1.0" encoding="UTF-8"?>
<svg width="85px" height="96px" viewBox="0 0 85 96" version="1.1" xmlns="http://www.w3.org/2000/svg" xmlns:xlink="http://www.w3.org/1999/xlink">
    <!-- Generator: Sketch 61.2 (89653) - https://sketch.com -->
    <title>cube</title>
    <desc>Created with Sketch.</desc>
    <g id="Mockups" stroke="none" stroke-width="1" fill="none" fill-rule="evenodd">
        <g id="GoogleAds-|-Landing" transform="translate(-833.000000, -2272.000000)" fill="#4F4959" fill-rule="nonzero">
            <g id="cube" transform="translate(833.000000, 2272.000000)">
                <path d="M84.563625,25.4985 C84.563625,24.4434375 83.9683125,23.5190625 83.155125,23.0615625 L43.779,0.3733125 C42.8971875,-0.1378125 41.80575,-0.1108125 40.970625,0.3733125 C40.9678125,0.375 1.5901875,23.064 1.5901875,23.064 C1.5890625,23.0645625 1.588125,23.065125 1.587,23.0656875 C0.7336875,23.56275 0.1861875,24.4905 0.1861875,25.4983125 L0.1861875,70.499625 C0.1861875,71.488875 0.7183125,72.447 1.6160625,72.9489375 L40.96725,95.6225625 C40.9674375,95.6225625 40.9674375,95.6225625 40.9674375,95.6225625 C40.967625,95.62275 40.9678125,95.62275 40.968,95.62275 L40.9708125,95.6244375 C41.8408125,96.1246875 42.9088125,96.1246875 43.7791875,95.6244375 L43.782,95.62275 C43.7821875,95.62275 43.7821875,95.62275 43.782375,95.6225625 C43.782375,95.6225625 43.7825625,95.622375 43.78275,95.622375 L83.134875,72.9481875 C84.02475,72.4455 84.563625,71.5003125 84.563625,70.4994375 L84.563625,25.4985 L84.563625,25.4985 Z M39.5623125,88.321125 L8.6499375,70.50975 L9.27825,70.1506875 C10.62675,69.3800625 11.0953125,67.662 10.3246875,66.3133125 C9.5540625,64.964625 7.8361875,64.4960625 6.4873125,65.2666875 L5.811375,65.6529375 L5.811375,30.3448125 L36.706125,47.9990625 L36.095625,48.3478125 C34.7469375,49.1184375 34.278375,50.8365 35.049,52.1851875 C35.82,53.534625 37.5388125,54.0020625 38.886375,53.2318125 L39.5623125,52.8455625 L39.5623125,88.321125 Z M42.3748125,39.561375 C40.8215625,39.561375 39.5623125,40.820625 39.5623125,42.373875 L39.5623125,43.1525625 L8.6499375,25.488375 L39.5623125,7.677 L39.5623125,8.4354375 C39.5623125,9.9886875 40.8215625,11.2479375 42.3748125,11.2479375 C43.9280625,11.2479375 45.1873125,9.9886875 45.1873125,8.4354375 L45.1873125,7.677 L76.0995,25.488375 L45.1873125,43.1525625 L45.1873125,42.3740625 C45.1873125,40.820625 43.9280625,39.561375 42.3748125,39.561375 Z M78.93825,65.6529375 L78.262125,65.2666875 C76.913625,64.495875 75.1955625,64.9644375 74.42475,66.3133125 C73.654125,67.6618125 74.1226875,69.379875 75.471375,70.1506875 L76.0996875,70.50975 L45.1875,88.3213125 L45.1875,52.84575 L45.86325,53.2318125 C47.2111875,54.00225 48.929625,53.5344375 49.700625,52.1851875 C50.47125,50.8366875 50.0026875,49.118625 48.654,48.3478125 L48.0435,47.9990625 L78.93825,30.3448125 L78.93825,65.6529375 L78.93825,65.6529375 Z" id="Shape"></path>
                <path d="M42.3748125,16.93575 C40.8215625,16.93575 39.5623125,18.195 39.5623125,19.74825 L39.5623125,31.0610625 C39.5623125,32.6143125 40.8215625,33.8735625 42.3748125,33.8735625 C43.9280625,33.8735625 45.1873125,32.6143125 45.1873125,31.0610625 L45.1873125,19.74825 C45.1873125,18.1951875 43.9280625,16.93575 42.3748125,16.93575 Z" id="Path"></path>
                <path d="M30.063375,55.03425 C29.2929375,53.6855625 27.574875,53.217 26.226,53.987625 L16.35675,59.62725 C15.0080625,60.397875 14.5395,62.1159375 15.310125,63.464625 C16.081125,64.8140625 17.79975,65.2815 19.1475,64.51125 L29.01675,58.871625 C30.3654375,58.1008125 30.834,56.38275 30.063375,55.03425 Z" id="Path"></path>
                <path d="M68.392875,59.62725 L58.523625,53.987625 C57.1753125,53.217 55.4570625,53.6855625 54.68625,55.03425 C53.915625,56.38275 54.3841875,58.1008125 55.732875,58.871625 L65.602125,64.51125 C66.9504375,65.281875 68.6686875,64.8135 69.4395,63.464625 C70.210125,62.1159375 69.7415625,60.397875 68.392875,59.62725 Z" id="Path"></path>
            </g>
        </g>
    </g>
</svg>