<?xml version="1.0" encoding="UTF-8"?>
<svg width="96px" height="96px" viewBox="0 0 96 96" version="1.1" xmlns="http://www.w3.org/2000/svg" xmlns:xlink="http://www.w3.org/1999/xlink">
    <!-- Generator: Sketch 61.2 (89653) - https://sketch.com -->
    <title>devices</title>
    <desc>Created with Sketch.</desc>
    <g id="Mockups" stroke="none" stroke-width="1" fill="none" fill-rule="evenodd">
        <g id="GoogleAds-|-Landing" transform="translate(-822.000000, -1989.000000)" fill="#4F4959" fill-rule="nonzero">
            <g id="devices" transform="translate(822.000000, 1989.000000)">
                <path d="M84.75,13.125 L77.25,13.125 L77.25,11.25 C77.25,5.04638663 72.2036134,0 66,0 L30,0 C23.7963866,0 18.75,5.04638663 18.75,11.25 L18.75,13.125 L11.25,13.125 C5.04638663,13.125 0,18.1713866 0,24.375 L0,71.4375 C0,77.6411134 5.04638663,82.6875 11.25,82.6875 L18.75,82.6875 L18.75,84.75 C18.75,90.9536134 23.7963866,96 30,96 L66,96 C72.2036134,96 77.25,90.9536134 77.25,84.75 L77.25,82.6875 L84.75,82.6875 C90.9536134,82.6875 96,77.6411134 96,71.4375 L96,24.375 C96,18.1713866 90.9536134,13.125 84.75,13.125 Z M11.25,75.1875 C9.182373,75.1875 7.5,73.505127 7.5,71.4375 L7.5,24.375 C7.5,22.307373 9.182373,20.625 11.25,20.625 L18.75,20.625 L18.75,75.1875 L11.25,75.1875 Z M69.75,84.75 C69.75,86.817627 68.067627,88.5 66,88.5 L30,88.5 C27.932373,88.5 26.25,86.817627 26.25,84.75 L26.25,11.25 C26.25,9.182373 27.932373,7.5 30,7.5 L66,7.5 C68.067627,7.5 69.75,9.182373 69.75,11.25 L69.75,84.75 Z M88.5,71.4375 C88.5,73.505127 86.817627,75.1875 84.75,75.1875 L77.25,75.1875 L77.25,20.625 L84.75,20.625 C86.817627,20.625 88.5,22.307373 88.5,24.375 L88.5,71.4375 Z" id="Shape"></path>
            </g>
        </g>
    </g>
</svg>