<?xml version="1.0" encoding="UTF-8"?>
<svg width="111px" height="96px" viewBox="0 0 111 96" version="1.1" xmlns="http://www.w3.org/2000/svg" xmlns:xlink="http://www.w3.org/1999/xlink">
    <!-- Generator: Sketch 61.2 (89653) - https://sketch.com -->
    <title>e-commerce</title>
    <desc>Created with Sketch.</desc>
    <g id="Mockups" stroke="none" stroke-width="1" fill="none" fill-rule="evenodd">
        <g id="GoogleAds-|-Landing" transform="translate(-1098.000000, -4154.000000)" fill="#72C02C" fill-rule="nonzero">
            <g id="e-commerce" transform="translate(1098.000000, 4154.000000)">
                <path d="M108.131777,20.3958919 L24.7859531,20.3958919 L19.6849395,2.1772973 C19.3389316,0.940756757 18.2096367,0.0860540541 16.9225137,0.0860540541 L2.86822266,0.0860540541 C1.28408789,0.0860540541 0,1.36691892 0,2.94659459 C0,4.52627027 1.28408789,5.80713514 2.86822266,5.80713514 L14.7454395,5.80713514 L35.3849355,79.52 C35.4499746,79.752 35.5423301,79.9708108 35.6585332,80.1727568 C34.5173145,81.7976216 33.8450273,83.7725405 33.8450273,85.9020541 C33.8450273,91.4227027 38.348332,95.9139459 43.8838066,95.9139459 C49.4190645,95.9139459 53.9225859,91.4227027 53.9225859,85.9020541 C53.9225859,84.3673514 53.573543,82.9124324 52.9519863,81.6112432 L69.2342988,81.6112432 C68.6127422,82.9124324 68.2636992,84.3673514 68.2636992,85.9020541 C68.2636992,91.4227027 72.7670039,95.9139459 78.3024785,95.9139459 C83.8379531,95.9139459 88.3412578,91.4227027 88.3412578,85.9020541 C88.3412578,83.952 87.7773691,82.1318919 86.8065527,80.5915676 C87.2267051,80.0938378 87.480791,79.4521081 87.480791,78.7509189 C87.480791,77.1712432 86.1967031,75.8903784 84.6125684,75.8903784 L40.3242188,75.8903784 L38.0816719,67.8808649 L88.0542188,67.8808649 C89.3445938,67.8808649 90.4758398,67.0216216 90.8192461,65.780973 L101.790469,26.1171892 L108.131777,26.1171892 C109.715912,26.1171892 111,24.8363243 111,23.2566486 C111,21.676973 109.715912,20.3958919 108.131777,20.3958919 Z M78.3022617,81.6112432 C80.6746699,81.6112432 82.6045957,83.536 82.6045957,85.9020541 C82.6045957,88.2681081 80.6746699,90.1928649 78.3022617,90.1928649 C75.9298535,90.1928649 73.9999277,88.2681081 73.9999277,85.9020541 C73.9999277,83.536 75.9300703,81.6112432 78.3022617,81.6112432 Z M43.8838066,81.6112432 C46.2562148,81.6112432 48.1861406,83.536 48.1861406,85.9020541 C48.1861406,88.2681081 46.2562148,90.1928649 43.8838066,90.1928649 C41.5113984,90.1928649 39.5814727,88.2681081 39.5814727,85.9020541 C39.5814727,83.536 41.5113984,81.6112432 43.8838066,81.6112432 Z M85.870207,62.1595676 L36.4797598,62.1595676 L26.3878652,26.1167568 L95.8393945,26.1167568 L85.870207,62.1595676 Z" id="Shape"></path>
                <path d="M61.379748,57.2966486 C62.9638828,57.2966486 64.2479707,56.0157838 64.2479707,54.4361081 L64.2479707,33.8402162 C64.2479707,32.2605405 62.9638828,30.9796757 61.379748,30.9796757 C59.7956133,30.9796757 58.5115254,32.2605405 58.5115254,33.8402162 L58.5115254,54.4361081 C58.5115254,56.0157838 59.7958301,57.2966486 61.379748,57.2966486 Z" id="Path"></path>
                <path d="M72.8526387,57.2966486 C74.4367734,57.2966486 75.7208613,56.0157838 75.7208613,54.4361081 L75.7208613,33.8402162 C75.7208613,32.2605405 74.4367734,30.9796757 72.8526387,30.9796757 C71.2685039,30.9796757 69.984416,32.2605405 69.984416,33.8402162 L69.984416,54.4361081 C69.984416,56.0157838 71.2685039,57.2966486 72.8526387,57.2966486 Z" id="Path"></path>
                <path d="M49.9070742,57.2966486 C51.491209,57.2966486 52.7752969,56.0157838 52.7752969,54.4361081 L52.7752969,33.8402162 C52.7752969,32.2605405 51.491209,30.9796757 49.9070742,30.9796757 C48.3229395,30.9796757 47.0388516,32.2605405 47.0388516,33.8402162 L47.0388516,54.4361081 C47.0388516,56.0157838 48.3229395,57.2966486 49.9070742,57.2966486 Z" id="Path"></path>
                <path d="M38.4341836,44.1383784 C40.0183184,44.1383784 41.3024062,42.8575135 41.3024062,41.2778378 L41.3024062,33.8404324 C41.3024062,32.2607568 40.0183184,30.9798919 38.4341836,30.9798919 C36.8500488,30.9798919 35.5659609,32.2607568 35.5659609,33.8404324 L35.5659609,41.2778378 C35.5659609,42.8572973 36.8500488,44.1383784 38.4341836,44.1383784 Z" id="Path"></path>
                <path d="M84.3255293,44.1383784 C85.9096641,44.1383784 87.193752,42.8575135 87.193752,41.2778378 L87.193752,33.8404324 C87.193752,32.2607568 85.9096641,30.9798919 84.3255293,30.9798919 C82.7413945,30.9798919 81.4573066,32.2607568 81.4573066,33.8404324 L81.4573066,41.2778378 C81.4573066,42.8572973 82.7413945,44.1383784 84.3255293,44.1383784 Z" id="Path"></path>
            </g>
        </g>
    </g>
</svg>