<?xml version="1.0" encoding="UTF-8"?>
<svg width="102px" height="72px" viewBox="0 0 102 72" version="1.1" xmlns="http://www.w3.org/2000/svg" xmlns:xlink="http://www.w3.org/1999/xlink">
    <!-- Generator: Sketch 61.2 (89653) - https://sketch.com -->
    <title>elmington</title>
    <desc>Created with Sketch.</desc>
    <g id="Mockups" stroke="none" stroke-width="1" fill="none" fill-rule="evenodd">
        <g id="GoogleAds-|-Landing" transform="translate(-512.000000, -1015.000000)">
            <g id="T-Card" transform="translate(148.000000, 707.000000)">
                <g id="elmington" transform="translate(364.000000, 308.000000)">
                    <path d="M53.0865452,0 C53.0865452,0.293822209 53.1175093,0.486326415 53.1175093,0.678830621 C53.1175093,17.4300738 53.1252503,34.1804727 53.1407323,50.9300273 C53.1661531,51.3618398 52.9621264,51.775815 52.6014416,52.0242617 C50.095933,53.9771662 47.6136475,55.9528673 45.1184603,57.9209695 C44.979122,58.0298863 44.8268821,58.1261384 44.6023926,58.2857143 C44.6023926,58.0197545 44.5714286,57.8297833 44.5714286,57.642345 C44.5714286,40.8387541 44.5765892,24.0368519 44.5869106,7.23663838 C44.5840544,6.94320993 44.6968471,6.66005387 44.9017119,6.44635795 C47.5207553,4.33641054 50.1552808,2.26445737 52.7975473,0.184905356 C52.8543147,0.139312254 52.9188232,0.106383903 53.0865452,0 Z" id="Path" fill="#D0D1D3"></path>
                    <path d="M59.1779715,10.2857143 L63.3422712,13.5416161 C64.635532,14.5488556 65.9287927,15.5863123 67.2427457,16.5910338 C67.5496877,16.7928308 67.7277223,17.134719 67.7134926,17.4950313 C67.7031465,30.8812447 67.7031465,44.2666187 67.7134926,57.6511534 C67.7134926,57.8249022 67.6902139,57.9961329 67.6695217,58.2857143 L65.8589567,56.8755789 C63.7638742,55.2388147 61.6739648,53.6020505 59.5737093,51.9652862 C59.2875903,51.7683868 59.1254359,51.4421962 59.1443467,51.1015783 C59.1546928,37.6985776 59.1590036,24.2947375 59.1572793,10.890058 C59.1521062,10.7314178 59.1650389,10.5727776 59.1779715,10.2857143 Z" id="Path" fill="#EEEEEE"></path>
                    <path d="M32.6234834,58.2857143 C32.6234834,58.0338295 32.5899325,57.8423971 32.5899325,57.6534835 C32.5899325,46.570554 32.5847709,35.4918225 32.5744475,24.4172891 C32.5456144,24.0242537 32.7247726,23.6441341 33.0493215,23.40975 C35.5862841,21.4450489 38.1000192,19.460197 40.6240777,17.4803827 C40.7531195,17.3821477 40.8821614,17.293988 41.1041133,17.1428571 C41.1195984,17.3796288 41.1428571,17.5458728 41.1428571,17.7095979 C41.1428571,28.8613759 41.1428571,40.0123144 41.1428571,51.1624132 C41.1449612,51.4370193 41.0376041,51.7016752 40.8434488,51.9004356 C38.2238994,53.9885602 35.5811225,56.0514964 32.9435072,58.1169515 C32.8405346,58.1796502 32.7336522,58.236014 32.6234834,58.2857143 Z" id="Path" fill="#E6E6E6"></path>
                    <path d="M21.4285714,62.5714286 L26.5780577,67.2554784 C28.2724561,65.7184851 29.9509446,64.1890509 31.7142857,62.5865465 L31.7142857,71.9899214 L29.9801127,71.9899214 L29.9801127,66.4466672 L26.5674511,69.5685271 L23.1892609,66.4895014 L23.1892609,72 L21.4285714,72 L21.4285714,62.5714286 Z" id="Path" fill="#707074"></path>
                    <path d="M42.8943189,66.6377323 L42.8943189,71.8612352 C42.855528,71.8798642 42.8152631,71.8956055 42.7738895,71.9083161 C41.1428571,72.086728 41.1428571,72.086728 41.1428571,70.5553595 C41.1428571,68.1418434 41.1428571,65.7283274 41.1428571,63.3148113 L41.1428571,62.5714286 L47.9078454,68.0997184 L47.9078454,67.4009386 C47.9078454,65.9810775 47.9078454,64.5612164 47.9078454,63.1413554 C47.9078454,62.769664 47.9890043,62.6061198 48.4314513,62.6085977 C49.7142857,62.6085977 49.7142857,62.5912521 49.7142857,63.8004881 C49.7142857,66.2784306 49.7142857,68.763807 49.7142857,71.2566172 L49.7142857,72 L43.0566367,66.5733058 L42.8943189,66.6377323 Z" id="Path" fill="#707074"></path>
                    <path d="M83.1480969,72 C80.2734685,72 77.9947676,69.9159255 78.000009,67.2794457 C78.0052685,64.642966 80.2865947,62.576468 83.1165942,62.5714373 C85.9465936,62.5664243 88.2935506,64.7132721 88.2856946,67.3045551 C88.2777992,69.895838 85.9702207,71.9974891 83.1480969,72 Z M83.1087185,70.3628716 C85.0041356,70.3628716 86.4690147,69.0446317 86.4742652,67.3120879 C86.4702615,66.477276 86.1156414,65.67903 85.4901273,65.0968047 C84.8646133,64.5145794 84.0206957,64.1972325 83.1480969,64.2161073 C81.2789321,64.2161073 79.779925,65.5695003 79.7693682,67.2769348 C79.7589231,68.9843693 81.2290527,70.3553388 83.1087185,70.3628716 Z" id="Shape" fill="#707074"></path>
                    <path d="M62.7873421,63.995924 L61.5574755,65.1030005 C61.3664537,64.9755493 61.1885156,64.8530961 61.0079607,64.7406391 C59.5815409,63.8461125 57.6827891,64.0935816 56.5595071,65.3204174 C55.5237895,66.4431302 55.5237895,68.1262019 56.5595071,69.2489147 C57.7998927,70.554353 59.8912802,70.7089208 61.3272027,69.6012799 C61.8505501,69.1739434 61.5391584,68.6491441 61.6255107,68.1018535 L59.1396102,68.1018535 L59.1396102,66.5374519 C59.2459411,66.5048543 59.3555801,66.4830751 59.4667024,66.4724767 C60.6311505,66.4724767 61.7929819,66.4724767 62.9548133,66.4724767 C63.2792888,66.4724767 63.4336763,66.5574442 63.4284428,66.8973142 C63.4101256,67.794471 63.4284428,68.6891288 63.4127424,69.5837866 C63.4023487,69.7768789 63.3291734,69.9620718 63.2034034,70.113584 C61.7955986,71.7204693 59.9769662,72.3202399 57.8704925,71.8379244 C55.8713052,71.3805993 54.5446193,70.1335763 54.1023907,68.1843219 C53.3932549,65.0555187 56.481005,62.1016486 59.859213,62.633945 C60.9617759,62.7799565 61.9871951,63.2569161 62.7873421,63.995924 L62.7873421,63.995924 Z" id="Path" fill="#707074"></path>
                    <polygon id="Path" fill="#707074" points="99.4114979 62.5789795 101.142857 62.5789795 101.142857 72 94.3161265 66.4450461 94.3161265 71.9597285 92.5714286 71.9597285 92.5714286 62.5714286 99.4114979 68.1565861"></polygon>
                    <polygon id="Path" fill="#707074" points="0 62.5714286 6.85447471 62.5714286 6.85447471 64.1757534 1.78499166 64.1757534 1.78499166 66.4759604 6.85447471 66.4759604 6.85447471 68.0904072 1.76631462 68.0904072 1.76631462 70.3830228 6.85714286 70.3830228 6.85714286 72 0 72"></polygon>
                    <polygon id="Path" fill="#707074" points="72.0351594 64.1702193 72.0351594 72 70.2718636 72 70.2718636 64.1980024 66.8571429 64.1980024 66.8571429 62.5714286 75.4285714 62.5714286 75.4285714 64.1702193"></polygon>
                    <path d="M11.1872631,72 C11.1872631,71.783687 11.1585298,71.6076183 11.1585298,71.4340648 C11.1585298,68.6798468 11.1585298,65.9281442 11.1428571,63.1739262 C11.1428571,62.6884796 11.2891355,62.5300177 11.7776008,62.5803231 C12.1223998,62.6155368 12.4776473,62.5803231 12.9034218,62.5803231 L12.9034218,70.3776524 L16.4480601,70.3776524 C16.8215924,70.3776524 17.1951246,70.3776524 17.5686569,70.3776524 C17.8821105,70.3650761 18.007492,70.4933547 17.9996557,70.7901563 C17.9996557,71.182538 17.9996557,71.5724045 17.9996557,71.9874237 L11.1872631,72 Z" id="Path" fill="#707074"></path>
                    <path d="M37.7117498,72 L36.0456467,72 C36.0456467,71.821643 36.0152156,71.6508222 36.0152156,71.4800015 C36.0152156,68.7167242 36.0152156,65.953447 36,63.1750973 C36,62.697804 36.1293322,62.5596401 36.6111581,62.5722005 C37.7142857,62.5998332 37.7142857,62.5722005 37.7142857,63.6448545 C37.7142857,66.1971178 37.7142857,68.7502185 37.7142857,71.3041565 L37.7117498,72 Z" id="Path" fill="#707074"></path>
                </g>
            </g>
        </g>
    </g>
</svg>