<?xml version="1.0" encoding="UTF-8"?>
<svg width="100px" height="96px" viewBox="0 0 100 96" version="1.1" xmlns="http://www.w3.org/2000/svg" xmlns:xlink="http://www.w3.org/1999/xlink">
    <!-- Generator: Sketch 61.2 (89653) - https://sketch.com -->
    <title>finance</title>
    <desc>Created with Sketch.</desc>
    <g id="Mockups" stroke="none" stroke-width="1" fill="none" fill-rule="evenodd">
        <g id="GoogleAds-|-Landing" transform="translate(-758.000000, -3927.000000)" fill="#72C02C" fill-rule="nonzero">
            <g id="finance" transform="translate(758.000000, 3927.000000)">
                <path d="M91.9639588,2.57023331 C87.890625,0.912778905 82.559967,0 76.953125,0 C71.346283,0 66.015625,0.912778905 61.9422912,2.57023331 C57.3501586,4.43914807 55.3237914,6.84279919 54.473877,8.89046653 C54.1160584,9.47920902 53.90625,10.1668358 53.90625,10.9046653 L53.90625,42.4077079 C52.6275635,42.3080628 51.322174,42.2555781 50,42.2555781 C48.677826,42.2555781 47.3724365,42.3080628 46.09375,42.4077079 L46.09375,26.4827586 C46.09375,25.7449291 45.8839416,25.0573023 45.526123,24.4685598 C44.6762086,22.4208925 42.6498414,20.0172414 38.0577088,18.1483266 C33.984375,16.4908722 28.653717,15.5780933 23.046875,15.5780933 C17.440033,15.5780933 12.109375,16.4908722 8.03604121,18.1483266 C1.04446406,20.9939148 0,25.0793611 0,27.2616633 L0,73.2170385 C0,75.3993407 1.04370117,79.484787 8.03604121,82.3303752 C12.109375,83.9878296 17.440033,84.9006085 23.046875,84.9006085 C24.3743896,84.9006085 25.682068,84.8481238 26.9668578,84.7484787 C27.1072387,87.0053246 28.4355164,90.7629311 34.9891662,93.4297667 C39.0625,95.0872211 44.393158,96 50,96 C55.606842,96 60.9375,95.0872211 65.0108338,93.4297667 C72.0024109,90.5841785 73.046875,86.4987322 73.046875,84.31643 L73.046875,84.1650608 C74.3270875,84.2639453 75.630951,84.31643 76.953125,84.31643 C82.559967,84.31643 87.890625,83.4036511 91.9639588,81.7461967 C98.9562988,78.9006085 100,74.8151622 100,72.63286 L100,11.68357 C100,9.5012678 98.9555359,5.4158215 91.9639588,2.57023331 Z M23.046875,23.36714 C32.3867797,23.36714 37.638092,26.1883874 38.28125,27.3856491 L38.28125,43.7205883 C37.1147156,44.0400608 36.012268,44.4097363 34.9891662,44.8258114 C32.6141357,45.7925963 30.9265137,46.9023833 29.7317504,48.0319472 C28.9619445,46.9670384 27.6756287,46.3128804 26.2672424,46.4193711 C25.2143859,46.4992394 24.1310119,46.5395538 23.046875,46.5395538 C13.7069703,46.5395538 8.45565801,43.7183063 7.8125,42.5210446 L7.8125,36.2806795 C7.88803105,36.311866 7.95974727,36.3438134 8.03604121,36.375 C12.109375,38.0324544 17.440033,38.9452333 23.046875,38.9452333 C24.3270875,38.9452333 25.6088258,38.8973123 26.8577576,38.8029918 C29.0092469,38.640213 30.620575,36.7697769 30.4573059,34.6255071 C30.2947998,32.4804766 28.4210205,30.8739858 26.2672424,31.036004 C25.2143859,31.1158723 24.1310119,31.1561866 23.046875,31.1561866 C14.0167236,31.1561866 8.80813594,28.5182556 7.89108281,27.2616633 C8.80813594,26.005071 14.0167236,23.36714 23.046875,23.36714 Z M7.8125,51.6640466 C7.88803105,51.6952332 7.95974727,51.7271805 8.03604121,51.7583671 C12.109375,53.4158215 17.440033,54.3286004 23.046875,54.3286004 C24.3270875,54.3286004 25.6088258,54.2806795 26.8577576,54.186359 C26.891327,54.184077 26.9241332,54.1772312 26.9577027,54.173428 C26.9592285,54.2190669 26.9615174,54.2654665 26.9638062,54.3111054 C26.9599914,54.3818459 26.953125,54.4518255 26.953125,54.5233266 L26.953125,61.9381339 C25.6835938,62.0560345 24.3789672,62.1176471 23.046875,62.1176471 C13.7077332,62.1176471 8.45565801,59.2963996 7.8125,58.0991379 L7.8125,51.6640466 Z M7.8125,73.0938135 L7.8125,67.2421399 C7.88803105,67.2733265 7.95974727,67.3052738 8.03604121,67.3364604 C12.109375,68.9939148 17.440033,69.9066937 23.046875,69.9066937 C24.369049,69.9066937 25.6729125,69.854209 26.953125,69.7553245 L26.953125,76.9320487 C25.6835938,77.0499493 24.3789672,77.1115619 23.046875,77.1115619 C13.709259,77.1115619 8.45794687,74.2910751 7.8125,73.0938135 L7.8125,73.0938135 Z M65.234375,84.193205 C64.5889281,85.3904665 59.337616,88.2109533 50,88.2109533 C40.662384,88.2109533 35.4110719,85.3904665 34.765625,84.193205 L34.765625,77.9513185 C34.8411561,77.9832656 34.9128723,78.015213 34.9891662,78.0463995 C39.0625,79.703854 44.393158,80.6166329 50,80.6166329 C51.2802125,80.6166329 52.5619508,80.5687119 53.8108826,80.4743914 C55.9623719,80.3116126 57.5737,78.4411765 57.4104309,76.2969066 C57.2479248,74.1518762 55.3710938,72.5438641 53.2203674,72.7074036 C52.1675109,72.7872719 51.0841369,72.8275862 50,72.8275862 C40.6600953,72.8275862 35.408783,70.0063388 34.765625,68.809077 L34.765625,62.9581643 C34.8411561,62.9893508 34.9128723,63.0212982 34.9891662,63.0524847 C39.0625,64.7099391 44.393158,65.6227181 50,65.6227181 C51.2802125,65.6227181 52.5619508,65.5747971 53.8108826,65.4804766 C55.9623719,65.3176978 57.5737,63.4472617 57.4104309,61.3029918 C57.2479248,59.1579614 55.3710938,57.5507099 53.2203674,57.7134887 C52.1675109,57.793357 51.0841369,57.8336714 50,57.8336714 C40.9690857,57.8336714 35.7612609,55.1957404 34.8449707,53.9391481 C35.760498,52.6825558 40.9690857,50.0446247 50,50.0446247 C59.3475342,50.0446247 64.6011352,52.8711968 65.2366639,54.0661765 C65.2381896,54.1201827 65.2458191,54.1726674 65.2496338,54.2259127 C65.2420043,54.3240364 65.234375,54.4229209 65.234375,54.5233266 L65.234375,84.193205 Z M76.953125,76.5273834 C75.6210328,76.5273834 74.3164062,76.4657708 73.046875,76.3478702 L73.046875,69.173428 C74.3278504,69.2723125 75.6324768,69.3225152 76.953125,69.3225152 C78.2333375,69.3225152 79.5150758,69.2745943 80.7640076,69.1802738 C82.9154969,69.017495 84.526825,67.1470588 84.3635559,65.002789 C84.2010498,62.8577586 82.3234559,61.2489857 80.1734924,61.4132859 C79.1206359,61.4931542 78.0372619,61.5334686 76.953125,61.5334686 C75.6240844,61.5334686 74.317932,61.4726166 73.046875,61.354716 L73.046875,54.5233266 C73.046875,54.4244423 73.0392457,54.3278398 73.0323791,54.2312373 C73.0331422,54.2129817 73.0339051,54.1939656 73.034668,54.17571 C74.3171691,54.2761157 75.6271363,54.3286004 76.953125,54.3286004 C78.2325744,54.3286004 79.5150758,54.2806795 80.7640076,54.186359 C82.914734,54.0235802 84.526825,52.153144 84.3635559,50.0088742 C84.2002869,47.8638438 82.3234559,46.2558317 80.1734924,46.4193711 C79.119873,46.4992394 78.036499,46.5395538 76.953125,46.5395538 C67.6132203,46.5395538 62.3611449,43.7183063 61.71875,42.5210446 L61.71875,36.0859533 C61.793518,36.1171399 61.8659973,36.1490872 61.9422912,36.1802738 C66.015625,37.8377282 71.346283,38.7505071 76.953125,38.7505071 C78.2333375,38.7505071 79.5150758,38.7025862 80.7640076,38.6082657 C82.9154969,38.4454869 84.526825,36.5750507 84.3635559,34.4307809 C84.2010498,32.2857505 82.3234559,30.678499 80.1734924,30.8412778 C79.1206359,30.9211461 78.0372619,30.9614604 76.953125,30.9614604 C67.6132203,30.9614604 62.361908,28.140213 61.71875,26.9429513 L61.71875,20.7025862 C61.7942811,20.7337727 61.8659973,20.7657201 61.9422912,20.7969066 C66.015625,22.4543611 71.346283,23.36714 76.953125,23.36714 C78.2333375,23.36714 79.5150758,23.319219 80.7640076,23.2248985 C82.9154969,23.0621197 84.526825,21.1916836 84.3635559,19.0474137 C84.2010498,16.9023833 82.3265076,15.2966532 80.1734924,15.4579107 C79.1206359,15.537779 78.036499,15.5780933 76.953125,15.5780933 C67.9229736,15.5780933 62.7143859,12.9401623 61.7973328,11.68357 C62.7143859,10.4269777 67.9229736,7.78904665 76.953125,7.78904665 C86.2930297,7.78904665 91.544342,10.6102941 92.1875,11.8075558 L92.1875,72.509635 C91.5420531,73.7068966 86.290741,76.5273834 76.953125,76.5273834 L76.953125,76.5273834 Z" id="Shape"></path>
            </g>
        </g>
    </g>
</svg>