<?xml version="1.0" encoding="UTF-8"?>
<svg width="30px" height="30px" viewBox="0 0 30 30" version="1.1" xmlns="http://www.w3.org/2000/svg" xmlns:xlink="http://www.w3.org/1999/xlink">
    <!-- Generator: Sketch 51.3 (57544) - http://www.bohemiancoding.com/sketch -->
    <title>full-time</title>
    <desc>Created with Sketch.</desc>
    <defs></defs>
    <g id="Jobs" stroke="none" stroke-width="1" fill="none" fill-rule="evenodd">
        <g transform="translate(-548.000000, -841.000000)" fill-rule="nonzero" id="full-time">
            <g transform="translate(548.000000, 841.000000)">
                <path d="M15,1.04938272 C16.8839506,1.04938272 18.7104938,1.41790123 20.4296296,2.14506173 C22.0907407,2.84753086 23.582716,3.8537037 24.8641975,5.13518519 C26.145679,6.41666667 27.1518519,7.90864198 27.854321,9.56975309 C28.5820988,11.2895062 28.9506173,13.1160494 28.9506173,15 C28.9506173,16.8839506 28.5820988,18.7104938 27.8549383,20.4296296 C27.1524691,22.0907407 26.1462963,23.582716 24.8648148,24.8641975 C23.5833333,26.145679 22.091358,27.1518519 20.4302469,27.854321 C18.7104938,28.5820988 16.8839506,28.9506173 15,28.9506173 C13.1160494,28.9506173 11.2895062,28.5820988 9.57037037,27.8549383 C7.90925926,27.1524691 6.41728395,26.1462963 5.13580247,24.8648148 C3.85432099,23.5833333 2.84814815,22.091358 2.14567901,20.4302469 C1.41790123,18.7104938 1.04938272,16.8839506 1.04938272,15 C1.04938272,13.1160494 1.41790123,11.2895062 2.14506173,9.57037037 C2.84753086,7.90925926 3.8537037,6.41728395 5.13518519,5.13580247 C6.41666667,3.85432099 7.90864198,2.84814815 9.56975309,2.14567901 C11.2895062,1.41790123 13.1160494,1.04938272 15,1.04938272 Z M15,0 C6.7154321,0 0,6.7154321 0,15 C0,23.2845679 6.7154321,30 15,30 C23.2845679,30 30,23.2845679 30,15 C30,6.7154321 23.2845679,0 15,0 Z" id="Shape" fill="#72C02C"></path>
                <path d="M14.9845679,4.9691358 C14.6351852,4.9691358 14.3518519,5.25246914 14.3518519,5.60185185 L14.3518519,13.595679 C14.3518519,13.9450617 14.6351852,14.2283951 14.9845679,14.2283951 C15.3339506,14.2283951 15.617284,13.9450617 15.617284,13.595679 L15.617284,5.60185185 C15.617284,5.25246914 15.3339506,4.9691358 14.9845679,4.9691358 Z" id="Shape" fill="#72C02C"></path>
                <path d="M14.8123457,14.3493827 C14.6506173,14.3493827 14.4882716,14.4111111 14.3648148,14.5345679 C14.1179012,14.7814815 14.1179012,15.1820988 14.3648148,15.4296296 L19.3283951,20.3932099 C19.4518519,20.5166667 19.6135802,20.5783951 19.7759259,20.5783951 C19.9382716,20.5783951 20.1,20.5166667 20.2234568,20.3932099 C20.4703704,20.1462963 20.4703704,19.745679 20.2234568,19.4981481 L15.2598765,14.5345679 C15.1364198,14.4117284 14.9746914,14.3493827 14.8123457,14.3493827 Z" id="Shape" fill="#72C02C"></path>
                <circle id="Oval" stroke="#72C02C" stroke-width="0.925925926" fill="#FFFFFF" cx="15" cy="15" r="1.35802469"></circle>
                <circle id="Oval" fill="#72C02C" cx="15" cy="2.71604938" r="1"></circle>
                <circle id="Oval" fill="#72C02C" cx="15" cy="27.2839506" r="1"></circle>
                <circle id="Oval" fill="#72C02C" cx="6.2345679" cy="23.1481481" r="1"></circle>
                <circle id="Oval" fill="#72C02C" cx="23.5802469" cy="23.1481481" r="1"></circle>
                <circle id="Oval" fill="#72C02C" cx="6.2345679" cy="6.91358025" r="1"></circle>
                <circle id="Oval" fill="#72C02C" cx="23.5802469" cy="6.91358025" r="1"></circle>
                <circle id="Oval" fill="#72C02C" cx="2.65432099" cy="15" r="1"></circle>
                <circle id="Oval" fill="#72C02C" cx="27.1604938" cy="15" r="1"></circle>
            </g>
        </g>
    </g>
</svg>