<?xml version="1.0" encoding="UTF-8"?>
<svg width="20px" height="20px" viewBox="0 0 20 20" version="1.1" xmlns="http://www.w3.org/2000/svg" xmlns:xlink="http://www.w3.org/1999/xlink">
    <!-- Generator: Sketch 61.2 (89653) - https://sketch.com -->
    <title>green-check</title>
    <desc>Created with Sketch.</desc>
    <g id="Mockups" stroke="none" stroke-width="1" fill="none" fill-rule="evenodd">
        <g id="GoogleAds-|-Landing" transform="translate(-209.000000, -1155.000000)" fill-rule="nonzero">
            <g id="T-Card" transform="translate(148.000000, 707.000000)">
                <g id="green-check" transform="translate(61.000000, 448.000000)">
                    <path d="M10,0 C4.48577883,0 0,4.48577883 0,10 C0,15.5142212 4.48577883,20 10,20 C15.5142212,20 20,15.5142212 20,10 C20,4.48577883 15.5142212,0 10,0 Z" id="Path" fill="#72C02C"></path>
                    <path d="M15.0683594,7.88085937 L9.65164184,13.2974243 C9.48913574,13.4599304 9.27581789,13.5417175 9.0625,13.5417175 C8.84918211,13.5417175 8.63586426,13.4599304 8.47335816,13.2974243 L5.7650757,10.5891418 C5.43914797,10.2633667 5.43914797,9.73663328 5.7650757,9.41085816 C6.09085082,9.08493043 6.61743164,9.08493043 6.94335938,9.41085816 L9.0625,11.5299988 L13.8900757,6.7025757 C14.2158508,6.37664797 14.7424316,6.37664797 15.0683594,6.7025757 C15.3941345,7.02835082 15.3941345,7.55493164 15.0683594,7.88085937 Z" id="Path" fill="#FAFAFA"></path>
                </g>
            </g>
        </g>
    </g>
</svg>