<?xml version="1.0" encoding="UTF-8"?>
<svg width="96px" height="96px" viewBox="0 0 96 96" version="1.1" xmlns="http://www.w3.org/2000/svg" xmlns:xlink="http://www.w3.org/1999/xlink">
    <!-- Generator: Sketch 61.2 (89653) - https://sketch.com -->
    <title>healthcare</title>
    <desc>Created with Sketch.</desc>
    <g id="Mockups" stroke="none" stroke-width="1" fill="none" fill-rule="evenodd">
        <g id="GoogleAds-|-Landing" transform="translate(-938.000000, -3927.000000)" fill="#72C02C" fill-rule="nonzero">
            <g id="healthcare" transform="translate(938.000000, 3927.000000)">
                <path d="M93.0088421,11.6053333 L68.7214035,11.6053333 C65.4117427,11.6053333 62.3000702,12.8941287 59.9597661,15.2346199 C58.6797661,16.5146199 56.9779649,17.2193684 55.1678129,17.2193684 L50.7164444,17.2193684 L50.7164444,16.3622924 C53.9836257,15.2035556 56.3304795,12.083462 56.3304795,8.42404678 C56.3304795,3.78067836 52.5527953,0.00299415205 47.9094269,0.00299415205 C43.2660585,0.00299415205 39.4883743,3.78067836 39.4883743,8.42404678 C39.4883743,12.083462 41.8352281,15.2035556 45.1024094,16.3622924 L45.1024094,17.2193684 L40.6512281,17.2193684 C38.841076,17.2193684 37.1392749,16.5144327 35.8592749,15.2346199 C33.5189708,12.8943158 30.4072982,11.6053333 27.0976374,11.6053333 L2.8100117,11.6053333 C0.727578947,11.6053333 -0.633637427,13.8015439 0.299415205,15.6676491 C1.94975439,18.0698947 3.55555556,26.2007018 12.3263626,28.1193918 C13.5365614,29.8387836 15.2338713,37.3492398 23.5301053,39.2989942 C24.4227368,40.434152 27.151345,50.9037661 38.0066433,50.9037661 L45.1024094,50.9037661 L45.1024094,56.5178012 L42.2953918,56.5178012 C37.6520234,56.5178012 33.8743392,60.2954854 33.8743392,64.9388538 C33.8743392,69.5822222 37.6520234,73.3599064 42.2953918,73.3599064 L45.1024094,73.3599064 L45.1024094,78.9739415 L42.2953918,78.9739415 C40.7451696,78.9739415 39.4883743,80.2307368 39.4883743,81.7809591 C39.4883743,83.3311813 40.7451696,84.5879766 42.2953918,84.5879766 L45.1024094,84.5879766 L45.1024094,93.0090292 C45.1024094,94.5592515 46.3592047,95.8160468 47.9094269,95.8160468 C49.4596491,95.8160468 50.7164444,94.5592515 50.7164444,93.0090292 L50.7164444,84.5879766 L53.523462,84.5879766 C58.1668304,84.5879766 61.9445146,80.8102924 61.9445146,76.166924 C61.9445146,71.5235556 58.1668304,67.7458713 53.523462,67.7458713 L50.7164444,67.7458713 L50.7164444,62.1318363 L53.523462,62.1318363 C58.1668304,62.1318363 61.9445146,58.354152 61.9445146,53.7107836 C61.9445146,52.5630877 61.7130292,51.4687251 61.295345,50.4707368 C69.414924,48.4143158 71.0325146,41.1012865 72.2887485,39.2989942 C80.5992047,37.3458713 82.2572164,29.8747135 83.4924912,28.1193918 C92.2842573,26.1962105 93.8803275,18.0538012 95.5194386,15.6676491 C96.4509942,13.8049123 95.0950175,11.6053333 93.0088421,11.6053333 Z M47.9094269,5.61702924 C49.4572164,5.61702924 50.7164444,6.87625731 50.7164444,8.42404678 C50.7164444,9.97183626 49.4572164,11.2310643 47.9094269,11.2310643 C46.3616374,11.2310643 45.1024094,9.97183626 45.1024094,8.42404678 C45.1024094,6.87625731 46.3616374,5.61702924 47.9094269,5.61702924 Z M29.9952281,39.6755088 L36.6813567,39.6755088 C38.2315789,39.6755088 39.4883743,38.4187135 39.4883743,36.8684912 C39.4883743,35.318269 38.2315789,34.0614737 36.6813567,34.0614737 L26.7785731,34.0614737 C20.7494737,34.0614737 18.9655205,28.6794854 18.7669708,28.4474386 L31.0671345,28.4474386 C32.6173567,28.4474386 33.874152,27.1906433 33.874152,25.6404211 C33.874152,24.0901988 32.6173567,22.8334035 31.0671345,22.8334035 L15.3635556,22.8334035 C9.33445614,22.8334035 7.55050292,17.4514152 7.35195322,17.2193684 L27.0976374,17.2193684 C28.9077895,17.2193684 30.6095906,17.9243041 31.8895906,19.204117 C34.2298947,21.5444211 37.3415673,22.8334035 40.6512281,22.8334035 L45.1025965,22.8334035 L45.1025965,45.2895439 L38.0068304,45.2895439 C31.977731,45.2895439 30.1937778,39.9075556 29.9952281,39.6755088 Z M53.523462,73.3597193 C55.0712515,73.3597193 56.3304795,74.6189474 56.3304795,76.1667368 C56.3304795,77.7145263 55.0712515,78.9737544 53.523462,78.9737544 L50.7164444,78.9737544 L50.7164444,73.3597193 L53.523462,73.3597193 Z M45.1024094,67.7456842 L42.2953918,67.7456842 C40.7476023,67.7456842 39.4883743,66.4864561 39.4883743,64.9386667 C39.4883743,63.3908772 40.7476023,62.1316491 42.2953918,62.1316491 L45.1024094,62.1316491 L45.1024094,67.7456842 Z M53.523462,56.517614 L50.7164444,56.517614 L50.7164444,50.9035789 L53.523462,50.9035789 C55.0712515,50.9035789 56.3304795,52.162807 56.3304795,53.7105965 C56.3304795,55.258386 55.0712515,56.517614 53.523462,56.517614 Z M80.4554854,22.8334035 L64.7515322,22.8334035 C63.2013099,22.8334035 61.9445146,24.0901988 61.9445146,25.6404211 C61.9445146,27.1906433 63.2013099,28.4474386 64.7515322,28.4474386 L77.0516959,28.4474386 C76.8533333,28.6794854 75.0718129,34.0614737 69.0402807,34.0614737 L59.1374971,34.0614737 C57.5872749,34.0614737 56.3304795,35.318269 56.3304795,36.8684912 C56.3304795,38.4187135 57.5872749,39.6755088 59.1374971,39.6755088 L65.8236257,39.6755088 C65.6252632,39.9075556 63.8437427,45.2895439 57.8122105,45.2895439 C55.333614,45.2895439 53.1486316,45.2895439 50.7164444,45.2895439 L50.7164444,22.8334035 L55.1678129,22.8334035 C58.4774737,22.8334035 61.5891462,21.5446082 63.9294503,19.204117 C65.2094503,17.924117 66.9112515,17.2191813 68.7214035,17.2191813 L88.4670877,17.2191813 C88.2687251,17.4514152 86.4872047,22.8334035 80.4554854,22.8334035 Z" id="Shape"></path>
            </g>
        </g>
    </g>
</svg>