<?xml version="1.0" encoding="utf-8"?>
<!-- Generator: Adobe Illustrator 24.0.1, SVG Export Plug-In . SVG Version: 6.00 Build 0)  -->
<svg version="1.1" id="Layer_1" xmlns="http://www.w3.org/2000/svg" xmlns:xlink="http://www.w3.org/1999/xlink" x="0px" y="0px"
	 viewBox="0 0 622 535" style="enable-background:new 0 0 622 535;" xml:space="preserve">
<style type="text/css">
	.st0{fill:#FFFFFF;}
	.st1{fill:#8CBC4F;}
</style>
<title>STICKER</title>
<g id="Layer_2_1_">
	<g id="Capa_1">
		<g id="STICKER">
			<path class="st0" d="M607.5,87H535V14.1c-0.1-7.9-6.6-14.2-14.5-14.1H356.5c-7.9-0.1-14.4,6.2-14.5,14.1V87h-65V14.1
				c-0.1-7.9-6.6-14.2-14.5-14.1H98.5C90.6-0.1,84.1,6.2,84,14.1V87H14.5C6.6,86.9,0.1,93.2,0,101.1v160.8
				c0.1,7.9,6.6,14.2,14.5,14.1H82v72.9c0.1,7.9,6.6,14.2,14.5,14.1H167v74.9c0.1,7.9,6.6,14.2,14.5,14.1H254v68.9
				c0.1,7.9,6.6,14.2,14.5,14.1h82.1c7.9,0.1,14.4-6.2,14.5-14.1V452h69.5c7.9,0.1,14.4-6.2,14.5-14.1V363h75.5
				c7.9,0.1,14.4-6.2,14.5-14.1V276h68.5c7.9,0.1,14.4-6.2,14.5-14.1V101.1C621.9,93.2,615.4,86.9,607.5,87z"/>
			<path class="st1" d="M289.1,448.1H331c6.9,0,12.5,5.6,12.5,12.5v43c0,6.9-5.6,12.5-12.5,12.5h-41.9c-6.9,0-12.5-5.6-12.5-12.5
				v-43C276.6,453.7,282.2,448.1,289.1,448.1z"/>
			<path class="st1" d="M289.1,362.1H331c6.9,0,12.5,5.6,12.5,12.5v42.9c0,6.9-5.6,12.5-12.5,12.5h-41.9c-6.9,0-12.5-5.6-12.5-12.5
				v-42.9C276.6,367.7,282.2,362.1,289.1,362.1z"/>
			<path class="st1" d="M289.1,276.1H331c6.9,0,12.5,5.6,12.5,12.5v42.9c0,6.9-5.6,12.5-12.5,12.5h-41.9c-6.9,0-12.5-5.6-12.5-12.5
				v-42.9C276.6,281.7,282.2,276.1,289.1,276.1z"/>
			<path class="st1" d="M289.1,190.1H331c6.9,0,12.5,5.6,12.5,12.5v43c0,6.9-5.6,12.5-12.5,12.5h-41.9c-6.9,0-12.5-5.6-12.5-12.5
				v-43C276.6,195.7,282.2,190.1,289.1,190.1z"/>
			<path class="st1" d="M289.1,104.1H331c6.9,0,12.5,5.6,12.5,12.5v43c0,6.9-5.6,12.5-12.5,12.5h-41.9c-6.9,0-12.5-5.6-12.5-12.5
				v-43C276.6,109.7,282.2,104.1,289.1,104.1z"/>
			<path class="st1" d="M203.1,362.1H245c6.9,0,12.5,5.6,12.5,12.5v42.9c0,6.9-5.6,12.5-12.5,12.5h-41.9c-6.9,0-12.5-5.6-12.5-12.5
				v-42.9C190.6,367.7,196.2,362.1,203.1,362.1z"/>
			<path class="st1" d="M203.1,276.1H245c6.9,0,12.5,5.6,12.5,12.5v42.9c0,6.9-5.6,12.5-12.5,12.5h-41.9c-6.9,0-12.5-5.6-12.5-12.5
				v-42.9C190.6,281.7,196.2,276.1,203.1,276.1z"/>
			<path class="st1" d="M203.1,190.1H245c6.9,0,12.5,5.6,12.5,12.5v43c0,6.9-5.6,12.5-12.5,12.5h-41.9c-6.9,0-12.5-5.6-12.5-12.5
				v-43C190.6,195.7,196.2,190.1,203.1,190.1z"/>
			<path class="st1" d="M203.1,104.1H245c6.9,0,12.5,5.6,12.5,12.5v43c0,6.9-5.6,12.5-12.5,12.5h-41.9c-6.9,0-12.5-5.6-12.5-12.5
				v-43C190.6,109.7,196.2,104.1,203.1,104.1z"/>
			<path class="st1" d="M117.1,276.1H159c6.9,0,12.5,5.6,12.5,12.5v42.9c0,6.9-5.6,12.5-12.5,12.5h-41.9c-6.9,0-12.5-5.6-12.5-12.5
				v-42.9C104.6,281.7,110.2,276.1,117.1,276.1z"/>
			<path class="st1" d="M117.1,190.1H159c6.9,0,12.5,5.6,12.5,12.5v43c0,6.9-5.6,12.5-12.5,12.5h-41.9c-6.9,0-12.5-5.6-12.5-12.5
				v-43C104.6,195.7,110.2,190.1,117.1,190.1z"/>
			<path class="st1" d="M117.1,104.1H159c6.9,0,12.5,5.6,12.5,12.5v43c0,6.9-5.6,12.5-12.5,12.5h-41.9c-6.9,0-12.5-5.6-12.5-12.5
				v-43C104.6,109.7,110.2,104.1,117.1,104.1z"/>
			<path class="st1" d="M31.1,190.1H73c6.9,0,12.5,5.6,12.5,12.5v43c0,6.9-5.6,12.5-12.5,12.5H31.1c-6.9,0-12.5-5.6-12.5-12.5v-43
				C18.6,195.7,24.2,190.1,31.1,190.1z"/>
			<path class="st1" d="M31.1,104.1H73c6.9,0,12.5,5.6,12.5,12.5v43c0,6.9-5.6,12.5-12.5,12.5H31.1c-6.9,0-12.5-5.6-12.5-12.5v-43
				C18.6,109.7,24.2,104.1,31.1,104.1z"/>
			<path class="st1" d="M375.1,362.1H417c6.9,0,12.5,5.6,12.5,12.5v42.9c0,6.9-5.6,12.5-12.5,12.5h-41.9c-6.9,0-12.5-5.6-12.5-12.5
				v-42.9C362.6,367.7,368.2,362.1,375.1,362.1z"/>
			<path class="st1" d="M375.1,276.1H417c6.9,0,12.5,5.6,12.5,12.5v42.9c0,6.9-5.6,12.5-12.5,12.5h-41.9c-6.9,0-12.5-5.6-12.5-12.5
				v-42.9C362.6,281.7,368.2,276.1,375.1,276.1z"/>
			<path class="st1" d="M375.1,190.1H417c6.9,0,12.5,5.6,12.5,12.5v43c0,6.9-5.6,12.5-12.5,12.5h-41.9c-6.9,0-12.5-5.6-12.5-12.5
				v-43C362.6,195.7,368.2,190.1,375.1,190.1z"/>
			<path class="st1" d="M375.1,104.1H417c6.9,0,12.5,5.6,12.5,12.5v43c0,6.9-5.6,12.5-12.5,12.5h-41.9c-6.9,0-12.5-5.6-12.5-12.5
				v-43C362.6,109.7,368.2,104.1,375.1,104.1z"/>
			<path class="st1" d="M461.1,276.1H503c6.9,0,12.5,5.6,12.5,12.5v42.9c0,6.9-5.6,12.5-12.5,12.5h-41.9c-6.9,0-12.5-5.6-12.5-12.5
				v-42.9C448.6,281.7,454.2,276.1,461.1,276.1z"/>
			<path class="st1" d="M461.1,190.1H503c6.9,0,12.5,5.6,12.5,12.5v43c0,6.9-5.6,12.5-12.5,12.5h-41.9c-6.9,0-12.5-5.6-12.5-12.5
				v-43C448.6,195.7,454.2,190.1,461.1,190.1z"/>
			<path class="st1" d="M461.1,104.1H503c6.9,0,12.5,5.6,12.5,12.5v43c0,6.9-5.6,12.5-12.5,12.5h-41.9c-6.9,0-12.5-5.6-12.5-12.5
				v-43C448.6,109.7,454.2,104.1,461.1,104.1z"/>
			<path class="st1" d="M203.1,18.1H245c6.9,0,12.5,5.6,12.5,12.5v42.9c0,6.9-5.6,12.5-12.5,12.5h-41.9c-6.9,0-12.5-5.6-12.5-12.5
				V30.6C190.6,23.7,196.2,18.1,203.1,18.1z"/>
			<path class="st1" d="M117.1,18.1H159c6.9,0,12.5,5.6,12.5,12.5v42.9c0,6.9-5.6,12.5-12.5,12.5h-41.9c-6.9,0-12.5-5.6-12.5-12.5
				V30.6C104.6,23.7,110.2,18.1,117.1,18.1z"/>
			<path class="st1" d="M375.1,18.1H417c6.9,0,12.5,5.6,12.5,12.5v42.9c0,6.9-5.6,12.5-12.5,12.5h-41.9c-6.9,0-12.5-5.6-12.5-12.5
				V30.6C362.6,23.7,368.2,18.1,375.1,18.1z"/>
			<path class="st1" d="M461.1,18.1H503c6.9,0,12.5,5.6,12.5,12.5v42.9c0,6.9-5.6,12.5-12.5,12.5h-41.9c-6.9,0-12.5-5.6-12.5-12.5
				V30.6C448.6,23.7,454.2,18.1,461.1,18.1z"/>
			<path class="st1" d="M547.1,190.1H589c6.9,0,12.5,5.6,12.5,12.5v43c0,6.9-5.6,12.5-12.5,12.5h-41.9c-6.9,0-12.5-5.6-12.5-12.5
				v-43C534.6,195.7,540.2,190.1,547.1,190.1z"/>
			<path class="st1" d="M547.1,104.1H589c6.9,0,12.5,5.6,12.5,12.5v43c0,6.9-5.6,12.5-12.5,12.5h-41.9c-6.9,0-12.5-5.6-12.5-12.5
				v-43C534.6,109.7,540.2,104.1,547.1,104.1z"/>
		</g>
	</g>
</g>
</svg>
