<?xml version="1.0" encoding="UTF-8"?>
<svg width="128px" height="128px" viewBox="0 0 128 128" version="1.1" xmlns="http://www.w3.org/2000/svg" xmlns:xlink="http://www.w3.org/1999/xlink">
    <!-- Generator: Sketch 61.2 (89653) - https://sketch.com -->
    <title>hand</title>
    <desc>Created with Sketch.</desc>
    <g id="Mockups" stroke="none" stroke-width="1" fill="none" fill-rule="evenodd">
        <g id="GoogleAds-|-Landing-Copy" transform="translate(-873.000000, -4946.000000)" fill="#72C02C" fill-rule="nonzero">
            <g id="hand" transform="translate(873.000000, 4946.000000)">
                <path d="M105.871,123.7325 C105.406,123.2675 104.76325,123 104.1035,123 C103.446,123 102.801,123.2675 102.336,123.7325 C101.87125,124.1975 101.6035,124.8425 101.6035,125.5 C101.6035,126.1575 101.871,126.8025 102.336,127.2675 C102.801,127.7325 103.446,128 104.1035,128 C104.761,128 105.406,127.7325 105.871,127.2675 C106.3385,126.8025 106.6035,126.1575 106.6035,125.5 C106.6035,124.8425 106.3385,124.1975 105.871,123.7325 Z" id="Path"></path>
                <path d="M126.25475,41.96325 C124.746,39.7615 122.4675,38.294 119.839,37.8305 C115.58375,37.08025 111.4235,39.21325 109.4525,42.8665 L109.4525,16.487 C109.4525,11.142 105.10375,6.79375 99.759,6.79375 C98.01075,6.79375 96.371,7.26125 94.95325,8.07425 C94.18,3.49775 90.19075,0 85.3975,0 C80.60425,0 76.61525,3.49775 75.842,8.07425 C74.42425,7.26125 72.7845,6.79375 71.03625,6.79375 C66.0115,6.79375 61.86825,10.63725 61.39,15.5385 C59.99325,14.7575 58.38575,14.31025 56.675,14.31025 C51.33,14.31025 46.98175,18.65875 46.98175,24.0035 C46.98175,25.38425 48.10125,26.5035 49.48175,26.5035 C50.86225,26.5035 51.98175,25.38425 51.98175,24.0035 C51.98175,21.4155 54.08725,19.31025 56.675,19.31025 C59.0985,19.31025 61.09875,21.157 61.343,23.51725 L61.343,30.18225 C61.343,31.563 62.4625,32.68225 63.843,32.68225 C65.2235,32.68225 66.343,31.563 66.343,30.18225 L66.343,16.48725 C66.343,13.89925 68.4485,11.794 71.03625,11.794 C73.45975,11.794 75.46,13.64075 75.70425,16.001 L75.70425,35.45075 C75.70425,35.5655 75.72975,36.3965 75.72975,36.3965 C75.72975,37.77725 76.84925,38.8965 78.22975,38.8965 C79.61025,38.8965 80.72975,37.77725 80.72975,36.3965 L80.72975,16.487 C80.72975,16.26325 80.71925,16.04175 80.70425,15.82175 L80.70425,9.69325 C80.70425,7.10525 82.80975,5 85.3975,5 C87.98525,5 90.09075,7.1055 90.09075,9.69325 L90.09075,15.82175 C90.07575,16.04175 90.06525,16.26325 90.06525,16.487 L90.06525,51.64525 C90.06525,53.026 91.18475,54.14525 92.56525,54.14525 C93.94575,54.14525 95.06525,53.026 95.06525,51.64525 L95.09075,16.0005 C95.335,13.64025 97.33525,11.7935 99.759,11.7935 C102.347,11.7935 104.45225,13.899 104.45225,16.48675 L104.45225,53.4675 C104.45225,55.296 105.77,56.7825 107.58525,57.00175 C109.399,57.222 111.034,56.09125 111.46975,54.315 L113.4155,46.377 C114.02225,43.90325 116.45975,42.31125 118.9705,42.75425 C120.265,42.9825 121.387,43.70525 122.13025,44.7895 C122.87325,45.87375 123.1425,47.18125 122.888,48.471 L119.1215,67.57175 C117.85725,73.98325 114.743,79.811 110.116,84.42525 L102.33925,92.18 C101.86875,92.649 101.6045,93.286 101.6045,93.95025 L101.6045,116.25 C101.6045,117.63075 102.724,118.75 104.1045,118.75 C105.485,118.75 106.6045,117.63075 106.6045,116.25 L106.6045,94.988 L113.64675,87.966 C118.9805,82.64725 122.57,75.9295 124.0275,68.53925 L127.794,49.4385 C128.31025,46.81975 127.7635,44.165 126.25475,41.96325 Z" id="Path"></path>
                <path d="M74.148,77.25 C72.7675,77.25 71.648,78.36925 71.648,79.75 L71.648,87.082 C71.648,95.30425 68.4415,103.03 62.619,108.836 L57.88175,113.55975 C57.41125,114.02875 57.147,114.66575 57.147,115.33 L57.147,125.5 C57.147,126.88075 58.2665,128 59.647,128 C61.0275,128 62.147,126.88075 62.147,125.5 L62.147,116.36775 L66.1495,112.37675 C72.91975,105.626 76.64825,96.64275 76.64825,87.08225 L76.64825,79.75 C76.648,78.36925 75.52875,77.25 74.148,77.25 Z" id="Path"></path>
                <path d="M75.91575,69.1075 C75.45075,68.6425 74.80575,68.375 74.14825,68.375 C73.49075,68.375 72.84575,68.6425 72.381,69.1075 C71.916,69.5725 71.64825,70.2175 71.64825,70.875 C71.64825,71.5325 71.91575,72.1775 72.381,72.6425 C72.84575,73.1075 73.49075,73.375 74.14825,73.375 C74.80575,73.375 75.45075,73.1075 75.91575,72.6425 C76.38075,72.1775 76.64825,71.5325 76.64825,70.875 C76.64825,70.2175 76.381,69.5725 75.91575,69.1075 Z" id="Path"></path>
                <path d="M67.36825,40.126 C65.8065,40.126 64.33475,40.5155 63.04225,41.19975 C62.48625,36.6105 58.56975,33.042 53.83275,33.042 C52.232,33.042 50.72475,33.4495 49.409,34.16625 C48.587,29.88475 44.81525,26.639 40.2975,26.639 C35.77975,26.639 32.00775,29.88475 31.186,34.16625 C29.87025,33.4495 28.36275,33.042 26.762,33.042 C21.64525,33.042 17.4825,37.20475 17.4825,42.32175 L17.4825,66.6475 C15.50425,63.43925 11.7,61.611 7.812,62.296 C5.29625,62.7395 3.1155,64.1445 1.67125,66.25175 C0.227,68.359 -0.296,70.89975 0.198,73.406 L3.748,91.40825 C5.12725,98.40175 8.524,104.7585 13.5715,109.79175 L20.16625,116.36775 L20.16625,125.5 C20.16625,126.88075 21.28575,128 22.66625,128 C24.04675,128 25.16625,126.88075 25.16625,125.5 L25.16625,115.33 C25.16625,114.66575 24.90175,114.02875 24.4315,113.55975 L17.10225,106.251 C12.76125,101.92225 9.83975,96.45525 8.65375,90.44075 L5.10375,72.4385 C4.87175,71.26125 5.1175,70.06775 5.79575,69.078 C6.47425,68.08825 7.49875,67.42825 8.68025,67.22 C10.97025,66.816 13.19725,68.26875 13.751,70.527 L15.585,78.0085 C16.01275,79.754 17.61575,80.86575 19.40275,80.64925 C21.18725,80.43375 22.48225,78.97275 22.48225,77.1755 L22.48225,42.3215 C22.48225,39.96175 24.40225,38.04175 26.762,38.04175 C28.97,38.04175 30.7925,39.723 31.0175,41.87275 L31.0175,60.194 C31.0175,61.57475 32.137,62.694 33.5175,62.694 C33.5215,62.694 33.5255,62.6935 33.5295,62.6935 C33.5335,62.6935 33.5375,62.694 33.5415,62.694 C34.922,62.694 36.0415,61.57475 36.0415,60.194 L36.0415,42.32125 C36.0415,42.10875 36.03175,41.8985 36.0175,41.6895 L36.0175,35.91825 C36.0175,33.5585 37.9375,31.6385 40.29725,31.6385 C42.657,31.6385 44.577,33.55825 44.577,35.91825 L44.577,41.6895 C44.56275,41.8985 44.553,42.10875 44.553,42.32125 L44.553,60.194 C44.553,61.57475 45.6725,62.694 47.053,62.694 C47.057,62.694 47.061,62.6935 47.065,62.6935 C47.069,62.6935 47.073,62.694 47.077,62.694 C48.4575,62.694 49.577,61.57475 49.577,60.194 L49.577,41.87275 C49.802,39.723 51.62425,38.04175 53.8325,38.04175 C56.19225,38.04175 58.11225,39.9615 58.11225,42.3215 L58.0885,60.19425 C58.0885,61.575 59.208,62.69425 60.5885,62.69425 C60.5925,62.69425 60.5965,62.69375 60.6005,62.69375 C60.6045,62.69375 60.6085,62.69425 60.6125,62.69425 C61.993,62.69425 63.1125,61.575 63.1125,60.19425 L63.1125,48.957 C63.3375,46.80725 65.16,45.126 67.36825,45.126 C69.728,45.126 71.648,47.04575 71.648,49.40575 L71.648,61.0835 C71.648,62.46425 72.7675,63.5835 74.148,63.5835 C75.5285,63.5835 76.648,62.46425 76.648,61.0835 L76.648,49.40575 C76.648,44.289 72.48525,40.126 67.36825,40.126 Z" id="Path"></path>
                <path d="M37.219,13.92075 L24.037,0.73875 C23.06075,-0.2375 21.47825,-0.2375 20.50125,0.73875 C19.525,1.715 19.525,3.298 20.50125,4.27425 L33.6835,17.45625 C34.17175,17.9445 34.8115,18.1885 35.45125,18.1885 C36.091,18.1885 36.73075,17.94425 37.219,17.45625 C38.19525,16.48 38.19525,14.897 37.219,13.92075 Z" id="Path"></path>
                <path d="M28.37575,20.62025 L22.27525,20.62025 C20.89475,20.62025 19.77525,21.7395 19.77525,23.12025 C19.77525,24.501 20.89475,25.62025 22.27525,25.62025 L28.37575,25.62025 C29.75625,25.62025 30.87575,24.501 30.87575,23.12025 C30.87575,21.7395 29.75625,20.62025 28.37575,20.62025 Z" id="Path"></path>
                <path d="M42.7685,0 C41.388,0 40.2685,1.11925 40.2685,2.5 L40.2685,8.8045 C40.2685,10.18525 41.38775,11.3045 42.7685,11.3045 C44.149,11.3045 45.2685,10.18525 45.2685,8.8045 L45.2685,2.5 C45.2685,1.11925 44.149,0 42.7685,0 Z" id="Path"></path>
            </g>
        </g>
    </g>
</svg>