<?xml version="1.0" encoding="UTF-8"?>
<svg width="95px" height="96px" viewBox="0 0 95 96" version="1.1" xmlns="http://www.w3.org/2000/svg" xmlns:xlink="http://www.w3.org/1999/xlink">
    <!-- Generator: Sketch 61.2 (89653) - https://sketch.com -->
    <title>iot-purple</title>
    <desc>Created with Sketch.</desc>
    <g id="Mockups" stroke="none" stroke-width="1" fill="none" fill-rule="evenodd">
        <g id="GoogleAds-|-Landing" transform="translate(-994.000000, -3709.000000)" fill="#4F4959" fill-rule="nonzero">
            <g id="iot-purple" transform="translate(994.000000, 3709.000000)">
                <path d="M57.3043633,55.4936199 C56.1720026,56.6398645 55.0021658,57.7341069 53.8712746,58.7917283 C50.2059822,62.2202081 46.7001461,65.5014706 45.3150066,69.7502661 L40.5386632,69.7502661 L40.5386632,36.3751388 C40.5386632,35.380506 40.1425941,34.4268891 39.4371649,33.7230291 L31.9125871,26.2230005 C30.442943,24.7588835 28.0606499,24.7588835 26.5917406,26.2230005 L19.0671627,33.7230291 C17.5975186,35.1878784 17.5975186,37.5623991 19.0671627,39.0265161 C20.5360721,40.4913654 22.9183651,40.4913654 24.3880092,39.0265161 L29.2517964,34.1785971 L33.0140854,37.9286114 L33.0140854,69.7502661 L28.2524384,69.7502661 C26.8672989,65.5014706 23.3614628,62.2202081 19.6961704,58.7917283 C13.7588082,53.237752 7.61863509,47.4948102 7.61863509,36.2381753 C7.61863509,28.6114373 10.6453672,21.4168297 16.1411014,15.9785766 C21.663289,10.5154209 28.951989,7.51101503 36.691135,7.50076099 L36.7822529,7.50076099 L36.8564699,7.50076099 C42.3154629,7.50515563 47.6436577,9.02859894 52.2781804,11.9136196 C52.8976355,12.2996074 53.5868985,12.4834461 54.2673438,12.4834461 C55.5216851,12.4834461 56.7488378,11.8579555 57.4623501,10.7190351 C58.5623787,8.96268063 58.0259587,6.64895124 56.2638553,5.55177899 C50.475662,1.948982 43.8299313,0.0351563841 37.0151914,0.00146484934 C37.0122521,0.00146484934 37.0093129,0.00146484934 37.0063736,0.00146484934 C36.9777155,1.06581817e-14 36.9483226,1.06581817e-14 36.9196647,1.06581817e-14 C36.8902718,1.06581817e-14 36.8616137,1.06581817e-14 36.8329556,1.06581817e-14 C36.8160548,1.06581817e-14 36.7984191,1.06581817e-14 36.7815181,1.06581817e-14 C36.7638824,1.06581817e-14 36.7462467,1.06581817e-14 36.7286109,1.06581817e-14 C36.7109752,1.06581817e-14 36.6940742,1.06581817e-14 36.6764385,1.06581817e-14 C36.637493,1.06581817e-14 36.5992822,1.06581817e-14 36.5603365,1.06581817e-14 C36.5537232,1.06581817e-14 36.5471098,0.00219728338 36.5397617,0.00219728338 C26.8584811,0.0505372553 17.7466875,3.82252439 10.840095,10.6560465 C3.90998812,17.5122739 0.0940572233,26.5972693 0.0940572233,36.2381753 C0.0940572233,50.7416487 8.44751437,58.5551551 14.5465374,64.2607431 C18.7658856,68.2070473 21.3509897,70.7734633 21.3509897,73.6877811 L21.3509897,84.7503233 C21.3509897,90.9539603 26.4139136,96.0003662 32.6378565,96.0003662 L41.1030066,96.0003662 C47.3269495,96.0003662 52.3898734,90.9539603 52.3898734,84.7503233 L52.3898734,73.3127797 C52.3898734,73.0857279 52.3663591,72.8652681 52.3274136,72.649203 C52.862364,70.1362539 55.3085866,67.7324361 59.0201728,64.2607431 C60.203971,63.153317 61.4289195,62.0078049 62.6648902,60.7568235 C64.123512,59.2809878 64.1051415,56.9071995 62.6252098,55.4533365 C61.1438085,54.000206 58.7622503,54.0177842 57.3043633,55.4936199 Z M41.1030066,88.5003376 L32.6378565,88.5003376 C30.5634538,88.5003376 28.8755676,86.8179582 28.8755676,84.7503233 L28.8755676,77.2502947 L44.8652955,77.2502947 L44.8652955,84.7503233 C44.8652955,86.8179582 43.1774093,88.5003376 41.1030066,88.5003376 Z M75.1517214,49.6876895 C75.1517214,51.7589865 73.4675093,53.4377038 71.3894325,53.4377038 C69.3113557,53.4377038 67.6271436,51.7589865 67.6271436,49.6876895 C67.6271436,47.6163926 69.3113557,45.9376752 71.3894325,45.9376752 C73.4675093,45.9376752 75.1517214,47.6163926 75.1517214,49.6876895 Z M93.8514731,31.0240442 C92.3788897,32.4844989 89.9958617,32.4779071 88.5313614,31.0093955 C83.7792671,26.2471704 77.6692217,23.6250901 71.3240334,23.6250901 C64.9781101,23.6250901 58.8665951,26.2471704 54.1174401,31.0093955 C53.3818832,31.7462149 52.4155922,32.1146245 51.4493011,32.1146245 C50.4896236,32.1146245 49.5306807,31.7513419 48.7965936,31.0240442 C47.3225405,29.5643217 47.3159271,27.189801 48.7811622,25.7212896 C54.9536675,19.5330335 62.9595538,16.1250615 71.3240334,16.1250615 C79.6863084,16.1250615 87.6921945,19.5330335 93.8661696,25.7205571 C95.3314048,27.1890685 95.3247913,29.5635893 93.8514731,31.0240442 Z M84.1892979,35.8397363 C85.6596768,37.3031209 85.6611466,39.6776415 84.192972,41.1424909 C83.45815,41.8756481 82.4940634,42.2425934 81.5307116,42.2425934 C80.5688296,42.2425934 79.6069476,41.8771129 78.8721255,41.1454206 C76.8763488,39.1590849 73.9399999,37.8751445 71.390902,37.8751445 L71.3901673,37.8751445 L71.2130752,37.8751445 C71.2123404,37.8751445 71.2123404,37.8751445 71.2116056,37.8751445 C68.6323801,37.8751445 65.6776607,39.1590849 63.681884,41.1454206 C62.2115051,42.6095375 59.8292119,42.6080728 58.3610375,41.1424909 C56.8928629,39.6776415 56.8935977,37.3031209 58.3639766,35.8390039 C61.7493019,32.4683855 66.6718749,30.3751159 71.2116056,30.3751159 L71.21381,30.3751159 L71.3894325,30.3751159 L71.391637,30.3751159 C75.9005051,30.3751159 80.8039727,32.4683855 84.1892979,35.8397363 Z" id="Shape"></path>
            </g>
        </g>
    </g>
</svg>