<svg xmlns="http://www.w3.org/2000/svg" viewBox="0 0 300 150"><title>logo-xsolis</title><path d="M121.2,102,112,88h-.27l-9.16,14H94.76l12.79-19.13L95.67,64.73h7.78l8.31,12.58H112l8.31-12.58h7.79L116.24,82.85,129,102Z" style="fill:#cfd3da"/><path d="M146.49,69.63A8.3,8.3,0,0,0,142,70.75a3.76,3.76,0,0,0-1.76,3.39A3.94,3.94,0,0,0,142,77.6q1.76,1.2,7.49,2.58t8.63,3.9Q161,86.59,161,91.46a9.77,9.77,0,0,1-3.68,7.91q-3.68,3-9.65,3a22.67,22.67,0,0,1-15.5-6l3.94-4.75q5.65,4.9,11.72,4.91a8,8,0,0,0,4.83-1.31,4.07,4.07,0,0,0,1.78-3.46,3.89,3.89,0,0,0-1.68-3.36A17.54,17.54,0,0,0,147,86.23a51,51,0,0,1-6.23-1.81A13.91,13.91,0,0,1,137,82.26c-2.2-1.67-3.3-4.22-3.3-7.67a9.34,9.34,0,0,1,3.76-8,15.09,15.09,0,0,1,9.3-2.8A22,22,0,0,1,153.81,65a18.53,18.53,0,0,1,6.08,3.3L156.53,73a12.72,12.72,0,0,0-4.48-2.45A17.17,17.17,0,0,0,146.49,69.63Z" style="fill:#cfd3da"/><path d="M200.18,96.84a20.42,20.42,0,0,1-27.93,0,18.46,18.46,0,0,1-5.65-13.75,18.46,18.46,0,0,1,5.65-13.75,20.42,20.42,0,0,1,27.93,0,18.42,18.42,0,0,1,5.65,13.75A18.42,18.42,0,0,1,200.18,96.84Zm-4.61-23.32a13.08,13.08,0,0,0-18.71,0,13.92,13.92,0,0,0,0,19.14,13.08,13.08,0,0,0,18.71,0,13.92,13.92,0,0,0,0-19.14Z" style="fill:#cfd3da"/><path d="M214,102V64.73h6.28V96h17v6Z" style="fill:#cfd3da"/><path d="M244.36,64.73h6.29V102h-6.29Z" style="fill:#cfd3da"/><path d="M272.48,69.63A8.35,8.35,0,0,0,268,70.75a3.76,3.76,0,0,0-1.76,3.39A3.94,3.94,0,0,0,268,77.6c1.18.8,3.67,1.66,7.49,2.58a20.71,20.71,0,0,1,8.64,3.9q2.89,2.51,2.9,7.38a9.77,9.77,0,0,1-3.68,7.91,14.61,14.61,0,0,1-9.64,3,22.67,22.67,0,0,1-15.51-6l3.94-4.75q5.65,4.9,11.73,4.91a8,8,0,0,0,4.82-1.31,4.07,4.07,0,0,0,1.78-3.46,3.88,3.88,0,0,0-1.67-3.36A17.71,17.71,0,0,0,273,86.23a51,51,0,0,1-6.23-1.81A14.06,14.06,0,0,1,263,82.26c-2.2-1.67-3.3-4.22-3.3-7.67a9.34,9.34,0,0,1,3.76-8,15.09,15.09,0,0,1,9.3-2.8A22.1,22.1,0,0,1,279.81,65a18.48,18.48,0,0,1,6.07,3.3L282.52,73a12.76,12.76,0,0,0-4.47-2.45A17.27,17.27,0,0,0,272.48,69.63Z" style="fill:#cfd3da"/><path d="M87.45,75A37.23,37.23,0,0,0,17.63,57H29.71L40.59,71.11,51.46,57H71.52L49.77,82.94,69.21,107A37.19,37.19,0,0,0,87.45,75Z" style="fill:#cfd3da"/><path d="M14.52,64.47a37.21,37.21,0,0,0,5.09,31.7L30.23,82.94Z" style="fill:#cfd3da"/><path d="M29.78,106.1a37,37,0,0,0,20.44,6.12c1.19,0,2.37-.06,3.53-.17L38.89,94.39Z" style="fill:#cfd3da"/></svg>