<svg xmlns="http://www.w3.org/2000/svg" viewBox="0 0 300 150"><title>logo-cisco</title><rect x="90.56" y="98.73" width="12" height="47.57" style="fill:#cfd3da"/><path d="M199.33,112.37a20.78,20.78,0,0,0-10.08-2.56c-7.77,0-13.16,5.43-13.16,12.69,0,7.07,5.16,12.7,13.16,12.7a21.21,21.21,0,0,0,10.08-2.52v12.77a38.15,38.15,0,0,1-10.93,1.69c-13.51,0-25.35-9.31-25.35-24.64,0-14.21,10.73-24.61,25.35-24.61a36.67,36.67,0,0,1,10.93,1.7Z" style="fill:#cfd3da"/><path d="M74.06,112.37A20.87,20.87,0,0,0,64,109.81c-7.79,0-13.16,5.43-13.16,12.69,0,7.07,5.15,12.7,13.16,12.7a21.3,21.3,0,0,0,10.08-2.52v12.77a38.14,38.14,0,0,1-11,1.69c-13.48,0-25.32-9.31-25.32-24.64,0-14.21,10.72-24.61,25.32-24.61a37,37,0,0,1,11,1.7Z" style="fill:#cfd3da"/><path d="M262.22,122.5c0,13.61-10.49,24.64-25.12,24.64S212,136.11,212,122.5s10.49-24.6,25.12-24.6,25.12,11,25.12,24.6M237.1,110a12.52,12.52,0,1,0,12.42,12.5A12.3,12.3,0,0,0,237.1,110" style="fill:#cfd3da"/><path d="M148.08,109.54a41.31,41.31,0,0,0-9.38-1.46c-4.82,0-7.42,1.62-7.42,3.92,0,2.88,3.53,3.89,5.49,4.52l3.32,1c7.78,2.47,11.33,7.81,11.33,13.6,0,12-10.51,16-19.7,16a72.92,72.92,0,0,1-13-1.29v-11a44.84,44.84,0,0,0,11.34,1.77c6,0,8.72-1.74,8.72-4.45,0-2.4-2.38-3.79-5.34-4.72l-2.58-.84c-6.67-2.1-12.26-6-12.26-13.91,0-8.89,6.66-14.87,17.74-14.87a50.84,50.84,0,0,1,11.69,1.52Z" style="fill:#cfd3da"/><path d="M25,47.61a6,6,0,0,0-11.92,0V60.09a6,6,0,0,0,11.92,0Z" style="fill:#cfd3da"/><path d="M57.79,31.22a6,6,0,0,0-11.92,0V60.09a6,6,0,0,0,11.92,0Z" style="fill:#cfd3da"/><path d="M90.51,8.8a6,6,0,0,0-11.92,0V72a6,6,0,1,0,11.92,0Z" style="fill:#cfd3da"/><path d="M123.25,31.22a6,6,0,0,0-11.91,0V60.09a6,6,0,0,0,11.91,0Z" style="fill:#cfd3da"/><path d="M155.94,47.61a5.94,5.94,0,1,0-11.88,0V60.09a5.94,5.94,0,1,0,11.88,0Z" style="fill:#cfd3da"/><path d="M188.7,31.22a5.94,5.94,0,1,0-11.88,0V60.09a5.94,5.94,0,1,0,11.88,0Z" style="fill:#cfd3da"/><path d="M221.45,8.8a5.95,5.95,0,0,0-11.89,0V72a5.95,5.95,0,1,0,11.89,0Z" style="fill:#cfd3da"/><path d="M254.19,31.22a6,6,0,0,0-11.95,0V60.09a6,6,0,0,0,11.95,0Z" style="fill:#cfd3da"/><path d="M286.88,47.61a5.94,5.94,0,1,0-11.88,0V60.09a5.94,5.94,0,1,0,11.88,0Z" style="fill:#cfd3da"/><polygon points="280 140.03 280 140.77 277.9 140.77 277.9 146.29 277.01 146.29 277.01 140.77 274.88 140.77 274.88 140.03 280 140.03" style="fill:#cfd3da"/><polygon points="280.45 140.03 281.81 140.03 283.69 145.15 283.73 145.15 285.55 140.03 286.88 140.03 286.88 146.29 285.98 146.29 285.98 141.17 285.95 141.17 284.04 146.29 283.21 146.29 281.36 141.17 281.33 141.17 281.33 146.29 280.45 146.29 280.45 140.03" style="fill:#cfd3da"/></svg>