<svg xmlns="http://www.w3.org/2000/svg" viewBox="0 0 300 150"><title>logo-servpro</title><polyline points="48.3 102.06 250.8 102.1 260.16 86.69 276.72 91.33 278.74 86.22 151.54 47.9 21.26 86.69 22.93 91.07 38.55 86.69 48.3 102.06" style="fill:#cfd3da"/><path d="M81.6,88.5h5v.17A1.47,1.47,0,0,0,87.13,90a3.7,3.7,0,0,0,2,.38h1.28a3.29,3.29,0,0,0,1.68-.3,1.09,1.09,0,0,0,.47-1v-.77a1,1,0,0,0-.39-.9A5,5,0,0,0,90.44,87l-4.17-.43a5.52,5.52,0,0,1-3.43-1.33,4.39,4.39,0,0,1-1.07-3.26V80.86a5.1,5.1,0,0,1,.43-2.19,4.12,4.12,0,0,1,1.24-1.59,4.21,4.21,0,0,1,1.72-.73,16.82,16.82,0,0,1,3-.21h3.09a7.56,7.56,0,0,1,4.42,1.07,3.45,3.45,0,0,1,1.55,3.05v1.2h-5v-.17a1.26,1.26,0,0,0-.39-1.08,2.5,2.5,0,0,0-1.46-.3h-1.2a3.74,3.74,0,0,0-1.67.26,1,1,0,0,0-.47.9v.73c0,.65.68,1,2.1,1.16l3.82.39a6.86,6.86,0,0,1,3.69,1.28,3.68,3.68,0,0,1,1.2,3v1.67a4.38,4.38,0,0,1-1.5,3.47,5.87,5.87,0,0,1-4,1.29H88.16c-2.27,0-3.9-.34-4.93-1.07a3.79,3.79,0,0,1-1.55-3.35V88.5" style="fill:#fff"/><polyline points="100.86 93.9 100.86 76.44 115.41 76.44 115.41 80.34 106.06 80.34 106.06 83.35 115.11 83.35 115.11 86.74 106.06 86.74 106.06 90 115.58 90 115.58 93.9 100.86 93.9" style="fill:#fff"/><path d="M124.29,93.9V88.84h2.88a2.64,2.64,0,0,1,1.76.43,2,2,0,0,1,.47,1.5V93.9h5.32V90.3a3.29,3.29,0,0,0-.9-2.49A4.81,4.81,0,0,0,131,86.65a4.39,4.39,0,0,0,2.79-1.2,3.88,3.88,0,0,0,.94-2.79V81.24A4.12,4.12,0,0,0,133,77.51c-1.12-.69-3.14-1.07-6.14-1.07H119.1V93.9h5.19m0-13.56h2.88a2.64,2.64,0,0,1,1.76.43,2.07,2.07,0,0,1,.47,1.55V83a2,2,0,0,1-.47,1.51,2.88,2.88,0,0,1-1.76.42h-2.88V80.34" style="fill:#fff"/><polyline points="136.22 76.44 141.76 76.44 145.49 90.08 149.4 76.44 154.89 76.44 149.4 93.9 141.55 93.9 136.22 76.44" style="fill:#fff"/><path d="M162.53,93.9V89.27h3.86c2.53,0,4.38-.47,5.5-1.37s1.67-2.41,1.67-4.47V82.27a5.56,5.56,0,0,0-1.63-4.46c-1.12-.9-2.92-1.37-5.49-1.37h-9.1V93.9h5.19m0-13.56h3.39a2.71,2.71,0,0,1,1.76.43,1.87,1.87,0,0,1,.52,1.5v1a2.39,2.39,0,0,1-.43,1.68,2.52,2.52,0,0,1-1.68.43h-3.6V80.34" style="fill:#fff"/><path d="M181.67,93.9V88.84h2.88a2.62,2.62,0,0,1,1.75.43,1.92,1.92,0,0,1,.48,1.5V93.9h5.32V90.3a3.29,3.29,0,0,0-.9-2.49,4.84,4.84,0,0,0-2.88-1.16,4.34,4.34,0,0,0,2.79-1.2,3.84,3.84,0,0,0,.95-2.79V81.24a4.11,4.11,0,0,0-1.68-3.73c-1.11-.69-3.13-1.07-6.13-1.07h-7.77V93.9h5.19m0-13.56h2.88a2.62,2.62,0,0,1,1.75.43,2,2,0,0,1,.48,1.55V83a1.94,1.94,0,0,1-.48,1.51,2.87,2.87,0,0,1-1.75.42h-2.88V80.34" style="fill:#fff"/><path d="M194.93,87c0,2.67.56,4.51,1.63,5.54s3,1.59,5.75,1.59h2.53c2.75,0,4.68-.52,5.75-1.59s1.68-2.92,1.68-5.54V83.35q0-4-1.68-5.54c-1.11-1.07-3-1.59-5.75-1.59h-2.53c-2.74,0-4.63.52-5.75,1.59s-1.63,2.92-1.63,5.54V87m5.84-6.09a3.3,3.3,0,0,1,2.31-.6H204a3.26,3.26,0,0,1,2.32.6c.38.39.55,1.33.55,2.83v2.88c0,1.46-.17,2.4-.55,2.79A3.39,3.39,0,0,1,204,90h-.95a3.52,3.52,0,0,1-2.31-.56c-.39-.39-.56-1.33-.56-2.83V83.73a4.73,4.73,0,0,1,.56-2.83" style="fill:#fff"/><path d="M217.59,78.8H217V78h.72c.43,0,.65.13.65.39s-.26.43-.73.43M219,80.34v-.43a1.14,1.14,0,0,0-.35-.81.84.84,0,0,0,.39-.73c0-.69-.43-1-1.29-1h-1.54v3.39H217V79.44h.64a.93.93,0,0,1,.6.13.8.8,0,0,1,.13.56.76.76,0,0,0,0,.34.47.47,0,0,0,.13.26h.69l-.17-.39m1.2-3.9a3.57,3.57,0,0,0-2.66-1.08A3.67,3.67,0,0,0,213.86,79a3.65,3.65,0,0,0,3.69,3.69,3.43,3.43,0,0,0,2.61-1.07A3.54,3.54,0,0,0,221.24,79a3.06,3.06,0,0,0-1-2.57m-.52,4.68a3,3,0,0,1-2.1.85,3.12,3.12,0,0,1-2.15-.85,2.88,2.88,0,0,1-.9-2.11,2.8,2.8,0,0,1,.9-2.1,3,3,0,0,1,2.11-.86,2.92,2.92,0,0,1,2.1.86,2.76,2.76,0,0,1,.86,2.1,2.6,2.6,0,0,1-.82,2.11" style="fill:#fff"/></svg>