<svg xmlns="http://www.w3.org/2000/svg" viewBox="0 0 300 150"><title>logo-fitchratings</title><path d="M28.27,74.58c-.22-7.31-2.41-7.37-7.42-7.37H18.38V85.49h5.06v1.18H7.08V85.49h5.06V48.16H7.08V47H35.69l.68,11.25h-1c-.56-3.37-1.46-6.46-3.82-8.43-2-1.69-3.76-1.63-7.87-1.63H18.38V66h2.36c4.5-.06,6.13-.12,6.91-2.53a21.17,21.17,0,0,0,.57-5.06h1.07V74.58Z" style="fill:#cfd3da"/><path d="M43.64,47.87a3.32,3.32,0,1,1-3.32,3.32,3.29,3.29,0,0,1,3.32-3.32M37.4,63.5h9.1v22h3.66v1.18H37.34V85.49h3.88V64.68H37.4Z" style="fill:#cfd3da"/><path d="M65.92,64.68h-6V81.44c0,1.74-.06,4.1,2.75,4.1s3.21-2.3,3.38-3.2h1.23c-.28,1.35-1.06,5-6.29,5-2.76,0-5-1.07-5.85-3.32-.45-1.06-.45-2.3-.45-5.17V64.68H51V63.9a14,14,0,0,0,5.17-4.22,12,12,0,0,0,2.87-5.51h.84v9.34h6Z" style="fill:#cfd3da"/><path d="M89.69,79.13c-.79,4-3.77,8.21-9.84,8.21a11.71,11.71,0,0,1-11.58-12A12.23,12.23,0,0,1,80.53,62.83c5.23,0,8.43,3.26,8.43,6.07a3,3,0,0,1-2.87,3.15,2.79,2.79,0,0,1-2.64-3,3.79,3.79,0,0,1,1.12-2.64c.18-.23.29-.34.29-.56,0-.51-1.41-1.92-4.44-1.92a5,5,0,0,0-5.06,3.15c-.9,2.19-1,7.37-1,9.9A18.08,18.08,0,0,0,75,82.62,4.93,4.93,0,0,0,80,86.1c4.73,0,7.48-3.59,8.27-7Z" style="fill:#cfd3da"/><path d="M90.81,47h8.94V66.82a10.38,10.38,0,0,1,8.54-4c3.15,0,5.23,1.07,6.3,2.25,1.29,1.46,1.35,3.76,1.35,5.28V85.48h3.71v1.19H106.83V85.48h3.6V70c0-2.37,0-5.52-3.77-5.52a6.13,6.13,0,0,0-4.94,2.42c-1.75,2.25-1.86,4.5-2,9v9.5h3.6v1.19H90.53V85.48h3.76V48.16H90.81Z" style="fill:#cfd3da"/><path d="M133.9,48.21v16.7h2c2.42,0,5.79,0,7.81-1.46s2.7-4.16,2.7-6.75A11,11,0,0,0,145,51c-2-2.81-5.73-2.76-9.16-2.76Zm23.55,37.73a9.1,9.1,0,0,1-4.22,1,8,8,0,0,1-5.39-2c-2.7-2.36-2.81-5.73-2.87-8.83l-.11-2.47c-.11-2.25-.34-5.45-3.65-6.8-1.63-.68-3.43-.73-7.26-.62V85.48h5v1.19H122.6V85.48h5.06V48.16h-5.23V47H138c4.44,0,8.6.06,11.86,2.42a8.13,8.13,0,0,1,3.43,6.75c0,5.68-5.23,9.16-12.14,9.61a13.83,13.83,0,0,1,7.31,3.09c3.65,3.21,3.59,7.26,3.54,9.9v1.57a11.13,11.13,0,0,0,.17,3,2.64,2.64,0,0,0,2.53,2.19,7.19,7.19,0,0,0,2.36-.62Z" style="fill:#cfd3da"/><path d="M173,74.86c-4.38.06-8.71,1.35-8.71,6,0,2.75,1.74,3.94,3.54,3.94a4.71,4.71,0,0,0,3.15-1.3c1.8-1.74,1.91-3.71,2-6.58Zm5.23,7.59c0,1.91,0,3.26,1.29,3.26.74,0,1.36-.67,1.75-1l.67.79a5.65,5.65,0,0,1-4.21,1.85,5.23,5.23,0,0,1-3.26-1.07,4.8,4.8,0,0,1-1.58-3.59,8.16,8.16,0,0,1-7.53,4.66c-3.55,0-6.36-2-6.36-5.51s2.59-5.84,6.36-7a29.28,29.28,0,0,1,7.64-1V68.23C172.85,66.6,172.74,64,169,64c-2.53,0-4.61,1.52-4.61,2.36,0,.68,1.18,1.41,1.18,2.7a2.53,2.53,0,0,1-5.06-.22c0-2.76,3.65-6,9.33-6a10.24,10.24,0,0,1,6.75,2.25c1.57,1.63,1.57,3.48,1.57,5.62Z" style="fill:#cfd3da"/><path d="M196.37,64.68h-6V81.44c0,1.74-.06,4.1,2.75,4.1s3.21-2.3,3.38-3.2h1.23c-.28,1.35-1.06,5-6.29,5-2.76,0-5-1.07-5.85-3.32-.45-1.06-.45-2.3-.45-5.17V64.68h-3.66V63.9a14,14,0,0,0,5.18-4.22,11.91,11.91,0,0,0,2.86-5.51h.85v9.34h6Z" style="fill:#cfd3da"/><path d="M206,47.87a3.32,3.32,0,1,1-3.31,3.32A3.29,3.29,0,0,1,206,47.87M199.71,63.5h9.11v22h3.65v1.18H199.66V85.49h3.88V64.68h-3.83Z" style="fill:#cfd3da"/><path d="M227.71,86.67H214.94V85.49h3.66V64.68h-3.66V63.51h9v3.37a9.18,9.18,0,0,1,7.59-4,8.22,8.22,0,0,1,5.79,2.3c.79.85,1.86,2.09,1.86,6V85.49h3.7v1.18H230.29V85.49h3.54V70.36a17.76,17.76,0,0,0-.22-3.31,3.23,3.23,0,0,0-3.32-2.59,5.93,5.93,0,0,0-3.59,1.35c-2.65,2.19-2.71,5.57-2.76,9.84v9.84h3.77Z" style="fill:#cfd3da"/><path d="M259.8,66c-.45-1.24-1.46-2-3.49-2-3.59,0-3.71,2.59-3.82,4.67-.06,1.85-.06,2.19-.06,5.28,0,1.69.06,4.56,3.72,4.56A3.7,3.7,0,0,0,259,77.39c.85-.84,1-1.57,1-6.69A23.33,23.33,0,0,0,259.8,66m-2.87,24.85c-2.08,0-4.61,0-6.24-.12a6.19,6.19,0,0,0-2,4.56c0,2.7,1.91,6.24,7.14,6.24,8.15,0,10.56-5.57,10.56-8.32,0-2.59-1.57-2.59-4.78-2.53Zm3.77-5.29c3-.05,7.59-.05,7.59,6.24,0,6.47-5,11.25-12.42,11.25-6.08,0-10.8-3.26-10.8-7.2,0-2.31,1.74-4.5,4.61-5.34-2.7-.9-4.44-2.53-4.44-5.23a7.46,7.46,0,0,1,2.64-5.34A17.54,17.54,0,0,1,250.52,78a7.8,7.8,0,0,1-3.71-6.86c0-5.34,4.61-8.26,9.56-8.26A9,9,0,0,1,263,65.36a6.26,6.26,0,0,1,4.22-2.19,2.64,2.64,0,0,1,2.87,2.47,2.15,2.15,0,0,1-2.19,2.19,1.88,1.88,0,0,1-2-1.57l-.11-.51a.68.68,0,0,0-.68-.62c-.5,0-.95.57-1.35,1a8.37,8.37,0,0,1,1.91,5.34c0,5.06-4.44,8.15-9.55,8.15a9.68,9.68,0,0,1-4.56-1c-2.24,1.74-3.93,3.09-3.93,4.83,0,2.31,2.53,2.25,4.66,2.2Z" style="fill:#cfd3da"/><path d="M272.54,86.67h-.79V77.84h1l.85,2.7c1.12,3.2,3.48,5.34,6.86,5.34,3.2,0,5.34-2.31,5.34-4.44,0-2.76-2.7-3.32-4.67-3.71l-1.74-.28a12.57,12.57,0,0,1-4.22-1.24,6.77,6.77,0,0,1-3.2-6,7.08,7.08,0,0,1,7.08-7.36A9.06,9.06,0,0,1,284.8,65l1-1.85h.95v7H285.7a6.71,6.71,0,0,0-6.69-5.9c-3.15,0-5,2.36-5,4,0,2.65,3.43,2.81,4.78,3.21l2,.39c2.14.45,7.2,1.35,7.2,7.53a7.65,7.65,0,0,1-7.65,7.93,9.88,9.88,0,0,1-6.4-2.53Z" style="fill:#cfd3da"/></svg>