<svg xmlns="http://www.w3.org/2000/svg" viewBox="0 0 300 150"><title>logo-vanderbilt</title><path d="M50,57.6v2.34c.17,0,.65,0,.92,0,.91,0,2.2,0,2.71.5,1,1.05-.3,2-1.48,3.61-1.87,2.48-.71,4.1.52,3.23a31.75,31.75,0,0,1,3-2c1.57-.75,2.57,1.24.94,3.39-.64.88-1.88,2-2.68,3.18-1,1.41-.52,3.32,1.38,1.91,2.18-1.65,3,.9.64,3.29-2.11,2.27-3.4,3.91-2.78,5.89.23.72.51,1.51.75,2.2a.4.4,0,0,0,.08.13l0,.09a.44.44,0,0,0-.2,0H52.43c-.07-.2-.76-2.08-1.51-4.09-.23-.6-.53-1-2-1.46l-.72-.22a.58.58,0,0,0-.55.09l-.93.69c-.88.64-1.31.84-1.68.75a.59.59,0,0,1-.43-.67v-.1a9.48,9.48,0,0,0,1-2.18A9,9,0,0,0,46,75.75l.06-.08a.58.58,0,0,1,.72-.33c.37.13.62.53,1,1.55l.4,1.06a.58.58,0,0,0,.47.42l1.23.37.12.08.09-.09a.36.36,0,0,1-.09-.12L49,76a5.65,5.65,0,0,0-2.17-3.13,41.91,41.91,0,0,0-3.78-2c-3-1.68-2.45-4.1-.77-4a13.31,13.31,0,0,1,3.14.95c1.8.67,1.86-1.56-.48-3.27-3-2.17-3.53-3.31-2.83-4.19.37-.48,1.38-.48,2.39-.47h.82V57.6H25.78v2.35c.49,0,.87,0,1.45.06,1.64.14,2.87.94,4.18,4.29,1.14,3,10.54,26.81,11.5,29.34h9.53c.82-2.1,10-25.68,11.49-29.45,1.33-3.37,2.75-4,4.33-4.15.38,0,.84,0,1.23,0V57.61ZM43,79.65c-1.25-.44-1.72-.83-1.87-2.12,0-.32,0-.77,0-.77s.26-.37.47-.62c.83-1,1.44-1.06,2.72-.75l1.12.24a8.18,8.18,0,0,1-.36,2.3,8.56,8.56,0,0,1-1,2.13Z" style="fill:#cfd3da"/><path d="M83,89.21a2.93,2.93,0,1,1,2.93,3.07A2.94,2.94,0,0,1,83,89.21Zm-1,0A3.69,3.69,0,0,0,85.93,93a3.76,3.76,0,0,0,3.91-3.83,3.69,3.69,0,0,0-3.91-3.84A3.78,3.78,0,0,0,82,89.21Z" style="fill:#cfd3da"/><polygon points="90.98 87.69 91.85 87.44 93 91.87 93.02 91.87 94.44 87.59 95.3 87.59 96.46 91.87 96.48 91.87 97.9 87.44 98.72 87.69 96.83 92.89 96 92.89 94.84 88.67 94.82 88.67 93.38 92.89 92.54 92.89 90.98 87.69" style="fill:#cfd3da"/><path d="M100.74,89.55a1.63,1.63,0,0,1,1.45-1.47c.87,0,1.19.71,1.19,1.47Zm3.49.57V90c0-1.43-.62-2.51-2-2.51a2.63,2.63,0,0,0-2.43,2.8c0,1.74.86,2.8,2.33,2.8a2.86,2.86,0,0,0,2-1l-.42-.45a2.26,2.26,0,0,1-1.51.76c-1.08,0-1.5-1-1.5-2.1v-.18Z" style="fill:#cfd3da"/><path d="M105.83,87.59h.85l0,.85h0a2.3,2.3,0,0,1,1.8-1c1.23,0,1.62.63,1.62,1.61,0,.4,0,.81,0,1.21l0,2.64h-.85l0-2.39c0-.47,0-.94,0-1.46s-.39-.85-1-.85a2.09,2.09,0,0,0-1.59,1l0,3.71h-.86Z" style="fill:#cfd3da"/><path d="M120.52,89.11l0,3.39a5.71,5.71,0,0,1-2.39.54,3.69,3.69,0,0,1-3.92-3.83,3.78,3.78,0,0,1,3.92-3.84,5.32,5.32,0,0,1,2.28.52l-.36.73a4,4,0,0,0-1.92-.48,3.07,3.07,0,0,0,0,6.14,3.91,3.91,0,0,0,1.48-.31l0-2.86Z" style="fill:#cfd3da"/><path d="M122.51,87.59h.87v1l0,0a1.76,1.76,0,0,1,1.47-1.2,1.48,1.48,0,0,1,.46.07l-.25.81a1.63,1.63,0,0,0-.33,0c-.36,0-.92.29-1.38,1.14l0,3.49h-.85Z" style="fill:#cfd3da"/><path d="M129,91.63a1.73,1.73,0,0,1-1.26.77.84.84,0,0,1-1-.9c0-.91.77-1.18,2.25-1.38Zm1.62.59a.75.75,0,0,1-.45.18c-.33,0-.38-.37-.38-.75,0-.94.08-1.87.08-2.87a1.21,1.21,0,0,0-1.33-1.34c-.77,0-1.11.19-2.17.88l.35.56c.78-.59,1.12-.74,1.53-.74a.73.73,0,0,1,.81.8c0,.22,0,.45,0,.67-1.16,0-3.1.4-3.1,1.9A1.45,1.45,0,0,0,127.48,93a2,2,0,0,0,1.6-.88c0,.45.31.88.79.88a1.55,1.55,0,0,0,1-.38Z" style="fill:#cfd3da"/><path d="M135.38,91.36a1.69,1.69,0,0,1-1.44,1c-.72,0-1.4-.66-1.4-2.1,0-1,.63-2.1,1.58-2.1a1.42,1.42,0,0,1,1.29.85Zm0-3.23h0a1.57,1.57,0,0,0-1.36-.69,2.69,2.69,0,0,0-2.4,2.83c0,2.09,1.22,2.77,2.13,2.77a1.86,1.86,0,0,0,1.62-.86h0l0,.72h.86l.09-8h-.88Z" style="fill:#cfd3da"/><path d="M138.3,87.59h.85l0,2.39c0,.46,0,.93,0,1.45s.38.85,1,.85a2.14,2.14,0,0,0,1.59-1l0-3.71h.85l0,5.31h-.85l0-.86h0a2.3,2.3,0,0,1-1.8,1c-1.23,0-1.62-.62-1.62-1.61,0-.4,0-.81,0-1.21Z" style="fill:#cfd3da"/><path d="M147.2,91.63a1.73,1.73,0,0,1-1.26.77.84.84,0,0,1-.95-.9c0-.91.77-1.18,2.25-1.38Zm1.62.59a.75.75,0,0,1-.45.18c-.33,0-.38-.37-.38-.75,0-.94.08-1.87.08-2.87a1.21,1.21,0,0,0-1.33-1.34c-.77,0-1.11.19-2.17.88l.35.56c.78-.59,1.12-.74,1.53-.74a.73.73,0,0,1,.81.8c0,.22,0,.45,0,.67-1.16,0-3.1.4-3.1,1.9A1.45,1.45,0,0,0,145.67,93a2,2,0,0,0,1.6-.88c0,.45.31.88.79.88a1.55,1.55,0,0,0,1-.38Z" style="fill:#cfd3da"/><path d="M150.49,87.59l0-2h.86l0,2h1.45v.64h-1.46l0,2.17c0,.6,0,1,0,1.26,0,.43.13.68.49.68a1.81,1.81,0,0,0,.85-.31l.28.55a2.53,2.53,0,0,1-1.33.46c-.82,0-1.14-.51-1.14-1.35,0-.35,0-.79,0-1.52l0-1.94h-.9v-.64Z" style="fill:#cfd3da"/><path d="M154.66,89.55a1.63,1.63,0,0,1,1.45-1.47c.86,0,1.18.71,1.18,1.47Zm3.48.57V90c0-1.43-.62-2.51-2-2.51a2.63,2.63,0,0,0-2.43,2.8c0,1.74.85,2.8,2.32,2.8a2.86,2.86,0,0,0,2-1l-.41-.45a2.3,2.3,0,0,1-1.51.76c-1.09,0-1.51-1-1.51-2.1v-.18Z" style="fill:#cfd3da"/><path d="M162.16,91.8a3,3,0,0,0,1.56.54A1.33,1.33,0,0,0,165.18,91c0-1.88-3.24-1.11-3.24-3.69a2,2,0,0,1,2.23-1.94,3.8,3.8,0,0,1,2,.57l-.35.68a2.65,2.65,0,0,0-1.57-.55,1.29,1.29,0,0,0-1.36,1.29c0,1.62,3.31,1.25,3.31,3.56A2.13,2.13,0,0,1,163.78,93a3.62,3.62,0,0,1-2-.58Z" style="fill:#cfd3da"/><path d="M171,88.76a1.45,1.45,0,0,0-1.15-.62c-.79,0-1.6.77-1.6,2.26a1.76,1.76,0,0,0,1.59,1.94,1.66,1.66,0,0,0,1.2-.68l.44.5a2.19,2.19,0,0,1-1.79.88c-1.32,0-2.36-1-2.36-2.8a2.66,2.66,0,0,1,2.49-2.8,2.21,2.21,0,0,1,1.73.88Z" style="fill:#cfd3da"/><path d="M172.84,84.9h.89l0,3.52h0a2.25,2.25,0,0,1,1.78-1c1.22,0,1.62.63,1.62,1.61,0,.4,0,.81,0,1.21l0,2.64h-.85l0-2.39c0-.47,0-.94,0-1.46s-.38-.85-1-.85a2.13,2.13,0,0,0-1.59,1l0,3.71h-.85Z" style="fill:#cfd3da"/><path d="M179.6,90.24c0-1.47.86-2.16,1.66-2.16s1.58.69,1.58,2.16-.87,2.16-1.66,2.16S179.6,91.71,179.6,90.24Zm-.92,0c0,1.75.93,2.8,2.48,2.8a2.65,2.65,0,0,0,2.6-2.8c0-1.73-.93-2.8-2.49-2.8A2.65,2.65,0,0,0,178.68,90.24Z" style="fill:#cfd3da"/><path d="M185.85,90.24c0-1.47.87-2.16,1.67-2.16s1.57.69,1.57,2.16-.86,2.16-1.66,2.16S185.85,91.71,185.85,90.24Zm-.91,0c0,1.75.92,2.8,2.48,2.8a2.65,2.65,0,0,0,2.59-2.8c0-1.73-.93-2.8-2.48-2.8A2.64,2.64,0,0,0,184.94,90.24Z" style="fill:#cfd3da"/><polygon points="191.55 84.9 192.41 84.9 192.34 92.89 191.49 92.89 191.55 84.9" style="fill:#cfd3da"/><path d="M197.46,90.24c0-1.47.87-2.16,1.66-2.16s1.58.69,1.58,2.16-.86,2.16-1.66,2.16S197.46,91.71,197.46,90.24Zm-.91,0c0,1.75.92,2.8,2.48,2.8a2.65,2.65,0,0,0,2.59-2.8c0-1.73-.93-2.8-2.48-2.8A2.64,2.64,0,0,0,196.55,90.24Z" style="fill:#cfd3da"/><path d="M202.61,87.59h1a9.44,9.44,0,0,1,.05-1c.11-1.29,1-1.74,2.22-1.74v.7h-.37c-.71,0-1,.58-1,1.22l0,.85h1.45v.64H204.5l-.05,4.66h-.85l0-4.66h-1Z" style="fill:#cfd3da"/><polygon points="210.51 85.52 211.46 85.52 213.69 91.74 216.08 85.52 217.07 85.52 218.25 92.89 217.35 93.04 216.41 86.73 216.39 86.73 214.1 92.89 213.23 92.89 211.09 86.73 211.06 86.73 210.05 93.04 209.17 92.89 210.51 85.52" style="fill:#cfd3da"/><path d="M222.54,91.63a1.71,1.71,0,0,1-1.26.77.85.85,0,0,1-.95-.9c0-.91.77-1.18,2.25-1.38Zm1.62.59a.75.75,0,0,1-.45.18c-.33,0-.38-.37-.38-.75,0-.94.08-1.87.08-2.87a1.21,1.21,0,0,0-1.33-1.34c-.76,0-1.11.19-2.17.88l.35.56c.78-.59,1.12-.74,1.54-.74a.73.73,0,0,1,.81.8c0,.22,0,.45,0,.67-1.16,0-3.1.4-3.1,1.9A1.46,1.46,0,0,0,221,93a2.06,2.06,0,0,0,1.6-.88c0,.45.3.88.78.88a1.61,1.61,0,0,0,1-.38Z" style="fill:#cfd3da"/><path d="M225.57,87.59h.85l0,.85h0a2.3,2.3,0,0,1,1.8-1c1.23,0,1.62.63,1.62,1.61,0,.4,0,.81,0,1.21l0,2.63H229l0-2.38c0-.47,0-.94,0-1.46s-.39-.84-1-.84a2.08,2.08,0,0,0-1.59,1l0,3.7h-.85Z" style="fill:#cfd3da"/><path d="M234.45,91.63a1.71,1.71,0,0,1-1.25.77.84.84,0,0,1-.95-.9c0-.91.77-1.18,2.25-1.38Zm1.63.59a.75.75,0,0,1-.45.18c-.33,0-.39-.37-.39-.75,0-.94.09-1.87.09-2.87A1.21,1.21,0,0,0,234,87.44c-.77,0-1.11.19-2.18.88l.35.56c.78-.59,1.12-.74,1.54-.74a.73.73,0,0,1,.81.8c0,.22,0,.45,0,.67-1.16,0-3.1.4-3.1,1.9A1.45,1.45,0,0,0,232.93,93a2.06,2.06,0,0,0,1.6-.88.86.86,0,0,0,.79.88,1.61,1.61,0,0,0,1-.38Z" style="fill:#cfd3da"/><path d="M237.91,93.9c0-.49.23-.83,1.16-1.34,1.71.31,2.16.51,2.16,1.11,0,.88-1.11,1.23-1.77,1.23S237.91,94.68,237.91,93.9Zm4.52-6.25-1.77,0a1.83,1.83,0,0,0-1-.25,1.8,1.8,0,0,0-1.9,1.75,1.64,1.64,0,0,0,.67,1.43c-.92.53-1.24.8-1.24,1.12s.35.6,1.28.69v0c-.56.29-1.43.72-1.43,1.47,0,1.22,1.51,1.49,2.46,1.49s2.64-.62,2.64-1.92c0-.95-.9-1.29-2.28-1.49s-1.68-.37-1.68-.57.09-.25.58-.61a2.1,2.1,0,0,0,.93.2,1.78,1.78,0,0,0,1.85-1.77,1.48,1.48,0,0,0-.38-1l1.26,0Zm-1.73,1.59c0,.65-.3,1.2-1.09,1.2a1,1,0,0,1-1-1.17,1.12,1.12,0,0,1,1-1.26C240.4,88,240.7,88.52,240.7,89.24Z" style="fill:#cfd3da"/><path d="M244.3,89.55a1.63,1.63,0,0,1,1.45-1.47c.86,0,1.18.71,1.18,1.47Zm3.49.57V90c0-1.43-.62-2.51-2-2.51a2.63,2.63,0,0,0-2.43,2.8c0,1.74.85,2.8,2.32,2.8a2.9,2.9,0,0,0,2-1l-.42-.45a2.28,2.28,0,0,1-1.51.76c-1.09,0-1.5-1-1.5-2.1v-.18Z" style="fill:#cfd3da"/><path d="M249.4,87.59h.86v.78h0a2.25,2.25,0,0,1,1.75-.93,1.25,1.25,0,0,1,1.33,1,2.78,2.78,0,0,1,1.84-1c1.1,0,1.49.63,1.49,1.61,0,.4,0,.81,0,1.21l0,2.63h-.85l0-2.38c0-.47,0-.94,0-1.46a.78.78,0,0,0-.84-.84,2,2,0,0,0-1.51.88l-.07,3.8h-.84l0-2.38c0-.47,0-.94,0-1.46a.78.78,0,0,0-.84-.84,2,2,0,0,0-1.51.88l-.07,3.8h-.85Z" style="fill:#cfd3da"/><path d="M259.19,89.55a1.63,1.63,0,0,1,1.45-1.47c.86,0,1.18.71,1.18,1.47Zm3.48.57V90c0-1.43-.62-2.51-2-2.51a2.63,2.63,0,0,0-2.43,2.8c0,1.74.85,2.8,2.32,2.8a2.86,2.86,0,0,0,2-1l-.41-.45a2.3,2.3,0,0,1-1.51.76c-1.09,0-1.51-1-1.51-2.1v-.18Z" style="fill:#cfd3da"/><path d="M264.28,87.59h.85l0,.85h0a2.31,2.31,0,0,1,1.8-1c1.23,0,1.62.63,1.62,1.61,0,.4,0,.81,0,1.21l0,2.63h-.85l0-2.38c0-.47,0-.94,0-1.46s-.38-.84-1-.84a2.11,2.11,0,0,0-1.59,1l0,3.7h-.85Z" style="fill:#cfd3da"/><path d="M270.82,87.59l0-2h.85l0,2h1.45v.64h-1.46l0,2.17c0,.6,0,1,0,1.26,0,.43.13.68.5.68A1.89,1.89,0,0,0,273,92l.27.56a2.61,2.61,0,0,1-1.33.45c-.82,0-1.14-.51-1.14-1.35,0-.35,0-.79,0-1.52l0-1.94h-.9v-.64Z" style="fill:#cfd3da"/><path d="M99.31,58.83l-.89,0-.27,0h-.08c-.39,0-.78,0-1.14,0-.53,0-1,0-1.51,0h-.09c-.55,0-1-.05-1.31-.05H93.8V60h.64c1.16,0,1.39.23,1.39.62A3.67,3.67,0,0,1,95.52,62c-.14.37-3.19,8.11-3.94,10L87.37,61.22a3.68,3.68,0,0,1-.21-.72c0-.19.3-.49,1.1-.49H89V58.83h-.21l-1.1,0h-.31l-.32,0c-.68,0-1.39,0-2,0s-1.29,0-1.92,0-1.28-.05-2-.05H81V60h.47a1.69,1.69,0,0,1,1.91,1.29l6.51,15.85h1.2L91.2,77c.17-.4,1-2.39,2.59-6.27,1.29-3.16,4-9.73,4.13-10,.36-.72.74-.77,1.14-.77h.47V58.83h-.22Z" style="fill:#cfd3da"/><path d="M115.66,74.72c-.26-.6-.51-1.33-.75-2l-.17-.51v0c0-.1-.34-1-4.52-12.75l-.23-.62c-.07-.2-.2-.18-.36-.17h-.13l-.28,0-.6,0h0c-.38,0-.63,0-1.19,0h-.17l0,.16c-.15.59-.51,1.55-.82,2.4l-.13.37-.33.89-4,11.53a2.07,2.07,0,0,1-2,1.48h-.36v1.2l.24,0,.3,0c.78,0,1.59-.08,2.38-.08s1.8,0,2.63.08l.39,0,.23,0V75.62h-.49c-.5,0-1.67-.06-1.67-.69a4,4,0,0,1,.28-1.09l.26-.81.76-2.45h5.38l.93,2.76a8.78,8.78,0,0,1,.49,1.74c0,.5-.93.54-1.22.54H110v1.16l.61,0c1.05,0,2.12-.09,3.24-.09s2.07,0,3,.08l.38,0h.24V75.59h-.36A1.38,1.38,0,0,1,115.66,74.72Zm-6.09-6h-4.1l2.06-6.27C107.68,62.93,109.44,68.32,109.57,68.74Z" style="fill:#cfd3da"/><path d="M139.27,58.88h-.21c-.53,0-1,0-1.51,0s-1.2,0-1.75,0-1.15-.05-1.76-.05h-.21V60h.76c.71,0,1.91.28,1.91,2.15,0,.08.05,7.08.06,9L125.71,58.89l0-.06h-.1c-.39,0-.78,0-1.13,0h-.13l-1,0-1.2,0H122c-.4,0-.87,0-1.38,0h-.22l0,1.09.53,0a1.87,1.87,0,0,1,1.31.55,2.2,2.2,0,0,1,.61,1.55l-.08,10.57c0,1.9-.31,3-1.89,3l-.56,0v1.12h.21c.56,0,1.1,0,1.63,0h0c.65,0,1.17,0,1.66,0s1,0,1.6,0h0l1.59,0h.22V75.59h-.64c-1.62,0-2.09-.62-2.09-2.72,0,0,0-7.79-.06-9.78l12.61,14.06h1.29l0-.24a16.49,16.49,0,0,1-.15-2.51L138.31,63c0-3,1.1-3,1.9-3l.59,0V58.85h-.21Z" style="fill:#cfd3da"/><path d="M160.79,61.27a11,11,0,0,0-7.44-2.44l-1.52,0h-.11c-.74,0-1.54.06-2.41.06s-1.88,0-2.7-.06l-.49,0-.82,0h-.21V60h.56c1,0,1.64.2,1.64,1.22V74.37c0,1.14-.69,1.24-1.51,1.24l-.57,0v1.14h.21l1.15,0h.29c.74,0,1.66-.06,2.58-.06,2.06,0,4,.07,4.56.1a8.84,8.84,0,0,0,6.67-2.43,9.07,9.07,0,0,0,2.85-6.59A8.38,8.38,0,0,0,160.79,61.27Zm-1.2,6.95A7.71,7.71,0,0,1,158,73.13a5.85,5.85,0,0,1-4.67,2.06c-1.71,0-2.4-.16-2.4-1.77v-13l.2,0a11.05,11.05,0,0,1,1.3-.09,7.27,7.27,0,0,1,5,1.51C158.9,63.12,159.59,65.2,159.59,68.22Z" style="fill:#cfd3da"/><path d="M181.07,72.42c-.36,1.36-.75,2-1.4,2.35a7.64,7.64,0,0,1-3.09.33h-.05c-1.77,0-2.85-.07-2.85-1.42V68.19h2.88c1.51,0,1.63.62,1.79,2.15l0,.23,1.12-.23,0-.19c0-1-.08-1.81-.08-2.7s0-1.68.08-2.65l0-.22-1.07,0,0,.19c-.15,1.33-.57,1.72-1.88,1.72h-2.85v-6H177c2.5,0,2.68.83,2.8,2.41l0,.25,1.1-.29,0-.18c-.06-1,0-2.27,0-3.31l0-.55h-.22c-.81,0-1.82,0-2.88.05h-.23c-1.12,0-2.28,0-3.32,0s-2.57,0-3.59,0-2-.05-2.65-.05h-.22V60h.57c1,0,1.64.2,1.64,1.22V74.37c0,1.08-.54,1.29-1.47,1.29H168v1.11h.21l2.55,0c1.25,0,2.69-.06,3.95-.06s2.63,0,3.84.06h.23l2.54,0h.19l0-.18.21-1.38a22.38,22.38,0,0,1,.44-2.51l0-.21-1.11-.28Z" style="fill:#cfd3da"/><path d="M218.83,67c1.74-.53,3.46-1.64,3.46-4A3.56,3.56,0,0,0,220.94,60a7.33,7.33,0,0,0-4.58-1.2c-.54,0-1.13,0-1.8.05h-.12c-.68,0-1.38,0-2.09,0s-1.39,0-2.06,0h-.12c-.74,0-1.28-.05-1.73-.05h-.22V60h.57c1,0,1.64.2,1.64,1.22V74.37c0,1-.6,1.22-1.64,1.22h-.57v1.18h.22l1.68,0h.15c.82,0,1.76-.06,2.61-.06s1.65,0,2.42.06l2,0a6.69,6.69,0,0,0,4.32-1.52,4.79,4.79,0,0,0,1.81-3.66,4.26,4.26,0,0,0-1.29-3.12A6.05,6.05,0,0,0,218.83,67Zm-3.73-.52-1,0V60.3h1.29c1.56,0,3.15.38,3.15,3.16C218.51,65.47,217.39,66.45,215.1,66.45Zm4.51,5.24a3.43,3.43,0,0,1-3.5,3.59c-1.77,0-2-.25-2-1.91V67.89l1.39,0a4.67,4.67,0,0,1,3,.9A3.57,3.57,0,0,1,219.61,71.69Z" style="fill:#cfd3da"/><path d="M236.27,58.83l-1.43,0-.46,0h-.13c-.63,0-1.28,0-1.87,0s-1.27,0-1.92,0h-.13c-.73,0-1.25-.05-1.66-.05h-.22V60H229c1,0,1.64.2,1.64,1.22V74.37c0,1-.6,1.22-1.64,1.22h-.57v1.18h.22l1.65,0c.63,0,1.36-.06,2-.06s1.32,0,2,0h.07l1.85,0h.21V75.59h-.56c-1,0-1.64-.2-1.64-1.22V61.23c0-1,.6-1.22,1.64-1.22h.56V58.83h-.21Z" style="fill:#cfd3da"/><path d="M255.43,72.32a4.17,4.17,0,0,1-.69,1.5A3.17,3.17,0,0,1,252.55,75a14.79,14.79,0,0,1-3,0c-.91-.11-1.3-.47-1.3-1.18V61.15c0-1.14.56-1.14,1.49-1.14h.84V58.83h-.22c-.61,0-1.23,0-1.83.05h-.08c-.62,0-1.26,0-1.9,0s-1.33,0-2,0-1.3-.05-2-.05h-.22V60H243c1.06,0,1.67.2,1.67,1.22V74.12c0,1.36-.79,1.47-1.67,1.47h-.57v1.18h.22l3.23,0h.08c1.3,0,2.35,0,3.31,0s1.93,0,3.16,0h.09c1,0,2,0,3.08,0h.17l0-.17c.2-.95.36-1.81.54-2.73l.32-1.69h-1.15Z" style="fill:#cfd3da"/><path d="M202.27,74.2,199,69.82a5.11,5.11,0,0,0-1.41-1.41,5.6,5.6,0,0,0,3.59-4.87,4.12,4.12,0,0,0-1.9-3.77,8.3,8.3,0,0,0-4.29-.94l-1.5,0-.39,0H193c-.64,0-1.3,0-2,0s-1.71,0-2.52-.06h-.25l-1.11,0h-.22V60h.67c.86,0,1.56.12,1.56,1.7V74.45c0,1.09-1.11,1.17-1.45,1.17l-.67,0v1.12h.22c.59,0,1.15,0,1.8,0s1.13,0,1.72,0,1.31,0,2.15,0H193l2.1,0h.21V75.59h-.66c-1.14,0-1.85-.08-1.85-1.79V69l1.15,0a1,1,0,0,1,.88.48c.59.91,2,3,4.14,5.85a3.51,3.51,0,0,0,3.23,1.38H205V75.63l-.19,0A2.5,2.5,0,0,1,202.27,74.2Zm-4.84-10.51a4.06,4.06,0,0,1-1,3,3.56,3.56,0,0,1-2.65.88l-1.06-.08V60.4l.14,0a8.52,8.52,0,0,1,1.08-.06A3.16,3.16,0,0,1,197.43,63.69Z" style="fill:#cfd3da"/><path d="M274,58.76l-.55.05h-.08l-1.12,0H260.19c-.6,0-1,0-1.34,0h-.12l-.94-.09v.24a10.37,10.37,0,0,1-.1,1.5l0,.16,0,.26-.23,1.84,0,.19h1.16l.05-.15c.38-1.85.43-2.09,2.14-2.1h3.38V73.7c0,1.82-.58,1.89-1.87,1.89h-.69v1.18h.21l1.69,0c.8,0,1.72-.06,2.55-.06s1.56,0,2.3.06h.05l1.74,0h.21V75.59h-.69c-1.09,0-1.87-.14-1.87-1.94v-13h3.49c1.55,0,1.63,1.39,1.67,2.13V63l1.15-.29v-.17l0-2c0-.66.07-1.26.1-1.56l0-.26-.25,0Z" style="fill:#cfd3da"/><path d="M21.8,49.17v51.66H73.46V49.17ZM72,50.61V99.39H23.24V50.61Z" style="fill:#cfd3da"/></svg>