<svg xmlns="http://www.w3.org/2000/svg" viewBox="0 0 300 150"><title>logo-schneider</title><path d="M147.93,86.51H137.1v7.67h10.44v3.34H137.1v8.06h11.23v3.35h-15V83.16h14.57Z" style="fill:#cfd3da"/><path d="M156.4,83.16h3.35v25.77H156.4Z" style="fill:#cfd3da"/><path d="M172.54,100.86h12c0-6.29-3-9.24-7.29-9.24-4.73,0-7.88,3.34-7.88,8.65,0,4.72,3,9,8.27,9a12.15,12.15,0,0,0,6.7-2v-3.14a10.16,10.16,0,0,1-5.91,2C175.1,106,173.14,104.21,172.54,100.86Zm4.73-6.49c2.36,0,3.94,1.58,3.94,4.33h-8.47C173.14,96,174.71,94.37,177.27,94.37Z" style="fill:#cfd3da"/><path d="M205.82,96.34c-2-1.38-3.15-1.77-4.73-1.77-3.15,0-5.12,2.36-5.12,5.7,0,3.54,2.17,5.71,5.72,5.71a11.16,11.16,0,0,0,4.52-1.18v3.34a13.15,13.15,0,0,1-5.12,1c-5.12,0-8.66-3.54-8.66-8.45,0-5.51,3.15-9,8.27-9a10.06,10.06,0,0,1,4.92,1.18v3.54Z" style="fill:#cfd3da"/><path d="M220.78,91.82h5.32v3h-5.32v8.65a2.32,2.32,0,0,0,2.37,2.56,7.58,7.58,0,0,0,3.74-1.18v3.14a10.81,10.81,0,0,1-4.14,1.18,5.11,5.11,0,0,1-5.51-5.31V95h-3v-.39l6.3-6.1v3.35Z" style="fill:#cfd3da"/><path d="M238.31,91.82v3.93c1.77-3,3.34-4.33,4.92-4.33,1.38,0,2.56.59,4.13,2l-1.77,3a5.28,5.28,0,0,0-3.15-1.57c-2.36,0-4.13,2.36-4.13,5.11v8.85H235V91.82Z" style="fill:#cfd3da"/><path d="M256.62,91.82H260v17.11h-3.35Z" style="fill:#cfd3da"/><path d="M281.82,96.34c-2-1.38-3.15-1.77-4.72-1.77-3.15,0-5.12,2.36-5.12,5.7,0,3.54,2.16,5.71,5.71,5.71a11.16,11.16,0,0,0,4.52-1.18v3.34a13.14,13.14,0,0,1-5.11,1c-5.12,0-8.67-3.54-8.67-8.45,0-5.51,3.15-9,8.27-9a10.06,10.06,0,0,1,4.92,1.18v3.54Z" style="fill:#cfd3da"/><path d="M42.2,45.2c-6.3-2.75-10.24-3.74-14-3.74-3.94,0-6.5,1.38-6.5,3.54,0,6.69,22.45,4.72,22.45,20.07,0,8.26-7.09,13.37-16.93,13.37-7.88,0-11.62-2-15.95-4.33V64.67c6.3,4.33,10,5.71,15,5.71q6.49,0,6.5-4.13C33,59.17,10.5,61.72,10.5,46c0-7.67,6.69-12.59,16.93-12.59a36.36,36.36,0,0,1,15,3.34V45.2Z" style="fill:#cfd3da"/><path d="M73.7,76.47a33.49,33.49,0,0,1-10,2c-10.43,0-17.33-6.1-17.33-15.34,0-9.05,7.09-15.34,16.94-15.34a31.33,31.33,0,0,1,10,2v6.89a19.77,19.77,0,0,0-7.68-2.16c-5.71,0-9.25,3.34-9.25,8.65S59.92,72,65.24,72c2.36,0,4.33-.59,8.27-2.16v6.68Z" style="fill:#cfd3da"/><path d="M97.92,72.74V60.94c0-4.33-1.77-6.49-4.72-6.49-2.17,0-3.94,1.37-6.3,4.52V77.85H77.44V34H86.9V52.48h.19c2.76-3.35,5.71-4.92,9.45-4.92,5.52,0,10.83,3.34,10.83,11.41V71C104.22,71,100.48,72.15,97.92,72.74Z" style="fill:#cfd3da"/><path d="M111.7,70.38V48.15h9.45v4.33c3-3.35,5.91-4.72,9.85-4.72,4.73,0,10.83,2.75,10.83,11.41V78.05h-9.45V60c0-4.32-2-5.9-4.73-5.9-2.36,0-3.94,1.18-6.5,4.92V72A41,41,0,0,0,111.7,70.38Z" style="fill:#cfd3da"/><path d="M161.12,47.56c-9.25,0-15.75,6.49-15.75,15.54,0,9.24,6.89,15.34,17.33,15.34a22,22,0,0,0,13.39-3.93v-5.9c-4.33,3.14-7.29,4.32-11,4.32-5.9,0-9.45-3.14-9.84-8.26h21.26C176.88,53.66,169.79,47.56,161.12,47.56Zm-5.9,12c.39-4.13,2.75-6.49,6.5-6.49,3.54,0,6.1,2.56,6.3,6.49Z" style="fill:#cfd3da"/><path d="M180,48.15h9.45v29.7H180Z" style="fill:#cfd3da"/><path d="M215.47,34V49.53a17,17,0,0,0-7.68-1.77c-8.47,0-14.37,6.29-14.37,15.34,0,8.85,5.9,15.34,14,15.34a11.93,11.93,0,0,0,8.27-3v2.36h9.46V34Zm0,35.8A7.33,7.33,0,0,1,210,72.15c-4.33,0-7.28-3.74-7.28-9.05,0-5.9,2.76-9.44,7.48-9.44a10.15,10.15,0,0,1,5.32,1.77Z" style="fill:#cfd3da"/><path d="M244.41,47.56c-9.25,0-15.75,6.49-15.75,15.54,0,9.24,6.89,15.34,17.33,15.34a22,22,0,0,0,13.38-3.93v-5.9c-4.33,3.14-7.28,4.32-11,4.32-5.91,0-9.45-3.14-9.85-8.26H260C260.16,53.66,253.07,47.56,244.41,47.56Zm-5.71,12c.39-4.13,2.76-6.49,6.3-6.49,3.74,0,6.11,2.56,6.5,6.49Z" style="fill:#cfd3da"/><path d="M273.75,56.61c2.76-6.3,5.91-9,9.65-9,1.77,0,3.34.79,6.1,2.75l-2.56,8.27c-2.36-1.58-3.94-2.17-5.51-2.17-3.35,0-5.71,3.35-7.68,8.66v13h-9.26V48.15H274v8.46Z" style="fill:#cfd3da"/><path d="M189.87,35.56c.79,2.36-.79,5.71-3.54,7.28-2.76,1.77-5.91,1.18-6.7-1.18s.79-5.51,3.55-7.28S189.08,33.2,189.87,35.56Z" style="fill:#cfd3da"/><path d="M260.16,85.92c.4.78-.39,2-1.38,2.55a1.57,1.57,0,0,1-2.36-.39c-.39-.79.2-2,1.18-2.56C258.78,84.74,259.77,84.93,260.16,85.92Z" style="fill:#b3b3b3"/><path d="M89.46,83.75c9.84-10,23.62-13.37,30.91-7.08s5.31,19.47-4.53,29.7c-9.65,10-23.63,13.38-30.91,7.08S79.61,93.78,89.46,83.75Z" style="fill:#cfd3da"/><path d="M96.35,107.94H86.5l1.58-5.9h5.51a2.43,2.43,0,0,0,2.17-1.37l2.36-10.62c1-4.33,6.5-7.87,10.83-7.87h9.84l-1.38,5.31h-5.12c-1.18,0-1.57.2-1.77,1.18l-3,11.6C106.39,104.6,100.87,107.94,96.35,107.94Z" style="fill:#b3b3b3"/><path d="M83.94,91.42c.79-1.37,1.58-2.55,2.36-3.73H92l-1.18,3.73Z" style="fill:#fff"/><path d="M81.19,98.7A13.5,13.5,0,0,1,82.37,95h7.87L89.06,98.7Z" style="fill:#fff"/><path d="M121.94,98.11a15,15,0,0,1-2.36,3.74H112.1l1.18-3.74Z" style="fill:#fff"/><path d="M124.5,90.83a25.79,25.79,0,0,1-1,3.74h-9.45l1.18-3.74Z" style="fill:#fff"/><path d="M96.35,107.94H86.5l1.58-5.9h5.51a2.43,2.43,0,0,0,2.17-1.37l2.36-10.62c1-4.33,6.5-7.87,10.83-7.87h9.84l-1.38,5.31h-5.12c-1.18,0-1.57.2-1.77,1.18l-3,11.6C106.39,104.6,100.87,107.94,96.35,107.94Z" style="fill:#fff"/></svg>