<svg xmlns="http://www.w3.org/2000/svg" viewBox="0 0 300 150"><title>logo-fortress</title><rect x="19.44" y="46.01" width="5.36" height="5.36" style="fill:#cfd3da"/><rect x="38.38" y="46.01" width="5.36" height="5.36" style="fill:#cfd3da"/><rect x="19.44" y="52.33" width="5.36" height="5.36" style="fill:#cfd3da"/><rect x="25.75" y="52.33" width="5.36" height="5.36" style="fill:#cfd3da"/><rect x="32.06" y="52.33" width="5.36" height="5.36" style="fill:#cfd3da"/><rect x="38.38" y="52.33" width="5.36" height="5.36" style="fill:#cfd3da"/><rect x="44.69" y="52.33" width="5.36" height="5.36" style="fill:#cfd3da"/><rect x="51.01" y="52.33" width="5.36" height="5.36" style="fill:#cfd3da"/><rect x="19.44" y="58.64" width="5.36" height="5.36" style="fill:#cfd3da"/><rect x="51.01" y="58.64" width="5.36" height="5.36" style="fill:#cfd3da"/><rect x="19.44" y="64.95" width="5.36" height="5.36" style="fill:#cfd3da"/><rect x="32.06" y="64.95" width="5.36" height="5.36" style="fill:#cfd3da"/><rect x="38.38" y="64.95" width="5.36" height="5.36" style="fill:#cfd3da"/><rect x="44.69" y="64.95" width="5.36" height="5.36" style="fill:#cfd3da"/><rect x="51.01" y="64.95" width="5.36" height="5.36" style="fill:#cfd3da"/><rect x="19.44" y="71.27" width="5.36" height="5.36" style="fill:#cfd3da"/><rect x="44.69" y="71.27" width="5.36" height="5.36" style="fill:#cfd3da"/><rect x="57.13" y="71.27" width="5.36" height="5.36" style="fill:#cfd3da"/><rect x="19.44" y="77.58" width="5.36" height="5.36" style="fill:#cfd3da"/><rect x="13.12" y="64.95" width="5.36" height="5.36" style="fill:#cfd3da"/><rect x="13.12" y="52.33" width="5.36" height="5.36" style="fill:#cfd3da"/><rect x="13.12" y="71.27" width="5.36" height="5.36" style="fill:#cfd3da"/><rect x="7" y="71.27" width="5.36" height="5.36" style="fill:#cfd3da"/><rect x="13.12" y="77.58" width="5.36" height="5.36" style="fill:#cfd3da"/><rect x="32.06" y="77.58" width="5.36" height="5.36" style="fill:#cfd3da"/><rect x="38.38" y="77.58" width="5.36" height="5.36" style="fill:#cfd3da"/><rect x="44.69" y="77.58" width="5.36" height="5.36" style="fill:#cfd3da"/><rect x="19.44" y="83.9" width="5.36" height="5.36" style="fill:#cfd3da"/><rect x="32.06" y="83.9" width="5.36" height="5.36" style="fill:#cfd3da"/><rect x="38.38" y="83.9" width="5.36" height="5.36" style="fill:#cfd3da"/><rect x="19.44" y="90.21" width="5.36" height="5.36" style="fill:#cfd3da"/><rect x="25.75" y="90.21" width="5.36" height="5.36" style="fill:#cfd3da"/><rect x="32.06" y="90.21" width="5.36" height="5.36" style="fill:#cfd3da"/><rect x="44.69" y="90.21" width="5.36" height="5.36" style="fill:#cfd3da"/><path d="M66.6,58.71H89.81v6.82H75.48v6H88.79v6.82H75.48V88.62H66.6Z" style="fill:#cfd3da"/><path d="M114.84,60.16a14.93,14.93,0,0,1,5.84,5.52,15.09,15.09,0,0,1,2.11,7.92,15.38,15.38,0,0,1-2.11,8,15,15,0,0,1-5.84,5.59,18.29,18.29,0,0,1-16.71,0,15,15,0,0,1-5.82-5.59,15.38,15.38,0,0,1-2.11-8,14.89,14.89,0,0,1,7.93-13.44,18.37,18.37,0,0,1,16.71,0ZM103,66.6a7.64,7.64,0,0,0-2.68,2.92,8.52,8.52,0,0,0-1,4.12,8.63,8.63,0,0,0,1,4.14,7.76,7.76,0,0,0,2.68,3,6.58,6.58,0,0,0,3.65,1.09,6.33,6.33,0,0,0,3.57-1.09,7.53,7.53,0,0,0,2.58-2.94,9.59,9.59,0,0,0,0-8.28,7.43,7.43,0,0,0-2.56-2.92,6.43,6.43,0,0,0-3.59-1.07A6.73,6.73,0,0,0,103,66.6Z" style="fill:#cfd3da"/><path d="M142.55,88.62l-4-8.07h-4.69v8.07H125V58.71h14q6,0,9.33,2.77a9.69,9.69,0,0,1,3.3,7.85,11.82,11.82,0,0,1-1.3,5.7,9.62,9.62,0,0,1-3.73,3.81l6.06,9.78Zm-8.66-14.9H139a4.26,4.26,0,0,0,3.1-1.06,4.13,4.13,0,0,0,1.08-3.07,4,4,0,0,0-1.08-3,4.29,4.29,0,0,0-3.1-1h-5.07Z" style="fill:#cfd3da"/><path d="M152.57,58.71h26.29v7.08h-8.71V88.62h-8.92V65.79h-8.66Z" style="fill:#cfd3da"/><path d="M198.05,88.62l-4-8.07h-4.7v8.07h-8.87V58.71h13.95q6,0,9.32,2.77a9.67,9.67,0,0,1,3.31,7.85,11.82,11.82,0,0,1-1.3,5.7,9.62,9.62,0,0,1-3.73,3.81l6.05,9.78Zm-8.66-14.9h5.08a4.21,4.21,0,0,0,3.09-1.06,4.1,4.1,0,0,0,1.09-3.07,4,4,0,0,0-1.09-3,4.25,4.25,0,0,0-3.09-1h-5.08Z" style="fill:#cfd3da"/><path d="M210.34,58.71h24.45v6.82H219.22v4.7h14.12v6.82H219.22v4.74h16v6.83H210.34Z" style="fill:#cfd3da"/><path d="M254.63,66a15.3,15.3,0,0,0-4.69-1,3.2,3.2,0,0,0-1.82.45,1.46,1.46,0,0,0-.66,1.3,2,2,0,0,0,1.28,1.85A22.89,22.89,0,0,0,252.8,70a38.13,38.13,0,0,1,5.2,1.82,9.53,9.53,0,0,1,3.56,2.79,7.64,7.64,0,0,1,1.52,4.95,8.47,8.47,0,0,1-1.64,5.27A9.86,9.86,0,0,1,257,88.06a17.47,17.47,0,0,1-6.25,1.07,24.17,24.17,0,0,1-7.7-1.3,21.53,21.53,0,0,1-6.68-3.57l3.33-6.74a19.93,19.93,0,0,0,5.52,3.31,15.34,15.34,0,0,0,5.61,1.34,4,4,0,0,0,2.26-.55A1.81,1.81,0,0,0,253.9,80a2.06,2.06,0,0,0-1.32-1.9,23.22,23.22,0,0,0-4.09-1.39,38,38,0,0,1-5.17-1.68,9.25,9.25,0,0,1-3.54-2.71,7.42,7.42,0,0,1-1.49-4.82,8.51,8.51,0,0,1,1.53-5.06,9.69,9.69,0,0,1,4.34-3.3,16.91,16.91,0,0,1,6.5-1.16,24.06,24.06,0,0,1,6.7,1,22.19,22.19,0,0,1,5.8,2.54l-3.28,6.83A28.33,28.33,0,0,0,254.63,66Z" style="fill:#cfd3da"/><path d="M281.47,66a15.3,15.3,0,0,0-4.7-1,3.19,3.19,0,0,0-1.81.45,1.46,1.46,0,0,0-.66,1.3,2,2,0,0,0,1.28,1.85A22.43,22.43,0,0,0,279.63,70a38.32,38.32,0,0,1,5.21,1.82,9.61,9.61,0,0,1,3.56,2.79,7.64,7.64,0,0,1,1.51,4.95,8.41,8.41,0,0,1-1.64,5.27,9.75,9.75,0,0,1-4.44,3.22,17.4,17.4,0,0,1-6.25,1.07,24.22,24.22,0,0,1-7.7-1.3,21.47,21.47,0,0,1-6.67-3.57l3.32-6.74a20,20,0,0,0,5.53,3.31,15.25,15.25,0,0,0,5.61,1.34,4,4,0,0,0,2.26-.55,1.81,1.81,0,0,0,.81-1.58,2.06,2.06,0,0,0-1.32-1.9,23.09,23.09,0,0,0-4.1-1.39,38.27,38.27,0,0,1-5.16-1.68,9.1,9.1,0,0,1-3.54-2.71,7.37,7.37,0,0,1-1.49-4.82,8.51,8.51,0,0,1,1.53-5.06,9.72,9.72,0,0,1,4.33-3.3A16.93,16.93,0,0,1,277.5,58a24.06,24.06,0,0,1,6.7,1,22.19,22.19,0,0,1,5.8,2.54l-3.29,6.83A28.23,28.23,0,0,0,281.47,66Z" style="fill:#cfd3da"/><path d="M68.21,98H66V96.5h6.11V98H69.83v5.87H68.21Z" style="fill:#cfd3da"/><path d="M72.77,96.5h5.55v1.44H74.37v1.49h3.47v1.44H74.37v1.55h4v1.44h-5.6Z" style="fill:#cfd3da"/><path d="M82.73,104a3.77,3.77,0,0,1-1.51-.3,3.66,3.66,0,0,1-1.2-.8,3.58,3.58,0,0,1-.79-1.21A3.82,3.82,0,0,1,79,100.2v0a3.82,3.82,0,0,1,.28-1.48A3.78,3.78,0,0,1,80,97.49a3.65,3.65,0,0,1,1.21-.82,3.94,3.94,0,0,1,1.56-.3,5.4,5.4,0,0,1,.94.08,5,5,0,0,1,.77.23,3.39,3.39,0,0,1,.65.36,4.78,4.78,0,0,1,.54.47l-1,1.18a4.36,4.36,0,0,0-.88-.61,2.3,2.3,0,0,0-1-.22,2,2,0,0,0-.86.18,2.1,2.1,0,0,0-.68.5,2.33,2.33,0,0,0-.44.73,2.38,2.38,0,0,0-.16.89v0a2.42,2.42,0,0,0,.16.89,2.38,2.38,0,0,0,.44.74,2,2,0,0,0,.67.5,2.05,2.05,0,0,0,.87.18,2.2,2.2,0,0,0,1.07-.23,3.7,3.7,0,0,0,.86-.63l1,1a5,5,0,0,1-.59.55,4.19,4.19,0,0,1-.67.42,3.75,3.75,0,0,1-.8.26A4.68,4.68,0,0,1,82.73,104Z" style="fill:#cfd3da"/><path d="M86.49,96.5h1.62v2.91h3V96.5h1.62v7.36H91.1v-3h-3v3H86.49Z" style="fill:#cfd3da"/><path d="M93.94,96.5h1.5L98.89,101V96.5h1.6v7.36H99.11l-3.57-4.68v4.68h-1.6Z" style="fill:#cfd3da"/><path d="M105.29,104a4,4,0,0,1-1.57-.3,3.92,3.92,0,0,1-1.24-.81,3.72,3.72,0,0,1-1.1-2.68v0a3.66,3.66,0,0,1,.3-1.48,3.84,3.84,0,0,1,.81-1.21,3.78,3.78,0,0,1,1.24-.82,4.12,4.12,0,0,1,1.58-.3,4,4,0,0,1,1.57.3,3.87,3.87,0,0,1,1.23.81,3.54,3.54,0,0,1,.81,1.2,3.65,3.65,0,0,1,.29,1.48v0a3.72,3.72,0,0,1-1.11,2.69,3.94,3.94,0,0,1-1.24.82A4,4,0,0,1,105.29,104Zm0-1.5a2.18,2.18,0,0,0,.89-.18,1.85,1.85,0,0,0,.7-.49,2,2,0,0,0,.45-.73,2.39,2.39,0,0,0,.17-.89v0a2.44,2.44,0,0,0-.17-.9,2.06,2.06,0,0,0-.46-.73,2.23,2.23,0,0,0-.71-.5,2,2,0,0,0-.89-.19,2.12,2.12,0,0,0-1.6.68,2.36,2.36,0,0,0-.45.73,2.38,2.38,0,0,0-.16.89v0a2.42,2.42,0,0,0,.16.89,2.25,2.25,0,0,0,.46.74,2.23,2.23,0,0,0,.71.5A2.19,2.19,0,0,0,105.31,102.49Z" style="fill:#cfd3da"/><path d="M110.11,96.5h1.62v5.9h3.67v1.46h-5.29Z" style="fill:#cfd3da"/><path d="M119.65,104a4,4,0,0,1-1.57-.3,3.87,3.87,0,0,1-1.23-.81,3.54,3.54,0,0,1-.81-1.2,3.65,3.65,0,0,1-.29-1.48v0A3.65,3.65,0,0,1,116,98.7a3.87,3.87,0,0,1,.82-1.21,3.68,3.68,0,0,1,1.24-.82,4.26,4.26,0,0,1,3.14,0,3.92,3.92,0,0,1,1.24.81,3.72,3.72,0,0,1,1.1,2.68v0a3.69,3.69,0,0,1-.3,1.48,3.88,3.88,0,0,1-3.63,2.33Zm0-1.5a2.26,2.26,0,0,0,.9-.18,2,2,0,0,0,.7-.49,2.36,2.36,0,0,0,.45-.73,2.38,2.38,0,0,0,.16-.89v0a2.44,2.44,0,0,0-.16-.9,2.21,2.21,0,0,0-1.17-1.23,2.11,2.11,0,0,0-.9-.19,2.19,2.19,0,0,0-.9.18,2,2,0,0,0-.69.5,2.21,2.21,0,0,0-.46.73,2.6,2.6,0,0,0-.16.89v0a2.65,2.65,0,0,0,.16.89,2.28,2.28,0,0,0,.47.74,2.12,2.12,0,0,0,1.6.68Z" style="fill:#cfd3da"/><path d="M128,104a4.23,4.23,0,0,1-1.58-.29,3.62,3.62,0,0,1-1.22-.79,3.44,3.44,0,0,1-.79-1.2,3.91,3.91,0,0,1-.29-1.51v0a3.76,3.76,0,0,1,1.1-2.69,3.69,3.69,0,0,1,1.22-.82,3.9,3.9,0,0,1,1.55-.3,5,5,0,0,1,.9.07,4.11,4.11,0,0,1,.75.19,3.57,3.57,0,0,1,.65.32,4.66,4.66,0,0,1,.59.43l-1,1.23c-.14-.12-.28-.22-.42-.32a3.68,3.68,0,0,0-.44-.23,2.34,2.34,0,0,0-.49-.14,2.58,2.58,0,0,0-.58-.06,1.9,1.9,0,0,0-.82.19A2.17,2.17,0,0,0,126,99.27a2.42,2.42,0,0,0-.16.89v0a2.61,2.61,0,0,0,.16.94,2.25,2.25,0,0,0,.46.74,2.15,2.15,0,0,0,1.61.66,2.51,2.51,0,0,0,1.52-.44V101H128v-1.4h3.2v3.2a5.6,5.6,0,0,1-1.35.83A4.57,4.57,0,0,1,128,104Z" style="fill:#cfd3da"/><path d="M134.25,101l-2.83-4.46h1.89l1.76,3,1.79-3h1.84l-2.83,4.43v2.93h-1.62Z" style="fill:#cfd3da"/><path d="M144.7,104a4.94,4.94,0,0,1-1.65-.29,4.46,4.46,0,0,1-1.47-.89l1-1.15a4.78,4.78,0,0,0,1,.65,2.85,2.85,0,0,0,1.17.25,1.45,1.45,0,0,0,.78-.19.57.57,0,0,0,.28-.51v0a.61.61,0,0,0-.06-.28.67.67,0,0,0-.22-.23,2.41,2.41,0,0,0-.45-.21c-.2-.07-.45-.14-.76-.22a9.45,9.45,0,0,1-1-.3,2.69,2.69,0,0,1-.77-.42,1.62,1.62,0,0,1-.49-.61,2.1,2.1,0,0,1-.18-.92v0a2.21,2.21,0,0,1,.19-.91,2.13,2.13,0,0,1,.53-.7,2.29,2.29,0,0,1,.81-.45,3.15,3.15,0,0,1,1-.16,4.21,4.21,0,0,1,2.74.94l-.84,1.22a5.21,5.21,0,0,0-1-.53,2.49,2.49,0,0,0-1-.2,1.09,1.09,0,0,0-.71.19.54.54,0,0,0-.24.45v0a.71.71,0,0,0,.07.31.64.64,0,0,0,.25.24,2.14,2.14,0,0,0,.49.2l.79.22a8.19,8.19,0,0,1,1,.33,2.65,2.65,0,0,1,.74.45,1.79,1.79,0,0,1,.46.6,2.09,2.09,0,0,1,.15.83v0a2.35,2.35,0,0,1-.2,1,2,2,0,0,1-.55.71,2.37,2.37,0,0,1-.85.44A3.48,3.48,0,0,1,144.7,104Z" style="fill:#cfd3da"/><path d="M151.84,104a4,4,0,0,1-1.57-.3,3.92,3.92,0,0,1-1.24-.81,3.66,3.66,0,0,1-1.09-2.68v0a3.65,3.65,0,0,1,.29-1.48,3.87,3.87,0,0,1,.82-1.21,3.68,3.68,0,0,1,1.24-.82,4.26,4.26,0,0,1,3.14,0,3.76,3.76,0,0,1,1.23.81,3.71,3.71,0,0,1,.82,1.2,3.82,3.82,0,0,1,.28,1.48v0a3.69,3.69,0,0,1-.29,1.48,3.79,3.79,0,0,1-2.06,2A4,4,0,0,1,151.84,104Zm0-1.5a2.26,2.26,0,0,0,.9-.18,1.89,1.89,0,0,0,.69-.49,2.21,2.21,0,0,0,.46-.73,2.38,2.38,0,0,0,.16-.89v0a2.44,2.44,0,0,0-.16-.9,2.23,2.23,0,0,0-.47-.73,2.12,2.12,0,0,0-.71-.5,2,2,0,0,0-.89-.19,2.19,2.19,0,0,0-.9.18,2,2,0,0,0-.69.5,2.21,2.21,0,0,0-.46.73,2.38,2.38,0,0,0-.16.89v0a2.42,2.42,0,0,0,.16.89,2.28,2.28,0,0,0,.47.74,2.12,2.12,0,0,0,1.6.68Z" style="fill:#cfd3da"/><path d="M156.66,96.5h1.62v5.9H162v1.46h-5.29Z" style="fill:#cfd3da"/><path d="M165.7,104a2.92,2.92,0,0,1-3.19-3.28V96.5h1.62v4.16a2,2,0,0,0,.42,1.37,1.76,1.76,0,0,0,2.34,0,1.85,1.85,0,0,0,.42-1.32V96.5h1.62v4.15a4.26,4.26,0,0,1-.23,1.46,2.73,2.73,0,0,1-.64,1,2.64,2.64,0,0,1-1,.62A4,4,0,0,1,165.7,104Z" style="fill:#cfd3da"/><path d="M171.75,98h-2.24V96.5h6.1V98h-2.24v5.87h-1.62Z" style="fill:#cfd3da"/><path d="M176.38,96.5H178v7.36h-1.62Z" style="fill:#cfd3da"/><path d="M182.87,104a4,4,0,0,1-1.57-.3,3.87,3.87,0,0,1-1.23-.81,3.54,3.54,0,0,1-.81-1.2,3.65,3.65,0,0,1-.29-1.48v0a3.72,3.72,0,0,1,1.11-2.69,3.68,3.68,0,0,1,1.24-.82,4.26,4.26,0,0,1,3.14,0,3.92,3.92,0,0,1,1.24.81,3.72,3.72,0,0,1,1.1,2.68v0a3.69,3.69,0,0,1-.3,1.48,3.84,3.84,0,0,1-.81,1.21,3.88,3.88,0,0,1-1.25.82A4,4,0,0,1,182.87,104Zm0-1.5a2.23,2.23,0,0,0,.9-.18,2,2,0,0,0,.7-.49,2.36,2.36,0,0,0,.45-.73,2.38,2.38,0,0,0,.16-.89v0a2.44,2.44,0,0,0-.16-.9,2.21,2.21,0,0,0-1.17-1.23,2.11,2.11,0,0,0-.9-.19,2.19,2.19,0,0,0-.9.18,2,2,0,0,0-.69.5,2.21,2.21,0,0,0-.46.73,2.6,2.6,0,0,0-.16.89v0a2.65,2.65,0,0,0,.16.89,2.28,2.28,0,0,0,.47.74,2.12,2.12,0,0,0,1.6.68Z" style="fill:#cfd3da"/><path d="M187.69,96.5h1.5l3.45,4.53V96.5h1.6v7.36h-1.38l-3.57-4.68v4.68h-1.6Z" style="fill:#cfd3da"/><path d="M198.09,104a4.94,4.94,0,0,1-1.65-.29,4.5,4.5,0,0,1-1.48-.89l1-1.15a4.84,4.84,0,0,0,1,.65,2.77,2.77,0,0,0,1.16.25,1.4,1.4,0,0,0,.78-.19.57.57,0,0,0,.28-.51v0a.61.61,0,0,0-.06-.28.59.59,0,0,0-.22-.23,2.41,2.41,0,0,0-.45-.21c-.19-.07-.45-.14-.76-.22a9.45,9.45,0,0,1-1-.3,2.69,2.69,0,0,1-.77-.42,1.72,1.72,0,0,1-.49-.61,2.1,2.1,0,0,1-.17-.92v0a2.21,2.21,0,0,1,.18-.91,2.19,2.19,0,0,1,1.34-1.15,3.19,3.19,0,0,1,1-.16,4.44,4.44,0,0,1,1.49.24,4.27,4.27,0,0,1,1.25.7l-.84,1.22a4.92,4.92,0,0,0-1-.53,2.49,2.49,0,0,0-1-.2,1.11,1.11,0,0,0-.71.19.53.53,0,0,0-.23.45v0a.71.71,0,0,0,.06.31.64.64,0,0,0,.25.24,2.35,2.35,0,0,0,.49.2l.79.22a9,9,0,0,1,1,.33,2.74,2.74,0,0,1,.73.45,1.56,1.56,0,0,1,.46.6,2.09,2.09,0,0,1,.15.83v0a2.2,2.2,0,0,1-.2,1,1.92,1.92,0,0,1-.55.71,2.37,2.37,0,0,1-.85.44A3.42,3.42,0,0,1,198.09,104Z" style="fill:#cfd3da"/></svg>