<?xml version="1.0" encoding="UTF-8"?>
<svg width="103px" height="96px" viewBox="0 0 103 96" version="1.1" xmlns="http://www.w3.org/2000/svg" xmlns:xlink="http://www.w3.org/1999/xlink">
    <!-- Generator: Sketch 61.2 (89653) - https://sketch.com -->
    <title>platform</title>
    <desc>Created with Sketch.</desc>
    <g id="Mockups" stroke="none" stroke-width="1" fill="none" fill-rule="evenodd">
        <g id="GoogleAds-|-Landing" transform="translate(-305.000000, -2272.000000)" fill="#4F4959" fill-rule="nonzero">
            <g id="platform" transform="translate(305.000000, 2272.000000)">
                <path d="M76.6342,12.9664 C76.6208,12.959 76.608,12.951 76.5946,12.9438 L52.5946,0.3438 C51.7216,-0.1146 50.6786,-0.1146 49.8056,0.3438 L25.8056,12.9438 C24.8016,13.473 24.2,14.5132 24.2,15.6 L24.2,42 C24.2,43.0344 24.7328,43.9958 25.61,44.544 L49.61,59.544 C50.576,60.1494 51.8218,60.1492 52.79,59.544 L76.79,44.544 C77.6672,43.9958 78.2,43.0344 78.2,42 L78.2,15.6 C78.2,14.5366 77.6222,13.5036 76.6342,12.9664 Z M48.2,51.5872 L30.2,40.3372 L30.2,20.8986 L48.2,31.6986 L48.2,51.5872 Z M51.2,26.5014 L33.3216,15.7744 L51.2,6.3882 L69.0784,15.7744 L51.2,26.5014 Z M72.2,40.3372 L54.2,51.5872 L54.2,31.6986 L72.2,20.8986 L72.2,40.3372 Z" id="Shape"></path>
                <path d="M99.4,12 C97.7432,12 96.4,13.3432 96.4,15 L96.4,21 C96.4,22.6568 97.7432,24 99.4,24 C101.0568,24 102.4,22.6568 102.4,21 L102.4,15 C102.4,13.3432 101.0568,12 99.4,12 Z" id="Path"></path>
                <path d="M99.4,30 C97.7432,30 96.4,31.3432 96.4,33 L96.4,39 C96.4,40.6568 97.7432,42 99.4,42 C101.0568,42 102.4,40.6568 102.4,39 L102.4,33 C102.4,31.3432 101.0568,30 99.4,30 Z" id="Path"></path>
                <path d="M99.4,48 C97.7432,48 96.4,49.3432 96.4,51 L96.4,57 C96.4,58.6568 97.7432,60 99.4,60 C101.0568,60 102.4,58.6568 102.4,57 L102.4,51 C102.4,49.3432 101.0568,48 99.4,48 Z" id="Path"></path>
                <path d="M99.4,66 C97.7432,66 96.4,67.3432 96.4,69 L96.4,77.1616 L51.9248,66.089 C51.4486,65.9704 50.9514,65.9704 50.4752,66.089 L6,77.1616 L6,69 C6,67.3432 4.6568,66 3,66 C1.3432,66 0,67.3432 0,69 L0,81 C0,82.3968 0.9762,83.5898 2.2752,83.9112 L50.4752,95.9112 C50.7132,95.9704 50.9566,96 51.2,96 C51.4434,96 51.6868,95.9704 51.9248,95.9112 L100.1248,83.9112 C101.4416,83.5854 102.4,82.3814 102.4,81 L102.4,69 C102.4,67.3432 101.0568,66 99.4,66 Z M51.2,89.9084 L15.4178,81 L51.2,72.0916 L86.9822,81 L51.2,89.9084 Z" id="Shape"></path>
                <path d="M3,12 C1.3432,12 0,13.3432 0,15 L0,21 C0,22.6568 1.3432,24 3,24 C4.6568,24 6,22.6568 6,21 L6,15 C6,13.3432 4.6568,12 3,12 Z" id="Path"></path>
                <path d="M3,30 C1.3432,30 0,31.3432 0,33 L0,39 C0,40.6568 1.3432,42 3,42 C4.6568,42 6,40.6568 6,39 L6,33 C6,31.3432 4.6568,30 3,30 Z" id="Path"></path>
                <path d="M3,48 C1.3432,48 0,49.3432 0,51 L0,57 C0,58.6568 1.3432,60 3,60 C4.6568,60 6,58.6568 6,57 L6,51 C6,49.3432 4.6568,48 3,48 Z" id="Path"></path>
                <path d="M15,0 C13.3432,0 12,1.3432 12,3 L12,9 C12,10.6568 13.3432,12 15,12 C16.6568,12 18,10.6568 18,9 L18,3 C18,1.3432 16.6568,0 15,0 Z" id="Path"></path>
                <path d="M15,18 C13.3432,18 12,19.3432 12,21 L12,27 C12,28.6568 13.3432,30 15,30 C16.6568,30 18,28.6568 18,27 L18,21 C18,19.3432 16.6568,18 15,18 Z" id="Path"></path>
                <path d="M15,36 C13.3432,36 12,37.3432 12,39 L12,45 C12,46.6568 13.3432,48 15,48 C16.6568,48 18,46.6568 18,45 L18,39 C18,37.3432 16.6568,36 15,36 Z" id="Path"></path>
                <path d="M15,54 C13.3432,54 12,55.3432 12,57 L12,63 C12,64.6568 13.3432,66 15,66 C16.6568,66 18,64.6568 18,63 L18,57 C18,55.3432 16.6568,54 15,54 Z" id="Path"></path>
                <path d="M87.4,0 C85.7432,0 84.4,1.3432 84.4,3 L84.4,9 C84.4,10.6568 85.7432,12 87.4,12 C89.0568,12 90.4,10.6568 90.4,9 L90.4,3 C90.4,1.3432 89.0568,0 87.4,0 Z" id="Path"></path>
                <path d="M87.4,18 C85.7432,18 84.4,19.3432 84.4,21 L84.4,27 C84.4,28.6568 85.7432,30 87.4,30 C89.0568,30 90.4,28.6568 90.4,27 L90.4,21 C90.4,19.3432 89.0568,18 87.4,18 Z" id="Path"></path>
                <path d="M87.4,36 C85.7432,36 84.4,37.3432 84.4,39 L84.4,45 C84.4,46.6568 85.7432,48 87.4,48 C89.0568,48 90.4,46.6568 90.4,45 L90.4,39 C90.4,37.3432 89.0568,36 87.4,36 Z" id="Path"></path>
                <path d="M87.4,54 C85.7432,54 84.4,55.3432 84.4,57 L84.4,63 C84.4,64.6568 85.7432,66 87.4,66 C89.0568,66 90.4,64.6568 90.4,63 L90.4,57 C90.4,55.3432 89.0568,54 87.4,54 Z" id="Path"></path>
            </g>
        </g>
    </g>
</svg>