<?xml version="1.0" encoding="UTF-8"?>
<svg width="96px" height="96px" viewBox="0 0 96 96" version="1.1" xmlns="http://www.w3.org/2000/svg" xmlns:xlink="http://www.w3.org/1999/xlink">
    <!-- Generator: Sketch 61.2 (89653) - https://sketch.com -->
    <title>real-estate</title>
    <desc>Created with Sketch.</desc>
    <g id="Mockups" stroke="none" stroke-width="1" fill="none" fill-rule="evenodd">
        <g id="GoogleAds-|-Landing" transform="translate(-922.000000, -4159.000000)" fill="#72C02C" fill-rule="nonzero">
            <g id="real-estate" transform="translate(922.000000, 4159.000000)">
                <path d="M26.09925,19.875 C31.57875,19.875 36.03675,15.4171875 36.03675,9.9375 C36.03675,4.4578125 31.57875,0 26.09925,0 C20.61975,0 16.16175,4.4578125 16.16175,9.9375 C16.16175,15.4171875 20.6195625,19.875 26.09925,19.875 Z M26.09925,5.625 C28.477125,5.625 30.41175,7.5594375 30.41175,9.9375 C30.41175,12.3155625 28.477125,14.25 26.09925,14.25 C23.721375,14.25 21.78675,12.3155625 21.78675,9.9375 C21.78675,7.5594375 23.7211875,5.625 26.09925,5.625 Z" id="Shape"></path>
                <path d="M95.9926875,54.4618125 L95.9926875,30.673125 C95.9926875,24.1576875 90.6920625,18.8570625 84.176625,18.8570625 C77.6611875,18.8570625 72.360375,24.1576875 72.360375,30.673125 L72.360375,31.7379375 C70.8635625,30.93375 69.1539375,30.47625 67.339125,30.47625 C61.4686875,30.47625 56.6930625,35.2520625 56.6930625,41.1223125 L56.6930625,55.6318125 C56.6930625,60.5285625 60.01725,64.66125 64.526625,65.898 L64.526625,75.7695 C57.91125,75.22425 51.7965,74.79525 46.08675,74.4759375 L46.08675,56.7721875 L48.708,58.8388125 L52.190625,54.4215 L26.09925,33.850125 L0.0076875,54.421875 L3.4903125,58.8391875 L6.1115625,56.7725625 L6.1115625,74.261625 C4.9070625,74.3416875 3.72975,74.4309375 2.582625,74.52975 L0.0118125,74.7515625 L0.0118125,96.0005625 L95.9926875,96.0005625 L95.9926875,78.811125 L93.478125,78.5431875 C91.2688125,78.307875 89.1075,78.082125 86.9893125,77.8651875 L86.9893125,65.9371875 C92.1508125,64.6715625 95.9926875,60.0080625 95.9926875,54.4618125 L95.9926875,54.4618125 Z M77.9855625,30.673125 C77.9855625,27.2595 80.763,24.4820625 84.1768125,24.4820625 C87.5904375,24.4820625 90.367875,27.2595 90.367875,30.673125 L90.367875,54.4618125 C90.367875,57.875625 87.5904375,60.6530625 84.1768125,60.6530625 C80.763,60.6530625 77.9855625,57.875625 77.9855625,54.4618125 L77.9855625,30.673125 Z M72.3605625,55.6318125 C72.3605625,58.400625 70.1079375,60.652875 67.3393125,60.652875 C64.5706875,60.652875 62.31825,58.4004375 62.31825,55.6318125 L62.31825,41.1223125 C62.31825,38.3535 64.5706875,36.10125 67.3393125,36.10125 C70.1079375,36.10125 72.3605625,38.3536875 72.3605625,41.1223125 L72.3605625,55.6318125 Z M11.7365625,52.3374375 L26.0990625,41.013375 L40.46175,52.337625 L40.46175,74.1913125 C38.471625,74.1015 36.5315625,74.0259375 34.6366875,73.9644375 L34.6366875,65.222625 C34.6366875,60.5150625 30.8068125,56.6851875 26.0990625,56.6851875 C21.3915,56.6851875 17.561625,60.5150625 17.561625,65.222625 L17.561625,73.8015 C15.5668125,73.8354375 13.62375,73.89 11.7365625,73.965375 L11.7365625,52.3374375 Z M29.0116875,73.82025 C27.022875,73.7836875 25.083,73.763625 23.186625,73.759875 L23.186625,65.22225 C23.186625,63.6163125 24.493125,62.3098125 26.0990625,62.3098125 C27.705,62.3098125 29.0116875,63.6163125 29.0116875,65.22225 L29.0116875,73.82025 Z M90.3676875,90.375375 L5.6368125,90.375375 L5.6368125,79.932 C10.756125,79.56825 16.4265,79.384125 22.5350625,79.384125 C39.847125,79.384125 60.846,80.770875 90.3676875,83.870625 L90.3676875,90.375375 Z M70.151625,76.2508125 L70.151625,65.8981875 C72.2671875,65.317875 74.121375,64.101375 75.4940625,62.466 C77.044125,64.1461875 79.074,65.375625 81.364125,65.9371875 L81.364125,77.3004375 C77.4755625,76.9179375 73.74225,76.5684375 70.151625,76.2508125 L70.151625,76.2508125 Z" id="Shape"></path>
            </g>
        </g>
    </g>
</svg>