<?xml version="1.0" encoding="UTF-8"?>
<svg width="30px" height="30px" viewBox="0 0 30 30" version="1.1" xmlns="http://www.w3.org/2000/svg" xmlns:xlink="http://www.w3.org/1999/xlink">
    <!-- Generator: Sketch 51.3 (57544) - http://www.bohemiancoding.com/sketch -->
    <title>location</title>
    <desc>Created with Sketch.</desc>
    <defs></defs>
    <g id="Jobs" stroke="none" stroke-width="1" fill="none" fill-rule="evenodd">
        <g transform="translate(-226.000000, -841.000000)" id="location">
            <g transform="translate(226.000000, 841.000000)">
                <path d="M14.6117284,24.5962963 C15.2098765,23.754321 14.9962963,22.1981481 14.154321,21.2660494 C13.7425926,20.7938272 13.1641975,20.4981481 12.5401235,20.4419753 C12.1740741,20.462963 11.8197531,20.5765432 11.5092593,20.7722222 L11.2851852,20.8851852 C10.7012346,21.1740741 8.67962963,22.1030864 7.0654321,21.9216049 C5.45123457,21.7401235 4.40679012,20.5117284 3.78333333,19.7765432 C2.29259259,18.032716 2.0037037,16.1253086 1.69753086,14.1024691 C1.61728395,13.5734568 1.52839506,12.962963 1.47530864,12.2771605 C1.29320988,13.1783951 1.20061728,14.095679 1.19876543,15.0148148 C1.20864198,21.6333333 5.90493827,27.3179012 12.4030864,28.5771605 C12.1216049,27.7617284 12.1993827,26.8654321 12.6160494,26.1104938 C12.8993827,25.645679 13.3376543,25.2962963 13.8530864,25.1234568 C14.1549383,25.0302469 14.4197531,24.8462963 14.6117284,24.5962963 Z" id="Shape"></path>
                <path d="M20.5944444,5.36111111 C20.3,5.30679012 19.9962963,5.37160494 19.7506173,5.54135802 C19.0037037,6.10246914 18.6716049,7.69753086 19.3796296,8.83271605 C19.8740741,9.62222222 20.8061728,9.82530864 21.9858025,10.082716 C22.5938272,10.2141975 23.2222222,10.2111111 23.8290123,10.0734568 C24.5419753,9.91049383 25.2833333,9.91790123 25.9925926,10.0962963 C26.7716049,10.3179012 27.5018519,10.682716 28.1469136,11.1722222 C28.2123457,11.2234568 28.2703704,11.2876543 28.332716,11.3432099 C27.5722222,8.57469136 25.9666667,6.11296296 23.7401235,4.30061728 C23.6487654,4.22592593 23.55,4.16111111 23.4567901,4.08950617 C23.0901235,4.51851852 22.6358025,4.86419753 22.1246914,5.1037037 C21.6438272,5.3154321 21.1179012,5.40432099 20.5944444,5.36111111 Z" id="Shape"></path>
                <path d="M14.4135802,0.833333333 C14.5864198,1.23580247 14.1845679,2.48209877 13.9598765,2.85740741 C13.3802469,3.82592593 13.2981481,5.07469136 13.7450617,6.11049383 C14.3197531,7.44197531 15.7030864,8.45 15.7783951,9.89814815 C15.8438272,11.162963 14.8567901,12.2382716 13.8030864,12.9407407 C12.9759259,13.4925926 12.0641975,13.9179012 11.1104938,14.1981481 C10.4746914,14.3845679 9.78888889,14.5240741 9.30246914,14.9734568 C8.41419753,15.7944444 8.76728395,17.5296296 9.90555556,17.9382716 C10.4351852,18.1290123 11.017284,18.0567901 11.5796296,18.0222222 C12.808642,17.9462963 14.2962963,17.6895062 15.4907407,17.9882716 C15.7222222,18.0462963 15.9648148,18.1185185 16.1277778,18.2925926 C16.2851852,18.4611111 16.3425926,18.6975309 16.3888889,18.9240741 C16.5858025,19.8802469 17.254321,21.2246914 17.2808642,22.2006173 C17.2950617,22.7117284 16.9549383,23.3055556 17.3709877,23.6024691 C17.7777778,23.8925926 17.937037,23.7302469 18.3123457,23.4 C18.6876543,23.0697531 18.917284,22.6098765 19.2080247,22.2030864 C20.1364198,20.9037037 21.7808642,20.1524691 23.3709877,20.3018519 C24.5339506,20.4104938 25.6049383,20.9549383 26.6407407,21.4975309 C26.6623457,21.508642 26.6833333,21.5197531 26.7049383,21.5308642 C26.8660494,21.6154321 27.4635802,21.7907407 27.5623457,21.9432099 C27.7592593,22.245679 27.3611111,22.3654321 27.1919753,22.6839506 C24.9851852,26.85 19.9679012,29.3623457 15.2555556,29.5209877 C14.6475309,29.541358 14.0185185,29.5265432 13.4641975,29.2759259 C12.9098765,29.0253086 12.4469136,28.4839506 12.462963,27.8759259 C12.4888889,26.882716 13.6253086,26.358642 14.2222222,25.5648148 C15.0469136,24.4679012 14.7771605,22.9141975 14.3246914,21.6185185 C14.237037,21.3685185 14.1351852,21.1067901 13.9253086,20.9444444 C13.6938272,20.7654321 13.3790123,20.7444444 13.087037,20.7592593 C11.5851852,20.8351852 10.2104938,21.6512346 8.71790123,21.8345679 C7.27222222,22.0123457 5.75987654,21.5555556 4.6537037,20.6074074 C3.29259259,19.4401235 2.61481481,17.6518519 2.32037037,15.8833333 C2.13641975,14.7802469 2.15493827,13.654321 1.97283951,12.5512346 C1.84012346,11.7444444 1.00864198,11.2796296 1.2037037,10.4617284" id="Shape" stroke="#72C02C" stroke-width="0.925925926"></path>
                <path d="M24.737037,3.74197531 C24.2376543,3.34753086 23.6858025,3.13395062 23.0635802,3.37160494 C22.5432099,3.57037037 22.1123457,3.8882716 21.5462963,3.96358025 C20.7932099,4.06419753 19.9987654,4.07037037 19.3506173,4.52345679 C18.8246914,4.89135802 18.458642,5.43271605 18.2709877,6.04382716 C17.8567901,7.38950617 18.441358,8.77901235 19.4222222,9.71851852 C19.9592593,10.232716 20.6024691,10.6339506 21.2969136,10.8969136 C22.0808642,11.1932099 22.9197531,11.2061728 23.745679,11.1506173 C24.6283951,11.091358 25.5061728,10.9950617 26.3783951,11.1987654 C27.1993827,11.3901235 27.967284,11.7716049 28.608642,12.3197531 C29.0592593,12.7049383 29.717284,12.0530864 29.2635802,11.6648148 C28.2290123,10.7808642 26.954321,10.2425926 25.5932099,10.154321 C24.1395062,10.0604938 22.65,10.554321 21.2722222,9.88518519 C20.237037,9.38209877 19.1950617,8.42716049 19.0697531,7.21666667 C19.0154321,6.69444444 19.1425926,6.15308642 19.4407407,5.7191358 C19.7851852,5.2191358 20.3216049,5.03395062 20.9030864,4.95864198 C21.5993827,4.86851852 22.2154321,4.82098765 22.8518519,4.49938272 C23.3012346,4.27222222 23.6314815,4.03888889 24.0833333,4.3962963 C24.2808642,4.55246914 24.5444444,4.58580247 24.7382716,4.3962963 C24.8993827,4.23765432 24.932716,3.89691358 24.737037,3.74197531 Z" id="Shape" fill="#72C02C" fill-rule="nonzero"></path>
                <path d="M15,1.04938272 C16.8839506,1.04938272 18.7104938,1.41790123 20.4296296,2.14506173 C22.0907407,2.84753086 23.582716,3.8537037 24.8641975,5.13518519 C26.145679,6.41666667 27.1518519,7.90864198 27.854321,9.56975309 C28.5820988,11.2895062 28.9506173,13.1160494 28.9506173,15 C28.9506173,16.8839506 28.5820988,18.7104938 27.8549383,20.4296296 C27.1524691,22.0907407 26.1462963,23.582716 24.8648148,24.8641975 C23.5833333,26.145679 22.091358,27.1518519 20.4302469,27.854321 C18.7104938,28.5820988 16.8839506,28.9506173 15,28.9506173 C13.1160494,28.9506173 11.2895062,28.5820988 9.57037037,27.8549383 C7.90925926,27.1524691 6.41728395,26.1462963 5.13580247,24.8648148 C3.85432099,23.5833333 2.84814815,22.091358 2.14567901,20.4302469 C1.41790123,18.7104938 1.04938272,16.8839506 1.04938272,15 C1.04938272,13.1160494 1.41790123,11.2895062 2.14506173,9.57037037 C2.84753086,7.90925926 3.8537037,6.41728395 5.13518519,5.13580247 C6.41666667,3.85432099 7.90864198,2.84814815 9.56975309,2.14567901 C11.2895062,1.41790123 13.1160494,1.04938272 15,1.04938272 Z M15,0 C6.7154321,0 0,6.7154321 0,15 C0,23.2845679 6.7154321,30 15,30 C23.2845679,30 30,23.2845679 30,15 C30,6.7154321 23.2845679,0 15,0 Z" id="Shape" fill="#72C02C" fill-rule="nonzero"></path>
                <g id="Group" transform="translate(11.111111, 9.753086)">
                    <polygon id="Shape" fill="#FFFFFF" fill-rule="nonzero" points="3.50802469 9.71728395 0.845679012 5.1882716 0.565432099 2.2654321 2.08209877 0.860493827 4.30493827 0.450617284 6.17530864 1.46790123 6.86234568 2.50925926 7.13765432 4.15864198 5.57037037 6.83024691 4.11296296 9.71728395"></polygon>
                    <path d="M5.65493827,1.59691358 C5.19506173,1.18271605 4.61358025,0.927777778 3.99691358,0.872222222 C3.90864198,0.864197531 3.82037037,0.859876543 3.73148148,0.859876543 C2.1382716,0.861728395 0.847530864,2.15246914 0.845679012,3.74567901 C0.878395062,4.1845679 0.994444444,4.61234568 1.1882716,5.00740741 C1.44876543,5.59753086 1.74567901,6.17098765 2.07901235,6.72345679 C2.67654321,7.73148148 3.34382716,8.69135802 3.73148148,9.23148148 C4.54012346,8.12037037 5.27283951,6.95555556 5.92530864,5.7462963 C6.49691358,4.62962963 6.61728395,4.04197531 6.61728395,3.74567901 C6.61728395,2.92530864 6.26728395,2.14320988 5.65493827,1.59691358 Z M3.73148148,4.98271605 C2.82098765,4.98271605 2.08271605,4.24444444 2.08271605,3.33395062 C2.08271605,2.42345679 2.82098765,1.68518519 3.73148148,1.68518519 C4.64197531,1.68518519 5.38024691,2.42345679 5.38024691,3.33395062 C5.38024691,4.24444444 4.64197531,4.98271605 3.73148148,4.98271605 Z" id="Shape"></path>
                    <circle id="Oval" transform="translate(3.731385, 3.332569) rotate(-13.285796) translate(-3.731385, -3.332569) " cx="3.73138506" cy="3.33256926" r="1"></circle>
                    <path d="M7.44197531,3.7462963 C7.4382716,2.33148148 6.63395062,1.04074074 5.3654321,0.414197531 L5.33950617,0.402469136 C5.24753086,0.358024691 5.1537037,0.316049383 5.05802469,0.279012346 C4.99259259,0.253703704 4.92407407,0.233333333 4.85740741,0.212345679 C4.81604938,0.2 4.77901235,0.184567901 4.73888889,0.170987654 C4.63271605,0.140740741 4.52469136,0.116049383 4.41604938,0.0956790123 L4.41049383,0.0956790123 C4.34444444,0.0833333333 4.27777778,0.0765432099 4.21111111,0.0679012346 C3.15123457,-0.0790123457 2.07962963,0.242592593 1.27530864,0.948765432 C0.470987654,1.65493827 0.0135802469,2.67592593 0.0216049383,3.74567901 C0.0537037037,4.29506173 0.192592593,4.83333333 0.42962963,5.33024691 C0.660493827,5.85617284 3.36234568,10.1240741 3.40246914,10.1783951 C3.48024691,10.2820988 3.60246914,10.3432099 3.73209877,10.3432099 C3.8617284,10.3432099 3.98395062,10.2820988 4.0617284,10.1783951 C4.95617284,8.9808642 7.44197531,4.98271605 7.44197531,3.7462963 Z M5.92530864,5.74691358 C5.27283951,6.95679012 4.54012346,8.12098765 3.73148148,9.23209877 C3.34382716,8.69135802 2.67592593,7.73209877 2.07901235,6.72407407 C1.7462963,6.17160494 1.44876543,5.59814815 1.1882716,5.00802469 C0.994444444,4.61296296 0.877777778,4.18518519 0.845679012,3.7462963 C0.847530864,2.15308642 2.1382716,0.862345679 3.73148148,0.860493827 C3.82037037,0.860493827 3.90925926,0.864814815 3.99691358,0.872839506 C4.61358025,0.928395062 5.19506173,1.18333333 5.65493827,1.59753086 C6.26728395,2.14382716 6.61790123,2.92592593 6.61728395,3.74691358 C6.61728395,4.04259259 6.49691358,4.63024691 5.92530864,5.74691358 Z" id="Shape" fill="#72C02C" fill-rule="nonzero"></path>
                    <path d="M3.73148148,1.6845679 C2.82098765,1.6845679 2.08271605,2.42283951 2.08271605,3.33333333 C2.08271605,4.24444444 2.82098765,4.98209877 3.73148148,4.98209877 C4.64197531,4.98209877 5.38024691,4.24382716 5.38024691,3.33333333 C5.38024691,2.42345679 4.64197531,1.6845679 3.73148148,1.6845679 Z M3.73148148,4.15864198 C3.27592593,4.15864198 2.90679012,3.78950617 2.90679012,3.33395062 C2.90679012,2.87839506 3.27592593,2.50925926 3.73148148,2.50925926 C4.18703704,2.50925926 4.55617284,2.87839506 4.55617284,3.33395062 C4.55617284,3.78950617 4.18703704,4.15864198 3.73148148,4.15864198 Z" id="Shape" fill="#72C02C" fill-rule="nonzero"></path>
                </g>
            </g>
        </g>
    </g>
</svg>