<?xml version="1.0" encoding="UTF-8"?>
<svg width="96px" height="96px" viewBox="0 0 96 96" version="1.1" xmlns="http://www.w3.org/2000/svg" xmlns:xlink="http://www.w3.org/1999/xlink">
    <!-- Generator: Sketch 61.2 (89653) - https://sketch.com -->
    <title>rocket</title>
    <desc>Created with Sketch.</desc>
    <g id="Mockups" stroke="none" stroke-width="1" fill="none" fill-rule="evenodd">
        <g id="GoogleAds-|-Landing" transform="translate(-300.000000, -1998.000000)" fill="#4F4959" fill-rule="nonzero">
            <g id="rocket" transform="translate(300.000000, 1998.000000)">
                <path d="M92.202375,7.09687899e-05 C77.41275,0.1873125 62.7645,6.01725 51.70725,17.074875 L37.212,31.570125 C29.6925,26.47575 19.197375,27.108375 12.3361875,33.96975 L1.098,45.20775 C-0.365625,46.671375 -0.3661875,49.0468125 1.098,50.5111875 C7.8226875,57.2355 18.300375,58.0843125 25.971,52.9078125 L31.879875,58.8165 L23.2935,67.402875 C21.8289375,68.8674375 21.8289375,71.2419375 23.2935,72.7063125 C24.7576875,74.1705 27.132375,74.170875 28.59675,72.7063125 L37.1833125,64.11975 L43.0891875,70.025625 C37.9948125,77.5453125 38.6274375,88.04025 45.4888125,94.901625 C46.9531875,96.366 49.3273125,96.366 50.7920625,94.901625 L62.03025,83.6634375 C68.88975,76.8039375 69.5255625,66.309375 64.429875,58.787625 L78.925125,44.292375 C89.383875,33.833625 95.8018125,19.4334375 96.0001171,3.7970625 C96.0260625,1.721625 94.3524375,-0.0163125 92.202375,7.09687899e-05 Z M23.5741875,45.20775 C19.76475,49.017375 14.0326875,49.7615625 9.47175,47.4405 L17.63925,39.2728125 C21.5461875,35.36625 27.303,34.7649375 31.7454375,37.0363125 L23.5741875,45.20775 Z M56.726625,78.3601875 L48.555375,86.531625 C46.2834375,82.0884375 46.8860625,76.3310625 50.791875,72.4254375 L58.963125,64.2541875 C61.2350625,68.697375 60.6324375,74.4545625 56.726625,78.3601875 L56.726625,78.3601875 Z M73.6216875,38.989125 C72.1408125,40.47 49.624125,62.9866875 48.14025,64.4705625 L42.486375,58.8166875 L51.0729375,50.230125 C52.5375,48.7655625 52.5375,46.3910625 51.0729375,44.9266875 C49.608375,43.462125 47.2340625,43.462125 45.7696875,44.9266875 L37.183125,53.51325 L31.5294375,47.8595625 C33.084375,46.304625 55.598625,23.790375 57.010875,22.378125 C65.724,13.6651875 76.94475,8.7406875 88.2935625,7.706625 C87.259125,19.055625 82.3344375,30.2761875 73.6216875,38.989125 Z" id="Shape"></path>
            </g>
        </g>
    </g>
</svg>