<svg id="Capa_1" data-name="Capa 1" xmlns="http://www.w3.org/2000/svg" viewBox="0 0 29.86 29.86"><defs><style>.cls-1{fill:#72c02c;}</style></defs><title>salary-range</title><path class="cls-1" d="M15,1.08A13.89,13.89,0,1,1,1.08,15,13.9,13.9,0,0,1,15,1.08m0-1A14.94,14.94,0,1,0,29.9,15,14.94,14.94,0,0,0,15,0Z" transform="translate(-0.03 -0.03)"/><path class="cls-1" d="M14.88,4.83a.63.63,0,0,0-.63.63v9.2a.25.25,0,0,0,.24.25h.77a.25.25,0,0,0,.25-.25V5.46a.63.63,0,0,0-.63-.63Z" transform="translate(-0.03 -0.03)"/><path class="cls-1" d="M15.23,14.84h-.77a.25.25,0,0,0-.24.25V24.3a.63.63,0,0,0,1.26,0V15.09a.25.25,0,0,0-.25-.25Z" transform="translate(-0.03 -0.03)"/><path class="cls-1" d="M15,15.63h0l-1.48-.05a4,4,0,0,1-2.76-6.9,3.88,3.88,0,0,1,2.86-1.15l5,0a.65.65,0,0,1,0,1.29l-5,0a2.86,2.86,0,0,0-1.94.78,2.74,2.74,0,0,0-.82,1.93,2.75,2.75,0,0,0,2.71,2.76l1.49.05a.65.65,0,0,1,0,1.29Z" transform="translate(-0.03 -0.03)"/><path class="cls-1" d="M16.48,22.43h0l-6.38-.05a.65.65,0,0,1-.64-.65.67.67,0,0,1,.65-.64l6.38.05a2.73,2.73,0,0,0,2.76-2.71,2.73,2.73,0,0,0-2.7-2.76L15,15.62a.64.64,0,0,1-.62-.66.66.66,0,0,1,.67-.63l1.48.05a4,4,0,0,1,2.81,1.21,3.93,3.93,0,0,1,1.15,2.86A4,4,0,0,1,16.48,22.43Z" transform="translate(-0.03 -0.03)"/></svg>