<?xml version="1.0" encoding="utf-8"?>
<!-- Generator: Adobe Illustrator 23.0.1, SVG Export Plug-In . SVG Version: 6.00 Build 0)  -->
<svg version="1.1" id="Layer_1" xmlns="http://www.w3.org/2000/svg" xmlns:xlink="http://www.w3.org/1999/xlink" x="0px" y="0px"
	 viewBox="0 0 1600 1489.9" style="enable-background:new 0 0 1600 1489.9;" xml:space="preserve">
<style type="text/css">
	.st0{fill:#FFFFFF;}
	.st1{fill:none;stroke:#CCCCCC;stroke-width:4;stroke-linecap:round;stroke-linejoin:round;}
	.st2{fill:#CCCCCC;}
	.st3{fill:none;stroke:#4F4959;stroke-width:4;}
	.st4{fill:#74BE44;}
	.st5{fill:none;stroke:#4F4959;stroke-width:4;stroke-linejoin:round;}
	.st6{fill:none;stroke:#4F4959;stroke-width:4;stroke-dasharray:4.0411,4.0411;}
	.st7{fill:none;stroke:#74BE44;stroke-width:4;}
	.st8{fill:#FFFFFF;stroke:#4F4959;stroke-width:4;}
	.st9{fill:none;stroke:#CCCCCC;stroke-width:3;stroke-linecap:round;stroke-linejoin:round;stroke-dasharray:12,16;}
	.st10{fill:#666666;}
	.st11{fill:#999999;}
	.st12{fill:none;stroke:#4F4959;stroke-width:4;stroke-dasharray:4,4;}
</style>
<g id="BG">
	<rect y="-0.5" class="st0" width="1600" height="1490.4"/>
</g>
<g id="LINES">
	<polyline class="st1" points="155.8,145.5 257.8,145.5 257.8,193.5 	"/>
	<polyline class="st1" points="261.8,531.5 261.8,1405.8 158.8,1405.8 	"/>
	<polyline class="st1" points="914.4,145.5 642.7,145.5 642.7,191.5 	"/>
	<polyline class="st1" points="645.7,531.5 645.7,1405.8 917.4,1405.8 	"/>
</g>
<g>
	<g>
		<path class="st2" d="M91.7,95.2c-3.1,0-5.4,2.4-5.4,5.6s2.3,5.7,5.4,5.7c1.7,0,3.6-0.9,5-2.3l3.1,3.3c-2.1,2.3-5.4,3.7-8.3,3.7
			c-6,0-10.5-4.4-10.5-10.3c0-5.8,4.6-10.1,10.7-10.1c3,0,6.1,1.3,8.1,3.4l-3,3.6C95.3,96.3,93.4,95.2,91.7,95.2z"/>
		<path class="st2" d="M107.2,90.9v15.6h8.5v4.5H102V90.9H107.2z"/>
		<path class="st2" d="M123.3,90.9V111h-5.2V90.9H123.3z"/>
		<path class="st2" d="M143.1,90.9v4.2h-10.6v3.8h9.6v4.2h-9.6v3.8h10.9v4.2h-16.1V90.9H143.1z"/>
		<path class="st2" d="M151.2,90.9l9.1,12.1V90.9h4.9V111h-4.6l-9.1-12v12h-4.9V90.9H151.2z"/>
		<path class="st2" d="M184.5,90.9v4.3h-6V111h-5.2V95.3h-6V91L184.5,90.9L184.5,90.9z"/>
		<path class="st2" d="M200.6,95c-1.3,0-2.1,0.5-2.1,1.4c0,3.3,10.6,1.4,10.6,8.6c0,4.1-3.6,6.2-8.1,6.2c-3.4,0-6.8-1.2-9.3-3.2
			l2-4.1c2.1,1.8,5.2,3,7.3,3c1.5,0,2.5-0.6,2.5-1.6c0-3.4-10.6-1.3-10.6-8.4c0-3.8,3.2-6.1,8-6.1c3,0,5.9,0.9,8,2.3l-2,4.2
			C205,95.9,202.3,95,200.6,95z"/>
		<path class="st2" d="M217,90.9V111h-5.2V90.9H217z"/>
		<path class="st2" d="M240.2,101c0,6-4.4,10.1-10.9,10.1h-8.4V90.9h8.6C235.9,90.9,240.2,95,240.2,101z M234.9,101
			c0-3.5-2.3-5.8-5.4-5.8h-3.3v11.6h3.6C232.7,106.8,234.9,104.5,234.9,101z"/>
		<path class="st2" d="M258.7,90.9v4.2h-10.6v3.8h9.6v4.2h-9.6v3.8H259v4.2h-16.1V90.9H258.7z"/>
	</g>
	<g>
		<path class="st2" d="M655.9,116.5h-8.7l-1.4,3.6h-5.4L649,100h5.4l8.4,20.1h-5.6L655.9,116.5z M654.4,112.5l-2.8-7.2l-2.8,7.2
			H654.4z"/>
		<path class="st2" d="M673.7,104.2c-3.1,0-5.4,2.4-5.4,5.6s2.3,5.7,5.4,5.7c1.7,0,3.6-0.9,5-2.3l3.1,3.3c-2.1,2.3-5.4,3.7-8.3,3.7
			c-6,0-10.5-4.4-10.5-10.3c0-5.8,4.6-10.1,10.7-10.1c3,0,6.1,1.3,8.1,3.4l-3,3.6C677.3,105.3,675.4,104.2,673.7,104.2z"/>
		<path class="st2" d="M697,120l-5.2-7.8l-2.6,2.9v4.9H684V99.9h5.2v8.4l7.5-8.4h6.1l-7.4,8.3l7.9,11.8C703.3,120,697,120,697,120z"
			/>
		<path class="st2" d="M710.6,99.9v15.6h8.5v4.5h-13.7V99.9H710.6z"/>
		<path class="st2" d="M737.4,99.9v4.2h-10.6v3.8h9.6v4.2h-9.6v3.8h10.9v4.2h-16.1V99.9H737.4z"/>
		<path class="st2" d="M745.5,99.9l9.1,12.1V99.9h4.9V120h-4.6l-9.1-12v12h-4.9V99.9H745.5z"/>
		<path class="st2" d="M777.3,104c-1.3,0-2.1,0.5-2.1,1.4c0,3.3,10.6,1.4,10.6,8.6c0,4.1-3.6,6.2-8.1,6.2c-3.4,0-6.8-1.2-9.3-3.2
			l2-4.1c2.1,1.8,5.2,3,7.3,3c1.5,0,2.5-0.6,2.5-1.6c0-3.4-10.6-1.3-10.6-8.4c0-3.8,3.2-6.1,8-6.1c3,0,5.9,0.9,8,2.3l-2,4.2
			C781.7,104.9,779,104,777.3,104z"/>
		<path class="st2" d="M793.7,99.9V120h-5.2V99.9H793.7z"/>
		<path class="st2" d="M816.9,110c0,6-4.4,10.1-10.9,10.1h-8.4V99.9h8.6C812.6,99.9,816.9,104,816.9,110z M811.6,110
			c0-3.5-2.3-5.8-5.4-5.8h-3.3v11.6h3.6C809.4,115.8,811.6,113.5,811.6,110z"/>
		<path class="st2" d="M835.4,99.9v4.2h-10.6v3.8h9.6v4.2h-9.6v3.8h10.9v4.2h-16.1V99.9H835.4z"/>
	</g>
	<g>
		<g>
			<path class="st3" d="M262.8,322.5h20.3c8.2,0,14.8,5.9,14.8,13.1v29.9"/>
			<path class="st3" d="M235.9,322.5h-20.3c-8.2,0-14.8,5.9-14.8,13.1v29.9"/>
			<line class="st3" x1="238" y1="325.1" x2="238" y2="313.2"/>
			<line class="st3" x1="262.8" y1="313.2" x2="262.8" y2="325.1"/>
			<polygon class="st3" points="235.9,342.2 250.4,332.6 237,324.9 			"/>
			<polygon class="st3" points="264.9,342.2 250.4,332.6 263.8,324.9 			"/>
			<path class="st3" d="M280.3,270.1h0.5c3.2,0,5.7,2.6,5.7,5.7v10.5c0,3.2-2.6,5.7-5.7,5.7h-0.5"/>
			<path class="st3" d="M279.7,264.1v23.2c0,16-13,29-29,29l0,0c-16,0-29-13-29-29v-23.2"/>
			<path class="st3" d="M240.3,233.5c-4.7,0-8.8,2.4-11.2,6.1h-4.6c-5.7,0-10.4,4.7-10.4,10.4v50.1h7.3v-34.8c0-4,3.3-7.3,7.3-7.3
				h4.3h36h6.7c7.4,0,13.4-6,13.4-13.4v-11h-48.8V233.5z"/>
			<path class="st3" d="M221.7,270.2c-2.9,0.3-7.6,2.7-7.6,5.7v10.5c0,3,4.7,5.4,7.6,5.7V270.2z"/>
			<path class="st3" d="M244.6,298.4c1.4,2.4,3.7,4,6.3,4s4.9-1.6,6.3-4"/>
			<path class="st3" d="M222.3,270.3v4.7c0,6.6,5.4,12,12,12s12-5.4,12-12v-4.7H222.3z"/>
			<path class="st3" d="M255.7,270.3v4.7c0,6.6,5.4,12,12,12s12-5.4,12-12v-4.7H255.7z"/>
			<line class="st3" x1="239.4" y1="276.8" x2="234.1" y2="276.8"/>
			<line class="st3" x1="268.7" y1="276.8" x2="263.4" y2="276.8"/>
			<line class="st3" x1="246.3" y1="270.3" x2="257.3" y2="270.3"/>
		</g>
	</g>
	<g>
		<g>
			<path class="st3" d="M676.4,271.5v44.6c0,6.6-2.6,12.6-6.8,17"/>
			<path class="st3" d="M622.8,331.9c-3.6-4.3-5.8-9.8-5.8-15.8v-44.6"/>
			<path class="st3" d="M633.1,330c-16.9,3.5-30.8,13.7-37.8,27.2"/>
			<path class="st3" d="M696.6,357.2c-7-13.5-20.9-23.7-37.7-27.2"/>
			<path class="st3" d="M674.8,281.7c5.8,0,10.5,4.7,10.5,10.5l0,0c0,5.8-4.7,10.5-10.5,10.5"/>
			<path class="st3" d="M618.6,302.7c-5.8,0-10.5-4.7-10.5-10.5l0,0c0-5.8,4.7-10.5,10.5-10.5"/>
			<path class="st3" d="M656.9,320.1v10.6c0,6.1-4.9,11-11,11l0,0c-6.1,0-11-4.9-11-11v-10.6"/>
			<path class="st3" d="M676.4,296.7c0,13.6-11,24.5-24.5,24.5h-10.3c-13.6,0-24.5-11-24.5-24.5v-44.6c0-13.6,11-24.6,24.5-24.6
				h10.3c13.6,0,24.5,11,24.5,24.6V296.7z"/>
			<path class="st3" d="M651.9,227.6h-10.3c-13.6,0-24.5,11-24.5,24.6v29.4c12.3-1.1,23.9-12.6,29.7-28.9
				c5.8,16.4,17.5,27.8,29.7,28.9v-29.4C676.4,238.6,665.4,227.6,651.9,227.6z"/>
			<path class="st3" d="M625.5,286.4c0-2.5,3.4-4.5,7.5-4.5c4.2,0,7.5,2,7.5,4.5"/>
			<path class="st3" d="M650,286.4c0-2.5,3.4-4.5,7.5-4.5c4.2,0,7.5,2,7.5,4.5"/>
			<path class="st3" d="M636.2,297.4v4.5c0,3.6,2.9,6.5,6.5,6.5h4.5c3.6,0,6.5-2.9,6.5-6.5v-4.5H636.2z"/>
		</g>
	</g>
	<g>
		<path class="st4" d="M190.7,404.2c-3.1,0-5.4,2.4-5.4,5.6s2.3,5.7,5.4,5.7c1.7,0,3.6-0.9,5-2.3l3.1,3.3c-2.1,2.3-5.4,3.7-8.3,3.7
			c-6,0-10.5-4.4-10.5-10.3c0-5.8,4.6-10.1,10.7-10.1c3,0,6.1,1.3,8.1,3.4l-3,3.6C194.3,405.3,192.4,404.2,190.7,404.2z"/>
		<path class="st4" d="M206.2,399.9v15.6h8.5v4.5H201v-20.1H206.2z"/>
		<path class="st4" d="M222.3,399.9V420h-5.2v-20.1H222.3z"/>
		<path class="st4" d="M242.1,399.9v4.2h-10.6v3.8h9.6v4.2h-9.6v3.8h10.9v4.2h-16.1V400h15.8V399.9z"/>
		<path class="st4" d="M250.2,399.9l9.1,12.1v-12.1h4.9V420h-4.6l-9.1-12v12h-4.9v-20.1H250.2z"/>
		<path class="st4" d="M283.5,399.9v4.3h-6V420h-5.2v-15.8h-6v-4.3L283.5,399.9L283.5,399.9z"/>
		<path class="st4" d="M309.1,407c0,4.7-3,7.5-8.1,7.5h-3.6v5.6h-5.2V400h8.8C306.2,399.9,309.1,402.5,309.1,407z M304.2,407.2
			c0-2-1.2-3-3.4-3h-3.3v6.2h3.3C302.9,410.3,304.2,409.2,304.2,407.2z"/>
		<path class="st4" d="M332.1,410c0,5.9-4.6,10.3-10.9,10.3s-10.9-4.4-10.9-10.3c0-5.8,4.6-10.2,10.9-10.2S332.1,404.1,332.1,410z
			 M315.8,410c0,3.3,2.5,5.8,5.5,5.8s5.4-2.5,5.4-5.8s-2.4-5.7-5.4-5.7S315.8,406.7,315.8,410z"/>
	</g>
	<g>
		<path class="st4" d="M557.3,393.9v4.2h-10.6v3.8h9.6v4.2h-9.6v3.8h10.9v4.2h-16.1V394h15.8V393.9z"/>
		<path class="st4" d="M565.4,393.9l9.1,12.1v-12.1h4.9V414h-4.6l-9.1-12v12h-4.9v-20.1H565.4z"/>
		<path class="st4" d="M596.6,403.8h4.5v7.9c-2.1,1.5-5.6,2.6-8.4,2.6c-6.1,0-10.7-4.4-10.7-10.3s4.7-10.2,11.1-10.2
			c3,0,6.2,1.1,8.2,3l-3,3.7c-1.4-1.3-3.5-2.2-5.3-2.2c-3.2,0-5.7,2.5-5.7,5.8s2.5,5.8,5.7,5.8c1,0,2.3-0.3,3.5-0.9v-5.2H596.6z"/>
		<path class="st4" d="M618,410.5h-8.7l-1.4,3.6h-5.4l8.6-20.1h5.4l8.4,20.1h-5.6L618,410.5z M616.4,406.5l-2.7-7.2l-2.8,7.2H616.4z
			"/>
		<path class="st4" d="M639.5,403.8h4.5v7.9c-2.1,1.5-5.6,2.6-8.4,2.6c-6.1,0-10.7-4.4-10.7-10.3s4.7-10.2,11.1-10.2
			c3,0,6.2,1.1,8.2,3l-3,3.7c-1.4-1.3-3.5-2.2-5.3-2.2c-3.2,0-5.7,2.5-5.7,5.8s2.5,5.8,5.7,5.8c1,0,2.3-0.3,3.5-0.9v-5.2H639.5z"/>
		<path class="st4" d="M663.3,393.9v4.2h-10.6v3.8h9.6v4.2h-9.6v3.8h10.9v4.2h-16.1V394h15.8V393.9z"/>
		<path class="st4" d="M672.5,393.9l5.3,11.7l5.3-11.7h5.7V414h-4.6v-12.7l-4.7,10.7h-3.4l-4.7-10.7V414h-4.7v-20.1H672.5z"/>
		<path class="st4" d="M708.6,393.9v4.2H698v3.8h9.6v4.2H698v3.8h10.9v4.2h-16.1V394h15.8V393.9z"/>
		<path class="st4" d="M716.7,393.9l9.1,12.1v-12.1h4.9V414h-4.6l-9.1-12v12h-4.9v-20.1H716.7z"/>
		<path class="st4" d="M750.1,393.9v4.3h-6V414h-5.2v-15.8h-6v-4.3L750.1,393.9L750.1,393.9z"/>
		<path class="st4" d="M575.8,428.3l5.3,11.7l5.3-11.7h5.7v20.1h-4.6v-12.7l-4.7,10.7h-3.4l-4.7-10.7v12.7H570v-20.1H575.8z"/>
		<path class="st4" d="M609.4,444.8h-8.7l-1.4,3.6h-5.4l8.6-20.1h5.4l8.4,20.1h-5.6L609.4,444.8z M607.9,440.8l-2.7-7.2l-2.8,7.2
			H607.9z"/>
		<path class="st4" d="M622.8,428.3l9.1,12.1v-12.1h4.9v20.1h-4.6l-9.1-12v12h-4.9v-20.1H622.8z"/>
		<path class="st4" d="M654.1,444.8h-8.7l-1.4,3.6h-5.4l8.6-20.1h5.4l8.4,20.1h-5.6L654.1,444.8z M652.5,440.8l-2.7-7.2l-2.8,7.2
			H652.5z"/>
		<path class="st4" d="M675.6,438.1h4.5v7.9c-2.1,1.5-5.6,2.6-8.4,2.6c-6.1,0-10.7-4.4-10.7-10.3s4.7-10.2,11.1-10.2
			c3,0,6.2,1.1,8.2,3l-3,3.7c-1.4-1.3-3.5-2.2-5.3-2.2c-3.2,0-5.7,2.5-5.7,5.8s2.5,5.8,5.7,5.8c1,0,2.3-0.3,3.5-0.9v-5.2H675.6z"/>
		<path class="st4" d="M699.4,428.3v4.2h-10.6v3.8h9.6v4.2h-9.6v3.8h10.9v4.2h-16.1v-20.1h15.8V428.3z"/>
		<path class="st4" d="M715,448.4l-2.9-5.6H712h-3.8v5.6H703v-20.1h9c5.3,0,8.4,2.6,8.4,7c0,3-1.3,5.3-3.6,6.5l4.2,6.6H715z
			 M708.1,438.6h3.8c2.1,0,3.4-1.1,3.4-3.1s-1.2-3-3.4-3h-3.8V438.6z"/>
	</g>
	<g>
		<path class="st4" d="M958.7,401c0,4.7-3,7.5-8.1,7.5H947v5.6h-5.2V394h8.8C955.7,393.9,958.7,396.5,958.7,401z M953.7,401.2
			c0-2-1.2-3-3.4-3H947v6.2h3.3C952.5,404.3,953.7,403.2,953.7,401.2z"/>
		<path class="st4" d="M973.3,414l-2.9-5.6h-0.1h-3.8v5.6h-5.2v-20.1h9c5.3,0,8.4,2.6,8.4,7c0,3-1.3,5.3-3.6,6.5l4.2,6.6H973.3z
			 M966.5,404.3h3.8c2.1,0,3.4-1.1,3.4-3.1s-1.2-3-3.4-3h-3.8V404.3z"/>
		<path class="st4" d="M1002.4,404c0,5.9-4.6,10.3-10.9,10.3c-6.2,0-10.9-4.4-10.9-10.3c0-5.8,4.6-10.2,10.9-10.2
			C997.8,393.8,1002.4,398.1,1002.4,404z M986.1,404c0,3.3,2.5,5.8,5.5,5.8s5.4-2.5,5.4-5.8s-2.4-5.7-5.4-5.7S986.1,400.7,986.1,404
			z"/>
		<path class="st4" d="M1024.4,404c0,6-4.4,10.1-10.9,10.1h-8.4V394h8.6C1020,393.9,1024.4,398,1024.4,404z M1019,404
			c0-3.5-2.3-5.8-5.4-5.8h-3.3v11.6h3.6C1016.9,409.8,1019,407.5,1019,404z"/>
		<path class="st4" d="M1036,409.8c2.3,0,3.9-1.6,3.9-4.2v-11.7h5.2v11.7c0,5.3-3.6,8.6-9.2,8.6c-5.7,0-9.3-3.4-9.3-8.6v-11.7h5.2
			v11.7C1031.9,408.2,1033.6,409.8,1036,409.8z"/>
		<path class="st4" d="M1058.2,398.2c-3.1,0-5.4,2.4-5.4,5.6s2.3,5.7,5.4,5.7c1.7,0,3.6-0.9,5-2.3l3.1,3.3c-2.1,2.3-5.4,3.7-8.3,3.7
			c-6,0-10.5-4.4-10.5-10.3c0-5.8,4.6-10.1,10.7-10.1c3,0,6.1,1.3,8.1,3.4l-3,3.6C1061.9,399.3,1060,398.2,1058.2,398.2z"/>
		<path class="st4" d="M1084,393.9v4.3h-6V414h-5.2v-15.8h-6v-4.3L1084,393.9L1084,393.9z"/>
		<path class="st4" d="M976.2,438.3c0,5.9-4.6,10.3-10.9,10.3s-10.9-4.4-10.9-10.3c0-5.8,4.6-10.2,10.9-10.2
			S976.2,432.5,976.2,438.3z M959.8,438.4c0,3.3,2.5,5.8,5.5,5.8s5.4-2.5,5.4-5.8s-2.4-5.7-5.4-5.7
			C962.3,432.6,959.8,435.1,959.8,438.4z"/>
		<path class="st4" d="M982.1,428.3l3.8,14.5l3.8-14.5h5.1l3.8,14.5l3.8-14.5h5.4l-6.6,20.1h-5.4l-3.6-13.5l-3.7,13.5h-5.4
			l-6.6-20.1H982.1z"/>
		<path class="st4" d="M1014.2,428.3l9.1,12.1v-12.1h4.9v20.1h-4.6l-9.1-12v12h-4.9v-20.1H1014.2z"/>
		<path class="st4" d="M1047.9,428.3v4.2h-10.6v3.8h9.6v4.2h-9.6v3.8h10.9v4.2h-16.1v-20.1h15.8V428.3z"/>
		<path class="st4" d="M1063.5,448.4l-2.9-5.6h-0.1h-3.8v5.6h-5.2v-20.1h9c5.3,0,8.4,2.6,8.4,7c0,3-1.3,5.3-3.6,6.5l4.2,6.6H1063.5z
			 M1056.6,438.6h3.8c2.1,0,3.4-1.1,3.4-3.1s-1.2-3-3.4-3h-3.8V438.6z"/>
	</g>
	<g>
		<path class="st4" d="M1063.3,804c0,6-4.4,10.1-10.9,10.1h-8.4V794h8.6C1059,793.9,1063.3,798,1063.3,804z M1058,804
			c0-3.5-2.3-5.8-5.4-5.8h-3.3v11.6h3.6C1055.8,809.8,1058,807.5,1058,804z"/>
		<path class="st4" d="M1081.8,793.9v4.2h-10.6v3.8h9.6v4.2h-9.6v3.8h10.9v4.2H1066V794h15.8V793.9z"/>
		<path class="st4" d="M1088.9,793.9l5,14.5l5-14.5h5.4l-7.8,20.1h-5.4l-7.8-20.1H1088.9z"/>
	</g>
	<g>
		<path class="st4" d="M813.8,1291c0,6-4.4,10.1-10.9,10.1h-8.4V1281h8.6C809.5,1280.9,813.8,1285,813.8,1291z M808.5,1291
			c0-3.5-2.3-5.8-5.4-5.8h-3.3v11.6h3.6C806.3,1296.8,808.5,1294.5,808.5,1291z"/>
		<path class="st4" d="M832.3,1280.9v4.2h-10.6v3.8h9.6v4.2h-9.6v3.8h10.9v4.2h-16.1V1281L832.3,1280.9L832.3,1280.9z"/>
		<path class="st4" d="M839.4,1280.9l5,14.5l5-14.5h5.4L847,1301h-5.4l-7.8-20.1H839.4z"/>
		<path class="st4" d="M883.7,1291c0,5.9-4.6,10.3-10.9,10.3s-10.9-4.4-10.9-10.3c0-5.8,4.6-10.2,10.9-10.2S883.7,1285.1,883.7,1291
			z M867.4,1291c0,3.3,2.5,5.8,5.5,5.8s5.4-2.5,5.4-5.8s-2.4-5.7-5.4-5.7S867.4,1287.7,867.4,1291z"/>
		<path class="st4" d="M903.2,1288c0,4.7-3,7.5-8.1,7.5h-3.6v5.6h-5.2V1281h8.8C900.3,1280.9,903.2,1283.5,903.2,1288z
			 M898.3,1288.2c0-2-1.2-3-3.4-3h-3.3v6.2h3.3C897,1291.3,898.3,1290.2,898.3,1288.2z"/>
		<path class="st4" d="M913.2,1285c-1.3,0-2.1,0.5-2.1,1.4c0,3.3,10.6,1.4,10.6,8.6c0,4.1-3.6,6.2-8.1,6.2c-3.4,0-6.8-1.2-9.3-3.2
			l2-4.1c2.1,1.8,5.2,3,7.3,3c1.5,0,2.5-0.6,2.5-1.6c0-3.4-10.6-1.3-10.6-8.4c0-3.8,3.2-6.1,8-6.1c3,0,5.9,0.9,8,2.3l-2,4.2
			C917.5,1285.9,914.8,1285,913.2,1285z"/>
	</g>
	<g>
		<path class="st4" d="M1048.8,1296c-1.3,0-2.1,0.5-2.1,1.4c0,3.3,10.6,1.4,10.6,8.6c0,4.1-3.6,6.2-8.1,6.2c-3.4,0-6.8-1.2-9.3-3.2
			l2-4.1c2.1,1.8,5.2,3,7.3,3c1.5,0,2.5-0.6,2.5-1.6c0-3.4-10.6-1.3-10.6-8.4c0-3.8,3.2-6.1,8-6.1c3,0,5.9,0.9,8,2.3l-2,4.2
			C1053.1,1296.9,1050.4,1296,1048.8,1296z"/>
		<path class="st4" d="M1069.4,1296.2c-3.1,0-5.4,2.4-5.4,5.6s2.3,5.7,5.4,5.7c1.7,0,3.6-0.9,5-2.3l3.1,3.3
			c-2.1,2.3-5.4,3.7-8.3,3.7c-6,0-10.5-4.4-10.5-10.3c0-5.8,4.6-10.1,10.7-10.1c3,0,6.1,1.3,8.1,3.4l-3,3.6
			C1073.1,1297.3,1071.2,1296.2,1069.4,1296.2z"/>
		<path class="st4" d="M1091.8,1312l-2.9-5.6h-0.1h-3.8v5.6h-5.2v-20.1h9c5.3,0,8.4,2.6,8.4,7c0,3-1.3,5.3-3.6,6.5l4.2,6.6H1091.8z
			 M1085,1302.3h3.8c2.1,0,3.4-1.1,3.4-3.1s-1.2-3-3.4-3h-3.8V1302.3z"/>
		<path class="st4" d="M1109.5,1307.8c2.3,0,3.9-1.6,3.9-4.2v-11.7h5.2v11.7c0,5.3-3.6,8.6-9.2,8.6c-5.7,0-9.3-3.4-9.3-8.6v-11.7
			h5.2v11.7C1105.4,1306.2,1107.1,1307.8,1109.5,1307.8z"/>
		<path class="st4" d="M1127.9,1291.9l5.3,11.7l5.3-11.7h5.7v20.1h-4.6v-12.7l-4.7,10.7h-3.4l-4.7-10.7v12.7h-4.7v-20.1H1127.9z"/>
		<path class="st4" d="M1029.2,1326.3l5.3,11.7l5.3-11.7h5.7v20.1h-4.6v-12.7l-4.7,10.7h-3.4l-4.7-10.7v12.7h-4.7v-20.1H1029.2z"/>
		<path class="st4" d="M1062.8,1342.8h-8.7l-1.4,3.6h-5.4l8.6-20.1h5.4l8.4,20.1h-5.6L1062.8,1342.8z M1061.3,1338.8l-2.7-7.2
			l-2.8,7.2H1061.3z"/>
		<path class="st4" d="M1078.9,1330.3c-1.3,0-2.1,0.5-2.1,1.4c0,3.3,10.6,1.4,10.6,8.6c0,4.1-3.6,6.2-8.1,6.2
			c-3.4,0-6.8-1.2-9.3-3.2l2-4.1c2.1,1.8,5.2,3,7.3,3c1.5,0,2.5-0.6,2.5-1.6c0-3.4-10.6-1.3-10.6-8.4c0-3.8,3.2-6.1,8-6.1
			c3,0,5.9,0.9,8,2.3l-2,4.2C1083.2,1331.3,1080.5,1330.3,1078.9,1330.3z"/>
		<path class="st4" d="M1105.5,1326.3v4.3h-6v15.8h-5.2v-15.8h-6v-4.3H1105.5z"/>
		<path class="st4" d="M1123.4,1326.3v4.2h-10.6v3.8h9.6v4.2h-9.6v3.8h10.9v4.2h-16.1v-20.1L1123.4,1326.3L1123.4,1326.3z"/>
		<path class="st4" d="M1139,1346.4l-2.9-5.6h-0.1h-3.8v5.6h-5.2v-20.1h9c5.3,0,8.4,2.6,8.4,7c0,3-1.3,5.3-3.6,6.5l4.2,6.6H1139z
			 M1132.2,1336.6h3.8c2.1,0,3.4-1.1,3.4-3.1s-1.2-3-3.4-3h-3.8V1336.6z"/>
		<path class="st4" d="M1155,1330.3c-1.3,0-2.1,0.5-2.1,1.4c0,3.3,10.6,1.4,10.6,8.6c0,4.1-3.6,6.2-8.1,6.2c-3.4,0-6.8-1.2-9.3-3.2
			l2-4.1c2.1,1.8,5.2,3,7.3,3c1.5,0,2.5-0.6,2.5-1.6c0-3.4-10.6-1.3-10.6-8.4c0-3.8,3.2-6.1,8-6.1c3,0,5.9,0.9,8,2.3l-2,4.2
			C1159.4,1331.3,1156.7,1330.3,1155,1330.3z"/>
	</g>
	<g>
		<path class="st4" d="M1443.8,826.6c-1.5,1.4-3.8,2.2-5.8,2.2c-2.8,0-5.2-1.7-6.5-4.6c-6-0.2-10.4-4.6-10.4-10.3
			c0-5.8,4.6-10.2,10.9-10.2s10.9,4.4,10.9,10.2c0,4.4-2.6,8-6.6,9.5c0.7,0.8,1.5,1.3,2.3,1.3c0.9,0,2.2-0.6,3.4-1.5L1443.8,826.6z
			 M1432,819.8c3,0,5.4-2.5,5.4-5.8s-2.4-5.7-5.4-5.7s-5.5,2.5-5.5,5.7S1429,819.8,1432,819.8z"/>
		<path class="st4" d="M1458.4,820.5h-8.7l-1.4,3.6h-5.4l8.6-20.1h5.4l8.4,20.1h-5.6L1458.4,820.5z M1456.8,816.5l-2.8-7.2l-2.8,7.2
			H1456.8z"/>
	</g>
	<g>
		<path class="st4" d="M782.5,798c-1.3,0-2.1,0.5-2.1,1.4c0,3.3,10.6,1.4,10.6,8.6c0,4.1-3.6,6.2-8.1,6.2c-3.4,0-6.8-1.2-9.3-3.2
			l2-4.1c2.1,1.8,5.2,3,7.3,3c1.5,0,2.5-0.6,2.5-1.6c0-3.4-10.6-1.3-10.6-8.4c0-3.8,3.2-6.1,8-6.1c3,0,5.9,0.9,8,2.3l-2,4.2
			C786.8,798.9,784.1,798,782.5,798z"/>
		<path class="st4" d="M805.7,814l-2.9-5.6h-0.1h-3.8v5.6h-5.2v-20.1h9c5.3,0,8.4,2.6,8.4,7c0,3-1.3,5.3-3.6,6.5l4.2,6.6H805.7z
			 M798.8,804.3h3.8c2.1,0,3.4-1.1,3.4-3.1s-1.2-3-3.4-3h-3.8V804.3z"/>
		<path class="st4" d="M840.3,804c0,6-4.4,10.1-10.9,10.1H821V794h8.6C835.9,793.9,840.3,798,840.3,804z M834.9,804
			c0-3.5-2.3-5.8-5.4-5.8h-3.3v11.6h3.6C832.7,809.8,834.9,807.5,834.9,804z"/>
		<path class="st4" d="M858.7,793.9v4.2h-10.6v3.8h9.6v4.2h-9.6v3.8H859v4.2h-16.1V794h15.8V793.9z"/>
		<path class="st4" d="M865.8,793.9l5,14.5l5-14.5h5.4l-7.8,20.1H868l-7.8-20.1H865.8z"/>
	</g>
	<g>
		<path class="st4" d="M1289.6,404c0,6-4.4,10.1-10.9,10.1h-8.4V394h8.6C1285.3,393.9,1289.6,398,1289.6,404z M1284.3,404
			c0-3.5-2.3-5.8-5.4-5.8h-3.3v11.6h3.6C1282.1,409.8,1284.3,407.5,1284.3,404z"/>
		<path class="st4" d="M1308.1,393.9v4.2h-10.6v3.8h9.6v4.2h-9.6v3.8h10.9v4.2h-16.1V394h15.8V393.9z"/>
		<path class="st4" d="M1318.9,398c-1.3,0-2.1,0.5-2.1,1.4c0,3.3,10.6,1.4,10.6,8.6c0,4.1-3.6,6.2-8.1,6.2c-3.4,0-6.8-1.2-9.2-3.2
			l2-4.1c2.1,1.8,5.2,3,7.3,3c1.5,0,2.5-0.6,2.5-1.6c0-3.4-10.6-1.3-10.6-8.4c0-3.8,3.2-6.1,8-6.1c3,0,5.9,0.9,8,2.3l-2,4.2
			C1323.3,398.9,1320.6,398,1318.9,398z"/>
		<path class="st4" d="M1335.3,393.9V414h-5.2v-20.1H1335.3z"/>
		<path class="st4" d="M1352.5,403.8h4.5v7.9c-2.1,1.5-5.6,2.6-8.4,2.6c-6.1,0-10.7-4.4-10.7-10.3s4.7-10.2,11.1-10.2
			c3,0,6.2,1.1,8.2,3l-3,3.7c-1.4-1.3-3.5-2.2-5.3-2.2c-3.2,0-5.7,2.5-5.7,5.8s2.5,5.8,5.7,5.8c1,0,2.3-0.3,3.5-0.9v-5.2H1352.5z"/>
		<path class="st4" d="M1365.1,393.9l9.1,12.1v-12.1h4.9V414h-4.6l-9.1-12v12h-4.9v-20.1H1365.1z"/>
		<path class="st4" d="M1398.8,393.9v4.2h-10.6v3.8h9.6v4.2h-9.6v3.8h10.9v4.2H1383V394h15.8V393.9z"/>
		<path class="st4" d="M1414.4,414l-2.9-5.6h-0.1h-3.8v5.6h-5.2v-20.1h9c5.3,0,8.4,2.6,8.4,7c0,3-1.3,5.3-3.6,6.5l4.2,6.6H1414.4z
			 M1407.6,404.3h3.8c2.1,0,3.4-1.1,3.4-3.1s-1.2-3-3.4-3h-3.8V404.3z"/>
		<path class="st4" d="M1430.4,398c-1.3,0-2.1,0.5-2.1,1.4c0,3.3,10.6,1.4,10.6,8.6c0,4.1-3.6,6.2-8.1,6.2c-3.4,0-6.8-1.2-9.2-3.2
			l2-4.1c2.1,1.8,5.2,3,7.3,3c1.5,0,2.5-0.6,2.5-1.6c0-3.4-10.6-1.3-10.6-8.4c0-3.8,3.2-6.1,8-6.1c3,0,5.9,0.9,8,2.3l-2,4.2
			C1434.8,398.9,1432.1,398,1430.4,398z"/>
	</g>
	<g>
		<path id="XMLID_27_" class="st4" d="M441.7,279.4c-1.4,0-2.8,0-4.3,0c0-1.4,0-2.9,0-4.3c1.4,0,2.8,0,4.3,0
			C441.7,276.5,441.7,277.9,441.7,279.4z"/>
		<path id="XMLID_26_" class="st4" d="M437.4,295.8c0-1.5,0-2.9,0-4.3c1.5,0,2.9,0,4.3,0c0,1.5,0,2.9,0,4.3
			C440.3,295.8,438.9,295.8,437.4,295.8z"/>
		<path id="XMLID_25_" class="st4" d="M431.9,286c1.5,0,2.9,0,4.3,0c0,1.5,0,2.9,0,4.3c-1.4,0-2.8,0-4.3,0
			C431.9,288.9,431.9,287.5,431.9,286z"/>
		<path id="XMLID_24_" class="st4" d="M437.4,290.3c0-1.5,0-2.9,0-4.3c1.4,0,2.8,0,4.3,0c0,1.4,0,2.8,0,4.3
			C440.3,290.3,438.9,290.3,437.4,290.3z"/>
		<path id="XMLID_23_" class="st4" d="M431.9,284.8c0-1.5,0-2.9,0-4.3c1.4,0,2.8,0,4.3,0c0,1.4,0,2.8,0,4.3
			C434.8,284.8,433.4,284.8,431.9,284.8z"/>
		<path id="XMLID_22_" class="st4" d="M441.7,280.5c0,1.5,0,2.9,0,4.3c-1.4,0-2.9,0-4.3,0c0-1.4,0-2.8,0-4.3
			C438.8,280.5,440.2,280.5,441.7,280.5z"/>
		<path id="XMLID_21_" class="st4" d="M448.4,296.9c1.4,0,2.8,0,4.2,0c0,1.5,0,2.9,0,4.3c-1.4,0-2.8,0-4.2,0
			C448.4,299.8,448.4,298.4,448.4,296.9z"/>
		<path id="XMLID_20_" class="st4" d="M442.8,279.4c0-1.5,0-2.8,0-4.3c1.4,0,2.8,0,4.3,0c0,1.4,0,2.8,0,4.3
			C445.8,279.4,444.4,279.4,442.8,279.4z"/>
		<path id="XMLID_19_" class="st4" d="M458.1,279.4c-1.4,0-2.8,0-4.3,0c0-1.4,0-2.8,0-4.3c1.4,0,2.8,0,4.3,0
			C458.1,276.5,458.1,277.9,458.1,279.4z"/>
		<path id="XMLID_18_" class="st4" d="M459.3,279.4c0-1.5,0-2.9,0-4.3c1.4,0,2.8,0,4.3,0c0,1.4,0,2.8,0,4.3
			C462.2,279.4,460.8,279.4,459.3,279.4z"/>
		<path id="XMLID_17_" class="st4" d="M447.2,284.9c-1.5,0-2.8,0-4.3,0c0-1.5,0-2.9,0-4.3c1.4,0,2.8,0,4.3,0
			C447.2,281.9,447.2,283.4,447.2,284.9z"/>
		<path id="XMLID_16_" class="st4" d="M452.6,290.3c-1.4,0-2.8,0-4.3,0c0-1.5,0-2.9,0-4.3c1.4,0,2.8,0,4.3,0
			C452.6,287.4,452.6,288.8,452.6,290.3z"/>
		<path id="XMLID_15_" class="st4" d="M458.1,290.3c-1.5,0-2.9,0-4.3,0c0-1.5,0-2.9,0-4.3c1.4,0,2.8,0,4.3,0
			C458.1,287.4,458.1,288.9,458.1,290.3z"/>
		<path id="XMLID_14_" class="st4" d="M459.3,290.3c0-1.5,0-2.9,0-4.3c1.4,0,2.8,0,4.3,0c0,1.4,0,2.9,0,4.3
			C462.1,290.3,460.8,290.3,459.3,290.3z"/>
		<path id="XMLID_13_" class="st4" d="M469,290.3c-1.4,0-2.8,0-4.2,0c0-1.4,0-2.9,0-4.3c1.4,0,2.8,0,4.2,0
			C469,287.4,469,288.8,469,290.3z"/>
		<path id="XMLID_12_" class="st4" d="M464.8,280.5c1.4,0,2.8,0,4.3,0c0,1.4,0,2.9,0,4.4c-1.4,0-2.8,0-4.3,0
			C464.8,283.4,464.8,282,464.8,280.5z"/>
		<path id="XMLID_11_" class="st4" d="M459.3,280.5c1.5,0,2.8,0,4.3,0c0,1.5,0,2.9,0,4.3c-1.4,0-2.8,0-4.3,0
			C459.3,283.4,459.3,282,459.3,280.5z"/>
		<path id="XMLID_10_" class="st4" d="M442.9,286c1.4,0,2.8,0,4.3,0c0,1.4,0,2.9,0,4.4c-1.4,0-2.8,0-4.3,0
			C442.9,288.9,442.9,287.5,442.9,286z"/>
		<path id="XMLID_9_" class="st4" d="M447.1,295.8c-1.5,0-2.8,0-4.3,0c0-1.5,0-2.9,0-4.3c1.4,0,2.8,0,4.3,0
			C447.1,292.9,447.1,294.3,447.1,295.8z"/>
		<path id="XMLID_8_" class="st4" d="M452.6,295.8c-1.4,0-2.8,0-4.2,0c0-1.4,0-2.9,0-4.4c1.4,0,2.8,0,4.2,0
			C452.6,292.9,452.6,294.3,452.6,295.8z"/>
		<path id="XMLID_7_" class="st4" d="M453.8,295.8c0-1.5,0-2.9,0-4.4c1.4,0,2.8,0,4.3,0c0,1.4,0,2.9,0,4.4
			C456.7,295.8,455.3,295.8,453.8,295.8z"/>
		<path id="XMLID_6_" class="st4" d="M459.3,295.8c0-1.5,0-2.9,0-4.3c1.4,0,2.8,0,4.3,0c0,1.4,0,2.9,0,4.3
			C462.1,295.8,460.8,295.8,459.3,295.8z"/>
		<path id="XMLID_5_" class="st4" d="M458.1,280.5c0,1.5,0,2.9,0,4.3c-1.4,0-2.8,0-4.3,0c0-1.4,0-2.9,0-4.3
			C455.2,280.5,456.6,280.5,458.1,280.5z"/>
		<path id="XMLID_4_" class="st4" d="M448.4,284.8c0-1.4,0-2.8,0-4.3c1.4,0,2.8,0,4.3,0c0,1.4,0,2.8,0,4.3
			C451.2,284.8,449.8,284.8,448.4,284.8z"/>
		<path id="XMLID_3_" class="st4" d="M447.2,296.9c0,1.5,0,2.9,0,4.3c-1.4,0-2.8,0-4.3,0c0-1.4,0-2.8,0-4.3
			C444.3,296.9,445.7,296.9,447.2,296.9z"/>
		<path id="XMLID_2_" class="st4" d="M458.1,301.3c-1.4,0-2.8,0-4.3,0c0-1.5,0-2.9,0-4.3c1.4,0,2.8,0,4.3,0
			C458.1,298.3,458.1,299.8,458.1,301.3z"/>
		<path id="XMLID_1_" class="st4" d="M448.4,306.7c0-1.4,0-2.8,0-4.3c1.4,0,2.8,0,4.3,0c0,1.4,0,2.8,0,4.3
			C451.2,306.7,449.8,306.7,448.4,306.7z"/>
	</g>
	<g>
		<polyline class="st3" points="996.2,273.4 1007,273.4 1007,293.7 		"/>
		<line class="st3" x1="1017.5" y1="273.4" x2="1028.3" y2="273.4"/>
		<path class="st3" d="M1002.3,308.2c0,2.8,2.3,5.1,5.1,5.1h8.8c2.8,0,5.1-2.3,5.1-5.1c0-0.9-0.2-1.7-0.6-2.4"/>
		<path class="st3" d="M994.2,239.7h-7.4c-3.4,0-6.1,2.7-6.1,6.1v23c0,3.4,2.7,6.1,6.1,6.1l13.5-29.3"/>
		<path class="st3" d="M1043.2,288.3v-37.5c0-14.6-11.8-26.4-26.4-26.4h-2.7c-9.4,0-17.7,5-22.4,12.4L1043.2,288.3z"/>
		<line class="st3" x1="1013.9" y1="244.2" x2="1052.1" y2="282.3"/>
		<path class="st3" d="M986.1,318.4h-6.9c-9.7,0-17.6,7.9-17.6,17.6v17"/>
		<path class="st3" d="M1036.8,318.4h6.9c9.7,0,17.6,7.9,17.6,17.6v18.2"/>
		<path class="st3" d="M1037.7,281.6v26.7c0,5.6-4.5,24.3-10.1,24.3h-31.1c-5.6,0-10.1-18.7-10.1-24.3v-33.8"/>
		<g>
			<polyline class="st3" points="986.1,318.8 986.1,348 1011.9,332.4 			"/>
		</g>
		<g>
			<polyline class="st3" points="1036.3,321 1036.3,348 1010.4,332.4 			"/>
		</g>
		<line class="st3" x1="1010" y1="344.3" x2="1010" y2="350"/>
		<line class="st3" x1="1010" y1="356.7" x2="1010" y2="362.4"/>
	</g>
	<g>
		<path class="st3" d="M1301.8,292.4c0,15.3,12.4,27.7,27.7,27.7l0,0c1.1,0,2.2-0.1,3.3-0.2"/>
		<path class="st3" d="M1308.6,273.7c-6.5,0-11.7,4.5-11.7,10s5.2,10,11.7,10c1.6,0,3.2-0.3,4.6-0.8"/>
		<line class="st3" x1="1332.1" y1="316.1" x2="1332.1" y2="330.5"/>
		<line class="st3" x1="1362" y1="330.5" x2="1362" y2="316.1"/>
		<path class="st3" d="M1310.1,271v8.2c0,21.4,17.4,38.8,38.8,38.8l0,0c7.3,0,31.7-1.9,31.7-25.8"/>
		<path class="st3" d="M1380.6,292.2V284c0-3.1-0.4-10.8-1-13.6"/>
		<path class="st3" d="M1349.2,304.9c-3.5,0-6.5-2.1-8.4-5.3"/>
		<path class="st3" d="M1328.7,339.4h-14.4c-7.1,0-12.9,5.8-12.9,12.9"/>
		<path class="st3" d="M1394.2,352.3c0-7.1-5.8-12.9-12.9-12.9h-14.6"/>
		<path class="st3" d="M1322,275.1c4,4,10.4,4,14.3,0"/>
		<path class="st3" d="M1354.7,275.1c4,4,10.4,4,14.3,0"/>
		<path class="st3" d="M1347,222.3v3.6c-3.1,24.6-22,44.2-46.2,48.3v-2.9C1300.7,245.1,1321.2,223.8,1347,222.3z"/>
		<path class="st3" d="M1346.6,234h3c20.4,2.6,36.8,18.3,40.2,38.5h-2.4C1365.6,272.5,1347.8,255.4,1346.6,234z"/>
		<path class="st3" d="M1328.7,348.4c0,1.8,1.5,3.3,3.3,3.3h30.5c1.8,0,3.3-1.5,3.3-3.3v-14.7c0-1.8-1.5-3.3-3.3-3.3H1332
			c-1.8,0-3.3,1.5-3.3,3.3V348.4z"/>
		<line class="st3" x1="1354.1" y1="350.6" x2="1354.1" y2="338.1"/>
	</g>
	<g>
		<path class="st3" d="M816.1,753.2h-18.4c-7.6,0-13.7,5.3-13.7,11.9v6.2"/>
		<path class="st3" d="M870.3,768.6v-3.5c0-6.5-6-11.9-13.4-11.9h-19.1"/>
		<g>
			<path class="st3" d="M837,713.6c-2.8,0-5-2.3-5-5v-8c0-2.8,2.3-5,5-5h15.9c2.8,0,5,2.3,5,5v8c0,2.8-2.3,5-5,5H837z"/>
			<path class="st3" d="M800.9,713.6c-2.8,0-5-2.3-5-5v-8c0-2.8,2.3-5,5-5h15.9c2.8,0,5,2.3,5,5v8c0,2.8-2.3,5-5,5H800.9z"/>
			<line class="st3" x1="821.9" y1="700.5" x2="831.9" y2="700.5"/>
		</g>
		<path class="st3" d="M854.5,713.6v14.1c0,15.3-12.4,27.6-27.6,27.6l0,0c-15.3,0-27.6-12.4-27.6-27.6v-14.1"/>
		<path class="st3" d="M808.9,667.4v5.8c0,5.7,4.6,10.3,10.3,10.3h38.9c5.7,0,10.3-4.6,10.3-10.3v-15.9h-30.7"/>
		<path class="st3" d="M818.2,666.8c0,4,0.3,7.2,7.2,7.2h29.7"/>
		<path class="st3" d="M857.4,646.9h-35.2c-7.4,0-13.3,6-13.3,13.3"/>
		<path class="st3" d="M810.6,657.8h-1.7c-5.6,0-10.2,4.5-10.2,10.2v22"/>
		<line class="st3" x1="821.1" y1="735.4" x2="832.7" y2="735.4"/>
		<path class="st3" d="M831.1,774h-4.2c-5.6,0-10.2-4.5-10.2-10.2V752"/>
	</g>
	<g>
		<path class="st3" d="M1100.7,667.6v36.8c0,13.1-10.6,23.7-23.7,23.7l0,0c-13.1,0-23.7-10.6-23.7-23.7v-4.9"/>
		<path class="st3" d="M1037.8,752.5V683c0-21.8,17.7-39.5,39.5-39.5l0,0c21.8,0,39.5,17.7,39.5,39.5v92.5"/>
		<path class="st3" d="M1077.2,661.1l39.5,39.5V683c0-21.8-17.7-39.5-39.5-39.5s-39.5,17.7-39.5,39.5v17.6L1077.2,661.1z"/>
		<line class="st3" x1="1092.7" y1="660" x2="1117.5" y2="684.8"/>
		<line class="st3" x1="1077.4" y1="674.1" x2="1042.5" y2="709.1"/>
		<g>
			<path class="st5" d="M1068,710.4c0,3.1,2.5,5.6,5.5,5.6h4.1"/>
		</g>
		<path class="st3" d="M1058.9,719.4v0.4c0,7.9-6.4,14.3-14.3,14.3l0,0"/>
		<path class="st3" d="M1076.2,729.6v0.4c0,7.9,6.4,14.3,14.3,14.3l0,0"/>
		<path class="st3" d="M1100.9,690.2c0,5.3-4.3,9.7-9.7,9.7s-9.7-4.3-9.7-9.7c0-5.3,4.3-9.7,9.7-9.7S1100.9,684.9,1100.9,690.2z"/>
		<path class="st3" d="M1069.4,683.4c3.8,3.8,3.8,9.9,0,13.7s-9.9,3.8-13.7,0"/>
		<path class="st3" d="M1077.2,744.5h17.5c6.2,0,11.3,5,11.3,11.3v23.7"/>
		<path class="st3" d="M1031.7,735.6c-6.2,0-11.3,5.1-11.3,11.3v11.3"/>
		<path class="st3" d="M1034.3,768.5c1.7-4,5.7-9.1,10.4-9.1h36.1c6.2,0,11.3,5,11.3,11.3"/>
	</g>
	<g>
		<line class="st3" x1="1338.7" y1="1188.6" x2="1338.7" y2="1217"/>
		<line class="st3" x1="1286.8" y1="1217" x2="1286.8" y2="1176.2"/>
		<path class="st3" d="M1338.7,1199.7v19.1c-5.4-9.4-15.5-15.7-27.1-15.7s-21.7,6.3-27.1,15.7v-19.1c-10.3,8.1-16.9,20.6-16.9,34.7
			c0,24.3,19.7,44,44,44s44-19.7,44-44C1355.6,1220.2,1349,1207.7,1338.7,1199.7z"/>
		<polyline class="st3" points="1294.9,1180.6 1306.9,1180.6 1306.9,1203.1 		"/>
		<line class="st3" x1="1318.6" y1="1180.6" x2="1330.6" y2="1180.6"/>
		<path class="st3" d="M1302.4,1216.7c-0.4,0.8-0.7,1.7-0.7,2.6c0,3.1,2.5,5.6,5.6,5.6h9.8c3.1,0,5.6-2.5,5.6-5.6
			c0-1-0.3-1.8-0.7-2.6H1302.4z"/>
		<path class="st3" d="M1292.6,1143h-8.3c-3.7,0-6.8,3-6.8,6.8v25.6c0,3.7,3,6.8,6.8,6.8l15-32.6"/>
		<path class="st3" d="M1347.2,1197.1v-41.7c0-16.2-13.1-29.3-29.3-29.3h-3c-10.5,0-19.7,5.5-24.9,13.8L1347.2,1197.1z"/>
	</g>
	<g>
		<line class="st3" x1="1077.4" y1="1257.3" x2="1077.4" y2="1238.5"/>
		<line class="st3" x1="1103.9" y1="1238.5" x2="1103.9" y2="1257.3"/>
		<path class="st3" d="M1067.3,1219.6h-0.5c-3.4,0-6.1-2.7-6.1-6.1v-2.1"/>
		<path class="st3" d="M1129.2,1201.4h0.5c3.4,0,6.1,2.7,6.1,6.1v6c0,3.4-2.7,6.1-6.1,6.1h-0.5"/>
		<path class="st3" d="M1128.3,1180.5v43.6c0,8.6-7,15.6-15.6,15.6h-29.9c-8.6,0-15.6-7-15.6-15.6v-20.7"/>
		<g>
			<path class="st3" d="M1078.4,1212v11.2c0,2.8,2.3,5.1,5.1,5.1h11.2L1078.4,1212z"/>
		</g>
		<path class="st3" d="M1095.1,1195.5c-3.5,3.5-9.2,3.5-12.8,0"/>
		<path class="st3" d="M1122.8,1195.5c-3.5,3.5-9.2,3.5-12.8,0"/>
		<path class="st3" d="M1088.1,1148.9c-9.9,0-18.2,6.8-20.6,16c-4.1,2.8-6.9,7.6-6.9,12.9v26h1.4c8.6,0,15.6-7,15.6-15.6v-7.5
			c1.5,0.5,3.1,0.8,4.8,0.8h41c8.6,0,15.6-7,15.6-15.6V1149h-50.9V1148.9z"/>
		<g>
			<path class="st3" d="M1105.6,1211.7c0-2.9,2.3-5.2,5.2-5.2c2.9,0,5.2,2.3,5.2,5.2c0,2.9-2.3,5.2-5.2,5.2"/>
			<line class="st3" x1="1105" y1="1211.7" x2="1105" y2="1181.8"/>
		</g>
	</g>
	<g>
		<path class="st3" d="M820,1165.8v13.9c0,2.3,1.8,4.1,4.1,4.1s4.1-1.8,4.1-4.1v-13.9H820z"/>
		<path class="st3" d="M888,1165.8v13.9c0,2.3,1.8,4.1,4.1,4.1c2.2,0,4.1-1.8,4.1-4.1v-13.9H888z"/>
		<path class="st3" d="M870.5,1219.9h19.9c8.2,0,14.8,5.9,14.8,13.1v14.1"/>
		<path class="st3" d="M810.7,1245.9V1233c0-7.2,6.6-13.1,14.8-13.1h19.6"/>
		<polyline class="st3" points="837,1219.9 837,1230.3 858,1242.4 878.9,1230.3 878.9,1219.9 		"/>
		<polyline class="st3" points="870.4,1214.5 870.4,1225.4 858,1232.5 845.5,1225.4 845.5,1214.5 		"/>
		<path class="st3" d="M887.5,1147.4c0-9.5-7.7-17.3-17.3-17.3h-24.8c-9.5,0-17.3,7.7-17.3,17.3l-0.1,48.5l16.4,18.8h26.7l16.4-18.8
			L887.5,1147.4z"/>
		<polyline class="st3" points="831.7,1199.9 844.6,1214.8 871.3,1214.8 884,1200.2 		"/>
		<path class="st3" d="M850.7,1195.7c0,0.2,0,0.5,0,0.7c0,3.7,3,6.7,6.7,6.7h0.9c3.7,0,6.7-3,6.7-6.7c0-0.3,0-0.5,0-0.7H850.7z"/>
		<polyline class="st3" points="863.5,1158.5 863.5,1176 852.1,1176 852.1,1158.5 838.7,1158.5 		"/>
		<path class="st3" d="M833,1166.1c4,4,10.4,4,14.3,0"/>
		<path class="st3" d="M867,1166.1c4,4,10.4,4,14.3,0"/>
	</g>
	<g>
		<path class="st3" d="M1472.5,751.3c10.2,3.2,17.3,10.7,17.3,19.5v7.3"/>
		<path class="st3" d="M1391.6,778.1v-7.3c0-8.3,6.4-15.4,15.6-18.9"/>
		<path class="st3" d="M1465.6,695.1c0,10.1,0,0.1,0,10.2c0.1,12.2-8.3,37.8-24.9,38.4l0,0c-16.5-0.6-24.9-26.2-24.9-38.4
			c0-10.1,0-0.1,0-10.2"/>
		<path class="st3" d="M1440.7,783.9"/>
		<g>
			<path class="st3" d="M1440.7,674.7c-0.3-2.2-2.7-6.2-7.6-6.6l0,0c-5.4-0.5-10.4,2.6-13.4,11.1l-15.6,64.1"/>
			<path class="st3" d="M1440.7,674.7c0.3-2.2,2.7-6.2,7.6-6.6l0,0c5.4-0.5,10.4,2.6,13.4,11.1l15.6,64.1"/>
		</g>
		<path class="st3" d="M1477.4,678.3v62c0,11.7-9.5,21.2-21.2,21.2h-3.3"/>
		<path class="st3" d="M1428.5,761.4h-3.3c-11.7,0-21.2-9.5-21.2-21.2v-62"/>
		<path class="st3" d="M1452.9,739.2V762c0,6.7-5.5,12.2-12.2,12.2l0,0c-6.7,0-12.2-5.5-12.2-12.2v-22.8"/>
		<path class="st3" d="M1433.9,721.8c0,0.2,0,0.5,0,0.7c0,3.7,3,6.7,6.7,6.7h0.9c3.7,0,6.7-3,6.7-6.7c0-0.2,0-0.5,0-0.7H1433.9z"/>
		<polyline class="st3" points="1443.8,691.7 1452.1,709.9 1441.6,709.9 		"/>
		<path class="st3" d="M1404.1,680.2c0-19.7,16.4-35.7,36.7-35.7c20.2,0,36.7,16,36.7,35.7"/>
		<g>
			<path class="st3" d="M1451.6,703.6c-2.8,0-5-2.3-5-5v-8c0-2.8,2.3-5,5-5h15.9c2.8,0,5,2.3,5,5v8c0,2.8-2.3,5-5,5H1451.6z"/>
			<path class="st3" d="M1415.5,703.6c-2.8,0-5-2.3-5-5v-8c0-2.8,2.3-5,5-5h15.9c2.8,0,5,2.3,5,5v8c0,2.8-2.3,5-5,5H1415.5z"/>
			<line class="st3" x1="1436.5" y1="690.5" x2="1446.6" y2="690.5"/>
		</g>
	</g>
	<g>
		<g>
			<path class="st4" d="M969.4,708c0,1.1-0.9,1.9-1.9,1.9h-3.7v7.2l-9.1-7.2h-12.1c-1.1,0-1.9-0.9-1.9-1.9v-16.8
				c0-1.1,0.9-1.9,1.9-1.9h25c1.1,0,1.9,0.9,1.9,1.9V708H969.4z"/>
		</g>
	</g>
	<g>
		<path class="st3" d="M924.6,718.7c0,1.1,0.9,1.9,1.9,1.9h3.7v7.2l9.1-7.2h12.1c1.1,0,1.9-0.9,1.9-1.9V702c0-1.1-0.9-1.9-1.9-1.9
			h-25c-1.1,0-1.9,0.9-1.9,1.9v16.7H924.6z"/>
	</g>
	<g>
		<g>
			<line class="st6" x1="366.7" y1="333.7" x2="525.9" y2="333.7"/>
			<line class="st3" x1="529.6" y1="333.7" x2="533.2" y2="333.7"/>
		</g>
		<polyline class="st3" points="362.2,341.9 354.2,333.9 362.2,325.9 		"/>
		<polyline class="st3" points="538.2,325.9 546.2,333.9 538.2,341.9 		"/>
	</g>
	<g>
		<g>
			<line class="st3" x1="779" y1="333.7" x2="782.6" y2="333.7"/>
			<line class="st6" x1="789.9" y1="333.7" x2="889.1" y2="333.7"/>
			<line class="st3" x1="892.8" y1="333.7" x2="896.4" y2="333.7"/>
		</g>
		<polyline class="st3" points="775.4,341.9 767.4,333.9 775.4,325.9 		"/>
		<polyline class="st3" points="901.4,325.9 909.4,333.9 901.4,341.9 		"/>
	</g>
	<g>
		<g>
			<g>
				<line class="st3" x1="921.8" y1="478.3" x2="919.2" y2="480.9"/>
				<line class="st6" x1="914" y1="486.1" x2="864" y2="536.1"/>
			</g>
			<polyline class="st3" points="930.1,481.6 930.1,470.3 918.8,470.3 			"/>
		</g>
	</g>
	<g>
		<g>
			<line class="st3" x1="1124.4" y1="333.7" x2="1128" y2="333.7"/>
			<line class="st6" x1="1135.4" y1="333.7" x2="1234.5" y2="333.7"/>
			<line class="st3" x1="1238.2" y1="333.7" x2="1241.8" y2="333.7"/>
		</g>
		<polyline class="st3" points="1120.8,341.9 1112.9,333.9 1120.8,325.9 		"/>
		<polyline class="st3" points="1246.8,325.9 1254.8,333.9 1246.8,341.9 		"/>
	</g>
	<g>
		<line class="st3" x1="833.2" y1="282" x2="833.2" y2="296.1"/>
		<line class="st3" x1="840.3" y1="289" x2="826.2" y2="289"/>
	</g>
	<g>
		<g>
			<g>
				<path class="st7" d="M853.6,274.8c0,3.3-2.6,5.9-5.9,5.9c-3.3,0-5.9-2.6-5.9-5.9s2.6-5.9,5.9-5.9
					C850.9,268.9,853.6,271.6,853.6,274.8z"/>
				<g>
					<line class="st7" x1="847.6" y1="267.6" x2="847.6" y2="262"/>
					<line class="st7" x1="847.6" y1="287.6" x2="847.6" y2="282"/>
				</g>
				<g>
					<line class="st7" x1="841.4" y1="271.2" x2="836.6" y2="268.4"/>
					<line class="st7" x1="858.7" y1="281.2" x2="853.9" y2="278.4"/>
				</g>
				<g>
					<line class="st7" x1="841.4" y1="278.4" x2="836.6" y2="281.2"/>
					<line class="st7" x1="858.7" y1="268.4" x2="853.9" y2="271.2"/>
				</g>
			</g>
		</g>
	</g>
	<g>
		<g>
			<polyline class="st7" points="1185.5,281.7 1192.2,258.7 1198.8,281.7 			"/>
			<path class="st7" d="M1198.1,253.5c0,3.3-2.6,5.9-5.9,5.9s-5.9-2.6-5.9-5.9s2.6-5.9,5.9-5.9
				C1195.4,247.6,1198.1,250.3,1198.1,253.5z"/>
			<line class="st7" x1="1192.2" y1="246.9" x2="1192.2" y2="237.9"/>
			<path class="st7" d="M1178.4,265.8c8.7,4.1,18.9,4.1,27.6,0"/>
		</g>
	</g>
	<g>
		<path class="st8" d="M1159.6,300.7c0,1.1,0.9,1.9,1.9,1.9h3.7v7.2l9.1-7.2h12.1c1.1,0,1.9-0.9,1.9-1.9V284c0-1.1-0.9-1.9-1.9-1.9
			h-25c-1.1,0-1.9,0.9-1.9,1.9v16.7H1159.6z"/>
	</g>
	<path class="st9" d="M1154.8,857.5H756.5c-10.6,0-19.2-8.6-19.2-19.2V623.7c0-10.6,8.6-19.2,19.2-19.2h398.3
		c10.6,0,19.2,8.6,19.2,19.2v214.7C1174,848.9,1165.4,857.5,1154.8,857.5z"/>
	<g>
		<g>
			<line class="st3" x1="855.9" y1="494.5" x2="878.6" y2="494.5"/>
			<line class="st3" x1="864.5" y1="486.1" x2="887.3" y2="486.1"/>
			<line class="st3" x1="852.6" y1="486.1" x2="860.2" y2="486.1"/>
			<line class="st3" x1="843.9" y1="494.5" x2="851.5" y2="494.5"/>
		</g>
	</g>
	<g>
		<g>
			<line class="st7" x1="873.3" y1="463.9" x2="879.3" y2="463.9"/>
			<line class="st7" x1="869.6" y1="458.2" x2="872.6" y2="453"/>
			<line class="st7" x1="862.9" y1="458.6" x2="859.9" y2="453.4"/>
			<line class="st7" x1="859.8" y1="464.6" x2="853.8" y2="464.6"/>
			<line class="st7" x1="863.5" y1="470.3" x2="860.5" y2="475.5"/>
			<line class="st7" x1="870.2" y1="469.9" x2="873.3" y2="475.1"/>
		</g>
	</g>
	<g>
		<g>
			<rect x="1250.6" y="680" class="st10" width="28.6" height="2.5"/>
		</g>
		<g>
			<rect x="1250.6" y="686.3" class="st10" width="20.3" height="2.5"/>
		</g>
		<g>
			<polygon class="st4" points="1242.4,687.5 1239.1,684.5 1240.8,682.7 1242.1,683.9 1246.3,678.7 1248.2,680.2 			"/>
		</g>
		<g>
			<rect x="1250.6" y="695.5" class="st10" width="28.6" height="2.5"/>
		</g>
		<g>
			<rect x="1250.6" y="701.9" class="st10" width="20.3" height="2.5"/>
		</g>
		<g>
			<polygon class="st4" points="1242.4,703 1239.1,700 1240.8,698.2 1242.1,699.4 1246.3,694.2 1248.2,695.7 			"/>
		</g>
	</g>
	<g>
		<g>
			<g>
				<path class="st7" d="M1207.9,509.5c0-3.3,2.6-5.9,5.9-5.9c3.2,0,5.9,2.6,5.9,5.9c0,3.2-2.6,5.9-5.9,5.9
					S1207.9,512.7,1207.9,509.5z"/>
				<g>
					<line class="st7" x1="1213.8" y1="516.6" x2="1213.8" y2="522.2"/>
					<line class="st7" x1="1213.8" y1="496.8" x2="1213.8" y2="502.3"/>
				</g>
				<g>
					<line class="st7" x1="1220" y1="513" x2="1224.8" y2="515.8"/>
					<line class="st7" x1="1202.7" y1="503.1" x2="1207.6" y2="505.9"/>
				</g>
				<g>
					<line class="st7" x1="1220" y1="505.9" x2="1224.8" y2="503.1"/>
					<line class="st7" x1="1202.7" y1="515.8" x2="1207.6" y2="513"/>
				</g>
			</g>
		</g>
	</g>
	<g>
		<path class="st3" d="M1254.6,559.7c0,1.1,0.9,1.9,1.9,1.9h3.7v7.2l9.1-7.2h12.1c1.1,0,1.9-0.9,1.9-1.9V543c0-1.1-0.9-1.9-1.9-1.9
			h-25c-1.1,0-1.9,0.9-1.9,1.9v16.7H1254.6z"/>
	</g>
	<g>
		<g>
			<g>
				<g>
					<path class="st4" d="M816.4,988.4l-0.2-0.3c-0.9-1.5-1.5-3.2-1.5-5c0-2.9,1.3-5.6,3.5-7.4l1-0.8l1.2,13.4h-0.7
						c-1.1,0-2,0.1-2.9,0.1H816.4z M818.1,977.7c-1.3,1.5-2,3.3-2,5.3c0,1.4,0.4,2.7,1,3.9c0.6,0,1.1,0,1.8-0.1L818.1,977.7z"/>
				</g>
				<g>
					<path class="st4" d="M832.4,988.4H832c-1,0-2.1-0.1-3.3-0.1H828l1.2-13.6l1,0.7c2.4,1.8,3.9,4.6,3.9,7.6c0,1.8-0.5,3.5-1.5,5
						L832.4,988.4z M829.5,986.9c0.7,0,1.4,0,2.1,0.1c0.7-1.2,1-2.6,1-3.9c0-2.1-0.9-4.2-2.3-5.7L829.5,986.9z"/>
				</g>
			</g>
			<g>
				<path class="st4" d="M829.5,984.7H819l-1.1-13.1c-0.4-5,1.9-9.9,6-12.8l0.4-0.3l0.4,0.3c4.1,2.9,6.5,7.8,6,12.8L829.5,984.7z
					 M820.2,983.3h8l1-11.8c0.4-4.4-1.5-8.6-5-11.2c-3.5,2.6-5.4,6.9-5,11.2L820.2,983.3z"/>
			</g>
			<g>
				<path class="st4" d="M824.2,995c-0.4,0-0.5,0-1.7-2.4c-1.1-2.3-1.1-3-1.1-3.2c0-1.6,1.3-2.8,2.8-2.8c1.6,0,2.8,1.3,2.8,2.8
					c0,1.2-1.6,4.2-2.1,5.2v0.5L824.2,995z M824.2,987.9c-0.8,0-1.4,0.6-1.4,1.4c0,0.6,0.8,2.3,1.4,3.5c0.8-1.5,1.4-3,1.4-3.5
					C825.6,988.5,825,987.9,824.2,987.9z"/>
			</g>
			<g>
				<path class="st4" d="M829.7,965.1l-1.4-0.3c-2.6-0.5-5.5-0.5-8.1,0l-1.4,0.3l0.7-1.3c1.1-2,2.6-3.7,4.4-4.9l0.4-0.3l0.4,0.3
					c1.8,1.3,3.3,3,4.4,4.9L829.7,965.1z M824.2,960.3c-1.1,0.8-2,1.8-2.8,2.9c1.8-0.2,3.7-0.2,5.6,0
					C826.2,962.1,825.3,961.1,824.2,960.3z"/>
			</g>
			<g>
				<rect x="819" y="980.5" class="st4" width="10.3" height="1.4"/>
			</g>
		</g>
	</g>
	<g>
		<g>
			<path class="st3" d="M878.9,975.5c0-3.3,2.6-5.9,5.9-5.9c3.2,0,5.9,2.6,5.9,5.9c0,3.2-2.6,5.9-5.9,5.9S878.9,978.7,878.9,975.5z"
				/>
			<g>
				<line class="st3" x1="884.8" y1="982.6" x2="884.8" y2="988.2"/>
				<line class="st3" x1="884.8" y1="962.8" x2="884.8" y2="968.3"/>
			</g>
			<g>
				<line class="st3" x1="891" y1="979" x2="895.8" y2="981.8"/>
				<line class="st3" x1="873.7" y1="969.1" x2="878.6" y2="971.9"/>
			</g>
			<g>
				<line class="st3" x1="891" y1="971.9" x2="895.8" y2="969.1"/>
				<line class="st3" x1="873.7" y1="981.8" x2="878.6" y2="979"/>
			</g>
		</g>
	</g>
	<g>
		<g>
			<g>
				<rect x="1119.2" y="953.3" class="st4" width="30.1" height="6.4"/>
			</g>
		</g>
		<g>
			<polygon class="st10" points="1149.2,978.6 1119.3,978.6 1119.3,959.8 1120.7,959.8 1120.7,977.2 1147.8,977.2 1147.8,959.8 
				1149.2,959.8 			"/>
		</g>
		<g>
			<g>
				<rect x="1124.2" y="950.8" class="st10" width="1.4" height="5.6"/>
			</g>
			<g>
				<rect x="1142.9" y="950.8" class="st10" width="1.4" height="5.6"/>
			</g>
		</g>
		<g>
			<g>
				<g>
					<g>
						<rect x="1124.4" y="963.1" class="st10" width="1.6" height="1.4"/>
					</g>
					<g>
						<rect x="1127.4" y="963.1" class="st10" width="1.6" height="1.4"/>
					</g>
					<g>
						<rect x="1130.4" y="963.1" class="st10" width="1.6" height="1.4"/>
					</g>
					<g>
						<rect x="1133.4" y="963.1" class="st10" width="1.6" height="1.4"/>
					</g>
					<g>
						<rect x="1136.5" y="963.1" class="st10" width="1.6" height="1.4"/>
					</g>
					<g>
						<rect x="1139.5" y="963.1" class="st10" width="1.6" height="1.4"/>
					</g>
					<g>
						<rect x="1142.5" y="963.1" class="st10" width="1.6" height="1.4"/>
					</g>
				</g>
			</g>
			<g>
				<g>
					<g>
						<rect x="1124.4" y="966.2" class="st10" width="1.6" height="1.4"/>
					</g>
					<g>
						<rect x="1127.4" y="966.2" class="st10" width="1.6" height="1.4"/>
					</g>
					<g>
						<rect x="1130.4" y="966.2" class="st10" width="1.6" height="1.4"/>
					</g>
					<g>
						<rect x="1133.4" y="966.2" class="st10" width="1.6" height="1.4"/>
					</g>
					<g>
						<rect x="1136.5" y="966.2" class="st10" width="1.6" height="1.4"/>
					</g>
					<g>
						<rect x="1139.5" y="966.2" class="st10" width="1.6" height="1.4"/>
					</g>
					<g>
						<rect x="1142.5" y="966.2" class="st10" width="1.6" height="1.4"/>
					</g>
				</g>
			</g>
			<g>
				<g>
					<g>
						<rect x="1124.4" y="969.3" class="st10" width="1.6" height="1.4"/>
					</g>
					<g>
						<rect x="1127.4" y="969.3" class="st10" width="1.6" height="1.4"/>
					</g>
					<g>
						<rect x="1130.4" y="969.3" class="st10" width="1.6" height="1.4"/>
					</g>
					<g>
						<rect x="1133.4" y="969.3" class="st10" width="1.6" height="1.4"/>
					</g>
					<g>
						<rect x="1136.5" y="969.3" class="st10" width="1.6" height="1.4"/>
					</g>
					<g>
						<rect x="1139.5" y="969.3" class="st10" width="1.6" height="1.4"/>
					</g>
					<g>
						<rect x="1142.5" y="969.3" class="st10" width="1.6" height="1.4"/>
					</g>
				</g>
			</g>
			<g>
				<g>
					<g>
						<rect x="1124.4" y="972.4" class="st10" width="1.6" height="1.4"/>
					</g>
					<g>
						<rect x="1127.4" y="972.4" class="st10" width="1.6" height="1.4"/>
					</g>
					<g>
						<rect x="1130.4" y="972.4" class="st10" width="1.6" height="1.4"/>
					</g>
					<g>
						<rect x="1133.4" y="972.4" class="st10" width="1.6" height="1.4"/>
					</g>
					<g>
						<rect x="1136.5" y="972.4" class="st10" width="1.6" height="1.4"/>
					</g>
					<g>
						<rect x="1139.5" y="972.4" class="st10" width="1.6" height="1.4"/>
					</g>
					<g>
						<rect x="1142.5" y="972.4" class="st10" width="1.6" height="1.4"/>
					</g>
				</g>
			</g>
		</g>
	</g>
	<g>
		<line class="st3" x1="1071.3" y1="953.3" x2="1071.3" y2="958.1"/>
		<line class="st3" x1="1062.6" y1="958.7" x2="1066.8" y2="961.1"/>
		<line class="st3" x1="1063" y1="969" x2="1067.1" y2="966.6"/>
		<line class="st3" x1="1072" y1="973.8" x2="1072" y2="969"/>
		<line class="st3" x1="1080.7" y1="968.4" x2="1076.6" y2="966"/>
		<line class="st3" x1="1080.4" y1="958.1" x2="1076.2" y2="960.5"/>
	</g>
	<g>
		<g>
			<path class="st4" d="M1272.5,877.9h-6l-0.3-4.1c-1-0.3-2-0.7-2.9-1.3l-3.1,2.6l-4.2-4.2l2.7-3.2c-0.5-0.9-0.9-1.9-1.1-2.9l-4-0.3
				v-6l4.1-0.3c0.3-1,0.7-2,1.3-2.9l-2.6-3.1l4.2-4.2l3.2,2.7c0.9-0.5,1.9-0.9,2.9-1.1l0.3-4h6l0.3,4.1c1,0.3,2,0.7,2.9,1.3l3.1-2.6
				l4.2,4.2l-2.7,3.2c0.5,0.9,0.9,1.9,1.1,2.9l4,0.3v6l-4.1,0.3c-0.3,1-0.7,2-1.3,2.9l2.6,3.1l-4.2,4.2l-3.2-2.7
				c-0.9,0.5-1.9,0.9-2.9,1.1L1272.5,877.9z M1268.2,876.1h2.6l0.3-3.7l0.7-0.1c1.3-0.2,2.5-0.7,3.6-1.4l0.6-0.3l2.9,2.4l1.8-1.8
				l-2.4-2.8l0.4-0.6c0.7-1.1,1.3-2.3,1.6-3.5l0.2-0.6l3.8-0.3v-2.6l-3.7-0.3l-0.1-0.7c-0.2-1.3-0.7-2.5-1.4-3.6l-0.3-0.6l2.4-2.9
				l-1.8-1.8l-2.8,2.4l-0.6-0.4c-1.1-0.7-2.3-1.3-3.5-1.6l-0.6-0.2l-0.3-3.8h-2.6l-0.3,3.7l-0.7,0.1c-1.3,0.2-2.5,0.7-3.6,1.4
				l-0.6,0.3l-2.9-2.4l-1.8,1.8l2.4,2.8l-0.4,0.6c-0.7,1.1-1.3,2.3-1.6,3.5l-0.2,0.6l-3.8,0.3v2.6l3.7,0.3l0.1,0.7
				c0.2,1.3,0.7,2.5,1.4,3.6l0.3,0.6l-2.4,2.9l1.8,1.8l2.8-2.4l0.6,0.4c1.1,0.7,2.3,1.3,3.5,1.6l0.6,0.2L1268.2,876.1z"/>
		</g>
		<g>
			<path class="st4" d="M1269.8,867.4c-3.1,0-5.7-2.6-5.7-5.7c0-3.1,2.6-5.7,5.7-5.7s5.7,2.5,5.7,5.7S1272.9,867.4,1269.8,867.4z
				 M1269.8,857.9c-2.1,0-3.8,1.7-3.8,3.8s1.7,3.8,3.8,3.8c2.1,0,3.8-1.7,3.8-3.8C1273.6,859.6,1271.9,857.9,1269.8,857.9z"/>
		</g>
	</g>
	<g>
		<g>
			<line class="st3" x1="903.8" y1="758.2" x2="907.4" y2="758.2"/>
			<line class="st6" x1="914.8" y1="758.2" x2="982.9" y2="758.2"/>
		</g>
		<polyline class="st3" points="900.2,766.4 892.2,758.4 900.2,750.4 		"/>
		<polyline class="st3" points="988.2,750.4 996.2,758.4 988.2,766.4 		"/>
	</g>
	<g>
		<g>
			<path class="st10" d="M468.4,931.3c-0.8-1.7-2.8-2.5-4.5-1.7l-1.6,0.7l-4.2-9.3l1.6-0.7c1.7-0.8,2.5-2.8,1.7-4.5
				s-2.7-2.5-4.5-1.7l-1.6,0.7l-0.7-1.6c-0.8-1.7-2.8-2.5-4.5-1.7s-2.5,2.8-1.7,4.5l0.7,1.6l-9.3,4.2l-0.7-1.6
				c-0.8-1.7-2.8-2.5-4.5-1.7s-2.5,2.7-1.7,4.5l0.7,1.6l-1.6,0.7c-1.7,0.8-2.5,2.8-1.7,4.5s2.8,2.5,4.5,1.7l1.6-0.7l4.2,9.3
				l-1.6,0.7c-1.7,0.8-2.5,2.8-1.7,4.5s2.7,2.5,4.5,1.7l1.6-0.7l0.7,1.6c0.8,1.7,2.8,2.5,4.5,1.7s2.5-2.7,1.7-4.5l-0.7-1.6l9.3-4.2
				l0.7,1.6c0.8,1.7,2.8,2.5,4.5,1.7s2.5-2.7,1.7-4.4l-0.7-1.6l1.6-0.7C468.4,935,469.1,933,468.4,931.3L468.4,931.3z M446.9,937.3
				l-4.2-9.3l9.3-4.2l4.2,9.3L446.9,937.3z"/>
		</g>
	</g>
	<g>
		<path class="st4" d="M425.4,972.1c-0.8,0-1.3,0.3-1.3,0.9c0,2.1,6.6,0.9,6.6,5.4c0,2.6-2.3,3.9-5.1,3.9c-2.1,0-4.3-0.8-5.8-2
			l1.3-2.6c1.3,1.1,3.3,1.9,4.6,1.9c1,0,1.6-0.4,1.6-1c0-2.1-6.6-0.8-6.6-5.3c0-2.4,2-3.9,5-3.9c1.9,0,3.7,0.6,5,1.4l-1.2,2.6
			C428.1,972.7,426.4,972.1,425.4,972.1z"/>
		<path class="st4" d="M435.7,969.6v9.8h5.3v2.8h-8.6v-12.6H435.7z"/>
		<path class="st4" d="M451,979.9h-5.5l-0.9,2.2h-3.4l5.4-12.6h3.4l5.3,12.6h-3.5L451,979.9z M450,977.4l-1.7-4.5l-1.8,4.5H450z"/>
		<path class="st4" d="M462.1,972.3c-1.9,0-3.4,1.5-3.4,3.5s1.5,3.6,3.4,3.6c1,0,2.3-0.6,3.1-1.5l1.9,2.1c-1.4,1.4-3.4,2.3-5.2,2.3
			c-3.8,0-6.6-2.8-6.6-6.5c0-3.6,2.9-6.4,6.8-6.4c1.9,0,3.8,0.8,5.1,2.2l-1.9,2.3C464.4,972.9,463.2,972.3,462.1,972.3z"/>
		<path class="st4" d="M476.8,982.2l-3.3-4.9l-1.6,1.8v3.1h-3.3v-12.6h3.3v5.3l4.7-5.3h3.8l-4.7,5.2l5,7.4H476.8z"/>
	</g>
	<g>
		<g>
			<path class="st11" d="M335,779.8c-1.9,0-3.4,1.5-3.4,3.5s1.5,3.6,3.4,3.6c1,0,2.3-0.6,3.1-1.5l1.9,2.1c-1.4,1.4-3.4,2.3-5.2,2.3
				c-3.8,0-6.6-2.8-6.6-6.5c0-3.6,2.9-6.4,6.8-6.4c1.9,0,3.8,0.8,5.1,2.2l-1.9,2.3C337.3,780.5,336.1,779.8,335,779.8z"/>
			<path class="st11" d="M357.7,783.4c0,3.7-2.9,6.5-6.8,6.5s-6.8-2.8-6.8-6.5s2.9-6.4,6.8-6.4S357.7,779.8,357.7,783.4z
				 M347.4,783.4c0,2.1,1.6,3.6,3.5,3.6s3.4-1.6,3.4-3.6s-1.5-3.6-3.4-3.6C349,779.8,347.4,781.4,347.4,783.4z"/>
			<path class="st11" d="M365.8,777.1l5.7,7.6v-7.6h3.1v12.6h-2.9l-5.7-7.6v7.6h-3.1v-12.6H365.8z"/>
			<path class="st11" d="M385.3,779.6c-0.8,0-1.3,0.3-1.3,0.9c0,2.1,6.6,0.9,6.6,5.4c0,2.6-2.3,3.9-5.1,3.9c-2.1,0-4.3-0.8-5.8-2
				l1.3-2.6c1.3,1.1,3.3,1.9,4.6,1.9c1,0,1.6-0.4,1.6-1c0-2.1-6.6-0.8-6.6-5.3c0-2.4,2-3.9,5-3.9c1.9,0,3.7,0.6,5,1.4l-1.2,2.6
				C388,780.2,386.3,779.6,385.3,779.6z"/>
			<path class="st11" d="M399.2,777.1v12.6h-3.3v-12.6H399.2z"/>
			<path class="st11" d="M409.9,779.6c-0.8,0-1.3,0.3-1.3,0.9c0,2.1,6.6,0.9,6.6,5.4c0,2.6-2.3,3.9-5.1,3.9c-2.1,0-4.3-0.8-5.8-2
				l1.3-2.6c1.3,1.1,3.3,1.9,4.6,1.9c1,0,1.6-0.4,1.6-1c0-2.1-6.6-0.8-6.6-5.3c0-2.4,2-3.9,5-3.9c1.9,0,3.7,0.6,5,1.4l-1.2,2.6
				C412.6,780.2,410.9,779.6,409.9,779.6z"/>
			<path class="st11" d="M430.2,777.1v2.7h-3.8v9.9h-3.3v-9.9h-3.7v-2.7H430.2z"/>
			<path class="st11" d="M445.1,777.1v2.6h-6.7v2.4h6v2.6h-6v2.4h6.8v2.6h-10.1v-12.6H445.1z"/>
			<path class="st11" d="M453.8,777.1l5.7,7.6v-7.6h3.1v12.6h-2.9l-5.7-7.6v7.6h-3.1v-12.6H453.8z"/>
			<path class="st11" d="M478.3,777.1v2.7h-3.8v9.9h-3.3v-9.9h-3.7v-2.7H478.3z"/>
			<path class="st4" d="M503.2,783.4c0,3.8-2.8,6.3-6.8,6.3H491v-12.6h5.4C500.4,777.1,503.2,779.7,503.2,783.4z M499.8,783.4
				c0-2.2-1.4-3.7-3.4-3.7h-2.1v7.3h2.2C498.4,787.1,499.8,785.6,499.8,783.4z"/>
			<path class="st4" d="M518.4,777.1v2.6h-6.7v2.4h6v2.6h-6v2.4h6.8v2.6h-10.1v-12.6H518.4z"/>
			<path class="st4" d="M527.7,777.1l3.3,7.4l3.3-7.4h3.6v12.6H535v-8l-2.9,6.7H530l-2.9-6.7v8h-2.9v-12.6H527.7z"/>
			<path class="st4" d="M556.9,783.4c0,3.7-2.9,6.5-6.8,6.5s-6.8-2.8-6.8-6.5s2.9-6.4,6.8-6.4S556.9,779.8,556.9,783.4z
				 M546.7,783.4c0,2.1,1.6,3.6,3.5,3.6s3.4-1.6,3.4-3.6s-1.5-3.6-3.4-3.6C548.3,779.8,546.7,781.4,546.7,783.4z"/>
			<path class="st4" d="M566.8,779.6c-0.8,0-1.3,0.3-1.3,0.9c0,2.1,6.6,0.9,6.6,5.4c0,2.6-2.3,3.9-5.1,3.9c-2.1,0-4.3-0.8-5.8-2
				l1.3-2.6c1.3,1.1,3.3,1.9,4.6,1.9c1,0,1.6-0.4,1.6-1c0-2.1-6.6-0.8-6.6-5.3c0-2.4,2-3.9,5-3.9c1.9,0,3.7,0.6,5,1.4l-1.2,2.6
				C569.5,780.2,567.8,779.6,566.8,779.6z"/>
		</g>
	</g>
	<g>
		<path class="st11" d="M317.6,810.1c0,3.7-2.9,6.5-6.8,6.5s-6.8-2.8-6.8-6.5s2.9-6.4,6.8-6.4S317.6,806.4,317.6,810.1z
			 M307.3,810.1c0,2.1,1.6,3.6,3.5,3.6s3.4-1.6,3.4-3.6s-1.5-3.6-3.4-3.6S307.3,808,307.3,810.1z"/>
		<path class="st11" d="M332.3,803.8v2.6h-6.1v2.8h5.7v2.6h-5.7v4.6h-3.3v-12.6L332.3,803.8L332.3,803.8z"/>
		<path class="st11" d="M347.4,803.8l2.4,9.1l2.4-9.1h3.2l2.4,9.1l2.4-9.1h3.4l-4.2,12.6H356l-2.3-8.5l-2.3,8.5H348l-4.1-12.6H347.4
			z"/>
		<path class="st11" d="M381,810.1c0,3.7-2.9,6.5-6.8,6.5s-6.8-2.8-6.8-6.5s2.9-6.4,6.8-6.4S381,806.4,381,810.1z M370.7,810.1
			c0,2.1,1.6,3.6,3.5,3.6s3.4-1.6,3.4-3.6s-1.5-3.6-3.4-3.6C372.3,806.5,370.7,808,370.7,810.1z"/>
		<path class="st11" d="M393.8,816.4l-1.8-3.5h-0.1h-2.4v3.5h-3.3v-12.6h5.7c3.3,0,5.3,1.6,5.3,4.4c0,1.9-0.8,3.3-2.3,4.1l2.6,4.1
			H393.8z M389.5,810.3h2.4c1.3,0,2.1-0.7,2.1-2c0-1.2-0.8-1.9-2.1-1.9h-2.4V810.3z"/>
		<path class="st11" d="M411,816.4l-3.3-4.9l-1.6,1.8v3.1h-3.3v-12.6h3.3v5.3l4.7-5.3h3.8L410,809l5,7.4H411z"/>
		<path class="st11" d="M423.2,803.8v12.6h-3.3v-12.6H423.2z"/>
		<path class="st11" d="M432.1,803.8l5.7,7.6v-7.6h3.1v12.6H438l-5.7-7.6v7.6h-3.1v-12.6H432.1z"/>
		<path class="st11" d="M455.3,810h2.8v5c-1.4,0.9-3.5,1.6-5.3,1.6c-3.9,0-6.8-2.8-6.8-6.4s3-6.4,7-6.4c1.9,0,3.9,0.7,5.2,1.9
			l-1.9,2.3c-0.9-0.8-2.2-1.4-3.3-1.4c-2,0-3.6,1.6-3.6,3.6c0,2.1,1.5,3.6,3.6,3.6c0.6,0,1.4-0.2,2.2-0.6L455.3,810L455.3,810z"/>
		<path class="st11" d="M481.1,803.8v2.6H475v2.8h5.7v2.6H475v4.6h-3.3v-12.6L481.1,803.8L481.1,803.8z"/>
		<path class="st11" d="M496.2,803.8v2.6h-6.7v2.4h6v2.6h-6v2.4h6.8v2.6h-10.1v-12.6H496.2z"/>
		<path class="st11" d="M510.4,814.2h-5.5l-0.9,2.2h-3.4l5.4-12.6h3.4l5.3,12.6h-3.5L510.4,814.2z M509.4,811.6l-1.7-4.5l-1.8,4.5
			H509.4z"/>
		<path class="st11" d="M527.8,803.8v2.7H524v9.9h-3.3v-9.9H517v-2.7H527.8z"/>
		<path class="st11" d="M538.4,813.7c1.5,0,2.5-1,2.5-2.6v-7.3h3.3v7.3c0,3.3-2.2,5.4-5.8,5.4s-5.9-2.1-5.9-5.4v-7.3h3.3v7.3
			C535.9,812.7,536.9,813.7,538.4,813.7z"/>
		<path class="st11" d="M557.6,816.4l-1.8-3.5h-0.1h-2.4v3.5H550v-12.6h5.7c3.3,0,5.3,1.6,5.3,4.4c0,1.9-0.8,3.3-2.3,4.1l2.6,4.1
			H557.6z M553.3,810.3h2.4c1.3,0,2.1-0.7,2.1-2c0-1.2-0.8-1.9-2.1-1.9h-2.4V810.3z"/>
		<path class="st11" d="M576.6,803.8v2.6h-6.7v2.4h6v2.6h-6v2.4h6.8v2.6h-10.1v-12.6H576.6z"/>
		<path class="st11" d="M587,806.3c-0.8,0-1.3,0.3-1.3,0.9c0,2.1,6.6,0.9,6.6,5.4c0,2.6-2.3,3.9-5.1,3.9c-2.1,0-4.3-0.8-5.8-2
			l1.3-2.6c1.3,1.1,3.3,1.9,4.6,1.9c1,0,1.6-0.4,1.6-1c0-2.1-6.6-0.8-6.6-5.3c0-2.4,2-3.9,5-3.9c1.9,0,3.7,0.6,5,1.4l-1.2,2.6
			C589.8,806.9,588.1,806.3,587,806.3z"/>
	</g>
	<g>
		<g>
			<path class="st4" d="M425.6,1118v2.7h-3.8v9.9h-3.3v-9.9h-3.7v-2.7H425.6z"/>
			<path class="st4" d="M434.5,1130.6l-1.8-3.5h-0.1h-2.4v3.5H427V1118h5.7c3.3,0,5.3,1.6,5.3,4.4c0,1.9-0.8,3.3-2.3,4.1l2.6,4.1
				H434.5z M430.3,1124.5h2.4c1.3,0,2.1-0.7,2.1-2c0-1.2-0.8-1.9-2.1-1.9h-2.4V1124.5z"/>
			<path class="st4" d="M450,1118v2.6h-6.7v2.4h6v2.6h-6v2.4h6.8v2.6H440V1118H450z"/>
			<path class="st4" d="M455.4,1118v9.8h5.3v2.8h-8.6V1118H455.4z"/>
			<path class="st4" d="M465.6,1118v9.8h5.3v2.8h-8.6V1118H465.6z"/>
			<path class="st4" d="M485.3,1124.3c0,3.7-2.9,6.5-6.8,6.5s-6.8-2.8-6.8-6.5s2.9-6.4,6.8-6.4S485.3,1120.6,485.3,1124.3z
				 M475,1124.3c0,2.1,1.6,3.6,3.5,3.6s3.4-1.6,3.4-3.6s-1.5-3.6-3.4-3.6C476.6,1120.7,475,1122.3,475,1124.3z"/>
		</g>
	</g>
	<g>
		<g>
			<path class="st4" d="M424.3,1283.2h2.8v5c-1.4,0.9-3.5,1.6-5.3,1.6c-3.9,0-6.8-2.8-6.8-6.4s3-6.4,7-6.4c1.9,0,3.9,0.7,5.2,1.9
				l-1.9,2.3c-0.9-0.8-2.2-1.4-3.3-1.4c-2,0-3.6,1.6-3.6,3.6c0,2.1,1.5,3.6,3.6,3.6c0.6,0,1.4-0.2,2.2-0.6L424.3,1283.2
				L424.3,1283.2z"/>
			<path class="st4" d="M432.7,1277v12.6h-3.3V1277H432.7z"/>
			<path class="st4" d="M444.8,1277v2.7H441v9.9h-3.3v-9.9H434v-2.7H444.8z"/>
			<path class="st4" d="M449.4,1277v5.1h5.1v-5.1h3.3v12.6h-3.3v-4.8h-5.1v4.8h-3.3V1277H449.4z"/>
			<path class="st4" d="M465.9,1286.9c1.5,0,2.5-1,2.5-2.6v-7.3h3.3v7.3c0,3.3-2.2,5.4-5.8,5.4c-3.6,0-5.9-2.1-5.9-5.4v-7.3h3.3v7.3
				C463.4,1285.9,464.4,1286.9,465.9,1286.9z"/>
			<path class="st4" d="M484.6,1280.2c0,1.3-0.8,2.4-2.2,2.7c1.6,0.3,2.6,1.6,2.6,3.2c0,2.2-1.9,3.5-4.9,3.5h-6.2V1277h6
				C482.8,1277,484.6,1278.2,484.6,1280.2z M481.2,1280.7c0-0.8-0.6-1.2-1.5-1.2h-2.5v2.4h2.5C480.6,1282,481.2,1281.5,481.2,1280.7
				z M481.6,1285.7c0-0.8-0.7-1.3-1.9-1.3h-2.5v2.7h2.5C480.9,1287.1,481.6,1286.5,481.6,1285.7z"/>
		</g>
	</g>
	<g>
		<path class="st10" d="M461.8,1059.3H435c-2.4,0-4.3,1.9-4.3,4.3v26.8c0,2.4,1.9,4.3,4.3,4.3h26.8c2.4,0,4.3-1.9,4.3-4.3v-26.8
			C466.1,1061.2,464.2,1059.3,461.8,1059.3L461.8,1059.3z M446.1,1086.9c0,1.1-0.9,2-2,2h-6.8c-1.1,0-2-0.9-2-2v-20.7
			c0-1.1,0.9-2,2-2h6.8c1.1,0,2,0.9,2,2V1086.9z M461.5,1078c0,1.1-0.9,2-2,2h-6.8c-1.1,0-2-0.9-2-2v-11.8c0-1.1,0.9-2,2-2h6.8
			c1.1,0,2,0.9,2,2V1078z"/>
	</g>
	<rect x="1160.9" y="687.5" class="st0" width="28.7" height="86.6"/>
	<g>
		<g>
			<line class="st3" x1="1165" y1="729.7" x2="1168.6" y2="729.7"/>
			<line class="st6" x1="1176" y1="729.7" x2="1343.1" y2="729.7"/>
		</g>
		<polyline class="st3" points="1161.4,737.9 1153.4,729.9 1161.4,721.9 		"/>
		<polyline class="st3" points="1347.4,721.9 1355.4,729.9 1347.4,737.9 		"/>
	</g>
	<rect x="828.6" y="591.8" class="st0" width="78.8" height="29.3"/>
	<g>
		<g>
			<g>
				<line class="st3" x1="805.5" y1="478.3" x2="808.1" y2="480.9"/>
				<polyline class="st6" points="813.3,486.1 863.3,536.1 862.9,608.8 				"/>
			</g>
			<polyline class="st3" points="797.2,481.6 797.2,470.3 808.5,470.3 			"/>
			<polyline class="st3" points="870.9,615 863,623 855,615 			"/>
		</g>
	</g>
	<rect x="825.6" y="848.5" class="st0" width="59.1" height="17"/>
	<g>
		<g>
			<line class="st6" x1="857.7" y1="849.4" x2="857.7" y2="1070.5"/>
		</g>
		<polyline class="st3" points="849.5,847.9 857.5,839.9 865.5,847.9 		"/>
		<polyline class="st3" points="865.5,1075.9 857.5,1083.9 849.5,1075.9 		"/>
	</g>
	<rect x="1082.3" y="848.5" class="st0" width="51.1" height="18.6"/>
	<g>
		<g>
			<line class="st6" x1="1100.9" y1="849.4" x2="1100.9" y2="1070.5"/>
		</g>
		<polyline class="st3" points="1092.7,847.9 1100.7,839.9 1108.7,847.9 		"/>
		<polyline class="st3" points="1108.7,1075.9 1100.7,1083.9 1092.7,1075.9 		"/>
	</g>
	<rect x="1137.3" y="599.8" class="st0" width="44.8" height="28.7"/>
	<g>
		<g>
			<line class="st12" x1="1147.3" y1="622.9" x2="1297.4" y2="472.8"/>
			<line class="st3" x1="1270" y1="500.2" x2="1272.6" y2="497.6"/>
		</g>
		<polyline class="st3" points="1152.8,629 1141.5,629 1141.5,617.7 		"/>
		<polyline class="st3" points="1296.6,463.6 1307.9,463.6 1307.9,474.9 		"/>
	</g>
	<rect x="1131.2" y="830.5" class="st0" width="47.5" height="32"/>
	<g>
		<g>
			<line class="st12" x1="1151.1" y1="825.9" x2="1310.4" y2="955.2"/>
		</g>
		<polyline class="st3" points="1142,828.4 1142,817.1 1153.3,817.1 		"/>
		<polyline class="st3" points="1319.7,1070.8 1311.7,1078.8 1303.7,1070.8 		"/>
		<g>
			<line class="st6" x1="1311.7" y1="959.3" x2="1311.7" y2="1072.4"/>
		</g>
	</g>
	<g>
		<g>
			<g>
				<path class="st3" d="M442.4,711.6c-5.9-0.6-12,1.3-16.6,5.8c-2.8,2.8-4.6,6.2-5.4,9.8c1.6,1.5,3.3,3.1,5,4.6L442.4,711.6z"/>
				<path class="st3" d="M460.9,729.3l-20.7,17.4c1.8,1.9,3.5,3.7,5.2,5.6c3.6-0.8,7-2.6,9.8-5.4C460,742,461.9,735.4,460.9,729.3z"
					/>
			</g>
			<path class="st3" d="M431,725.9l15.2,15.2l22.2-18.6c8.8-7.4,12.5-18.7,10.5-29.3c-10.6-1.9-21.9,1.7-29.3,10.5L431,725.9z"/>
			<g>
				<path class="st7" d="M433.4,745.6c-1.9,1.9-11.6,4.7-11.6,4.7c-0.1,0.1,2.7-9.7,4.7-11.6c1.9-1.9,5.1-1.9,7,0
					C435.3,740.6,435.3,743.7,433.4,745.6z"/>
			</g>
			<path class="st3" d="M471.8,700.2c2.4,2.4,4.4,4.9,6.2,7.5c1.4-4.7,1.7-9.7,0.8-14.5c-4.8-0.9-9.8-0.6-14.5,0.8
				C467,695.8,469.5,697.8,471.8,700.2z"/>
			<line class="st3" x1="434.8" y1="720.4" x2="451.7" y2="737.3"/>
		</g>
	</g>
	<g>
		<g>
			<path class="st4" d="M322.4,569.2h2.8v5c-1.4,0.9-3.5,1.6-5.3,1.6c-3.9,0-6.8-2.8-6.8-6.4c0-3.7,3-6.4,7-6.4
				c1.9,0,3.9,0.7,5.2,1.9l-1.9,2.3c-0.9-0.8-2.2-1.4-3.3-1.4c-2,0-3.6,1.6-3.6,3.6c0,2.1,1.5,3.6,3.6,3.6c0.6,0,1.4-0.2,2.2-0.6
				L322.4,569.2L322.4,569.2z"/>
			<path class="st4" d="M338.6,575.7l-1.8-3.5h-0.1h-2.4v3.5H331v-12.6h5.7c3.3,0,5.3,1.6,5.3,4.4c0,1.9-0.8,3.3-2.3,4.1l2.6,4.1
				H338.6z M334.3,569.6h2.4c1.3,0,2.1-0.7,2.1-2c0-1.2-0.8-1.9-2.1-1.9h-2.4V569.6z"/>
			<path class="st4" d="M360.4,569.4c0,3.7-2.9,6.5-6.8,6.5s-6.8-2.8-6.8-6.5s2.9-6.4,6.8-6.4S360.4,565.7,360.4,569.4z
				 M350.2,569.4c0,2.1,1.6,3.6,3.5,3.6s3.4-1.6,3.4-3.6s-1.5-3.6-3.4-3.6C351.8,565.8,350.2,567.3,350.2,569.4z"/>
			<path class="st4" d="M378.3,569.4c0,3.7-2.9,6.5-6.8,6.5s-6.8-2.8-6.8-6.5s2.9-6.4,6.8-6.4S378.3,565.7,378.3,569.4z M368,569.4
				c0,2.1,1.6,3.6,3.5,3.6s3.4-1.6,3.4-3.6s-1.5-3.6-3.4-3.6C369.6,565.8,368,567.3,368,569.4z"/>
			<path class="st4" d="M387.1,563.1l3.3,7.4l3.3-7.4h3.6v12.6h-2.9v-8l-2.9,6.7h-2.2l-2.9-6.7v8h-2.9v-12.6H387.1z"/>
			<path class="st4" d="M406.8,563.1v12.6h-3.3v-12.6H406.8z"/>
			<path class="st4" d="M415.7,563.1l5.7,7.6v-7.6h3.1v12.6h-2.9l-5.7-7.6v7.6h-3.1v-12.6H415.7z"/>
			<path class="st4" d="M438.9,569.2h2.8v5c-1.4,0.9-3.5,1.6-5.3,1.6c-3.9,0-6.8-2.8-6.8-6.4c0-3.7,3-6.4,7-6.4
				c1.9,0,3.9,0.7,5.2,1.9l-1.9,2.3c-0.9-0.8-2.2-1.4-3.3-1.4c-2,0-3.6,1.6-3.6,3.6c0,2.1,1.5,3.6,3.6,3.6c0.6,0,1.4-0.2,2.2-0.6
				L438.9,569.2L438.9,569.2z"/>
			<path class="st4" d="M458.9,563.1l3.3,7.4l3.3-7.4h3.6v12.6h-2.9v-8l-2.9,6.7h-2.2l-2.9-6.7v8h-2.9v-12.6H458.9z"/>
			<path class="st4" d="M485.2,563.1v2.6h-6.7v2.4h6v2.6h-6v2.4h6.8v2.6h-10.1v-12.6H485.2z"/>
			<path class="st4" d="M500.9,563.1v2.6h-6.7v2.4h6v2.6h-6v2.4h6.8v2.6h-10v-12.6H500.9z"/>
			<path class="st4" d="M516.4,563.1v2.7h-3.8v9.9h-3.3v-9.9h-3.7v-2.7H516.4z"/>
			<path class="st4" d="M524.7,563.1v12.6h-3.3v-12.6H524.7z"/>
			<path class="st4" d="M533.6,563.1l5.7,7.6v-7.6h3.1v12.6h-2.9l-5.7-7.6v7.6h-3.1v-12.6H533.6z"/>
			<path class="st4" d="M556.8,569.2h2.8v5c-1.4,0.9-3.5,1.6-5.3,1.6c-3.9,0-6.8-2.8-6.8-6.4c0-3.7,3-6.4,7-6.4
				c1.9,0,3.9,0.7,5.2,1.9l-1.9,2.3c-0.9-0.8-2.2-1.4-3.3-1.4c-2,0-3.6,1.6-3.6,3.6c0,2.1,1.5,3.6,3.6,3.6c0.6,0,1.4-0.2,2.2-0.6
				L556.8,569.2L556.8,569.2z"/>
			<path class="st4" d="M570.1,565.6c-0.8,0-1.3,0.3-1.3,0.9c0,2.1,6.6,0.9,6.6,5.4c0,2.6-2.3,3.9-5.1,3.9c-2.1,0-4.3-0.8-5.8-2
				l1.3-2.6c1.3,1.1,3.3,1.9,4.6,1.9c1,0,1.6-0.4,1.6-1c0-2.1-6.6-0.8-6.6-5.3c0-2.4,2-3.9,5-3.9c1.9,0,3.7,0.6,5,1.4l-1.2,2.6
				C572.8,566.2,571.1,565.6,570.1,565.6z"/>
			<path class="st11" d="M364,597.8c-0.6-0.6-1.2-1.2-1.8-1.7c-1,0.8-2.3,1.3-3.6,1.3c-2.5,0-4.3-1.5-4.3-3.7c0-1.7,1.2-2.6,2.5-3.4
				c-0.8-1.1-1-1.9-1-2.8c0-1.9,1.4-3.1,3.6-3.1c2.1,0,3.6,1.2,3.6,2.8c0,1.8-1.5,2.7-2.9,3.5c0.5,0.6,1.1,1.2,1.9,2
				c0.3-0.6,0.6-1.3,0.8-2l2,1.5c-0.3,0.8-0.7,1.5-1.1,2.2c0.6,0.5,1.2,1.1,1.9,1.8L364,597.8z M360.6,594.5c-1-1-1.8-1.9-2.5-2.6
				c-0.7,0.4-1.1,0.9-1.1,1.6c0,1,0.8,1.7,1.8,1.7C359.4,595.2,360,594.9,360.6,594.5z M358.9,589.3c0.9-0.5,1.6-1,1.6-1.9
				c0-0.6-0.4-1.1-1.1-1.1s-1.2,0.5-1.2,1.2C358.3,588.1,358.5,588.6,358.9,589.3z"/>
			<path class="st11" d="M391.2,591c0,3.7-2.9,6.5-6.8,6.5s-6.8-2.8-6.8-6.5s2.9-6.4,6.8-6.4S391.2,587.3,391.2,591z M380.9,591
				c0,2.1,1.6,3.6,3.5,3.6s3.4-1.6,3.4-3.6s-1.5-3.6-3.4-3.6S380.9,588.9,380.9,591z"/>
			<path class="st11" d="M407,589.1c0,3-1.9,4.7-5.1,4.7h-2.3v3.5h-3.3v-12.6h5.5C405.2,584.7,407,586.3,407,589.1z M403.9,589.2
				c0-1.2-0.8-1.9-2.1-1.9h-2.1v3.9h2.1C403.1,591.2,403.9,590.5,403.9,589.2z"/>
			<path class="st11" d="M416.9,587.2c-0.8,0-1.3,0.3-1.3,0.9c0,2.1,6.6,0.9,6.6,5.4c0,2.6-2.3,3.9-5.1,3.9c-2.1,0-4.3-0.8-5.8-2
				l1.3-2.6c1.3,1.1,3.3,1.9,4.6,1.9c1,0,1.6-0.4,1.6-1c0-2.1-6.6-0.8-6.6-5.3c0-2.4,2-3.9,5-3.9c1.9,0,3.7,0.6,5,1.4l-1.2,2.6
				C419.6,587.8,417.9,587.2,416.9,587.2z"/>
			<path class="st11" d="M442.8,597.3l-1.8-3.5h-0.1h-2.4v3.5h-3.3v-12.6h5.7c3.3,0,5.3,1.6,5.3,4.4c0,1.9-0.8,3.3-2.3,4.1l2.6,4.1
				H442.8z M438.5,591.2h2.4c1.3,0,2.1-0.7,2.1-2c0-1.2-0.8-1.9-2.1-1.9h-2.4V591.2z"/>
			<path class="st11" d="M461.8,584.7v2.6h-6.7v2.4h6v2.6h-6v2.4h6.8v2.6h-10.1v-12.6H461.8z"/>
			<path class="st11" d="M469.9,584.7l3.2,9.1l3.2-9.1h3.4l-4.9,12.6h-3.4l-4.9-12.6H469.9z"/>
			<path class="st11" d="M487.7,584.7v12.6h-3.3v-12.6H487.7z"/>
			<path class="st11" d="M503.7,584.7v2.6H497v2.4h6v2.6h-6v2.4h6.8v2.6h-10.1v-12.6H503.7z"/>
			<path class="st11" d="M511.7,584.7l2.4,9.1l2.4-9.1h3.2l2.4,9.1l2.4-9.1h3.4l-4.2,12.6h-3.4l-2.3-8.5l-2.3,8.5h-3.4l-4.1-12.6
				H511.7z"/>
			<path class="st11" d="M537.2,587.2c-0.8,0-1.3,0.3-1.3,0.9c0,2.1,6.6,0.9,6.6,5.4c0,2.6-2.3,3.9-5.1,3.9c-2.1,0-4.3-0.8-5.8-2
				l1.3-2.6c1.3,1.1,3.3,1.9,4.6,1.9c1,0,1.6-0.4,1.6-1c0-2.1-6.6-0.8-6.6-5.3c0-2.4,2-3.9,5-3.9c1.9,0,3.7,0.6,5,1.4l-1.2,2.6
				C539.9,587.8,538.3,587.2,537.2,587.2z"/>
		</g>
	</g>
	<rect x="244.2" y="986.4" class="st0" width="34" height="69.4"/>
	<rect x="623.9" y="986.4" class="st0" width="34" height="69.4"/>
	<rect x="244.2" y="1140.6" class="st0" width="34" height="65.5"/>
	<rect x="623.9" y="1140.6" class="st0" width="34" height="65.5"/>
	<rect x="244.2" y="837.1" class="st0" width="34" height="61.9"/>
	<rect x="623.7" y="837.1" class="st0" width="34" height="61.9"/>
	<rect x="244.2" y="606" class="st0" width="34" height="61.9"/>
	<rect x="623.7" y="606" class="st0" width="34" height="61.9"/>
	<g>
		<g>
			<line class="st6" x1="240.7" y1="637" x2="659.9" y2="637"/>
		</g>
		<polyline class="st3" points="236.2,645.2 228.2,637.2 236.2,629.2 		"/>
		<polyline class="st3" points="662.2,629.2 670.2,637.2 662.2,645.2 		"/>
	</g>
	<g>
		<g>
			<line class="st6" x1="240.7" y1="865.3" x2="659.9" y2="865.3"/>
		</g>
		<polyline class="st3" points="236.2,873.5 228.2,865.5 236.2,857.5 		"/>
		<polyline class="st3" points="662.2,857.5 670.2,865.5 662.2,873.5 		"/>
	</g>
	<g>
		<g>
			<line class="st6" x1="240.7" y1="1021" x2="659.9" y2="1021"/>
		</g>
		<polyline class="st3" points="236.2,1029.2 228.2,1021.2 236.2,1013.2 		"/>
		<polyline class="st3" points="662.2,1013.2 670.2,1021.2 662.2,1029.2 		"/>
	</g>
	<g>
		<g>
			<line class="st6" x1="240.7" y1="1171.4" x2="659.9" y2="1171.4"/>
		</g>
		<polyline class="st3" points="236.2,1179.6 228.2,1171.6 236.2,1163.6 		"/>
		<polyline class="st3" points="662.2,1163.6 670.2,1171.6 662.2,1179.6 		"/>
	</g>
	<rect x="244.2" y="1301" class="st0" width="34" height="65.5"/>
	<rect x="623.9" y="1301" class="st0" width="34" height="65.5"/>
	<g>
		<g>
			<line class="st6" x1="240.7" y1="1331.8" x2="659.9" y2="1331.8"/>
		</g>
		<polyline class="st3" points="236.2,1340 228.2,1332 236.2,1324 		"/>
		<polyline class="st3" points="662.2,1324 670.2,1332 662.2,1340 		"/>
	</g>
	<g>
		<g>
			<path class="st4" d="M478.8,514.8c0,1.4-1.1,2.5-2.5,2.5h-4.8v9.3l-11.7-9.3h-15.6c-1.4,0-2.5-1.1-2.5-2.5v-21.6
				c0-1.4,1.1-2.5,2.5-2.5h32.2c1.4,0,2.5,1.1,2.5,2.5v21.6H478.8z"/>
		</g>
	</g>
	<g>
		<path class="st3" d="M421.1,528.7c0,1.4,1.1,2.5,2.5,2.5h4.8v9.3l11.7-9.3h15.6c1.4,0,2.5-1.1,2.5-2.5V507c0-1.4-1.1-2.5-2.5-2.5
			h-32.2c-1.4,0-2.5,1.1-2.5,2.5v21.7H421.1z"/>
	</g>
	<g>
		<path class="st10" d="M465,1227.6c-1.7-3-4.1-5.3-7-7c-3-1.7-6.2-2.6-9.7-2.6s-6.7,0.9-9.7,2.6s-5.3,4.1-7,7
			c-1.7,3-2.6,6.2-2.6,9.7c0,4.2,1.2,8,3.7,11.3c2.5,3.4,5.6,5.7,9.5,7c0.5,0.1,0.8,0,1-0.2s0.3-0.5,0.3-0.8c0,0,0-0.5,0-1.4
			s0-1.6,0-2.2l-0.6,0.1c-0.4,0.1-0.8,0.1-1.4,0.1s-1.1-0.1-1.7-0.2s-1.2-0.4-1.7-0.8s-0.9-0.9-1.1-1.5l-0.3-0.6
			c-0.2-0.4-0.4-0.8-0.8-1.3s-0.7-0.8-1.1-1l-0.2-0.1c-0.1-0.1-0.2-0.2-0.3-0.3c-0.1-0.1-0.2-0.2-0.2-0.4c0-0.1,0-0.2,0.1-0.3
			c0.1-0.1,0.4-0.1,0.7-0.1l0.5,0.1c0.3,0.1,0.8,0.3,1.2,0.6c0.5,0.3,0.9,0.8,1.2,1.3c0.4,0.7,0.8,1.2,1.4,1.6
			c0.5,0.4,1.1,0.5,1.6,0.5c0.6,0,1,0,1.4-0.1s0.8-0.2,1.1-0.4c0.2-1.1,0.6-2,1.2-2.6c-1-0.1-1.8-0.3-2.6-0.5
			c-0.8-0.2-1.6-0.5-2.4-1s-1.5-1-2-1.7s-1-1.6-1.3-2.6c-0.3-1.1-0.5-2.3-0.5-3.8c0-2,0.7-3.8,2-5.2c-0.6-1.5-0.6-3.2,0.2-5.1
			c0.5-0.2,1.2,0,2.2,0.3c1,0.4,1.7,0.7,2.1,1s0.8,0.5,1.1,0.7c1.6-0.4,3.2-0.7,4.8-0.7c1.7,0,3.3,0.2,4.8,0.7l1-0.6
			c0.7-0.4,1.4-0.8,2.3-1.1c0.9-0.3,1.6-0.4,2-0.3c0.8,1.9,0.8,3.6,0.2,5.1c1.3,1.4,2,3.2,2,5.2c0,1.4-0.2,2.7-0.5,3.8
			c-0.3,1.1-0.8,2-1.3,2.6c-0.5,0.7-1.2,1.2-2,1.7s-1.6,0.8-2.4,1s-1.6,0.4-2.6,0.5c0.9,0.8,1.3,1.9,1.3,3.6v5.3
			c0,0.3,0.1,0.6,0.3,0.8c0.2,0.2,0.5,0.3,1,0.2c3.9-1.3,7.1-3.6,9.5-7c2.5-3.4,3.7-7.1,3.7-11.3
			C467.6,1233.8,466.7,1230.6,465,1227.6L465,1227.6z"/>
	</g>
</g>
<g>
	<path class="st4" d="M1246.7,1292.9v4.3h-6v15.8h-5.2v-15.8h-6v-4.3H1246.7z"/>
	<path class="st4" d="M1264.6,1292.9v4.2H1254v3.8h9.6v4.2h-9.6v3.8h10.9v4.2h-16.1v-20.1H1264.6z"/>
	<path class="st4" d="M1281.5,1309.5h-8.7l-1.4,3.6h-5.4l8.6-20.1h5.4l8.4,20.1h-5.6L1281.5,1309.5z M1280,1305.5l-2.8-7.2l-2.8,7.2
		H1280z"/>
	<path class="st4" d="M1296,1292.9l5.3,11.7l5.3-11.7h5.7v20.1h-4.6l0-12.7l-4.7,10.7h-3.4l-4.7-10.7v12.7h-4.7v-20.1H1296z"/>
	<path class="st4" d="M1338.3,1292.9v4.3h-6v15.8h-5.2v-15.8h-6v-4.3H1338.3z"/>
	<path class="st4" d="M1356.3,1292.9v4.2h-10.6v3.8h9.6v4.2h-9.6v3.8h10.9v4.2h-16.1v-20.1H1356.3z"/>
	<path class="st4" d="M1369.3,1297.2c-3.1,0-5.4,2.4-5.4,5.6c0,3.2,2.3,5.7,5.4,5.7c1.7,0,3.6-0.9,5-2.3l3.1,3.3
		c-2.1,2.3-5.4,3.7-8.3,3.7c-6,0-10.5-4.4-10.5-10.3c0-5.8,4.6-10.1,10.7-10.1c3,0,6.1,1.3,8.1,3.4l-3,3.6
		C1373,1298.3,1371.1,1297.2,1369.3,1297.2z"/>
	<path class="st4" d="M1384.9,1292.9v8.2h8.1v-8.2h5.2v20.1h-5.2v-7.7h-8.1v7.7h-5.2v-20.1H1384.9z"/>
	<path class="st4" d="M1282.1,1327.3v15.6h8.5v4.5h-13.7v-20.1H1282.1z"/>
	<path class="st4" d="M1308.9,1327.3v4.2h-10.6v3.8h9.6v4.2h-9.6v3.8h10.9v4.2H1293v-20.1H1308.9z"/>
	<path class="st4" d="M1325.7,1343.8h-8.7l-1.4,3.6h-5.4l8.6-20.1h5.4l8.4,20.1h-5.6L1325.7,1343.8z M1324.2,1339.8l-2.7-7.2
		l-2.8,7.2H1324.2z"/>
	<path class="st4" d="M1353.8,1337.3c0,6-4.4,10.1-10.9,10.1h-8.4v-20.1h8.6C1349.5,1327.3,1353.8,1331.4,1353.8,1337.3z
		 M1348.5,1337.4c0-3.5-2.3-5.8-5.4-5.8h-3.3v11.6h3.6C1346.3,1343.1,1348.5,1340.8,1348.5,1337.4z"/>
</g>
</svg>
