<?xml version="1.0" encoding="UTF-8"?>
<svg width="112px" height="96px" viewBox="0 0 112 96" version="1.1" xmlns="http://www.w3.org/2000/svg" xmlns:xlink="http://www.w3.org/1999/xlink">
    <!-- Generator: Sketch 61.2 (89653) - https://sketch.com -->
    <title>user-heart</title>
    <desc>Created with Sketch.</desc>
    <g id="Mockups" stroke="none" stroke-width="1" fill="none" fill-rule="evenodd">
        <g id="GoogleAds-|-Landing" transform="translate(-300.000000, -2134.000000)" fill="#4F4959" fill-rule="nonzero">
            <g id="user-heart" transform="translate(300.000000, 2134.000000)">
                <path d="M81.2925377,0.108631075 C68.8653124,0.108631075 60.0466756,5.51896789 55.6199593,9.04523428 C51.1923943,5.51896789 42.3737575,0.108631075 29.9465324,0.108631075 C-6.56114727,0.108631075 -21.2237964,65.5266041 54.0074667,95.5283006 C55.0326725,95.9365157 56.1860291,95.9450027 57.2316032,95.5283006 C132.495965,65.513874 117.767967,0.108631075 81.2925377,0.108631075 L81.2925377,0.108631075 Z M55.6199593,86.7902885 C47.2782809,83.3429493 39.9550188,79.3558492 33.6883636,74.8612385 C47.3368397,67.6355747 63.8742237,67.6202984 77.5507062,74.8612385 C71.2840511,79.3558492 63.960789,83.3429493 55.6199593,86.7902885 Z M42.8558079,47.9733501 C42.8558079,40.9352444 48.5818538,35.2091987 55.6199593,35.2091987 C62.6572161,35.2091987 68.383262,40.9352444 68.383262,47.9733501 C68.383262,55.0114555 62.6572161,60.7366528 55.6199593,60.7366528 C48.5818538,60.7366528 42.8558079,55.0114555 42.8558079,47.9733501 L42.8558079,47.9733501 Z M84.8128635,68.9951604 C80.4905347,66.3269096 75.8626812,64.2832875 71.0345392,62.8965441 C84.1933268,49.3083241 74.4632075,26.506831 55.6199593,26.506831 C43.7825667,26.506831 34.1525916,36.1368062 34.1525916,47.9733501 C34.1525916,53.7664415 36.4610019,59.0308053 40.2045307,62.8965441 C35.3763887,64.2832875 30.7485352,66.3269096 26.4262064,68.9951604 C-3.43121441,41.7262146 8.92302432,8.81099874 29.9465324,8.81099874 C35.8024261,8.81099874 41.3366703,10.3072219 46.3956534,13.2572346 C50.1425769,15.4425863 52.2532445,17.6729181 52.3881848,17.8171936 C54.0626311,19.7122968 57.0720513,19.8005596 58.8585232,17.8078583 C58.9399965,17.7187469 67.0915707,8.81099874 81.2925377,8.81099874 C102.385637,8.81099874 114.610877,41.7796813 84.8128635,68.9951604 Z" id="Shape"></path>
            </g>
        </g>
    </g>
</svg>