<svg width="71" height="71" viewBox="0 0 71 71" fill="none" xmlns="http://www.w3.org/2000/svg">
<path d="M56.8831 37.4382L52.2587 24.3353L56.8831 11.2324H28.1C29.6167 10.0927 30.5999 8.27914 30.5999 6.24023C30.5999 2.79944 27.801 0 24.3597 0C20.9189 0 18.1194 2.79944 18.1194 6.24023C18.1194 8.95192 19.8588 11.2638 22.2796 12.123V56.486H17.8421V66.8398H14.0059V71H55.4227V66.8398H51.5859V56.4855H26.4397V37.4382H56.8831ZM47.4258 66.8398H22.0022V60.6457H47.4258V66.8398ZM51.0031 33.278H26.4397V15.3926H51.0031L47.8467 24.3353L51.0031 33.278ZM24.3597 4.16016C25.507 4.16016 26.4397 5.09348 26.4397 6.24023C26.4397 7.38699 25.507 8.32031 24.3597 8.32031C23.2129 8.32031 22.2796 7.38699 22.2796 6.24023C22.2796 5.09348 23.2129 4.16016 24.3597 4.16016Z" fill="#4F4959"/>
<g style="mix-blend-mode:darken">
<path d="M31 41V19H62L57.5614 29.9L62 41H31Z" fill="#72C02C"/>
</g>
</svg>
