<svg width="60" height="52" viewBox="0 0 60 52" fill="none" xmlns="http://www.w3.org/2000/svg">
<path fill-rule="evenodd" clip-rule="evenodd" d="M8.8833 7.0108H15.8222V0H8.8833V7.0108Z" fill="#74BE44"/>
<path fill-rule="evenodd" clip-rule="evenodd" d="M8.82373 33.5235H15.8225V26.5013H8.82373V33.5235Z" fill="#74BE44"/>
<path fill-rule="evenodd" clip-rule="evenodd" d="M0.0498047 24.6921H6.98874V17.6652H0.0498047V24.6921Z" fill="#74BE44"/>
<path fill-rule="evenodd" clip-rule="evenodd" d="M8.83887 24.6586H15.7827V17.6478H8.83887V24.6586Z" fill="#74BE44"/>
<path fill-rule="evenodd" clip-rule="evenodd" d="M0 15.8027H6.94702V8.79675H0V15.8027Z" fill="#74BE44"/>
<path fill-rule="evenodd" clip-rule="evenodd" d="M8.83887 15.8214H15.8489V8.84131H8.83887V15.8214Z" fill="#74BE44"/>
<path fill-rule="evenodd" clip-rule="evenodd" d="M26.5977 42.3532H33.4558V35.3279H26.5977V42.3532Z" fill="#74BE44"/>
<path fill-rule="evenodd" clip-rule="evenodd" d="M17.6646 6.97841H24.6439V0.0371094H17.6646V6.97841Z" fill="#74BE44"/>
<path fill-rule="evenodd" clip-rule="evenodd" d="M35.4292 7.00987H42.3261V0.0297852H35.4292V7.00987Z" fill="#74BE44"/>
<path fill-rule="evenodd" clip-rule="evenodd" d="M44.229 6.97153H51.1195V0.0124512H44.229V6.97153Z" fill="#74BE44"/>
<path fill-rule="evenodd" clip-rule="evenodd" d="M17.6929 15.8404H24.6189V8.82153H17.6929V15.8404Z" fill="#74BE44"/>
<path fill-rule="evenodd" clip-rule="evenodd" d="M26.5684 24.7019H33.4394V17.6749H26.5684V24.7019Z" fill="#74BE44"/>
<path fill-rule="evenodd" clip-rule="evenodd" d="M35.3867 24.6946H42.3354V17.6774H35.3867V24.6946Z" fill="#74BE44"/>
<path fill-rule="evenodd" clip-rule="evenodd" d="M44.2085 24.6957H51.1103V17.6849H44.2085V24.6957Z" fill="#74BE44"/>
<path fill-rule="evenodd" clip-rule="evenodd" d="M53.1294 24.6929H59.9908V17.6676H53.1294V24.6929Z" fill="#74BE44"/>
<path fill-rule="evenodd" clip-rule="evenodd" d="M53.1187 15.8488H59.9994V8.80408H53.1187V15.8488Z" fill="#74BE44"/>
<path fill-rule="evenodd" clip-rule="evenodd" d="M44.2734 15.842H51.1687V8.81665H44.2734V15.842Z" fill="#74BE44"/>
<path fill-rule="evenodd" clip-rule="evenodd" d="M17.7437 24.6986H24.626V17.6652H17.7437V24.6986Z" fill="#74BE44"/>
<path fill-rule="evenodd" clip-rule="evenodd" d="M17.6929 33.5294H24.6124V26.5089H17.6929V33.5294Z" fill="#74BE44"/>
<path fill-rule="evenodd" clip-rule="evenodd" d="M26.6074 33.559H33.4543V26.4965H26.6074V33.559Z" fill="#74BE44"/>
<path fill-rule="evenodd" clip-rule="evenodd" d="M35.3823 33.5274H42.2825V26.494H35.3823V33.5274Z" fill="#74BE44"/>
<path fill-rule="evenodd" clip-rule="evenodd" d="M44.2139 33.5335H51.114V26.5211H44.2139V33.5335Z" fill="#74BE44"/>
<path fill-rule="evenodd" clip-rule="evenodd" d="M35.439 15.8436H42.3359V8.81665H35.439V15.8436Z" fill="#74BE44"/>
<path fill-rule="evenodd" clip-rule="evenodd" d="M26.5684 15.8057H33.4378V8.82886H26.5684V15.8057Z" fill="#74BE44"/>
<path fill-rule="evenodd" clip-rule="evenodd" d="M17.7397 42.3275H24.6981V35.3425H17.7397V42.3275Z" fill="#74BE44"/>
<path fill-rule="evenodd" clip-rule="evenodd" d="M35.4043 42.3853H42.2867V35.36H35.4043V42.3853Z" fill="#74BE44"/>
<path fill-rule="evenodd" clip-rule="evenodd" d="M26.5654 51.172H33.4413V44.1887H26.5654V51.172Z" fill="#74BE44"/>
</svg>
