<svg width="108" height="80" viewBox="0 0 108 80" fill="none" xmlns="http://www.w3.org/2000/svg">
<path fill-rule="evenodd" clip-rule="evenodd" d="M77.0322 63.6533V79.7179V63.6533Z" fill="#4F4959"/>
<path d="M77.0322 63.6533V79.7179" stroke="#4F4959" stroke-width="4.54909"/>
<path fill-rule="evenodd" clip-rule="evenodd" d="M85.0617 71.6851H69H85.0617Z" fill="#4F4959"/>
<path d="M85.0617 71.6851H69" stroke="#4F4959" stroke-width="4.54909"/>
<path fill-rule="evenodd" clip-rule="evenodd" d="M100.136 55.5394C100.136 59.2575 97.1242 62.2693 93.4088 62.2693C89.6922 62.2693 86.6807 59.2575 86.6807 55.5394C86.6807 51.8235 89.6922 48.8105 93.4088 48.8105C97.1242 48.8105 100.136 51.8235 100.136 55.5394Z" stroke="#74BE44" stroke-width="4.54909"/>
<path d="M93.4102 47.3626V41" stroke="#74BE44" stroke-width="4.54909"/>
<path d="M93.4102 70.0813V63.7188" stroke="#74BE44" stroke-width="4.54909"/>
<path d="M86.3255 51.4508L80.8154 48.2695" stroke="#74BE44" stroke-width="4.54909"/>
<path d="M106 62.8112L100.491 59.6299" stroke="#74BE44" stroke-width="4.54909"/>
<path d="M86.3255 59.6299L80.8154 62.8112" stroke="#74BE44" stroke-width="4.54909"/>
<path d="M106 48.2695L100.491 51.4508" stroke="#74BE44" stroke-width="4.54909"/>
<path fill-rule="evenodd" clip-rule="evenodd" d="M0 20.8223H70V5.86462H0V20.8223Z" fill="#74BE44"/>
<path fill-rule="evenodd" clip-rule="evenodd" d="M69.6436 64.6186H0.352051V20.8468H3.53419V61.4362H66.4615V20.8468H69.6436V64.6186Z" fill="#4F4959"/>
<path fill-rule="evenodd" clip-rule="evenodd" d="M11.7295 12.9901H14.9116V0H11.7295V12.9901Z" fill="#666666"/>
<path fill-rule="evenodd" clip-rule="evenodd" d="M55.0889 12.9901H58.271V0H55.0889V12.9901Z" fill="#666666"/>
<path fill-rule="evenodd" clip-rule="evenodd" d="M12.0957 31.8335H15.8214V28.651H12.0957V31.8335Z" fill="#666666"/>
<path fill-rule="evenodd" clip-rule="evenodd" d="M19.1099 31.8335H22.8355V28.651H19.1099V31.8335Z" fill="#666666"/>
<path fill-rule="evenodd" clip-rule="evenodd" d="M26.1211 31.8335H29.8491V28.651H26.1211V31.8335Z" fill="#666666"/>
<path fill-rule="evenodd" clip-rule="evenodd" d="M33.1353 31.8335H36.8632V28.651H33.1353V31.8335Z" fill="#666666"/>
<path fill-rule="evenodd" clip-rule="evenodd" d="M40.1494 31.8335H43.8751V28.651H40.1494V31.8335Z" fill="#666666"/>
<path fill-rule="evenodd" clip-rule="evenodd" d="M47.1636 31.8335H50.8892V28.651H47.1636V31.8335Z" fill="#666666"/>
<path fill-rule="evenodd" clip-rule="evenodd" d="M54.1738 31.8335H57.9018V28.651H54.1738V31.8335Z" fill="#666666"/>
<path fill-rule="evenodd" clip-rule="evenodd" d="M12.0957 39.047H15.8214V35.8645H12.0957V39.047Z" fill="#666666"/>
<path fill-rule="evenodd" clip-rule="evenodd" d="M19.1099 39.047H22.8355V35.8645H19.1099V39.047Z" fill="#666666"/>
<path fill-rule="evenodd" clip-rule="evenodd" d="M26.1211 39.047H29.8491V35.8645H26.1211V39.047Z" fill="#666666"/>
<path fill-rule="evenodd" clip-rule="evenodd" d="M33.1353 39.047H36.8632V35.8645H33.1353V39.047Z" fill="#666666"/>
<path fill-rule="evenodd" clip-rule="evenodd" d="M40.1494 39.047H43.8751V35.8645H40.1494V39.047Z" fill="#666666"/>
<path fill-rule="evenodd" clip-rule="evenodd" d="M47.1636 39.047H50.8892V35.8645H47.1636V39.047Z" fill="#666666"/>
<path fill-rule="evenodd" clip-rule="evenodd" d="M54.1738 39.047H57.9018V35.8645H54.1738V39.047Z" fill="#666666"/>
<path fill-rule="evenodd" clip-rule="evenodd" d="M12.0957 46.2605H15.8214V43.078H12.0957V46.2605Z" fill="#666666"/>
<path fill-rule="evenodd" clip-rule="evenodd" d="M19.1099 46.2605H22.8355V43.078H19.1099V46.2605Z" fill="#666666"/>
<path fill-rule="evenodd" clip-rule="evenodd" d="M26.1211 46.2605H29.8491V43.078H26.1211V46.2605Z" fill="#666666"/>
<path fill-rule="evenodd" clip-rule="evenodd" d="M33.1353 46.2605H36.8632V43.078H33.1353V46.2605Z" fill="#666666"/>
<path fill-rule="evenodd" clip-rule="evenodd" d="M40.1494 46.2605H43.8751V43.078H40.1494V46.2605Z" fill="#666666"/>
<path fill-rule="evenodd" clip-rule="evenodd" d="M47.1636 46.2605H50.8892V43.078H47.1636V46.2605Z" fill="#666666"/>
<path fill-rule="evenodd" clip-rule="evenodd" d="M54.1738 46.2605H57.9018V43.078H54.1738V46.2605Z" fill="#666666"/>
<path fill-rule="evenodd" clip-rule="evenodd" d="M12.0957 53.4739H15.8214V50.2914H12.0957V53.4739Z" fill="#666666"/>
<path fill-rule="evenodd" clip-rule="evenodd" d="M19.1099 53.4739H22.8355V50.2914H19.1099V53.4739Z" fill="#666666"/>
<path fill-rule="evenodd" clip-rule="evenodd" d="M26.1211 53.4739H29.8491V50.2914H26.1211V53.4739Z" fill="#666666"/>
<path fill-rule="evenodd" clip-rule="evenodd" d="M33.1353 53.4739H36.8632V50.2914H33.1353V53.4739Z" fill="#666666"/>
<path fill-rule="evenodd" clip-rule="evenodd" d="M40.1494 53.4739H43.8751V50.2914H40.1494V53.4739Z" fill="#666666"/>
<path fill-rule="evenodd" clip-rule="evenodd" d="M47.1636 53.4739H50.8892V50.2914H47.1636V53.4739Z" fill="#666666"/>
<path fill-rule="evenodd" clip-rule="evenodd" d="M54.1738 53.4739H57.9018V50.2914H54.1738V53.4739Z" fill="#666666"/>
</svg>
