<svg width="82" height="82" viewBox="0 0 82 82" fill="none" xmlns="http://www.w3.org/2000/svg">
<g clip-path="url(#clip0)">
<g style="mix-blend-mode:multiply">
<circle cx="33.7344" cy="36.5771" r="15.5176" fill="#72C02C"/>
</g>
<g style="mix-blend-mode:multiply">
<circle cx="58.2871" cy="28.7344" r="15.5176" fill="#72C02C"/>
</g>
<g style="mix-blend-mode:multiply">
<circle cx="53.5283" cy="53.5039" r="15.5176" fill="#72C02C"/>
</g>
<path d="M75.967 27.9977C78.6488 25.0226 80.2839 21.087 80.2839 16.7758C80.2839 7.52537 72.7585 0 63.5082 0C57.6778 0 52.5334 2.99068 49.5259 7.51726C47.97 7.30007 46.3923 7.18961 44.8152 7.18961C39.4454 7.18961 34.1019 8.48399 29.3619 10.9329C25.1598 13.1036 21.4128 16.1872 18.4539 19.8925C18.4271 19.8919 18.4002 19.8912 18.3734 19.8912C9.12303 19.8912 1.59766 27.4166 1.59766 36.667C1.59766 44.1125 6.47373 50.4396 13.1996 52.6252C17.8392 65.144 29.5054 73.7765 42.8387 74.5541C45.8693 78.9297 50.9245 81.8018 56.6381 81.8018C65.8885 81.8018 73.4138 74.2764 73.4138 65.026C73.4138 63.2586 73.138 61.5548 72.6294 59.954C76.4913 54.3333 78.5265 47.7741 78.5265 40.9009C78.5265 36.4161 77.6652 32.0836 75.967 27.9977ZM61.1116 16.7758C61.1116 15.4545 62.187 14.3792 63.5082 14.3792C64.8294 14.3792 65.9047 15.4545 65.9047 16.7758C65.9047 18.097 64.8294 19.1723 63.5082 19.1723C62.187 19.1723 61.1116 18.097 61.1116 16.7758ZM58.7151 26.3619C58.7151 25.0407 59.7904 23.9654 61.1116 23.9654H65.9047C67.2259 23.9654 68.3012 25.0407 68.3012 26.3619V27.7549C66.8321 28.3983 65.212 28.7584 63.5082 28.7584C61.8044 28.7584 60.1842 28.3983 58.7151 27.7549V26.3619ZM63.5082 4.79307C70.1155 4.79307 75.4908 10.1684 75.4908 16.7758C75.4908 19.6379 74.4811 22.2678 72.8004 24.3311C72.3048 22.6516 71.2127 21.2274 69.7691 20.3038C70.3595 19.2609 70.6978 18.057 70.6978 16.7758C70.6978 12.8115 67.4724 9.58614 63.5082 9.58614C59.5439 9.58614 56.3186 12.8115 56.3186 16.7758C56.3186 18.0576 56.6574 19.2609 57.2472 20.3038C55.8037 21.2274 54.7115 22.6516 54.216 24.3311C52.5353 22.2678 51.5255 19.6379 51.5255 16.7758C51.5255 10.1684 56.9008 4.79307 63.5082 4.79307ZM6.39073 36.667C6.39073 30.0597 11.7661 24.6843 18.3734 24.6843C24.9807 24.6843 30.3561 30.0597 30.3561 36.667C30.3561 39.5291 29.3463 42.1591 27.6656 44.2223C27.1701 42.5429 26.0779 41.1187 24.6344 40.195C25.2248 39.1522 25.563 37.9483 25.563 36.667C25.563 32.7027 22.3377 29.4774 18.3734 29.4774C14.4091 29.4774 11.1838 32.7027 11.1838 36.667C11.1838 37.9489 11.5227 39.1522 12.1125 40.195C10.6689 41.1187 9.57675 42.5429 9.08121 44.2223C7.40052 42.1591 6.39073 39.5291 6.39073 36.667ZM15.9769 36.667C15.9769 35.3458 17.0522 34.2705 18.3734 34.2705C19.6946 34.2705 20.7699 35.3458 20.7699 36.667C20.7699 37.9882 19.6946 39.0635 18.3734 39.0635C17.0522 39.0635 15.9769 37.9882 15.9769 36.667ZM13.5803 47.6461V46.2531C13.5803 44.9319 14.6557 43.8566 15.9769 43.8566H20.7699C22.0912 43.8566 23.1665 44.9319 23.1665 46.2531V47.6461C21.6974 48.2896 20.0772 48.6497 18.3734 48.6497C16.6696 48.6497 15.0495 48.2896 13.5803 47.6461ZM54.2416 65.026C54.2416 63.7048 55.3169 62.6295 56.6381 62.6295C57.9593 62.6295 59.0346 63.7048 59.0346 65.026C59.0346 66.3472 57.9593 67.4225 56.6381 67.4225C55.3169 67.4225 54.2416 66.3472 54.2416 65.026ZM51.845 76.0051V74.6122C51.845 73.2909 52.9203 72.2156 54.2416 72.2156H59.0346C60.3558 72.2156 61.4312 73.2909 61.4312 74.6122V76.0051C59.962 76.6486 58.3419 77.0087 56.6381 77.0087C54.9343 77.0087 53.3142 76.6486 51.845 76.0051ZM65.9303 72.5813C65.4348 70.9019 64.3426 69.4777 62.899 68.554C63.4894 67.5112 63.8277 66.3073 63.8277 65.026C63.8277 61.0617 60.6024 57.8364 56.6381 57.8364C52.6738 57.8364 49.4485 61.0617 49.4485 65.026C49.4485 66.3079 49.7874 67.5112 50.3771 68.554C48.9336 69.4777 47.8414 70.9019 47.3459 72.5813C45.6652 70.5181 44.6554 67.8881 44.6554 65.026C44.6554 58.4187 50.0308 53.0433 56.6381 53.0433C63.2454 53.0433 68.6208 58.4187 68.6208 65.026C68.6208 67.8881 67.611 70.5181 65.9303 72.5813ZM70.0755 54.993C67.0131 50.9027 62.1295 48.2503 56.6381 48.2503C47.3877 48.2503 39.8623 55.7756 39.8623 65.026C39.8623 66.5713 40.0733 68.0685 40.4665 69.4908C31.037 68.0585 22.8806 62.0285 18.7472 53.4378C27.8254 53.238 35.1492 45.7919 35.1492 36.667C35.1492 29.3825 30.4815 23.1684 23.9803 20.8561C29.3962 15.2461 36.9416 11.9827 44.8152 11.9827C45.6771 11.9827 46.5389 12.022 47.3971 12.0981C46.9646 13.5835 46.7324 15.1531 46.7324 16.7758C46.7324 26.0261 54.2578 33.5515 63.5082 33.5515C66.6324 33.5515 69.5588 32.6921 72.0658 31.1993C73.1717 34.2973 73.7334 37.5482 73.7334 40.9009C73.7334 45.9024 72.4771 50.708 70.0755 54.993Z" fill="#4F4959"/>
</g>
<defs>
<clipPath id="clip0">
<rect width="81.8018" height="81.8018" fill="white"/>
</clipPath>
</defs>
</svg>
