<svg width="110" height="77" viewBox="0 0 110 77" fill="none" xmlns="http://www.w3.org/2000/svg">
<path d="M35.3574 53.0488H46.2847C50.6771 53.0488 54.2356 56.2004 54.2356 60.0885V76.1707" stroke="#4F4959" stroke-width="2.99655"/>
<path d="M20.8781 53.0488H9.9509C5.55848 53.0488 2 56.2004 2 60.0885V76.1707" stroke="#4F4959" stroke-width="2.99655"/>
<path d="M21.9956 54.4357L21.9961 48.059" stroke="#4F4959" stroke-width="2.99655"/>
<path d="M35.359 48.0592L35.3574 54.436" stroke="#4F4959" stroke-width="2.99655"/>
<path fill-rule="evenodd" clip-rule="evenodd" d="M20.8496 63.6523L28.6499 58.4964L21.4651 54.3478L20.8496 63.6523Z" stroke="#4F4959" stroke-width="2.99655"/>
<path fill-rule="evenodd" clip-rule="evenodd" d="M36.4921 63.6535L28.6919 58.4965L35.8761 54.3474L36.4921 63.6535Z" stroke="#4F4959" stroke-width="2.99655"/>
<path d="M44.7339 24.8848H44.9921C46.695 24.8848 48.0761 26.266 48.0761 27.9696V33.6248C48.0761 35.33 46.695 36.7112 44.9921 36.7112H44.7339" stroke="#4F4959" stroke-width="2.99655"/>
<path d="M44.4567 21.6451V34.1447C44.4567 42.775 37.4619 49.7695 28.8341 49.7695C20.2048 49.7695 13.21 42.775 13.21 34.1447V21.6451" stroke="#4F4959" stroke-width="2.99655"/>
<path fill-rule="evenodd" clip-rule="evenodd" d="M23.2546 5.17334C20.7259 5.17334 18.5038 6.47388 17.2115 8.44218H14.7302C11.6376 8.44218 9.12988 10.9496 9.12988 14.0436V40.982H13.0709V22.2568C13.0709 20.0787 14.8372 18.3133 17.013 18.3133H19.313H38.6926H42.3065C46.2976 18.3133 49.5338 15.0778 49.5338 11.0868V5.17334H23.2546Z" stroke="#4F4959" stroke-width="2.99655"/>
<path fill-rule="evenodd" clip-rule="evenodd" d="M13.2097 24.9166C11.6586 25.0775 9.12988 26.3743 9.12988 27.9692V33.6249C9.12988 35.2203 11.6586 36.5171 13.2097 36.678V24.9166Z" stroke="#4F4959" stroke-width="2.99655"/>
<path d="M25.5303 40.1028C26.2803 41.4044 27.5064 42.2556 28.8967 42.2556C30.2859 42.2556 31.5125 41.4044 32.2631 40.1028" stroke="#4F4959" stroke-width="2.99655"/>
<path fill-rule="evenodd" clip-rule="evenodd" d="M13.5664 24.9596V27.466C13.5664 31.0383 16.4626 33.9332 20.0334 33.9332C23.6038 33.9332 26.4989 31.0383 26.4989 27.466V24.9596H13.5664Z" stroke="#4F4959" stroke-width="2.99655"/>
<path fill-rule="evenodd" clip-rule="evenodd" d="M31.5127 24.9596V27.466C31.5127 31.0383 34.4083 33.9332 37.9786 33.9332C41.5495 33.9332 44.4441 31.0383 44.4441 27.466V24.9596H31.5127Z" stroke="#4F4959" stroke-width="2.99655"/>
<path d="M22.7642 28.4589H19.9175" stroke="#4F4959" stroke-width="2.99655"/>
<path d="M38.5318 28.4589H35.6841" stroke="#4F4959" stroke-width="2.99655"/>
<path d="M26.4873 24.9596H32.4002" stroke="#4F4959" stroke-width="2.99655"/>
<path d="M97.1343 25.6377V49.6232C97.1343 53.1643 95.7425 56.3798 93.4736 58.7517" stroke="#4F4959" stroke-width="2.99655"/>
<path d="M68.2654 58.1358C66.3259 55.8372 65.1567 52.867 65.1567 49.6229V25.6379" stroke="#4F4959" stroke-width="2.99655"/>
<path d="M73.8211 57.1188C64.7387 58.9961 57.2624 64.4856 53.4897 71.7486" stroke="#4F4959" stroke-width="2.99655"/>
<path d="M108 71.7486C104.233 64.4969 96.7735 59.0128 87.71 57.1268" stroke="#4F4959" stroke-width="2.99655"/>
<path d="M96.2871 31.1041C99.4103 31.1041 101.943 33.6374 101.943 36.7615C101.943 39.8861 99.4103 42.4178 96.2871 42.4178" stroke="#4F4959" stroke-width="2.99655"/>
<path d="M66.0059 42.4179C62.8816 42.4179 60.3486 39.8863 60.3486 36.7611C60.3486 33.637 62.8816 31.1042 66.0059 31.1042" stroke="#4F4959" stroke-width="2.99655"/>
<path d="M86.6541 51.7443V57.4447C86.6541 60.7081 84.0081 63.3539 80.745 63.3539C77.4814 63.3539 74.8359 60.7081 74.8359 57.4447V51.7443" stroke="#4F4959" stroke-width="2.99655"/>
<path fill-rule="evenodd" clip-rule="evenodd" d="M97.1341 39.1952C97.1341 46.4905 91.2212 52.4045 83.9257 52.4045H78.3647C71.0701 52.4045 65.1567 46.4905 65.1567 39.1952V15.2102C65.1567 7.91441 71.0701 2.00037 78.3647 2.00037H83.9257C91.2212 2.00037 97.1341 7.91441 97.1341 15.2102V39.1952Z" stroke="#4F4959" stroke-width="2.99655"/>
<path fill-rule="evenodd" clip-rule="evenodd" d="M83.9262 2H78.3652C71.0701 2 65.1567 7.91458 65.1567 15.2099V31.0267C71.7534 30.4284 78.0295 24.2733 81.1457 15.4633C84.2614 24.2733 90.5385 30.4284 97.1346 31.0278V15.2099C97.1346 7.91458 91.2218 2 83.9262 2Z" stroke="#4F4959" stroke-width="2.99655"/>
<path d="M69.7271 33.64C69.7271 32.2938 71.544 31.2009 73.787 31.2009C76.0311 31.2009 77.8485 32.2938 77.8485 33.64" stroke="#4F4959" stroke-width="2.99655"/>
<path d="M82.9351 33.64C82.9351 32.2938 84.753 31.2009 86.9961 31.2009C89.2391 31.2009 91.057 32.2938 91.057 33.64" stroke="#4F4959" stroke-width="2.99655"/>
<path fill-rule="evenodd" clip-rule="evenodd" d="M75.4771 39.5427V41.9759C75.4771 43.8963 77.0335 45.4519 78.9532 45.4519H81.3862C83.3064 45.4519 84.8618 43.8963 84.8618 41.9759V39.5427H75.4771Z" stroke="#4F4959" stroke-width="2.99655"/>
</svg>
